<svg xmlns="http://www.w3.org/2000/svg" width="769.681" height="643.5" viewBox="0 0 769.681 643.5">
  <g id="Group_13" data-name="Group 13" transform="translate(-1053.5 -436.5)">
    <g id="Rectangle_13" data-name="Rectangle 13" transform="translate(1302 650)" fill="#6c63ff" stroke="#6c63ff" stroke-width="1">
      <rect width="272" height="271" rx="18" stroke="none"/>
      <rect x="0.5" y="0.5" width="271" height="270" rx="17.5" fill="none"/>
    </g>
    <circle id="Ellipse_15" data-name="Ellipse 15" cx="23" cy="23" r="23" transform="translate(1415 583)" fill="#6c63ff"/>
    <rect id="Rectangle_12" data-name="Rectangle 12" width="11" height="16" transform="translate(1191 742)" fill="#ffb8b8"/>
    <path id="Path_28" data-name="Path 28" d="M375.537,314.457a8,8,0,0,0,0,16H476.1v-3.49a14.978,14.978,0,0,1,6.741-12.511Z" transform="translate(827.055 339.618)" fill="#ced4da"/>
    <path id="Path_29" data-name="Path 29" d="M467.041,296.457h-34a8,8,0,0,1,0-16h34a8,8,0,0,1,0,16Z" transform="translate(827.055 339.618)" fill="#ced4da"/>
    <path id="Path_30" data-name="Path 30" d="M390.786,239.457h-132a8,8,0,0,1,0-16h132a8,8,0,0,1,0,16Z" transform="translate(827.055 339.618)" fill="#ced4da"/>
    <path id="Path_31" data-name="Path 31" d="M333.286,205.457h-17a8,8,0,0,1,0-16h17a8,8,0,0,1,0,16Z" transform="translate(827.055 339.618)" fill="#ced4da"/>
    <path id="Path_32" data-name="Path 32" d="M475.092,475.351H350.654a17.019,17.019,0,0,1-17-17V261.511a17.019,17.019,0,0,1,17-17H549.428a17.019,17.019,0,0,1,17,17V310.3h-2V261.511a15.017,15.017,0,0,0-15-15H350.654a15.017,15.017,0,0,0-15,15v196.84a15.017,15.017,0,0,0,15,15H475.092Z" transform="translate(827.055 339.618)" fill="#ced4da" stroke="#ced4da" stroke-width="1"/>
    <path id="Path_33" data-name="Path 33" d="M334.654,357.515H243.945a17.019,17.019,0,0,1-17-17V180.457a17.019,17.019,0,0,1,17-17H405.626a17.019,17.019,0,0,1,17,17v65.055h-2V180.457a15.017,15.017,0,0,0-15-15H243.945a15.017,15.017,0,0,0-15,15V340.516a15.017,15.017,0,0,0,15,15h90.709Z" transform="translate(827.055 339.618)" fill="#ced4da" stroke="#ced4da" stroke-width="1"/>
    <path id="Path_34" data-name="Path 34" d="M739.536,314.457a14.977,14.977,0,0,1,6.74,12.51v3.49h100.56a8,8,0,0,0,0-16Z" transform="translate(827.055 339.618)" fill="#ced4da"/>
    <path id="Path_35" data-name="Path 35" d="M747.331,288.457a8.009,8.009,0,0,1,8-8h34a8,8,0,0,1,0,16h-34A8.009,8.009,0,0,1,747.331,288.457Z" transform="translate(827.055 339.618)" fill="#ced4da"/>
    <path id="Path_36" data-name="Path 36" d="M823.587,231.457a8.009,8.009,0,0,1,8-8h132a8,8,0,0,1,0,16h-132a8.009,8.009,0,0,1-8-8Z" transform="translate(827.055 339.618)" fill="#ced4da"/>
    <path id="Path_37" data-name="Path 37" d="M881.087,197.457a8.009,8.009,0,0,1,8-8h17a8,8,0,0,1,0,16h-17A8.009,8.009,0,0,1,881.087,197.457Z" transform="translate(827.055 339.618)" fill="#ced4da"/>
    <path id="Path_38" data-name="Path 38" d="M747.28,475.351H871.718a17.019,17.019,0,0,0,17-17V261.511a17.019,17.019,0,0,0-17-17H672.945a17.019,17.019,0,0,0-17,17V310.3h2V261.511a15.017,15.017,0,0,1,15-15H871.718a15.017,15.017,0,0,1,15,15v196.84a15.017,15.017,0,0,1-15,15H747.28Z" transform="translate(827.055 339.618)" fill="#ced4da" stroke="#ced4da" stroke-width="1"/>
    <path id="Path_39" data-name="Path 39" d="M887.718,357.515h90.709a17.019,17.019,0,0,0,17-17V180.457a17.019,17.019,0,0,0-17-17H816.746a17.019,17.019,0,0,0-17,17v65.055h2V180.457a15.017,15.017,0,0,1,15-15H978.428a15.017,15.017,0,0,1,15,15V340.516a15.017,15.017,0,0,1-15,15h-90.71Z" transform="translate(827.254 339.618)" fill="#ced4da" stroke="#ced4da" stroke-width="1"/>
    <path id="Path_40" data-name="Path 40" d="M730.856,309.967H491.1a17.034,17.034,0,0,0-17,17v237.49a17.018,17.018,0,0,0,17,17H730.856a17.018,17.018,0,0,0,17-17V326.967a17.018,17.018,0,0,0-17-17Zm15,254.49a15.018,15.018,0,0,1-15,15H491.1a15.018,15.018,0,0,1-15-15V326.967a15.023,15.023,0,0,1,15-15H730.856a15.018,15.018,0,0,1,15,15Z" transform="translate(827.055 339.618)" fill="#6c63ff" stroke="#6c63ff" stroke-width="1"/>
    <path id="Path_42" data-name="Path 42" d="M654.476,368.457h-87a8,8,0,0,1,0-16h87a8,8,0,0,1,0,16Z" transform="translate(827.055 339.618)" fill="#fff"/>
    <path id="Path_41" data-name="Path 41" d="M711.976,402.457h-202a8,8,0,1,1,0-16h202a8,8,0,0,1,0,16Z" transform="translate(827.055 339.618)" fill="#fff"/>
    <path id="Path_43" data-name="Path 43" d="M596.476,450.457h-87a8,8,0,1,1,0-16h87a8,8,0,0,1,0,16Z" transform="translate(827.055 339.618)" fill="#dee2e6"/>
    <path id="Path_44" data-name="Path 44" d="M596.476,485.457h-87a8,8,0,1,1,0-16h87a8,8,0,0,1,0,16Z" transform="translate(827.055 339.618)" fill="#dee2e6"/>
    <path id="Path_45" data-name="Path 45" d="M596.476,520.457h-87a8,8,0,1,1,0-16h87a8,8,0,1,1,0,16Z" transform="translate(827.055 339.618)" fill="#dee2e6"/>
    <circle id="Ellipse_44" data-name="Ellipse 44" cx="14.929" cy="14.929" r="14.929" transform="translate(1517.107 767.075)" fill="#dee2e6"/>
    <path id="Path_395" data-name="Path 395" d="M703.5,448.081a1.549,1.549,0,0,1-.932-.31l-.017-.013-3.509-2.684a1.559,1.559,0,1,1,1.9-2.475l2.273,1.743,5.37-7.006a1.559,1.559,0,0,1,2.185-.289h0l-.033.046.034-.046a1.56,1.56,0,0,1,.288,2.186l-6.316,8.237a1.56,1.56,0,0,1-1.24.608Z" transform="translate(827.055 339.618)" fill="#6c63ff"/>
    <path id="Path_46" data-name="Path 46" d="M324.786,143.59a23.2,23.2,0,1,1,23.2-23.2,23.2,23.2,0,0,1-23.2,23.2Zm0-44.409a21.2,21.2,0,1,0,21.2,21.2,21.2,21.2,0,0,0-21.2-21.2Z" transform="translate(827.418 339.819)" fill="#ced4da" stroke="#ced4da" stroke-width="1"/>
    <path id="Path_47" data-name="Path 47" d="M471.982,224.59a23.2,23.2,0,1,1,23.2-23.2,23.2,23.2,0,0,1-23.2,23.2Zm0-44.409a21.2,21.2,0,1,0,21.2,21.2,21.2,21.2,0,0,0-21.2-21.2Z" transform="translate(827.055 339.618)" fill="#ced4da"/>
    <circle id="Ellipse_44-2" data-name="Ellipse 44" cx="14.929" cy="14.929" r="14.929" transform="translate(1517.107 802.075)" fill="#dee2e6"/>
    <path id="Path_395-2" data-name="Path 395" d="M703.5,483.081a1.548,1.548,0,0,1-.932-.31l-.017-.013-3.509-2.684a1.559,1.559,0,1,1,1.9-2.475l2.273,1.743,5.37-7.006a1.559,1.559,0,0,1,2.185-.289h0l-.033.046.034-.046a1.56,1.56,0,0,1,.288,2.186l-6.316,8.237a1.559,1.559,0,0,1-1.24.608Z" transform="translate(827.055 339.618)" fill="#6c63ff"/>
    <circle id="Ellipse_44-3" data-name="Ellipse 44" cx="14.929" cy="14.929" r="14.929" transform="translate(1517.107 837.145)" fill="#dee2e6"/>
    <path id="Path_395-3" data-name="Path 395" d="M703.5,518.152a1.549,1.549,0,0,1-.932-.31l-.017-.012-3.509-2.684a1.559,1.559,0,0,1,1.9-2.475l2.273,1.743,5.37-7.006a1.558,1.558,0,0,1,2.185-.289h0l-.033.046.034-.046a1.56,1.56,0,0,1,.288,2.186l-6.316,8.237a1.559,1.559,0,0,1-1.24.608Z" transform="translate(827.055 339.618)" fill="#6c63ff"/>
    <path id="Path_48" data-name="Path 48" d="M611,289.59c-15.749-.269-22.906-12.218-22.906-23.207s7.159-22.936,22.873-23.2H611c15.716.268,22.873,12.217,22.872,23.206S626.712,289.324,611,289.59Zm-.016-44.409c-14.352.251-20.889,11.165-20.89,21.2S596.633,287.345,611,287.59c14.33-.243,20.872-11.162,20.873-21.2s-6.537-20.951-20.889-21.206Z" transform="translate(827.407 340.319)" fill="#6c63ff" stroke="#6c63ff" stroke-width="1"/>
    <path id="Path_50" data-name="Path 50" d="M751.982,224.59a23.2,23.2,0,1,1,23.2-23.2,23.2,23.2,0,0,1-23.2,23.2Zm0-44.409a21.2,21.2,0,1,0,21.2,21.2,21.2,21.2,0,0,0-21.2-21.2Z" transform="translate(827.222 339.819)" fill="#ced4da" stroke="#ced4da" stroke-width="1"/>
    <path id="Path_52" data-name="Path 52" d="M897.587,143.59a23.2,23.2,0,1,1,23.2-23.2A23.2,23.2,0,0,1,897.587,143.59Zm0-44.409a21.2,21.2,0,1,0,21.2,21.2,21.2,21.2,0,0,0-21.2-21.2Z" transform="translate(826.617 339.819)" fill="#ced4da" stroke="#ced4da" stroke-width="1"/>
    <g id="Group_8" data-name="Group 8" transform="translate(52.768 1130.554)">
      <path id="Path_146" data-name="Path 146" d="M568.285,599.561h-12.26l-3.832-47.288h16.094Z" transform="translate(1027.421 -662)" fill="#ffb8b8"/>
      <path id="Path_147" data-name="Path 147" d="M782.563,754.8H743.032v-.5a15.386,15.386,0,0,1,15.387-15.386h24.144Z" transform="translate(816.27 -805.357)" fill="#212529"/>
      <path id="Path_143" data-name="Path 143" d="M705.285,599.561h-12.26l-5.832-47.288h18.094Z" transform="translate(1027.421 -662)" fill="#ffb8b8"/>
      <path id="Path_144" data-name="Path 144" d="M919.563,754.8H880.032v-.5a15.386,15.386,0,0,1,15.387-15.386h24.145Z" transform="translate(816.27 -805.357)" fill="#212529"/>
      <path id="Path_141" data-name="Path 141" d="M876.125,596.733a11.291,11.291,0,0,0,.291-14.3,9.3,9.3,0,0,0-1.071-1.091l9.234-34.092-15.39,5.106-6.409,31.591A11.372,11.372,0,0,0,863.8,596.4a7.9,7.9,0,0,0,12.328.338Z" transform="translate(816.27 -805.357)" fill="#ffb8b8"/>
      <path id="Path_137" data-name="Path 137" d="M875.533,575.762a3.9,3.9,0,0,1-.576-.043l-8.02-1.209a4.344,4.344,0,0,1-3.013-2.087,5.6,5.6,0,0,1-.7-3.873l10.005-55.882-6.786-35.9c-1.308-6.909,2.067-13.887,7.851-16.232a10.728,10.728,0,0,1,10.493,1.344,14.317,14.317,0,0,1,5.621,10.208l4.8,45.776-.057.2L879.7,572.311A4.476,4.476,0,0,1,875.533,575.762Z" transform="translate(816.27 -805.357)" fill="#e0392a"/>
      <circle id="Ellipse_14" data-name="Ellipse 14" cx="24.561" cy="24.561" r="24.561" transform="translate(1664.873 -413.73)" fill="#ffb8b8"/>
      <path id="Path_138" data-name="Path 138" d="M860.59,530.359a4.973,4.973,0,0,1-1.789-.333l-38.82-14.932a4.983,4.983,0,0,1-3.161-5.328l1.559-11.693a26.5,26.5,0,0,1,6.25-23.59l.945-1.04L837.058,452.5a12.26,12.26,0,0,1,16.731-4.808l20.282,11.334a12.238,12.238,0,0,1,5.65,6.825,37.406,37.406,0,0,1-.573,25.2l-13.887,36.106a5.035,5.035,0,0,1-4.672,3.2Z" transform="translate(816.27 -805.357)" fill="#e0392a"/>
      <path id="Path_139" data-name="Path 139" d="M758.852,731.308l-.053-.01a5,5,0,0,1-3.922-6.06L784.626,595.2a350.671,350.671,0,0,1,20.1-60.146L817.384,506.2l47.226,21.56,6.743,12.333a120.7,120.7,0,0,1,7.976,43.023l47.987,140.632a5,5,0,0,1-3.91,6.546l-26.269-.3a4.05,4.05,0,0,1-.751.063,4.967,4.967,0,0,1-4.621-3.135L836.911,584.735a1.006,1.006,0,0,0-.962-.62.971.971,0,0,0-.9.657L783,727.666a4.976,4.976,0,0,1-5.588,3.21Z" transform="translate(816.27 -805.357)" fill="#495057"/>
      <path id="Path_142" data-name="Path 142" d="M794.765,571.392a10.056,10.056,0,0,0,5.365-14.456l23.523-26.9-18.4-2.509-19.517,25.93a10.11,10.11,0,0,0,9.028,17.935Z" transform="translate(816.27 -805.357)" fill="#ffb8b8"/>
      <path id="Path_140" data-name="Path 140" d="M805.854,552.442a5.009,5.009,0,0,1-2.348-.586l-8.278-4.415a5,5,0,0,1-1.869-7.091l30.574-48.177,5.3-36.356a14.035,14.035,0,1,1,27.521,5.356l-10.946,44.811-36.063,44.6a4.984,4.984,0,0,1-3.894,1.854Z" transform="translate(816.27 -805.357)" fill="#e0392a"/>
      <path id="Path_136" data-name="Path 136" d="M851.057,395.924c2.841-9.316,19.255-13.473,32.9-9.607s23.444,14,25.726,23.909c5.052,21.942-21.3,39.751-16.525,61.7,3.159,14.519,21.436,28.246,42.02,31.562-22.685,4.746-50.373.574-71.41-10.759-13.093-7.054-24.077-17.7-23.911-28.435.1-6.5,4.236-12.25,9.293-17.216s11.111-9.381,15.752-14.565,7.857-11.391,6.5-17.972-8.235-13.443-17.494-15.358Z" transform="translate(816.27 -805.357)" fill="#495057"/>
    </g>
    <g id="Group_9" data-name="Group 9" transform="translate(2088.719 400.377)">
      <path id="Path_4" data-name="Path 4" d="M390.044,732.131c-.073,2.4-.232,4.763-.439,7.1q-.06.671-.121,1.343l-1.495-.008c.046-.448.091-.9.132-1.343.316-3.381.54-6.8.57-10.314a143.882,143.882,0,0,0-2.833-29,180.578,180.578,0,0,0-8.773-30.131,206.92,206.92,0,0,0-14.354-29.812.8.8,0,0,1-.132-.53c.062-.426.629-.552,1.053-.145a1.235,1.235,0,0,1,.214.271q1.034,1.778,2.031,3.567a206.777,206.777,0,0,1,13.738,29.916,179.724,179.724,0,0,1,8.179,30.176,141.949,141.949,0,0,1,2.229,28.908Z" transform="translate(-1362.275 -61.42)" fill="#fff"/>
      <path id="Path_16" data-name="Path 16" d="M196.284,569.773h12.26l5.832-47.288H196.282Z" transform="translate(-1088 97.919)" fill="#ffb8b8"/>
      <path id="Path_17" data-name="Path 17" d="M467.932,725.608h38.531v14.887H482.818a14.887,14.887,0,0,1-14.887-14.887h0Z" transform="translate(-387.848 1404.661) rotate(179.997)" fill="#212529"/>
      <path id="Path_18" data-name="Path 18" d="M107.329,555.885l11.151,5.094,24.954-40.59-16.459-7.517Z" transform="translate(-1088 97.919)" fill="#ffb8b8"/>
      <path id="Path_19" data-name="Path 19" d="M375.835,718.278h38.531v14.887H390.722a14.887,14.887,0,0,1-14.887-14.887h0Z" transform="translate(-909.299 1488.575) rotate(-155.452)" fill="#212529"/>
      <path id="Path_20" data-name="Path 20" d="M417.306,569.668a10.056,10.056,0,0,1-.8-15.4l-14.412-32.7,18.309,3.1L431.28,555.25a10.11,10.11,0,0,1-13.974,14.419Z" transform="translate(-1362.275 -61.42)" fill="#ffb8b8"/>
      <path id="Path_21" data-name="Path 21" d="M466.869,712.655,455.107,609.931a3.5,3.5,0,0,0-6.9-.312l-5.831,28.094a4.475,4.475,0,0,1-.4,1.143l-34.133,66.369a4.5,4.5,0,0,1-5.557,2.164l-11.868-4.373a4.5,4.5,0,0,1-2.643-5.841l27.785-72.053a3.491,3.491,0,0,0,.234-1.193l1.419-75.235a4.5,4.5,0,0,1,4.062-4.394L495,537.106a4.5,4.5,0,0,1,4.925,4.8L487.54,712.469a4.517,4.517,0,0,1-4.488,4.174H471.34A4.5,4.5,0,0,1,466.869,712.655Z" transform="translate(-1362.275 -61.42)" fill="#495057"/>
      <circle id="Ellipse_4" data-name="Ellipse 4" cx="24.561" cy="24.561" r="24.561" transform="translate(-921.329 300.008)" fill="#ffb8b8"/>
      <path id="Path_22" data-name="Path 22" d="M486.793,421.968q-1.009-.482-2-.927h0a49.733,49.733,0,0,0-50.02,5.4c-13.081,9.743-19.386,24.412-17.3,40.246,4.4,33.373-.638,78.644-1.161,83.152,40.376,18.566,75.8-4.776,78.942-6.945Z" transform="translate(-1362.275 -61.42)" fill="#e0392a"/>
      <path id="Path_23" data-name="Path 23" d="M415.21,549.411a4.489,4.489,0,0,1-3.39-2.592l-20.61-45.665a11.451,11.451,0,0,1,.69-10.731l25.309-41.067a8.309,8.309,0,0,1,14.818,7.512l-18.722,39.316,12.3,41.647a4.523,4.523,0,0,1-1,4.315l-5.373,5.861a4.486,4.486,0,0,1-3.312,1.46A4.568,4.568,0,0,1,415.21,549.411Z" transform="translate(-1362.275 -61.42)" fill="#e0392a"/>
      <path id="Path_24" data-name="Path 24" d="M472.583,539.868l-3.81-76.2.988-.129,17.128,80.6h-9.812a4.5,4.5,0,0,1-4.494-4.274Z" transform="translate(-1362.275 -61.42)" opacity="0.2"/>
      <path id="Path_25" data-name="Path 25" d="M486.156,564.182a10.056,10.056,0,0,1,2.413-15.229l-7.308-34.979,17.265,6.836,4.293,32.169a10.11,10.11,0,0,1-16.664,11.2Z" transform="translate(-1362.275 -61.42)" fill="#ffb8b8"/>
      <path id="Path_26" data-name="Path 26" d="M482.706,540.409l-14.429-96.192-.014-.091,2.789-12.83a13.528,13.528,0,0,1,26.735,2.315l4.33,104.782a4.515,4.515,0,0,1-4,4.658l-10.465,1.163a4.685,4.685,0,0,1-.508.028,4.485,4.485,0,0,1-4.439-3.834Z" transform="translate(-1362.275 -61.42)" fill="#e0392a"/>
      <path id="Path_27" data-name="Path 27" d="M455.413,406.3a17.69,17.69,0,0,1-15.879-10.209h0c-2.277-4.816-3.542-8.652-3.76-11.4-.587-7.393,3.59-19.009,9.121-25.368,6.069-6.976,15.674-7.949,24.962-8.89,2.538-.257,5.162-.523,7.646-.909,2.131-.331,4.783-.743,7.038.094a5.106,5.106,0,0,1,2.932,2.773,1.765,1.765,0,0,0,.989.991,1.5,1.5,0,0,0,1.2-.057,2.686,2.686,0,0,1,2.434,0,2.363,2.363,0,0,1,1.27,1.729,2.476,2.476,0,0,0,.232.726,2.868,2.868,0,0,0,1.874,1.419,2.533,2.533,0,0,1,1.969,2.714c-.15,1.262-.213,2.623-.275,3.94-.232,4.955-.471,10.078-5.452,10a14.338,14.338,0,0,1-3.75-.662c-1.8-.5-3.229-.9-5.149.3-2.952,1.84-3.434,5.686-3.859,9.08l-.075.593c-.5,3.881-2.548,8.552-6.7,8.943a9.641,9.641,0,0,1-3.854-.668,6.9,6.9,0,0,0-4.016-.482c-2.278.65-3.374,3.37-3.28,5.722a22.3,22.3,0,0,0,.369,2.868,15.285,15.285,0,0,1,.318,4.573c-.118.932-1.189,1.546-3.368,1.932a16.882,16.882,0,0,1-2.946.259Z" transform="translate(-1362.275 -59.42)" fill="#495057"/>
    </g>
    <text id="_5" data-name="5" transform="translate(1718 469)" fill="#ced4da" font-size="24" font-family="SegoeUI-Semibold, Segoe UI" font-weight="600"><tspan x="0" y="0">5</tspan></text>
    <text id="_4" data-name="4" transform="translate(1572 550)" fill="#ced4da" font-size="24" font-family="SegoeUI-Semibold, Segoe UI" font-weight="600"><tspan x="0" y="0">4</tspan></text>
    <text id="_3" data-name="3" transform="translate(1432 615)" fill="#fff" font-size="24" font-family="SegoeUI-Semibold, Segoe UI" font-weight="600"><tspan x="0" y="0">3</tspan></text>
    <text id="_2" data-name="2" transform="translate(1293 550)" fill="#ced4da" font-size="24" font-family="SegoeUI-Semibold, Segoe UI" font-weight="600"><tspan x="0" y="0">2</tspan></text>
    <text id="_1" data-name="1" transform="translate(1147 469)" fill="#ced4da" font-size="24" font-family="SegoeUI-Semibold, Segoe UI" font-weight="600"><tspan x="0" y="0">1</tspan></text>
    <path id="Path_148" data-name="Path 148" d="M471.982,224.59a23.2,23.2,0,1,1,23.2-23.2,23.2,23.2,0,0,1-23.2,23.2Zm0-44.409a21.2,21.2,0,1,0,21.2,21.2,21.2,21.2,0,0,0-21.2-21.2Z" transform="translate(827.222 339.819)" fill="#ced4da" stroke="#ced4da" stroke-width="1"/>
  </g>
</svg>
