<?xml version="1.0" encoding="utf-8"?>
<!-- Generator: Adobe Illustrator 28.0.0, SVG Export Plug-In . SVG Version: 6.00 Build 0)  -->
<svg version="1.1" id="_圖層_2" xmlns="http://www.w3.org/2000/svg" xmlns:xlink="http://www.w3.org/1999/xlink" x="0px" y="0px"
	 viewBox="0 0 241.3 40.6" style="enable-background:new 0 0 241.3 40.6;" xml:space="preserve">
<style type="text/css">
	.st0{fill:#D25519;}
	.st1{fill:#136BEF;}
</style>
<g id="_圖層_1-2">
	<path class="st0" d="M11.2,14.1c-0.9,2.6-3.3,4.8-9.4,6.3C1.5,20,1,19.1,0.5,18.7C5.8,17.6,8,16,9,14.1H0.8v-1.9h2.3V6.9h6.4v-2
		h2.1v2h6.8v5.3h2.2v1.9C20.5,14.1,11.2,14.1,11.2,14.1z M5.2,4H1.3V2.3h3.9V0.2h2.1v2.1h2.9V4h-3v2h-2V4L5.2,4z M9.5,12.2
		c0-0.4,0.1-0.7,0.1-1.1V8.7H5.1v3.5H9.5z M12,14.4c2.8,1.1,6.7,3,8.6,4.3l-1,1.7c-1.9-1.3-5.7-3.3-8.6-4.5L12,14.4L12,14.4z
		 M14.3,4h-3.1V2.2h3.1v-2h2.1v2h3.8V4h-3.8v2h-2.1L14.3,4L14.3,4z M11.6,8.7v2.4c0,0.4,0,0.7,0,1.1h4.7V8.7H11.6z M30.8,5.5h-8.2
		V3.8h4c-0.3-0.8-1-2.1-1.6-3L26.6,0c0.7,1,1.4,2.2,1.7,2.9l-1.6,0.9h4.1C30.8,3.8,30.8,5.5,30.8,5.5z M30.2,19.1h-4.9v1h-1.8v-7.4
		h6.7C30.2,12.6,30.2,19.1,30.2,19.1z M30.1,8.4h-6.5V6.8h6.5V8.4z M23.6,9.7h6.5v1.6h-6.5V9.7z M25.3,14.3v3.2h3.1v-3.1
		C28.4,14.3,25.3,14.3,25.3,14.3z M42.8,9.3V11H30.6V9.3h2.8c0.2-0.9,0.4-1.9,0.6-2.9h-2.3V4.7h2.5c0.1-0.7,0.2-1.3,0.3-2h-3.4V1
		h11.2v1.7h-5.7c-0.1,0.6-0.2,1.3-0.3,2h4.6v4.6C40.9,9.3,42.8,9.3,42.8,9.3z M31.7,12.4h9.8v7.9h-2v-0.8h-5.9v0.9h-1.9
		C31.7,20.4,31.7,12.4,31.7,12.4z M33.6,14.1v3.6h5.9v-3.6C39.6,14.1,33.6,14.1,33.6,14.1z M35.9,6.4c-0.2,1.1-0.4,2.1-0.6,2.9h3.6
		V6.4H35.9z M61.2,5.9c-1.2,3.3-2.8,6-4.9,8.2c2.3,1.9,5.2,3.3,8.6,4.2c-0.5,0.4-1.1,1.3-1.4,1.9c-3.5-1-6.4-2.5-8.8-4.6
		c-2.4,2.1-5.4,3.6-9,4.7c-0.2-0.5-0.9-1.5-1.3-2c3.5-1,6.4-2.3,8.8-4.2c-2.1-2.3-3.8-5-5-8.2h-3.4V4h9.5c-0.3-0.9-0.9-2.3-1.5-3.3
		L55.1,0c0.6,1,1.3,2.4,1.6,3.3l-2,0.6h9.9v2H61.2L61.2,5.9z M50.4,5.9c1.1,2.6,2.5,4.9,4.4,6.8c1.8-1.9,3.2-4.1,4.1-6.8
		C58.9,5.9,50.4,5.9,50.4,5.9z M84.6,18.2c0.4,0,0.5-0.3,0.6-2.5c0.4,0.4,1.2,0.7,1.8,0.8c-0.2,2.8-0.7,3.6-2.1,3.6h-1.7
		c-1.7,0-2.1-0.6-2.1-2.5v-4.9h-1.4c-0.3,3.4-1.2,6.2-4.6,7.8c-0.2-0.5-0.8-1.2-1.2-1.6c2.9-1.2,3.5-3.4,3.8-6.2H76V6.5
		c-0.3,0.3-0.6,0.7-0.9,0.9c-0.4-0.3-1.1-1-1.6-1.4c0.2-0.2,0.4-0.3,0.6-0.6h-7.5V3.9h7.7v1.5c1.3-1.3,2.6-3.1,3.3-4.9l1.9,0.6
		c-0.8,1.8-1.9,3.5-3.1,5h8.2c-1-1.5-2.5-3.4-3.8-4.8l1.4-1C84,2.1,86,4.5,86.9,6.1l-1.6,1.1c-0.2-0.4-0.4-0.8-0.7-1.2v6.7H83v4.9
		c0,0.6,0.1,0.6,0.4,0.6H84.6L84.6,18.2z M73.8,19.1h-4.6v1h-1.8v-7.4h6.3L73.8,19.1L73.8,19.1z M73.5,8.4h-6.1V6.8h6.1V8.4z
		 M67.5,9.7h6.1v1.6h-6.1V9.7z M70.1,3.8c-0.2-0.8-0.8-2-1.2-3l1.7-0.6c0.5,0.9,1.1,2.1,1.3,2.9L70.1,3.8L70.1,3.8z M69.2,14.3v3.1
		H72v-3.1C72,14.3,69.2,14.3,69.2,14.3z M77.9,11h4.7V7.9h-4.7V11z M107.4,13.1c0,0,0,0.5,0,0.8c-0.2,3.6-0.5,5.2-1,5.8
		c-0.4,0.4-0.9,0.6-1.5,0.6c-0.6,0.1-1.6,0.1-2.7,0c0-0.5-0.2-1.3-0.6-1.8c1,0.1,2,0.1,2.3,0.1c0.4,0,0.6,0,0.8-0.2
		c0.3-0.3,0.5-1.3,0.6-3.7H93.9c-1.2,1-2.6,1.8-4.1,2.5c-0.2-0.4-0.8-1.2-1.2-1.6c2.2-0.8,4.3-2.1,5.7-3.7H92V5.5
		c1.8-0.4,3.8-0.9,5.1-1.4l1.2,1.3c-1.3,0.5-2.9,0.9-4.5,1.2v1.2h4v1.4h-4v1.2h9.8V9.2h-3.9V7.8h3.9V6.6h-4.3V5.2h6.2v6.7h-8.8
		c-0.3,0.4-0.6,0.8-1,1.2L107.4,13.1L107.4,13.1z M108,1.9V6h-1.9V3.6H91.2V6h-1.8V1.9h8.1c-0.2-0.4-0.4-0.9-0.6-1.2L99,0.1
		c0.3,0.5,0.7,1.2,0.9,1.8C99.9,1.8,108,1.8,108,1.9z M91.4,19.1c0.8-1,1.5-2.5,1.9-3.8l1.6,0.7c-0.5,1.3-1.1,2.9-1.9,3.9L91.4,19.1
		z M97.2,15.5c0.4,1.2,0.8,2.8,0.8,3.8l-1.7,0.2c0-1-0.2-2.6-0.6-3.9C95.6,15.7,97.2,15.5,97.2,15.5z M99.8,15.3
		c0.6,1,1.2,2.4,1.3,3.3L99.6,19c-0.2-0.9-0.7-2.3-1.2-3.3L99.8,15.3z M102.8,18c-0.3-0.7-1-1.7-1.7-2.4l1.3-0.6
		c0.7,0.7,1.4,1.6,1.7,2.3L102.8,18L102.8,18z M120,18.3c0,0.9-0.2,1.4-0.8,1.7c-0.6,0.3-1.6,0.3-3,0.3c-0.1-0.5-0.4-1.2-0.6-1.6
		c0.9,0,1.8,0,2.1,0c0.3,0,0.4-0.1,0.4-0.4v-2.9c-1.3,0.8-2.6,1.7-3.8,2.4l-0.6-1.5c-0.2,1.5-0.7,3-1.6,4.1c-0.3-0.4-1-1.1-1.4-1.4
		c1.2-1.7,1.3-4,1.3-5.9V8h7.9L120,18.3L120,18.3z M118.6,1.8c1,1.5,2.2,3.6,2.8,4.9l-1.8,0.8c-0.1-0.5-0.3-1-0.6-1.5
		c-5.8,0.5-6.6,0.7-7.2,0.9c-0.1-0.4-0.4-1.4-0.6-1.9c0.3-0.1,0.7-0.4,1.2-0.9c0.4-0.5,1.8-2.2,2.7-3.9l2.1,0.6
		c-0.9,1.4-1.9,2.7-2.9,3.8l3.9-0.3c-0.4-0.7-0.8-1.4-1.2-2C117,2.4,118.6,1.8,118.6,1.8z M113.9,13.2c0,0.9,0,1.8-0.2,2.8
		c1.1-0.5,2.7-1.3,4.3-2.1V13l-1,1c-0.7-0.6-2.1-1.6-3.1-2.4l1.1-1c1,0.6,2.3,1.5,3,2.1v-3h-4.1L113.9,13.2L113.9,13.2z M124.6,9.7
		c-2.2,0-2.8-0.8-2.8-2.9V0.2h2V3h5.7v1.8h-5.7v2c0,0.8,0.2,1.1,0.9,1.1h3.7c0.6,0,1.4,0,1.9-0.1c0,0.5,0.1,1.3,0.2,1.7
		c-0.4,0.1-1.2,0.1-2.1,0.1C128.4,9.7,124.6,9.7,124.6,9.7z M128.1,18.4c0.8,0,1-0.4,1.1-2.6c0.4,0.3,1.2,0.7,1.8,0.8
		c-0.2,2.9-0.8,3.6-2.7,3.6h-3.6c-2.3,0-2.9-0.6-2.9-2.6v-7.2h2v2.4h5.9v1.8h-5.9v2.9c0,0.8,0.2,0.9,1.1,0.9H128.1L128.1,18.4z
		 M151.6,4.8c0,0,0,0.7,0,1c-0.5,8.9-0.9,12.2-1.9,13.3c-0.6,0.7-1.2,0.9-2,1s-2.2,0.1-3.5,0c0-0.6-0.3-1.5-0.7-2.1
		c1.4,0.1,2.8,0.1,3.3,0.1s0.8-0.1,1-0.3c0.8-0.7,1.2-3.7,1.6-10.9h-6.9c-0.3,4.5-1.8,9.9-8.1,13.6c-0.3-0.5-1.1-1.3-1.6-1.6
		c5.7-3.3,7.1-7.9,7.5-11.9h-6.8V4.8h6.9V0.2h2.2v4.6L151.6,4.8L151.6,4.8z M154.3,10.1c0.6-1.5,0.9-3.9,1.1-5.7l1.5,0.2
		c-0.1,1.8-0.5,4.4-1.1,6L154.3,10.1L154.3,10.1z M160.8,8.5c-0.2-1-0.8-2.5-1.4-3.7v15.6h-2V0.2h2v4.1l1.2-0.5
		c0.7,1.3,1.4,3,1.7,4.1L160.8,8.5L160.8,8.5z M174.8,10.1V12H168c-0.6,3.1-2.2,6.2-6.2,8.5c-0.3-0.4-1-1.2-1.4-1.6
		c3.6-1.8,5.1-4.3,5.6-6.9h-4.8v-1.9h5.1c0.1-0.8,0.1-1.7,0.1-2.4V5.5h-4.1V3.6h4.1V0.2h2.1v3.4h4.8v6.5H174.8z M168.3,7.6
		c0,0.8,0,1.6-0.1,2.4h2.9V5.5h-2.8L168.3,7.6L168.3,7.6z M170.1,12.4c1.5,2.2,3.6,5.1,4.6,6.9l-1.9,1.1c-0.9-1.8-2.9-4.8-4.4-7.1
		L170.1,12.4L170.1,12.4z M180.4,3.2c-0.7,1.2-1.6,2.3-2.4,3.2c-0.3-0.3-1-1-1.4-1.4c1.4-1.2,2.6-3.1,3.4-5l1.8,0.5
		c-0.1,0.4-0.3,0.8-0.5,1.2h5.5v1.6h-3.9c0.6,0.5,1.3,1.1,1.6,1.5L183.2,6c-0.4-0.5-1.2-1.3-1.9-1.9l0.9-0.8L180.4,3.2L180.4,3.2z
		 M179.7,13.6h5.5v6.2h-1.9V19h-3.6v1.2h-1.9V6.9h1.8c0.3-0.6,0.6-1.3,0.8-1.9l2.1,0.4c-0.3,0.5-0.5,1-0.8,1.5h3.2v5.3h-5.2
		C179.7,12.2,179.7,13.6,179.7,13.6z M183,8.5h-3.3v2h3.3V8.5z M179.7,15.2v2.2h3.6v-2.2H179.7z M185.7,6.1h10.8v1.7H192v1.6h3.9
		v6.8c0,0.9-0.1,1.4-0.7,1.7c-0.6,0.3-1.4,0.3-2.4,0.3c0-0.5-0.3-1.2-0.5-1.7c0.7,0,1.2,0,1.4,0s0.3-0.1,0.3-0.3v-5.1h-2v9.2h-1.9
		v-9.1h-2v7.2h-1.8V9.5h3.9V7.8h-4.4L185.7,6.1L185.7,6.1z M196.7,1.7v1.6h-3.9c0.6,0.5,1.2,1.2,1.6,1.6L193,6.1
		c-0.4-0.6-1.2-1.4-1.8-2.1l0.9-0.8h-2.4c-0.5,0.9-1.1,1.6-1.8,2.3c-0.3-0.3-1.1-0.9-1.5-1.2c1.2-1,2.2-2.7,2.8-4.3l1.9,0.4
		c-0.1,0.4-0.3,0.8-0.5,1.2L196.7,1.7L196.7,1.7z M205.7,14.9c-1.3,1.7-3.2,3.5-4.9,4.6c-0.4-0.4-1.2-1.1-1.8-1.4
		c1.7-1,3.5-2.5,4.6-4L205.7,14.9L205.7,14.9z M209.9,13.1V18c0,1.1-0.2,1.6-1.1,1.9c-0.8,0.3-2,0.3-3.6,0.3c-0.1-0.6-0.4-1.5-0.8-2
		c1.2,0.1,2.5,0.1,2.9,0c0.4,0,0.4-0.1,0.4-0.4v-4.7c-5.5,0.4-6.4,0.6-7.1,0.8c-0.1-0.4-0.4-1.4-0.6-1.9c0.8-0.1,1.7-0.4,3-1.1
		c0.8-0.4,2.4-1.1,4.2-2.2c-4.3,0.3-5,0.4-5.5,0.6c-0.1-0.4-0.4-1.4-0.6-1.9c0.6-0.1,1.1-0.3,1.8-0.7c0.7-0.3,2.7-1.5,4.4-2.8
		c-2.4,0.5-4.9,1-7.2,1.4c-0.1-0.5-0.4-1.3-0.6-1.7c4.9-0.8,10.5-2.1,13.8-3.5l1.5,1.6c-1.8,0.7-4,1.4-6.3,2l1.3,0.8
		c-1.3,1-2.8,2-4.2,2.8l4.7-0.2c0.8-0.6,1.6-1.1,2.4-1.7l1.6,1.3c-2.7,1.9-5.5,3.6-8.3,4.9l7.9-0.5c-0.6-0.7-1.2-1.3-1.8-1.9
		l1.7-0.8c1.6,1.5,3.4,3.5,4.4,4.8l-1.7,1.1c-0.3-0.4-0.7-1-1.1-1.5L209.9,13.1L209.9,13.1z M213.1,14c1.7,1.2,3.9,3,5,4.2l-1.8,1.2
		c-1-1.2-3.1-3-4.8-4.3C211.5,15,213.1,14,213.1,14z M223,14.6c-0.2,1.9-0.6,4-1,5.3c-0.4-0.2-1.1-0.4-1.5-0.6
		c0.5-1.3,0.8-3.3,0.9-5L223,14.6L223,14.6z M227.2,13.3c0-0.3-0.1-0.7-0.2-1.1c-4.6,0.8-5.3,1-5.8,1.2c-0.1-0.4-0.4-1.4-0.6-1.9
		c0.5-0.1,1-0.7,1.6-1.5c0.3-0.4,0.9-1.1,1.6-2.1c-2,0.2-2.4,0.4-2.8,0.5c-0.1-0.4-0.4-1.3-0.6-1.8c0.4-0.1,0.8-0.6,1.2-1.2
		s1.9-3.1,2.8-5.4l1.9,0.8c-0.9,2-2.1,4.1-3.3,5.7l1.9-0.2c0.6-1,1.2-2.1,1.7-3.2l1.7,1.1c-1.3,2.4-3.1,4.9-4.8,7l3-0.4
		c-0.2-0.7-0.5-1.3-0.8-1.9l1.4-0.5c0.7,1.4,1.3,3.2,1.5,4.4L227.2,13.3L227.2,13.3z M225.2,14.2c0.3,1.4,0.6,3.3,0.6,4.5l-1.6,0.4
		c0-1.2-0.3-3.1-0.5-4.6C223.8,14.5,225.2,14.2,225.2,14.2z M227.6,13.6c0.5,1.2,1,2.8,1.2,3.8l-1.4,0.5c-0.2-1-0.7-2.6-1.1-3.8
		L227.6,13.6L227.6,13.6z M238.5,18.2c0.4,0,0.5-0.4,0.6-2.9c0.4,0.3,1.2,0.7,1.7,0.8c-0.2,3.1-0.6,4-2.1,4H237
		c-1.7,0-2.1-0.6-2.1-2.5v-7.2l-1.7,0.2c-0.2,4.9-0.8,8.1-4.5,10c-0.2-0.5-0.8-1.2-1.2-1.6c3.2-1.5,3.7-4,3.8-8.1
		c-1.2,0.1-1.6,0.2-1.9,0.4c-0.1-0.4-0.5-1.4-0.7-2c0.5-0.1,0.9-0.7,1.5-1.6c0.3-0.4,0.9-1.5,1.6-2.8h-2.9V2.8h3.9
		c0.4-0.9,0.8-1.8,1.1-2.7l2.2,0.6c-0.3,0.7-0.6,1.4-0.9,2.1h5.4v1.9h-6.4c-0.8,1.5-1.6,2.8-2.5,4l5.6-0.5c-0.4-0.8-0.9-1.5-1.3-2.2
		l1.6-0.7c1.1,1.7,2.5,3.9,3,5.4l-1.8,0.9c-0.2-0.5-0.4-1.1-0.7-1.7l-1.3,0.1v7.4c0,0.6,0,0.7,0.5,0.7L238.5,18.2L238.5,18.2z"/>
	<path class="st0" d="M3,30.5v3.2h0.2c0.5,0,0.9-0.2,1.1-0.5s0.4-0.8,0.4-1.4h0.2V36H4.7c-0.1-0.5-0.2-0.8-0.3-1.1s-0.3-0.5-0.5-0.6
		S3.4,34.2,3,34.2v2.2c0,0.4,0,0.7,0.1,0.8s0.1,0.2,0.2,0.2s0.3,0.1,0.5,0.1h0.5C5,37.5,5.6,37.4,6,37s0.8-0.9,1-1.6h0.2L6.9,38H0
		v-0.2h0.3c0.2,0,0.4,0,0.6-0.1c0.1,0,0.2-0.2,0.2-0.3s0.1-0.3,0.1-0.7v-5.2c0-0.4,0-0.6,0-0.7S1.1,30.6,1,30.5
		c-0.1-0.1-0.4-0.2-0.6-0.2H0V30h6.7v2.4H6.4c-0.1-0.6-0.3-1-0.5-1.2S5.4,30.8,5,30.7c-0.2-0.1-0.6-0.1-1.2-0.1L3,30.5L3,30.5z"/>
	<path class="st1" d="M10.9,32.5v0.7c0.3-0.3,0.6-0.5,0.8-0.7s0.5-0.2,0.8-0.2c0.4,0,0.6,0.1,0.9,0.3s0.4,0.4,0.5,0.7
		C14,33.5,14,34,14,34.6v2.1c0,0.4,0,0.7,0.1,0.8s0.2,0.2,0.5,0.2V38h-2.8v-0.2c0.2,0,0.4-0.1,0.4-0.3c0.1-0.1,0.1-0.3,0.1-0.7v-2.4
		c0-0.5,0-0.7-0.1-0.8s-0.1-0.2-0.2-0.3s-0.2-0.1-0.3-0.1c-0.3,0-0.6,0.2-0.9,0.7v2.9c0,0.4,0,0.7,0.1,0.8s0.2,0.2,0.4,0.2V38H8.6
		v-0.2c0.2,0,0.4-0.1,0.5-0.2c0.1-0.1,0.1-0.3,0.1-0.8v-3.1c0-0.4,0-0.7-0.1-0.8s-0.2-0.2-0.5-0.2v-0.2H10.9L10.9,32.5z"/>
	<path class="st1" d="M19.3,32.6h1.9v0.6h-1c0.2,0.2,0.3,0.4,0.4,0.5c0.1,0.2,0.1,0.4,0.1,0.7c0,0.4-0.1,0.7-0.3,1s-0.5,0.5-0.9,0.7
		s-0.7,0.2-1,0.2c0,0-0.3,0-0.7,0c-0.2,0-0.3,0.1-0.4,0.2s-0.2,0.2-0.2,0.4c0,0.1,0,0.3,0.2,0.3s0.3,0.1,0.5,0.1h1
		c0.8,0,1.4,0.1,1.7,0.3c0.4,0.2,0.7,0.6,0.7,1.2c0,0.3-0.1,0.6-0.3,0.9s-0.5,0.5-0.8,0.6c-0.5,0.2-1.1,0.3-1.7,0.3
		c-0.5,0-0.9,0-1.4-0.1s-0.7-0.2-0.9-0.4s-0.3-0.3-0.3-0.5s0.1-0.3,0.2-0.5s0.4-0.3,0.8-0.4c-0.5-0.2-0.8-0.6-0.8-1
		c0-0.3,0.1-0.5,0.3-0.8s0.5-0.5,1-0.7c-0.5-0.2-0.9-0.4-1.1-0.8s-0.4-0.7-0.4-1.1c0-0.5,0.2-1,0.7-1.4s1-0.6,1.7-0.6
		C18.6,32.3,18.9,32.4,19.3,32.6L19.3,32.6z M18,38.8c-0.4,0-0.7,0-0.8,0.1c-0.2,0.1-0.3,0.3-0.3,0.5s0.1,0.4,0.4,0.5
		s0.7,0.2,1.3,0.2c0.5,0,1-0.1,1.3-0.2s0.5-0.3,0.5-0.6c0-0.1,0-0.2-0.1-0.2c-0.1-0.1-0.3-0.2-0.5-0.2S18.9,38.8,18,38.8L18,38.8z
		 M18.3,32.7c-0.2,0-0.4,0.1-0.6,0.3s-0.2,0.7-0.2,1.4c0,0.6,0.1,1,0.2,1.2s0.3,0.3,0.5,0.3s0.4-0.1,0.6-0.3S19,35,19,34.4
		c0-0.7-0.1-1.2-0.3-1.4C18.7,32.8,18.5,32.7,18.3,32.7L18.3,32.7z"/>
	<path class="st1" d="M24.4,30v6.8c0,0.4,0,0.6,0.1,0.7s0.3,0.2,0.5,0.2V38h-3v-0.2c0.2,0,0.4-0.1,0.5-0.2c0.1-0.1,0.1-0.3,0.1-0.7
		v-5.7c0-0.4,0-0.6-0.1-0.7s-0.3-0.2-0.5-0.2V30H24.4L24.4,30z"/>
	<path class="st1" d="M28.2,32.5v4.3c0,0.4,0,0.6,0.1,0.7s0.3,0.2,0.5,0.2V38h-3v-0.2c0.2,0,0.4-0.1,0.5-0.2
		c0.1-0.1,0.1-0.3,0.1-0.7v-3.2c0-0.4,0-0.6-0.1-0.7s-0.3-0.2-0.5-0.2v-0.2L28.2,32.5L28.2,32.5z M27.4,29.9c0.2,0,0.5,0.1,0.6,0.3
		s0.3,0.4,0.3,0.6s-0.1,0.5-0.3,0.6s-0.4,0.3-0.6,0.3s-0.5-0.1-0.6-0.3s-0.3-0.4-0.3-0.6s0.1-0.5,0.3-0.6S27.1,29.9,27.4,29.9
		L27.4,29.9z"/>
	<path class="st1" d="M33.4,32.4l0.1,1.9h-0.2c-0.2-0.5-0.5-0.9-0.7-1.1s-0.5-0.3-0.8-0.3c-0.2,0-0.3,0-0.4,0.2s-0.2,0.2-0.2,0.4
		c0,0.1,0,0.2,0.1,0.3c0.1,0.2,0.5,0.4,1.1,0.8s1,0.7,1.1,1s0.3,0.6,0.3,0.9c0,0.3-0.1,0.6-0.2,0.9s-0.4,0.5-0.6,0.7
		s-0.6,0.2-0.9,0.2c-0.3,0-0.6-0.1-1-0.2c-0.1,0-0.2-0.1-0.2-0.1c-0.1,0-0.2,0.1-0.3,0.3h-0.2l-0.1-2h0.2c0.2,0.5,0.4,0.9,0.7,1.2
		s0.6,0.4,0.9,0.4c0.2,0,0.3-0.1,0.5-0.2s0.2-0.2,0.2-0.4s-0.1-0.3-0.2-0.5s-0.4-0.3-0.8-0.6c-0.6-0.4-1-0.7-1.2-1
		C30.1,34.7,30,34.4,30,34s0.1-0.8,0.4-1.2s0.7-0.5,1.3-0.5c0.3,0,0.6,0.1,0.9,0.2c0.1,0.1,0.2,0.1,0.3,0.1s0.1,0,0.2,0
		s0.1-0.1,0.2-0.2L33.4,32.4L33.4,32.4z"/>
	<path class="st1" d="M37.3,30v3.2c0.3-0.3,0.6-0.5,0.8-0.7s0.5-0.2,0.8-0.2s0.6,0.1,0.9,0.3s0.4,0.4,0.5,0.7s0.1,0.7,0.1,1.3v2.1
		c0,0.4,0,0.7,0.1,0.8s0.2,0.2,0.5,0.2V38h-2.8v-0.2c0.2,0,0.3-0.1,0.4-0.2c0.1-0.1,0.1-0.3,0.1-0.7v-2.4c0-0.5,0-0.7,0-0.8
		s-0.1-0.2-0.2-0.3s-0.2-0.1-0.3-0.1c-0.2,0-0.3,0-0.5,0.2s-0.3,0.3-0.5,0.6V37c0,0.4,0,0.6,0.1,0.7c0.1,0.1,0.2,0.2,0.5,0.2V38H35
		v-0.2c0.2,0,0.4-0.1,0.5-0.2c0.1-0.1,0.1-0.3,0.1-0.8v-5.6c0-0.4,0-0.7-0.1-0.8s-0.2-0.2-0.5-0.2V30L37.3,30L37.3,30z"/>
	<path class="st0" d="M51,35.3l2.2-5.2h3.2v0.2h-0.3c-0.2,0-0.4,0-0.6,0.1c-0.1,0-0.2,0.1-0.2,0.3c0,0.1-0.1,0.3-0.1,0.7v5.2
		c0,0.4,0,0.7,0.1,0.8s0.1,0.2,0.3,0.3s0.3,0.1,0.5,0.1h0.3V38h-4.2v-0.2h0.3c0.2,0,0.4,0,0.6-0.1c0.1,0,0.2-0.2,0.2-0.3
		s0.1-0.3,0.1-0.7v-5.9l-3,7.2h-0.1l-3.1-7.2v5.6c0,0.4,0,0.6,0,0.7c0,0.2,0.2,0.3,0.3,0.5s0.4,0.2,0.8,0.2V38h-2.7v-0.2h0.1
		c0.2,0,0.3,0,0.5-0.1s0.3-0.1,0.3-0.2s0.1-0.2,0.2-0.4c0,0,0-0.2,0-0.6v-5c0-0.4,0-0.6-0.1-0.8s-0.1-0.2-0.3-0.3s-0.3-0.1-0.5-0.1
		h-0.2V30h3.2L51,35.3L51,35.3z"/>
	<path class="st1" d="M62.1,35h-3c0,0.7,0.2,1.3,0.6,1.7c0.3,0.3,0.6,0.5,1,0.5c0.2,0,0.5-0.1,0.6-0.2s0.4-0.4,0.6-0.7l0.2,0.1
		c-0.3,0.6-0.6,1-1,1.3s-0.8,0.4-1.2,0.4c-0.8,0-1.4-0.3-1.8-0.9c-0.3-0.5-0.5-1.1-0.5-1.9c0-0.9,0.2-1.6,0.7-2.2s1.1-0.8,1.7-0.8
		c0.5,0,1,0.2,1.4,0.7S62.1,34.2,62.1,35L62.1,35z M60.7,34.7c0-0.6,0-1.1-0.1-1.3s-0.2-0.4-0.3-0.5s-0.2-0.1-0.3-0.1
		c-0.2,0-0.4,0.1-0.5,0.3c-0.2,0.3-0.3,0.8-0.3,1.4v0.2L60.7,34.7L60.7,34.7z"/>
	<path class="st1" d="M68.6,30v6.3c0,0.4,0,0.7,0,0.8s0.1,0.2,0.2,0.3s0.2,0.1,0.5,0.1v0.2L67,38.1v-0.9c-0.3,0.3-0.5,0.6-0.7,0.7
		s-0.5,0.2-0.7,0.2c-0.7,0-1.2-0.3-1.7-0.9c-0.3-0.5-0.5-1.1-0.5-1.9c0-0.6,0.1-1.1,0.3-1.6s0.5-0.8,0.8-1.1s0.7-0.4,1.1-0.4
		c0.3,0,0.5,0,0.7,0.2s0.4,0.3,0.7,0.5v-1.6c0-0.4,0-0.7-0.1-0.8c-0.1-0.1-0.1-0.2-0.2-0.2s-0.3-0.1-0.5-0.1V30H68.6L68.6,30z
		 M67,33.8c-0.3-0.5-0.6-0.8-1.1-0.8c-0.1,0-0.3,0-0.4,0.1s-0.3,0.3-0.3,0.6s-0.1,0.8-0.1,1.4c0,0.7,0.1,1.2,0.2,1.5
		s0.2,0.6,0.4,0.7c0.1,0.1,0.2,0.1,0.4,0.1c0.3,0,0.7-0.3,1-0.8L67,33.8L67,33.8z"/>
	<path class="st1" d="M72.6,32.5v4.3c0,0.4,0,0.6,0.1,0.7s0.3,0.2,0.5,0.2V38h-3v-0.2c0.2,0,0.4-0.1,0.5-0.2
		c0.1-0.1,0.1-0.3,0.1-0.7v-3.2c0-0.4,0-0.6-0.1-0.7s-0.3-0.2-0.5-0.2v-0.2L72.6,32.5L72.6,32.5z M71.8,29.9c0.2,0,0.5,0.1,0.6,0.3
		s0.3,0.4,0.3,0.6s-0.1,0.5-0.3,0.6s-0.4,0.3-0.6,0.3s-0.5-0.1-0.6-0.3s-0.3-0.4-0.3-0.6s0.1-0.5,0.3-0.6S71.5,29.9,71.8,29.9
		L71.8,29.9z"/>
	<path class="st1" d="M79.6,32.5v4.3c0,0.4,0,0.7,0.1,0.8s0.2,0.2,0.5,0.2V38H78v-0.7c-0.3,0.3-0.5,0.5-0.8,0.7s-0.6,0.2-0.9,0.2
		s-0.6-0.1-0.8-0.3s-0.4-0.4-0.5-0.7s-0.1-0.7-0.1-1.3v-2.2c0-0.4,0-0.7-0.1-0.8s-0.2-0.2-0.5-0.2v-0.2h2.2v3.7c0,0.4,0,0.6,0.1,0.8
		s0.1,0.2,0.2,0.3s0.2,0.1,0.3,0.1c0.1,0,0.3,0,0.4-0.1c0.2-0.1,0.3-0.3,0.6-0.6v-2.9c0-0.4,0-0.7-0.1-0.8s-0.2-0.2-0.5-0.2v-0.2
		L79.6,32.5L79.6,32.5z"/>
	<path class="st1" d="M83.7,32.5v0.7c0.3-0.3,0.6-0.6,0.8-0.7s0.5-0.2,0.8-0.2s0.7,0.1,0.9,0.2s0.4,0.4,0.6,0.8
		c0.3-0.3,0.6-0.6,0.9-0.8s0.6-0.2,0.9-0.2c0.4,0,0.7,0.1,0.9,0.3s0.4,0.4,0.5,0.7s0.1,0.7,0.1,1.3v2.2c0,0.4,0,0.7,0.1,0.8
		s0.2,0.2,0.5,0.2V38h-2.8v-0.2c0.2,0,0.4-0.1,0.5-0.3c0.1-0.1,0.1-0.3,0.1-0.7v-2.4c0-0.5,0-0.8-0.1-0.9s-0.1-0.2-0.2-0.3
		s-0.2-0.1-0.3-0.1c-0.2,0-0.3,0.1-0.5,0.2s-0.3,0.3-0.5,0.5v2.9c0,0.4,0,0.6,0.1,0.7c0.1,0.1,0.3,0.2,0.5,0.2V38h-2.8v-0.2
		c0.2,0,0.3,0,0.4-0.1s0.2-0.2,0.2-0.2s0-0.3,0-0.6v-2.4c0-0.5,0-0.8-0.1-0.9s-0.1-0.2-0.2-0.3s-0.2-0.1-0.3-0.1
		c-0.2,0-0.3,0-0.4,0.1c-0.2,0.1-0.4,0.3-0.6,0.6v2.9c0,0.4,0,0.6,0.1,0.8s0.2,0.2,0.5,0.2V38h-2.8v-0.2c0.2,0,0.4-0.1,0.5-0.2
		c0.1-0.1,0.1-0.3,0.1-0.8v-3.1c0-0.4,0-0.7-0.1-0.8s-0.2-0.2-0.5-0.2v-0.2H83.7L83.7,32.5z"/>
	<path class="st0" d="M99.4,37.8V38h-4.2v-0.2h0.3c0.2,0,0.4,0,0.6-0.1c0.1,0,0.2-0.2,0.2-0.3s0.1-0.3,0.1-0.7v-5.2
		c0-0.4,0-0.7-0.1-0.8s-0.1-0.2-0.3-0.3s-0.3-0.1-0.5-0.1h-0.3V30h4.2v0.2h-0.3c-0.2,0-0.4,0-0.6,0.1c-0.1,0-0.2,0.1-0.2,0.3
		c0,0.1-0.1,0.3-0.1,0.7v5.2c0,0.4,0,0.7,0.1,0.8s0.1,0.2,0.3,0.3s0.3,0.1,0.5,0.1C99.1,37.8,99.4,37.8,99.4,37.8z"/>
	<path class="st1" d="M102.8,32.5v0.7c0.3-0.3,0.6-0.5,0.8-0.7s0.5-0.2,0.8-0.2c0.4,0,0.7,0.1,0.9,0.3s0.4,0.4,0.5,0.7
		c0.1,0.2,0.1,0.7,0.1,1.3v2.1c0,0.4,0,0.7,0.1,0.8s0.2,0.2,0.5,0.2V38h-2.8v-0.2c0.2,0,0.4-0.1,0.4-0.3c0.1-0.1,0.1-0.3,0.1-0.7
		v-2.4c0-0.5,0-0.7-0.1-0.8s-0.1-0.2-0.2-0.3s-0.2-0.1-0.3-0.1c-0.3,0-0.7,0.2-0.9,0.7v2.9c0,0.4,0,0.7,0.1,0.8s0.2,0.2,0.4,0.2V38
		h-2.8v-0.2c0.2,0,0.4-0.1,0.5-0.2c0.1-0.1,0.1-0.3,0.1-0.8v-3.1c0-0.4,0-0.7-0.1-0.8s-0.2-0.2-0.5-0.2v-0.2H102.8L102.8,32.5z"/>
	<path class="st1" d="M111.2,32.4l0.1,1.9H111c-0.2-0.5-0.5-0.9-0.7-1.1s-0.5-0.3-0.8-0.3c-0.2,0-0.3,0-0.4,0.2s-0.2,0.2-0.2,0.4
		c0,0.1,0,0.2,0.1,0.3c0.1,0.2,0.5,0.4,1.1,0.8s0.9,0.7,1.1,1s0.3,0.6,0.3,0.9c0,0.3-0.1,0.6-0.2,0.9s-0.4,0.5-0.6,0.7
		s-0.6,0.2-0.9,0.2s-0.6-0.1-1.1-0.2c-0.1,0-0.2-0.1-0.2-0.1c-0.1,0-0.2,0.1-0.3,0.3H108l-0.1-2h0.2c0.2,0.5,0.4,0.9,0.7,1.2
		s0.6,0.4,0.9,0.4c0.2,0,0.3-0.1,0.5-0.2s0.2-0.2,0.2-0.4s-0.1-0.3-0.2-0.5s-0.4-0.3-0.8-0.6c-0.6-0.4-1-0.7-1.2-1
		c-0.3-0.3-0.4-0.7-0.4-1.1c0-0.4,0.2-0.8,0.4-1.2s0.7-0.5,1.3-0.5c0.3,0,0.6,0.1,0.9,0.2c0.1,0.1,0.2,0.1,0.3,0.1s0.1,0,0.2,0
		s0.1-0.1,0.2-0.2L111.2,32.4L111.2,32.4z"/>
	<path class="st1" d="M115,30.5v2h1.3v0.6H115v3.4c0,0.3,0,0.5,0,0.6s0.1,0.2,0.2,0.2s0.1,0.1,0.2,0.1c0.2,0,0.5-0.2,0.7-0.6
		l0.2,0.1c-0.3,0.8-0.8,1.1-1.5,1.1c-0.3,0-0.6-0.1-0.9-0.3s-0.4-0.4-0.5-0.7c0-0.1-0.1-0.5-0.1-1.1v-3h-0.7v-0.2
		c0.5-0.3,0.9-0.7,1.3-1.1s0.7-0.8,0.9-1.3L115,30.5L115,30.5z"/>
	<path class="st1" d="M119.6,32.5v1.2c0.4-0.6,0.7-0.9,1-1.1s0.5-0.3,0.8-0.3c0.2,0,0.4,0.1,0.5,0.2s0.2,0.3,0.2,0.6
		s-0.1,0.5-0.2,0.6s-0.3,0.2-0.5,0.2s-0.4-0.1-0.5-0.2s-0.2-0.2-0.3-0.2h-0.1c-0.1,0-0.2,0-0.3,0.1c-0.2,0.1-0.3,0.3-0.4,0.6
		c-0.1,0.4-0.2,0.8-0.2,1.2V37c0,0.2,0,0.4,0.1,0.4c0.1,0.1,0.1,0.2,0.2,0.2s0.2,0.1,0.5,0.1V38h-3v-0.2c0.2,0,0.4-0.1,0.5-0.2
		s0.1-0.4,0.1-0.9v-3c0-0.3,0-0.5-0.1-0.6c0-0.1-0.1-0.2-0.2-0.2s-0.2-0.1-0.4-0.1v-0.2L119.6,32.5L119.6,32.5z"/>
	<path class="st1" d="M128.4,32.5v4.3c0,0.4,0,0.7,0.1,0.8s0.2,0.2,0.5,0.2V38h-2.2v-0.7c-0.3,0.3-0.5,0.5-0.8,0.7s-0.6,0.2-0.9,0.2
		s-0.6-0.1-0.8-0.3s-0.4-0.4-0.5-0.7s-0.1-0.7-0.1-1.3v-2.2c0-0.4,0-0.7-0.1-0.8s-0.2-0.2-0.5-0.2v-0.2h2.2v3.7c0,0.4,0,0.6,0.1,0.8
		s0.1,0.2,0.2,0.3s0.2,0.1,0.3,0.1c0.1,0,0.3,0,0.4-0.1c0.2-0.1,0.3-0.3,0.6-0.6v-2.9c0-0.4,0-0.7-0.1-0.8s-0.2-0.2-0.5-0.2v-0.2
		L128.4,32.5L128.4,32.5z"/>
	<path class="st1" d="M134.7,36.6l0.2,0.1c-0.3,0.5-0.6,0.8-1,1.1s-0.8,0.3-1.2,0.3c-0.7,0-1.3-0.3-1.8-0.8s-0.7-1.2-0.7-2
		s0.2-1.4,0.6-2c0.5-0.7,1.1-1,2-1c0.6,0,1,0.1,1.4,0.4s0.5,0.6,0.5,1c0,0.2-0.1,0.4-0.2,0.5s-0.3,0.2-0.5,0.2s-0.4-0.1-0.6-0.2
		s-0.2-0.4-0.3-0.8c0-0.2-0.1-0.4-0.2-0.5s-0.2-0.2-0.3-0.2c-0.2,0-0.4,0.1-0.5,0.3c-0.2,0.3-0.3,0.8-0.3,1.4c0,0.5,0.1,1,0.2,1.5
		s0.4,0.8,0.7,1c0.2,0.2,0.5,0.2,0.8,0.2c0.2,0,0.4,0,0.5-0.1S134.5,36.8,134.7,36.6L134.7,36.6z"/>
	<path class="st1" d="M138.2,30.5v2h1.3v0.6h-1.3v3.4c0,0.3,0,0.5,0,0.6s0.1,0.2,0.2,0.2s0.1,0.1,0.2,0.1c0.2,0,0.5-0.2,0.7-0.6
		l0.2,0.1c-0.3,0.8-0.8,1.1-1.5,1.1c-0.4,0-0.6-0.1-0.9-0.3s-0.4-0.4-0.5-0.7c0-0.1-0.1-0.5-0.1-1.1v-3h-0.7v-0.2
		c0.5-0.3,0.9-0.7,1.3-1.1s0.6-0.8,0.9-1.3L138.2,30.5L138.2,30.5z"/>
	<path class="st1" d="M142.7,32.5v4.3c0,0.4,0,0.6,0.1,0.7s0.3,0.2,0.5,0.2V38h-3v-0.2c0.2,0,0.4-0.1,0.5-0.2
		c0.1-0.1,0.1-0.3,0.1-0.7v-3.2c0-0.4,0-0.6-0.1-0.7s-0.3-0.2-0.5-0.2v-0.2L142.7,32.5L142.7,32.5z M141.9,29.9
		c0.2,0,0.5,0.1,0.6,0.3s0.3,0.4,0.3,0.6s-0.1,0.5-0.3,0.6s-0.4,0.3-0.6,0.3s-0.5-0.1-0.6-0.3S141,31,141,30.8s0.1-0.5,0.3-0.6
		S141.6,29.9,141.9,29.9L141.9,29.9z"/>
	<path class="st1" d="M146.9,32.3c0.5,0,0.9,0.1,1.3,0.4s0.7,0.6,0.9,1s0.3,1,0.3,1.5c0,0.8-0.2,1.4-0.6,2c-0.5,0.6-1.1,1-2,1
		s-1.5-0.3-1.9-0.9s-0.7-1.2-0.7-2s0.2-1.5,0.7-2S146.2,32.4,146.9,32.3z M147,32.8c-0.2,0-0.4,0.1-0.5,0.2s-0.2,0.5-0.3,0.9
		s-0.1,1.1-0.1,1.8c0,0.4,0,0.8,0.1,1.2c0,0.3,0.1,0.5,0.3,0.6s0.3,0.2,0.5,0.2s0.3,0,0.4-0.2c0.1-0.1,0.2-0.3,0.3-0.6
		c0.1-0.4,0.1-1.1,0.1-2.2c0-0.7,0-1.1-0.1-1.4s-0.2-0.4-0.3-0.5C147.3,32.8,147.1,32.8,147,32.8z"/>
	<path class="st1" d="M153.1,32.5v0.7c0.3-0.3,0.6-0.5,0.8-0.7s0.5-0.2,0.8-0.2c0.4,0,0.6,0.1,0.9,0.3s0.4,0.4,0.5,0.7
		c0.1,0.2,0.1,0.7,0.1,1.3v2.1c0,0.4,0,0.7,0.1,0.8s0.2,0.2,0.5,0.2V38H154v-0.2c0.2,0,0.4-0.1,0.4-0.3c0.1-0.1,0.1-0.3,0.1-0.7
		v-2.4c0-0.5,0-0.7-0.1-0.8s-0.1-0.2-0.2-0.3s-0.2-0.1-0.3-0.1c-0.3,0-0.6,0.2-0.9,0.7v2.9c0,0.4,0,0.7,0.1,0.8s0.2,0.2,0.4,0.2V38
		h-2.8v-0.2c0.2,0,0.4-0.1,0.5-0.2c0.1-0.1,0.1-0.3,0.1-0.8v-3.1c0-0.4,0-0.7-0.1-0.8s-0.2-0.2-0.5-0.2v-0.2H153.1L153.1,32.5z"/>
	<path class="st0" d="M166.7,29.9l0.1,2.7h-0.2c-0.1-0.7-0.4-1.2-0.8-1.6s-0.9-0.6-1.4-0.6c-0.4,0-0.7,0.1-0.9,0.3s-0.4,0.5-0.4,0.7
		s0,0.3,0.1,0.5s0.3,0.4,0.5,0.5s0.6,0.4,1.3,0.7c0.9,0.5,1.6,0.9,1.9,1.3c0.3,0.4,0.5,0.9,0.5,1.4c0,0.7-0.3,1.2-0.8,1.7
		s-1.2,0.7-2,0.7c-0.2,0-0.5,0-0.7-0.1s-0.5-0.2-0.8-0.3c-0.2-0.1-0.3-0.1-0.5-0.1c-0.1,0-0.2,0-0.3,0.1s-0.2,0.2-0.3,0.4h-0.2v-3
		h0.2c0.2,0.8,0.5,1.5,1,1.9s1,0.7,1.6,0.7c0.4,0,0.8-0.1,1.1-0.4s0.4-0.5,0.4-0.8c0-0.2-0.1-0.4-0.1-0.5s-0.2-0.3-0.4-0.5
		s-0.6-0.4-1.1-0.6c-0.7-0.4-1.2-0.7-1.6-0.9s-0.6-0.5-0.7-0.8s-0.2-0.7-0.2-1c0-0.6,0.2-1.2,0.7-1.6s1.1-0.7,1.8-0.7
		c0.3,0,0.5,0,0.8,0.1c0.2,0,0.4,0.1,0.7,0.3s0.4,0.2,0.6,0.2s0.2,0,0.2-0.1s0.1-0.2,0.2-0.5L166.7,29.9L166.7,29.9z"/>
	<path class="st0" d="M173.1,36.6l0.2,0.1c-0.3,0.5-0.6,0.8-1,1.1s-0.8,0.3-1.2,0.3c-0.7,0-1.3-0.3-1.8-0.8s-0.7-1.2-0.7-2
		s0.2-1.4,0.6-2c0.5-0.7,1.1-1,2-1c0.6,0,1,0.1,1.4,0.4s0.5,0.6,0.5,1c0,0.2-0.1,0.4-0.2,0.5s-0.3,0.2-0.5,0.2s-0.4-0.1-0.6-0.2
		s-0.2-0.4-0.3-0.8c0-0.2-0.1-0.4-0.2-0.5s-0.2-0.2-0.3-0.2c-0.2,0-0.4,0.1-0.5,0.3c-0.2,0.3-0.3,0.8-0.3,1.4c0,0.5,0.1,1,0.2,1.5
		s0.4,0.8,0.7,1c0.2,0.2,0.5,0.2,0.8,0.2c0.2,0,0.4,0,0.5-0.1S172.9,36.8,173.1,36.6L173.1,36.6z"/>
	<path class="st0" d="M176.7,32.5v1.2c0.4-0.6,0.7-0.9,1-1.1s0.5-0.3,0.8-0.3c0.2,0,0.4,0.1,0.5,0.2s0.2,0.3,0.2,0.6
		s-0.1,0.5-0.2,0.6s-0.3,0.2-0.5,0.2s-0.4-0.1-0.5-0.2s-0.2-0.2-0.3-0.2h-0.1c-0.1,0-0.2,0-0.3,0.1c-0.2,0.1-0.3,0.3-0.4,0.6
		c-0.1,0.4-0.2,0.8-0.2,1.2V37c0,0.2,0,0.4,0.1,0.4c0.1,0.1,0.1,0.2,0.2,0.2s0.2,0.1,0.5,0.1V38h-3v-0.2c0.2,0,0.4-0.1,0.5-0.2
		s0.1-0.4,0.1-0.9v-3c0-0.3,0-0.5-0.1-0.6c0-0.1-0.1-0.2-0.2-0.2s-0.2-0.1-0.4-0.1v-0.2L176.7,32.5L176.7,32.5z"/>
	<path class="st0" d="M184.7,35h-3c0,0.7,0.2,1.3,0.6,1.7c0.3,0.3,0.6,0.5,1,0.5c0.2,0,0.4-0.1,0.6-0.2s0.4-0.4,0.6-0.7l0.2,0.1
		c-0.3,0.6-0.6,1-1,1.3s-0.8,0.4-1.2,0.4c-0.8,0-1.4-0.3-1.9-0.9c-0.3-0.5-0.5-1.1-0.5-1.9c0-0.9,0.2-1.6,0.7-2.2s1.1-0.8,1.7-0.8
		c0.6,0,1,0.2,1.4,0.7S184.6,34.2,184.7,35L184.7,35z M183.2,34.7c0-0.6,0-1.1-0.1-1.3s-0.2-0.4-0.3-0.5s-0.2-0.1-0.3-0.1
		c-0.2,0-0.4,0.1-0.5,0.3c-0.2,0.3-0.4,0.8-0.4,1.4v0.2L183.2,34.7L183.2,34.7z"/>
	<path class="st0" d="M190.5,35h-3c0,0.7,0.2,1.3,0.6,1.7c0.3,0.3,0.6,0.5,1,0.5c0.2,0,0.4-0.1,0.6-0.2s0.4-0.4,0.6-0.7l0.2,0.1
		c-0.3,0.6-0.6,1-1,1.3s-0.8,0.4-1.2,0.4c-0.8,0-1.4-0.3-1.9-0.9c-0.3-0.5-0.5-1.1-0.5-1.9c0-0.9,0.2-1.6,0.7-2.2s1.1-0.8,1.7-0.8
		c0.6,0,1,0.2,1.4,0.7S190.5,34.2,190.5,35L190.5,35z M189,34.7c0-0.6,0-1.1-0.1-1.3s-0.2-0.4-0.3-0.5s-0.2-0.1-0.3-0.1
		c-0.2,0-0.4,0.1-0.5,0.3c-0.2,0.3-0.4,0.8-0.4,1.4v0.2L189,34.7L189,34.7z"/>
	<path class="st0" d="M193.9,32.5v0.7c0.3-0.3,0.6-0.5,0.8-0.7s0.5-0.2,0.8-0.2c0.4,0,0.6,0.1,0.9,0.3s0.4,0.4,0.5,0.7
		c0.1,0.2,0.1,0.7,0.1,1.3v2.1c0,0.4,0,0.7,0.1,0.8s0.2,0.2,0.5,0.2V38h-2.8v-0.2c0.2,0,0.4-0.1,0.4-0.3c0.1-0.1,0.1-0.3,0.1-0.7
		v-2.4c0-0.5,0-0.7-0.1-0.8s-0.1-0.2-0.2-0.3s-0.2-0.1-0.3-0.1c-0.3,0-0.6,0.2-0.9,0.7v2.9c0,0.4,0,0.7,0.1,0.8s0.2,0.2,0.4,0.2V38
		h-2.8v-0.2c0.2,0,0.4-0.1,0.5-0.2c0.1-0.1,0.1-0.3,0.1-0.8v-3.1c0-0.4,0-0.7-0.1-0.8s-0.2-0.2-0.5-0.2v-0.2H193.9L193.9,32.5z"/>
	<path class="st0" d="M200.9,32.5v4.3c0,0.4,0,0.6,0.1,0.7s0.3,0.2,0.5,0.2V38h-3v-0.2c0.2,0,0.4-0.1,0.5-0.2
		c0.1-0.1,0.1-0.3,0.1-0.7v-3.2c0-0.4,0-0.6-0.1-0.7s-0.3-0.2-0.5-0.2v-0.2L200.9,32.5L200.9,32.5z M200.1,29.9
		c0.2,0,0.5,0.1,0.6,0.3s0.3,0.4,0.3,0.6s-0.1,0.5-0.3,0.6s-0.4,0.3-0.6,0.3s-0.5-0.1-0.6-0.3s-0.3-0.4-0.3-0.6s0.1-0.5,0.3-0.6
		S199.9,29.9,200.1,29.9L200.1,29.9z"/>
	<path class="st0" d="M204.9,32.5v0.7c0.3-0.3,0.6-0.5,0.8-0.7s0.5-0.2,0.8-0.2c0.4,0,0.6,0.1,0.9,0.3s0.4,0.4,0.5,0.7
		c0.1,0.2,0.1,0.7,0.1,1.3v2.1c0,0.4,0,0.7,0.1,0.8s0.2,0.2,0.5,0.2V38h-2.8v-0.2c0.2,0,0.4-0.1,0.4-0.3c0.1-0.1,0.1-0.3,0.1-0.7
		v-2.4c0-0.5,0-0.7-0.1-0.8s-0.1-0.2-0.2-0.3s-0.2-0.1-0.3-0.1c-0.3,0-0.6,0.2-0.9,0.7v2.9c0,0.4,0,0.7,0.1,0.8s0.2,0.2,0.4,0.2V38
		h-2.8v-0.2c0.2,0,0.4-0.1,0.5-0.2c0.1-0.1,0.1-0.3,0.1-0.8v-3.1c0-0.4,0-0.7-0.1-0.8s-0.2-0.2-0.5-0.2v-0.2H204.9L204.9,32.5z"/>
	<path class="st0" d="M213.3,32.6h1.9v0.6h-1.1c0.2,0.2,0.3,0.4,0.4,0.5c0.1,0.2,0.1,0.4,0.1,0.7c0,0.4-0.1,0.7-0.3,1
		s-0.5,0.5-0.9,0.7s-0.7,0.2-1,0.2c0,0-0.3,0-0.7,0c-0.2,0-0.3,0.1-0.4,0.2s-0.2,0.2-0.2,0.4c0,0.1,0.1,0.3,0.2,0.3s0.3,0.1,0.5,0.1
		h1c0.8,0,1.4,0.1,1.7,0.3c0.4,0.2,0.7,0.6,0.7,1.2c0,0.3-0.1,0.6-0.3,0.9s-0.5,0.5-0.8,0.6c-0.5,0.2-1.1,0.3-1.7,0.3
		c-0.5,0-0.9,0-1.4-0.1s-0.7-0.2-0.9-0.4s-0.3-0.3-0.3-0.5s0.1-0.3,0.2-0.5s0.4-0.3,0.8-0.4c-0.5-0.2-0.8-0.6-0.8-1
		c0-0.3,0.1-0.5,0.3-0.8s0.5-0.5,1-0.7c-0.5-0.2-0.9-0.4-1.1-0.8s-0.4-0.7-0.4-1.1c0-0.5,0.2-1,0.7-1.4s1-0.6,1.7-0.6
		C212.5,32.3,212.9,32.4,213.3,32.6L213.3,32.6z M211.9,38.8c-0.4,0-0.7,0-0.8,0.1c-0.2,0.1-0.3,0.3-0.3,0.5s0.1,0.4,0.4,0.5
		s0.7,0.2,1.3,0.2c0.5,0,1-0.1,1.3-0.2s0.5-0.3,0.5-0.6c0-0.1,0-0.2-0.1-0.2c-0.1-0.1-0.3-0.2-0.5-0.2S212.9,38.8,211.9,38.8
		L211.9,38.8z M212.3,32.7c-0.2,0-0.4,0.1-0.6,0.3s-0.2,0.7-0.2,1.4c0,0.6,0.1,1,0.2,1.2s0.3,0.3,0.6,0.3c0.2,0,0.4-0.1,0.6-0.3
		s0.2-0.6,0.2-1.2c0-0.7-0.1-1.2-0.3-1.4C212.7,32.8,212.5,32.7,212.3,32.7L212.3,32.7z"/>
	<path class="st0" d="M226.7,30v2.2h-0.2c-0.1-0.5-0.3-0.9-0.4-1.1s-0.4-0.4-0.6-0.5c-0.1-0.1-0.4-0.1-0.8-0.1H224v6.1
		c0,0.4,0,0.7,0.1,0.8s0.1,0.2,0.3,0.3s0.3,0.1,0.5,0.1h0.3V38H221v-0.2h0.3c0.2,0,0.4,0,0.6-0.1c0.1,0,0.2-0.2,0.2-0.3
		s0.1-0.3,0.1-0.7v-6.1h-0.6c-0.5,0-0.9,0.1-1.2,0.3c-0.3,0.3-0.6,0.8-0.6,1.3h-0.2V30H226.7L226.7,30z"/>
	<path class="st0" d="M231.5,35h-3c0,0.7,0.2,1.3,0.6,1.7c0.3,0.3,0.6,0.5,1,0.5c0.2,0,0.4-0.1,0.6-0.2s0.4-0.4,0.6-0.7l0.2,0.1
		c-0.3,0.6-0.6,1-1,1.3s-0.8,0.4-1.2,0.4c-0.8,0-1.4-0.3-1.9-0.9c-0.3-0.5-0.5-1.1-0.5-1.9c0-0.9,0.2-1.6,0.7-2.2s1.1-0.8,1.7-0.8
		c0.6,0,1,0.2,1.4,0.7S231.5,34.2,231.5,35L231.5,35z M230.1,34.7c0-0.6,0-1.1-0.1-1.3s-0.2-0.4-0.3-0.5s-0.2-0.1-0.3-0.1
		c-0.2,0-0.4,0.1-0.5,0.3c-0.2,0.3-0.4,0.8-0.4,1.4v0.2L230.1,34.7L230.1,34.7z"/>
	<path class="st0" d="M236.2,32.4l0.1,1.9h-0.2c-0.2-0.5-0.5-0.9-0.7-1.1s-0.5-0.3-0.8-0.3c-0.2,0-0.3,0-0.4,0.2s-0.2,0.2-0.2,0.4
		c0,0.1,0,0.2,0.1,0.3c0.1,0.2,0.5,0.4,1.1,0.8s0.9,0.7,1.1,1s0.3,0.6,0.3,0.9c0,0.3-0.1,0.6-0.2,0.9s-0.4,0.5-0.6,0.7
		s-0.6,0.2-0.9,0.2c-0.3,0-0.6-0.1-1.1-0.2c-0.1,0-0.2-0.1-0.2-0.1c-0.1,0-0.2,0.1-0.3,0.3h-0.2l-0.1-2h0.2c0.2,0.5,0.4,0.9,0.7,1.2
		s0.6,0.4,0.9,0.4c0.2,0,0.3-0.1,0.5-0.2s0.2-0.2,0.2-0.4s-0.1-0.3-0.2-0.5s-0.4-0.3-0.8-0.6c-0.6-0.4-1-0.7-1.2-1
		c-0.3-0.3-0.4-0.7-0.4-1.1c0-0.4,0.1-0.8,0.4-1.2s0.7-0.5,1.3-0.5c0.3,0,0.6,0.1,0.9,0.2c0.1,0.1,0.2,0.1,0.3,0.1s0.1,0,0.2,0
		s0.1-0.1,0.2-0.2L236.2,32.4L236.2,32.4z"/>
	<path class="st0" d="M240,30.5v2h1.3v0.6H240v3.4c0,0.3,0,0.5,0,0.6s0.1,0.2,0.2,0.2s0.1,0.1,0.2,0.1c0.2,0,0.5-0.2,0.7-0.6
		l0.2,0.1c-0.3,0.8-0.8,1.1-1.5,1.1c-0.4,0-0.6-0.1-0.9-0.3s-0.4-0.4-0.5-0.7c0-0.1-0.1-0.5-0.1-1.1v-3h-0.7v-0.2
		c0.5-0.3,0.9-0.7,1.3-1.1s0.6-0.8,0.9-1.3L240,30.5L240,30.5z"/>
</g>
</svg>
