<?xml version="1.0" encoding="UTF-8"?><svg id="_圖層_2" xmlns="http://www.w3.org/2000/svg" viewBox="0 0 241.26 35.57"><defs><style>.cls-1{fill:#24a3b0;}.cls-2{fill:#3b4089;}</style></defs><g id="_圖層_1-2"><g><path class="cls-2" d="m7.14,25.04v2.15h-.21c-.12-.5-.26-.85-.42-1.07s-.36-.39-.63-.52c-.15-.07-.41-.11-.78-.11h-.59v6.13c0,.41.02.66.07.76s.13.19.26.27.31.11.54.11h.26v.22H1.48v-.22h.26c.23,0,.42-.04.56-.12.1-.05.18-.15.24-.28.04-.09.06-.34.06-.74v-6.13h-.57c-.54,0-.92.11-1.17.34-.34.32-.55.77-.64,1.35h-.22v-2.15h7.14Z"/><path class="cls-1" d="m11.51,30.04h-3.01c.04.73.23,1.3.58,1.72.27.32.59.49.97.49.23,0,.45-.07.64-.2s.4-.37.62-.71l.2.13c-.3.61-.62,1.03-.98,1.29s-.78.38-1.25.38c-.81,0-1.43-.31-1.85-.94-.34-.5-.5-1.13-.5-1.88,0-.91.25-1.64.74-2.18s1.07-.81,1.74-.81c.55,0,1.04.23,1.44.68s.63,1.13.66,2.02Zm-1.44-.39c0-.63-.03-1.06-.1-1.29s-.17-.41-.32-.53c-.08-.07-.19-.11-.33-.11-.2,0-.37.1-.5.3-.23.35-.35.82-.35,1.43v.21h1.59Z"/><path class="cls-1" d="m15.66,27.35l.09,1.87h-.2c-.24-.55-.49-.93-.74-1.14s-.51-.3-.76-.3c-.16,0-.3.05-.41.16s-.17.23-.17.37c0,.11.04.21.12.3.12.16.47.43,1.05.82s.95.72,1.13.99.27.58.27.91c0,.3-.08.6-.23.9s-.37.52-.64.67-.58.23-.92.23c-.26,0-.61-.08-1.05-.25-.12-.04-.2-.06-.24-.06-.13,0-.24.1-.32.29h-.19l-.09-1.97h.2c.18.52.42.9.72,1.16s.6.39.87.39c.19,0,.34-.06.46-.17s.18-.25.18-.42c0-.19-.06-.35-.18-.49s-.38-.34-.79-.62c-.6-.41-.98-.73-1.16-.95-.26-.32-.39-.67-.39-1.06,0-.42.15-.8.44-1.15s.71-.51,1.26-.51c.3,0,.58.07.86.22.11.06.19.09.26.09.07,0,.13-.01.17-.04s.11-.11.21-.25h.2Z"/><path class="cls-1" d="m19.04,25.5v2h1.3v.58h-1.3v3.38c0,.32.01.52.04.61s.08.17.16.22.14.08.21.08c.25,0,.49-.19.72-.58l.18.13c-.32.75-.83,1.12-1.54,1.12-.35,0-.64-.1-.88-.29s-.39-.41-.46-.65c-.04-.13-.06-.49-.06-1.08v-2.96h-.71v-.21c.49-.35.91-.71,1.26-1.1s.65-.81.91-1.28h.19Z"/><path class="cls-1" d="m26.45,27.34c.48,0,.92.12,1.33.37s.72.6.93,1.05.32.95.32,1.49c0,.78-.2,1.43-.59,1.95-.48.63-1.13.95-1.97.95s-1.46-.29-1.9-.87-.67-1.25-.67-2.01.23-1.47.68-2.05,1.08-.88,1.87-.88Zm.02.42c-.2,0-.37.08-.51.23s-.24.45-.28.89-.07,1.06-.07,1.85c0,.42.03.81.08,1.17.04.28.13.49.28.63s.3.22.48.22.32-.05.44-.15c.15-.13.25-.32.3-.56.08-.37.12-1.12.12-2.25,0-.66-.04-1.12-.11-1.37s-.18-.43-.33-.54c-.1-.08-.23-.12-.4-.12Z"/><path class="cls-1" d="m32.27,28.08v3.8c0,.37.04.6.12.69.12.14.36.21.69.2v.21h-3.23v-.21c.25,0,.42-.03.52-.08s.17-.13.21-.22.06-.29.06-.59v-3.8h-.8v-.57h.8v-.68c0-.56.2-1.03.61-1.41s.97-.56,1.67-.56c.48,0,.84.09,1.07.27s.35.38.35.6c0,.18-.07.33-.22.46s-.34.19-.57.19c-.2,0-.36-.05-.48-.16s-.18-.22-.18-.35c0-.04.01-.11.04-.22.02-.07.02-.13.02-.19,0-.08-.02-.14-.07-.18-.06-.06-.14-.09-.23-.09-.11,0-.21.05-.28.14s-.11.24-.11.45v1.03s.01.7.01.7h.81v.57h-.81Z"/><path class="cls-2" d="m39.73,25.49v3.23h.16c.5,0,.87-.16,1.1-.47s.37-.78.43-1.4h.22v4.16h-.22c-.05-.45-.15-.82-.3-1.11s-.33-.48-.52-.58-.49-.15-.87-.15v2.24c0,.44.02.71.06.8s.11.18.21.24.27.09.49.09h.47c.74,0,1.34-.17,1.78-.52s.77-.87.96-1.57h.22l-.36,2.53h-6.87v-.22h.26c.23,0,.42-.04.56-.12.1-.05.18-.15.23-.28.04-.09.06-.34.06-.74v-5.23c0-.36,0-.58-.03-.66-.04-.14-.11-.24-.22-.32-.15-.11-.35-.16-.61-.16h-.26v-.22h6.65v2.35h-.22c-.11-.57-.27-.99-.48-1.24s-.5-.43-.87-.55c-.22-.07-.63-.11-1.23-.11h-.82Z"/><path class="cls-1" d="m47.1,27.5v.71c.28-.3.55-.53.81-.67s.54-.21.83-.21c.36,0,.65.1.88.3s.39.44.47.74c.06.22.09.65.09,1.28v2.13c0,.42.04.68.11.79s.24.17.48.2v.21h-2.77v-.21c.21-.03.36-.11.45-.26.06-.1.09-.34.09-.73v-2.44c0-.45-.02-.73-.05-.85s-.09-.21-.18-.27-.18-.1-.28-.1c-.34,0-.65.24-.94.72v2.94c0,.41.04.67.11.78s.22.18.42.21v.21h-2.77v-.21c.23-.02.39-.1.49-.22.07-.09.1-.34.1-.76v-3.09c0-.41-.04-.67-.11-.77s-.24-.17-.48-.2v-.22h2.23Z"/><path class="cls-1" d="m55.05,27.57h1.85v.64h-1.05c.19.19.32.37.4.52.09.21.14.43.14.66,0,.39-.11.73-.33,1.02s-.51.51-.88.67-.7.24-.99.24c-.02,0-.26,0-.7-.03-.18,0-.32.06-.44.17s-.18.25-.18.41c0,.14.05.26.16.35s.28.13.52.13h1.01c.82-.01,1.38.08,1.69.26.44.25.66.63.66,1.15,0,.33-.1.63-.3.91s-.47.47-.8.6c-.5.19-1.08.29-1.74.29-.49,0-.94-.05-1.35-.14s-.7-.23-.87-.4-.26-.35-.26-.54.07-.34.2-.48.39-.26.75-.36c-.51-.25-.76-.6-.76-1.04,0-.27.1-.53.31-.79s.54-.47.98-.66c-.52-.19-.9-.44-1.14-.76s-.35-.67-.35-1.08c0-.54.22-1,.66-1.39s1-.59,1.69-.59c.36,0,.74.08,1.12.23Zm-1.36,6.22c-.4,0-.66.03-.79.1-.22.12-.33.29-.33.49s.12.38.35.54.66.24,1.3.24c.54,0,.97-.07,1.28-.22s.47-.35.47-.61c0-.1-.03-.18-.09-.25-.11-.12-.26-.2-.48-.24s-.78-.06-1.7-.06Zm.35-6.09c-.23,0-.42.11-.57.34s-.23.7-.23,1.42c0,.58.08.98.23,1.2s.34.33.55.33c.23,0,.43-.11.59-.32s.23-.63.23-1.25c0-.7-.09-1.18-.26-1.43-.12-.19-.3-.28-.53-.28Z"/><path class="cls-1" d="m59.68,25.04v6.81c0,.39.04.63.13.74s.27.17.53.18v.21h-2.96v-.21c.24,0,.42-.08.54-.21.08-.09.12-.33.12-.71v-5.67c0-.38-.04-.63-.13-.74s-.26-.17-.52-.18v-.22h2.3Z"/><path class="cls-1" d="m63.01,27.5v4.34c0,.39.04.63.13.74s.27.17.53.18v.21h-2.96v-.21c.24,0,.42-.08.54-.21.08-.09.12-.33.12-.71v-3.2c0-.39-.04-.63-.13-.74s-.26-.17-.52-.18v-.22h2.3Zm-.82-2.65c.25,0,.47.09.64.27s.26.39.26.64-.09.46-.27.64-.39.26-.64.26-.46-.09-.64-.26-.26-.39-.26-.64.09-.46.26-.64.39-.27.64-.27Z"/><path class="cls-1" d="m67.67,27.35l.09,1.87h-.2c-.24-.55-.49-.93-.74-1.14s-.51-.3-.76-.3c-.16,0-.3.05-.41.16s-.17.23-.17.37c0,.11.04.21.12.3.12.16.47.43,1.05.82s.95.72,1.13.99.27.58.27.91c0,.3-.08.6-.23.9s-.37.52-.64.67-.58.23-.92.23c-.26,0-.61-.08-1.05-.25-.12-.04-.2-.06-.24-.06-.13,0-.24.1-.32.29h-.19l-.09-1.97h.2c.18.52.42.9.72,1.16s.6.39.87.39c.19,0,.34-.06.46-.17s.18-.25.18-.42c0-.19-.06-.35-.18-.49s-.38-.34-.79-.62c-.6-.41-.98-.73-1.16-.95-.26-.32-.39-.67-.39-1.06,0-.42.15-.8.44-1.15s.71-.51,1.26-.51c.3,0,.58.07.86.22.11.06.19.09.26.09.07,0,.13-.01.17-.04s.11-.11.21-.25h.2Z"/><path class="cls-1" d="m71.12,25.04v3.17c.3-.32.58-.54.83-.67s.51-.2.78-.2c.34,0,.64.1.88.29s.41.42.49.69.12.71.12,1.33v2.14c0,.42.04.68.12.78s.24.17.47.2v.21h-2.78v-.21c.2-.03.34-.11.44-.23.07-.1.11-.35.11-.74v-2.44c0-.45-.02-.74-.05-.85s-.09-.21-.18-.27-.18-.1-.28-.1c-.16,0-.31.05-.46.16s-.31.3-.48.57v2.94c0,.39.03.63.09.73.07.13.23.21.46.25v.21h-2.78v-.21c.23-.02.39-.1.49-.22.07-.09.1-.34.1-.76v-5.57c0-.41-.04-.67-.11-.77s-.24-.17-.48-.2v-.22h2.23Z"/><path class="cls-1" d="m80.95,28.08v3.8c0,.37.04.6.12.69.12.14.36.21.69.2v.21h-3.23v-.21c.25,0,.42-.03.52-.08s.17-.13.21-.22.06-.29.06-.59v-3.8h-.8v-.57h.8v-.68c0-.56.2-1.03.61-1.41s.97-.56,1.67-.56c.48,0,.84.09,1.07.27s.35.38.35.6c0,.18-.07.33-.22.46s-.34.19-.57.19c-.2,0-.36-.05-.48-.16s-.18-.22-.18-.35c0-.04.01-.11.04-.22.02-.07.02-.13.02-.19,0-.08-.02-.14-.07-.18-.06-.06-.14-.09-.23-.09-.11,0-.21.05-.28.14s-.11.24-.11.45v1.03s.01.7.01.7h.81v.57h-.81Z"/><path class="cls-1" d="m85.13,27.34c.48,0,.92.12,1.33.37s.72.6.93,1.05.32.95.32,1.49c0,.78-.2,1.43-.59,1.95-.48.63-1.13.95-1.97.95s-1.46-.29-1.9-.87-.67-1.25-.67-2.01.23-1.47.68-2.05,1.08-.88,1.87-.88Zm.02.42c-.2,0-.37.08-.51.23s-.24.45-.28.89-.07,1.06-.07,1.85c0,.42.03.81.08,1.17.04.28.13.49.28.63s.3.22.48.22.32-.05.44-.15c.15-.13.25-.32.3-.56.08-.37.12-1.12.12-2.25,0-.66-.04-1.12-.11-1.37s-.18-.43-.33-.54c-.1-.08-.23-.12-.4-.12Z"/><path class="cls-1" d="m90.82,27.5v1.24c.36-.57.68-.94.96-1.13s.54-.28.79-.28c.22,0,.39.07.52.2s.2.33.2.57c0,.26-.06.46-.19.61s-.28.22-.46.22c-.21,0-.39-.07-.54-.2s-.24-.21-.27-.22c-.04-.02-.08-.04-.13-.04-.11,0-.22.04-.32.13-.16.13-.28.32-.36.57-.12.38-.19.8-.19,1.25v1.59c0,.22.02.37.05.43.05.11.12.18.21.23s.25.08.47.09v.21h-2.96v-.21c.24-.02.4-.08.48-.2s.13-.41.13-.88v-3.03c0-.31-.02-.51-.05-.6-.04-.11-.1-.19-.17-.24s-.21-.09-.39-.11v-.22h2.24Z"/><path class="cls-2" d="m99.52,25.49v3.23h.16c.5,0,.87-.16,1.1-.47s.37-.78.43-1.4h.22v4.16h-.22c-.05-.45-.15-.82-.3-1.11s-.33-.48-.52-.58-.49-.15-.87-.15v2.24c0,.44.02.71.06.8s.11.18.21.24.27.09.49.09h.47c.74,0,1.34-.17,1.78-.52s.77-.87.96-1.57h.22l-.36,2.53h-6.87v-.22h.26c.23,0,.42-.04.56-.12.1-.05.18-.15.23-.28.04-.09.06-.34.06-.74v-5.23c0-.36,0-.58-.03-.66-.04-.14-.11-.24-.22-.32-.15-.11-.35-.16-.61-.16h-.26v-.22h6.65v2.35h-.22c-.11-.57-.27-.99-.48-1.24s-.5-.43-.87-.55c-.22-.07-.63-.11-1.23-.11h-.82Z"/><path class="cls-1" d="m106.9,27.5v.71c.28-.3.55-.53.81-.67s.54-.21.83-.21c.36,0,.65.1.88.3s.39.44.47.74c.06.22.09.65.09,1.28v2.13c0,.42.04.68.11.79s.24.17.48.2v.21h-2.77v-.21c.21-.03.36-.11.45-.26.06-.1.09-.34.09-.73v-2.44c0-.45-.02-.73-.05-.85s-.09-.21-.18-.27-.18-.1-.28-.1c-.34,0-.65.24-.94.72v2.94c0,.41.04.67.11.78s.22.18.42.21v.21h-2.77v-.21c.23-.02.39-.1.49-.22.07-.09.1-.34.1-.76v-3.09c0-.41-.04-.67-.11-.77s-.24-.17-.48-.2v-.22h2.23Z"/><path class="cls-1" d="m114.85,27.57h1.85v.64h-1.05c.19.19.32.37.4.52.09.21.14.43.14.66,0,.39-.11.73-.33,1.02s-.51.51-.88.67-.7.24-.99.24c-.02,0-.26,0-.7-.03-.18,0-.32.06-.44.17s-.18.25-.18.41c0,.14.05.26.16.35s.28.13.52.13h1.01c.82-.01,1.38.08,1.69.26.44.25.66.63.66,1.15,0,.33-.1.63-.3.91s-.47.47-.8.6c-.5.19-1.08.29-1.74.29-.49,0-.94-.05-1.35-.14s-.7-.23-.87-.4-.26-.35-.26-.54.07-.34.2-.48.39-.26.75-.36c-.51-.25-.76-.6-.76-1.04,0-.27.1-.53.31-.79s.54-.47.98-.66c-.52-.19-.9-.44-1.14-.76s-.35-.67-.35-1.08c0-.54.22-1,.66-1.39s1-.59,1.69-.59c.36,0,.74.08,1.12.23Zm-1.36,6.22c-.4,0-.66.03-.79.1-.22.12-.33.29-.33.49s.12.38.35.54.66.24,1.3.24c.54,0,.97-.07,1.28-.22s.47-.35.47-.61c0-.1-.03-.18-.09-.25-.11-.12-.26-.2-.48-.24s-.78-.06-1.7-.06Zm.35-6.09c-.23,0-.42.11-.57.34s-.23.7-.23,1.42c0,.58.08.98.23,1.2s.34.33.55.33c.23,0,.43-.11.59-.32s.23-.63.23-1.25c0-.7-.09-1.18-.26-1.43-.12-.19-.3-.28-.53-.28Z"/><path class="cls-1" d="m119.48,25.04v6.81c0,.39.04.63.13.74s.27.17.53.18v.21h-2.96v-.21c.24,0,.42-.08.54-.21.08-.09.12-.33.12-.71v-5.67c0-.38-.04-.63-.13-.74s-.26-.17-.52-.18v-.22h2.3Z"/><path class="cls-1" d="m122.81,27.5v4.34c0,.39.04.63.13.74s.27.17.53.18v.21h-2.96v-.21c.24,0,.42-.08.54-.21.08-.09.12-.33.12-.71v-3.2c0-.39-.04-.63-.13-.74s-.26-.17-.52-.18v-.22h2.3Zm-.82-2.65c.25,0,.47.09.64.27s.26.39.26.64-.09.46-.27.64-.39.26-.64.26-.46-.09-.64-.26-.26-.39-.26-.64.09-.46.26-.64.39-.27.64-.27Z"/><path class="cls-1" d="m127.46,27.35l.09,1.87h-.2c-.24-.55-.49-.93-.74-1.14s-.51-.3-.76-.3c-.16,0-.3.05-.41.16s-.17.23-.17.37c0,.11.04.21.12.3.12.16.47.43,1.05.82s.95.72,1.13.99.27.58.27.91c0,.3-.08.6-.23.9s-.37.52-.64.67-.58.23-.92.23c-.26,0-.61-.08-1.05-.25-.12-.04-.2-.06-.24-.06-.13,0-.24.1-.32.29h-.19l-.09-1.97h.2c.18.52.42.9.72,1.16s.6.39.87.39c.19,0,.34-.06.46-.17s.18-.25.18-.42c0-.19-.06-.35-.18-.49s-.38-.34-.79-.62c-.6-.41-.98-.73-1.16-.95-.26-.32-.39-.67-.39-1.06,0-.42.15-.8.44-1.15s.71-.51,1.26-.51c.3,0,.58.07.86.22.11.06.19.09.26.09.07,0,.13-.01.17-.04s.11-.11.21-.25h.2Z"/><path class="cls-1" d="m130.91,25.04v3.17c.3-.32.58-.54.83-.67s.51-.2.78-.2c.34,0,.64.1.88.29s.41.42.49.69.12.71.12,1.33v2.14c0,.42.04.68.12.78s.24.17.47.2v.21h-2.78v-.21c.2-.03.34-.11.44-.23.07-.1.11-.35.11-.74v-2.44c0-.45-.02-.74-.05-.85s-.09-.21-.18-.27-.18-.1-.28-.1c-.16,0-.31.05-.46.16s-.31.3-.48.57v2.94c0,.39.03.63.09.73.07.13.23.21.46.25v.21h-2.78v-.21c.23-.02.39-.1.49-.22.07-.09.1-.34.1-.76v-5.57c0-.41-.04-.67-.11-.77s-.24-.17-.48-.2v-.22h2.23Z"/><path class="cls-2" d="m143.66,30.27l2.16-5.24h3.23v.22h-.26c-.23,0-.42.04-.56.12-.1.05-.18.15-.23.28-.04.09-.06.34-.06.73v5.24c0,.41.02.66.06.76s.13.19.26.27.31.11.53.11h.26v.22h-4.15v-.22h.26c.23,0,.42-.04.56-.12.1-.05.18-.15.23-.28.04-.09.06-.34.06-.74v-5.89l-3.05,7.25h-.14l-3.09-7.2v5.6c0,.39,0,.63.03.72.05.2.16.35.33.48s.44.18.8.18v.22h-2.72v-.22h.08c.18,0,.34-.02.49-.08s.27-.14.35-.24.14-.24.18-.43c0-.04.01-.24.01-.6v-5.03c0-.4-.02-.65-.06-.75s-.13-.19-.26-.26-.31-.11-.53-.11h-.25v-.22h3.25l2.23,5.24Z"/><path class="cls-1" d="m154.31,30.04h-3.01c.04.73.23,1.3.58,1.72.27.32.59.49.97.49.23,0,.45-.07.64-.2s.4-.37.62-.71l.2.13c-.3.61-.62,1.03-.98,1.29s-.78.38-1.25.38c-.81,0-1.43-.31-1.85-.94-.34-.5-.5-1.13-.5-1.88,0-.91.25-1.64.74-2.18s1.07-.81,1.74-.81c.55,0,1.04.23,1.44.68s.63,1.13.66,2.02Zm-1.44-.39c0-.63-.03-1.06-.1-1.29s-.17-.41-.32-.53c-.08-.07-.19-.11-.33-.11-.2,0-.37.1-.5.3-.23.35-.35.82-.35,1.43v.21h1.59Z"/><path class="cls-1" d="m160.32,25.04v6.3c0,.43.01.68.04.76.03.13.09.22.18.29s.24.1.46.12v.19l-2.31.45v-.87c-.28.34-.52.56-.74.69s-.46.18-.74.18c-.7,0-1.25-.31-1.66-.94-.33-.51-.49-1.13-.49-1.87,0-.59.1-1.12.3-1.58s.48-.82.83-1.06.73-.36,1.14-.36c.26,0,.49.05.7.15s.42.28.65.53v-1.65c0-.42-.02-.67-.05-.76-.05-.11-.12-.2-.21-.25s-.27-.08-.53-.08v-.25h2.43Zm-1.64,3.71c-.29-.55-.64-.83-1.06-.83-.14,0-.26.04-.36.12-.14.12-.26.33-.35.64s-.14.77-.14,1.4c0,.69.05,1.2.15,1.54s.24.57.42.72c.09.07.21.11.37.11.34,0,.67-.27.97-.81v-2.88Z"/><path class="cls-1" d="m163.81,27.5v4.34c0,.39.04.63.13.74s.27.17.53.18v.21h-2.96v-.21c.24,0,.42-.08.54-.21.08-.09.12-.33.12-.71v-3.2c0-.39-.04-.63-.13-.74s-.26-.17-.52-.18v-.22h2.3Zm-.82-2.65c.25,0,.47.09.64.27s.26.39.26.64-.09.46-.27.64-.39.26-.64.26-.46-.09-.64-.26-.26-.39-.26-.64.09-.46.26-.64.39-.27.64-.27Z"/><path class="cls-1" d="m170.3,27.5v4.29c0,.42.04.68.12.78s.24.17.47.2v.21h-2.23v-.73c-.26.31-.52.54-.79.68s-.55.21-.88.21-.58-.09-.82-.28-.4-.41-.48-.67-.12-.7-.12-1.33v-2.17c0-.41-.04-.67-.11-.77s-.24-.17-.48-.2v-.22h2.23v3.74c0,.39.02.64.06.76s.1.2.18.26.17.09.28.09c.14,0,.27-.04.38-.11.16-.1.34-.31.56-.62v-2.93c0-.41-.04-.67-.11-.77s-.24-.17-.48-.2v-.22h2.23Z"/><path class="cls-1" d="m173.95,27.5v.72c.3-.33.58-.56.83-.69s.54-.2.84-.2c.35,0,.65.08.88.25s.42.41.55.75c.31-.35.61-.61.9-.76s.59-.23.9-.23c.38,0,.68.09.91.26s.38.39.47.66.13.69.13,1.28v2.24c0,.42.04.68.11.79s.24.17.48.2v.21h-2.83v-.21c.22-.02.39-.11.49-.26.07-.11.11-.35.11-.73v-2.36c0-.49-.02-.8-.06-.93s-.1-.23-.18-.3-.18-.1-.3-.1c-.17,0-.34.06-.51.18s-.35.31-.52.55v2.94c0,.39.03.64.1.74.09.14.26.22.52.24v.21h-2.84v-.21c.15,0,.27-.05.36-.11s.15-.15.18-.25.04-.3.04-.62v-2.36c0-.5-.02-.81-.06-.93s-.1-.22-.2-.29-.19-.11-.3-.11c-.16,0-.3.04-.43.12-.18.12-.38.33-.59.62v2.94c0,.39.04.64.11.76s.24.2.48.22v.21h-2.82v-.21c.23-.02.39-.1.49-.22.07-.09.1-.34.1-.76v-3.09c0-.41-.04-.67-.11-.77s-.24-.17-.48-.2v-.22h2.23Z"/><path class="cls-2" d="m188.67,32.76v.22h-4.15v-.22h.26c.23,0,.42-.04.56-.12.1-.05.18-.15.23-.28.04-.09.06-.34.06-.74v-5.23c0-.41-.02-.66-.06-.76s-.13-.19-.26-.27-.31-.11-.53-.11h-.26v-.22h4.15v.22h-.26c-.23,0-.42.04-.56.12-.1.05-.18.15-.24.28-.04.09-.06.34-.06.74v5.23c0,.41.02.66.07.76s.13.19.26.27.31.11.53.11h.26Z"/><path class="cls-1" d="m191.58,27.5v.71c.28-.3.55-.53.81-.67s.54-.21.83-.21c.36,0,.65.1.88.3s.39.44.47.74c.06.22.09.65.09,1.28v2.13c0,.42.04.68.11.79s.24.17.48.2v.21h-2.77v-.21c.21-.03.36-.11.45-.26.06-.1.09-.34.09-.73v-2.44c0-.45-.02-.73-.05-.85s-.09-.21-.18-.27-.18-.1-.28-.1c-.34,0-.65.24-.94.72v2.94c0,.41.04.67.11.78s.22.18.42.21v.21h-2.77v-.21c.23-.02.39-.1.49-.22.07-.09.1-.34.1-.76v-3.09c0-.41-.04-.67-.11-.77s-.24-.17-.48-.2v-.22h2.23Z"/><path class="cls-1" d="m199.48,27.35l.09,1.87h-.2c-.24-.55-.49-.93-.74-1.14s-.51-.3-.76-.3c-.16,0-.3.05-.41.16s-.17.23-.17.37c0,.11.04.21.12.3.12.16.47.43,1.05.82s.95.72,1.13.99.27.58.27.91c0,.3-.08.6-.23.9s-.37.52-.64.67-.58.23-.92.23c-.26,0-.61-.08-1.05-.25-.12-.04-.2-.06-.24-.06-.13,0-.24.1-.32.29h-.19l-.09-1.97h.2c.18.52.42.9.72,1.16s.6.39.87.39c.19,0,.34-.06.46-.17s.18-.25.18-.42c0-.19-.06-.35-.18-.49s-.38-.34-.79-.62c-.6-.41-.98-.73-1.16-.95-.26-.32-.39-.67-.39-1.06,0-.42.15-.8.44-1.15s.71-.51,1.26-.51c.3,0,.58.07.86.22.11.06.19.09.26.09.07,0,.13-.01.17-.04s.11-.11.21-.25h.2Z"/><path class="cls-1" d="m202.86,25.5v2h1.3v.58h-1.3v3.38c0,.32.01.52.04.61s.08.17.16.22.14.08.21.08c.25,0,.49-.19.72-.58l.18.13c-.32.75-.83,1.12-1.54,1.12-.35,0-.64-.1-.88-.29s-.39-.41-.46-.65c-.04-.13-.06-.49-.06-1.08v-2.96h-.71v-.21c.49-.35.91-.71,1.26-1.1s.65-.81.91-1.28h.19Z"/><path class="cls-1" d="m206.96,27.5v1.24c.36-.57.68-.94.96-1.13s.54-.28.79-.28c.22,0,.39.07.52.2s.2.33.2.57c0,.26-.06.46-.19.61s-.28.22-.46.22c-.21,0-.39-.07-.54-.2s-.24-.21-.27-.22c-.04-.02-.08-.04-.13-.04-.11,0-.22.04-.32.13-.16.13-.28.32-.36.57-.12.38-.19.8-.19,1.25v1.59c0,.22.02.37.05.43.05.11.12.18.21.23s.25.08.47.09v.21h-2.96v-.21c.24-.02.4-.08.48-.2s.13-.41.13-.88v-3.03c0-.31-.02-.51-.05-.6-.04-.11-.1-.19-.17-.24s-.21-.09-.39-.11v-.22h2.24Z"/><path class="cls-1" d="m215.3,27.5v4.29c0,.42.04.68.12.78s.24.17.47.2v.21h-2.23v-.73c-.26.31-.52.54-.79.68s-.55.21-.88.21-.58-.09-.82-.28-.4-.41-.48-.67-.12-.7-.12-1.33v-2.17c0-.41-.04-.67-.11-.77s-.24-.17-.48-.2v-.22h2.23v3.74c0,.39.02.64.06.76s.1.2.18.26.17.09.28.09c.14,0,.27-.04.38-.11.16-.1.34-.31.56-.62v-2.93c0-.41-.04-.67-.11-.77s-.24-.17-.48-.2v-.22h2.23Z"/><path class="cls-1" d="m221.16,31.57l.18.14c-.26.48-.58.84-.96,1.08s-.79.35-1.23.35c-.73,0-1.31-.28-1.75-.83s-.66-1.21-.66-1.99.2-1.4.6-1.97c.48-.68,1.14-1.03,1.99-1.03.57,0,1.02.14,1.35.43s.5.6.5.96c0,.22-.07.4-.2.53s-.31.2-.53.2c-.23,0-.42-.08-.57-.23s-.24-.42-.28-.81c-.02-.25-.08-.42-.17-.52s-.2-.15-.32-.15c-.19,0-.35.1-.48.3-.2.3-.3.76-.3,1.38,0,.52.08,1.01.25,1.48s.39.82.67,1.05c.21.17.47.25.76.25.19,0,.37-.04.54-.13s.38-.26.61-.51Z"/><path class="cls-1" d="m224.19,25.5v2h1.3v.58h-1.3v3.38c0,.32.01.52.04.61s.08.17.16.22.14.08.21.08c.25,0,.49-.19.72-.58l.18.13c-.32.75-.83,1.12-1.54,1.12-.35,0-.64-.1-.88-.29s-.39-.41-.46-.65c-.04-.13-.06-.49-.06-1.08v-2.96h-.71v-.21c.49-.35.91-.71,1.26-1.1s.65-.81.91-1.28h.19Z"/><path class="cls-1" d="m228.15,27.5v4.34c0,.39.04.63.13.74s.27.17.53.18v.21h-2.96v-.21c.24,0,.42-.08.54-.21.08-.09.12-.33.12-.71v-3.2c0-.39-.04-.63-.13-.74s-.26-.17-.52-.18v-.22h2.3Zm-.82-2.65c.25,0,.47.09.64.27s.26.39.26.64-.09.46-.27.64-.39.26-.64.26-.46-.09-.64-.26-.26-.39-.26-.64.09-.46.26-.64.39-.27.64-.27Z"/><path class="cls-1" d="m231.93,27.34c.48,0,.92.12,1.33.37s.72.6.93,1.05.32.95.32,1.49c0,.78-.2,1.43-.59,1.95-.48.63-1.13.95-1.97.95s-1.46-.29-1.9-.87-.67-1.25-.67-2.01.23-1.47.68-2.05,1.08-.88,1.87-.88Zm.02.42c-.2,0-.37.08-.51.23s-.24.45-.28.89-.07,1.06-.07,1.85c0,.42.03.81.08,1.17.04.28.13.49.28.63s.3.22.48.22.32-.05.44-.15c.15-.13.25-.32.3-.56.08-.37.12-1.12.12-2.25,0-.66-.04-1.12-.11-1.37s-.18-.43-.33-.54c-.1-.08-.23-.12-.4-.12Z"/><path class="cls-1" d="m237.58,27.5v.71c.28-.3.55-.53.81-.67s.54-.21.83-.21c.36,0,.65.1.88.3s.39.44.47.74c.06.22.09.65.09,1.28v2.13c0,.42.04.68.11.79s.24.17.48.2v.21h-2.77v-.21c.21-.03.36-.11.45-.26.06-.1.09-.34.09-.73v-2.44c0-.45-.02-.73-.05-.85s-.09-.21-.18-.27-.18-.1-.28-.1c-.34,0-.65.24-.94.72v2.94c0,.41.04.67.11.78s.22.18.42.21v.21h-2.77v-.21c.23-.02.39-.1.49-.22.07-.09.1-.34.1-.76v-3.09c0-.41-.04-.67-.11-.77s-.24-.17-.48-.2v-.22h2.23Z"/></g><g><path class="cls-2" d="m18.49,0v5.38h-.53c-.31-1.24-.66-2.13-1.04-2.67-.38-.54-.9-.97-1.57-1.3-.37-.18-1.02-.26-1.95-.26h-1.48v15.32c0,1.02.06,1.65.17,1.9s.33.48.66.67.77.29,1.34.29h.66v.54H4.36v-.54h.66c.58,0,1.04-.1,1.39-.31.25-.14.45-.37.6-.7.11-.23.16-.85.16-1.85V1.14h-1.44c-1.34,0-2.31.28-2.92.85-.85.79-1.39,1.92-1.61,3.38h-.56V0h17.84Z"/><path class="cls-2" d="m27.75,1.14v8.09h.4c1.26,0,2.17-.4,2.74-1.19s.93-1.96,1.08-3.5h.56v10.4h-.56c-.12-1.13-.36-2.06-.74-2.78s-.81-1.21-1.31-1.46-1.22-.37-2.17-.37v5.6c0,1.09.05,1.76.14,2.01s.27.44.52.6.66.23,1.23.23h1.19c1.86,0,3.34-.43,4.46-1.29s1.92-2.17,2.41-3.93h.54l-.89,6.31h-17.17v-.54h.66c.58,0,1.04-.1,1.39-.31.25-.14.45-.37.59-.7.11-.23.16-.85.16-1.85V3.4c0-.9-.02-1.45-.07-1.66-.1-.34-.28-.61-.54-.79-.37-.27-.88-.41-1.52-.41h-.66v-.54h16.63v5.87h-.56c-.28-1.44-.68-2.47-1.19-3.09s-1.24-1.08-2.18-1.38c-.55-.18-1.57-.26-3.08-.26h-2.05Z"/><path class="cls-2" d="m47.76,1.14v8.09h.4c1.26,0,2.17-.4,2.74-1.19s.93-1.96,1.08-3.5h.56v10.4h-.56c-.12-1.13-.36-2.06-.74-2.78s-.81-1.21-1.31-1.46-1.22-.37-2.17-.37v5.6c0,1.09.05,1.76.14,2.01s.27.44.52.6.66.23,1.23.23h1.19c1.86,0,3.34-.43,4.46-1.29s1.92-2.17,2.41-3.93h.54l-.89,6.31h-17.17v-.54h.66c.58,0,1.04-.1,1.39-.31.25-.14.45-.37.59-.7.11-.23.16-.85.16-1.85V3.4c0-.9-.02-1.45-.07-1.66-.1-.34-.28-.61-.54-.79-.37-.27-.88-.41-1.52-.41h-.66v-.54h16.63v5.87h-.56c-.28-1.44-.68-2.47-1.19-3.09s-1.24-1.08-2.18-1.38c-.55-.18-1.57-.26-3.08-.26h-2.05Z"/><path class="cls-2" d="m73.89,13.1l5.39-13.1h8.09v.54h-.64c-.59,0-1.05.1-1.41.31-.24.14-.44.37-.59.69-.11.23-.16.84-.16,1.83v13.1c0,1.02.05,1.65.16,1.9s.33.48.66.67.78.29,1.33.29h.64v.54h-10.37v-.54h.64c.59,0,1.05-.1,1.41-.31.24-.14.44-.37.59-.7.11-.23.16-.85.16-1.85V1.74l-7.62,18.12h-.35l-7.73-17.99v13.99c0,.98.02,1.58.07,1.8.13.49.4.89.83,1.19s1.09.46,2,.46v.54h-6.8v-.54h.21c.44,0,.85-.06,1.23-.21s.67-.35.86-.61.35-.61.45-1.07c.02-.11.03-.61.03-1.49V3.37c0-1.01-.05-1.63-.16-1.88s-.33-.47-.66-.66-.78-.29-1.33-.29h-.63v-.54h8.12l5.58,13.1Z"/><path class="cls-2" d="m98.9,19.32v.54h-10.39v-.54h.66c.58,0,1.04-.1,1.39-.31.25-.14.45-.37.59-.7.11-.23.16-.85.16-1.85V3.4c0-1.02-.05-1.65-.16-1.9s-.33-.48-.65-.67c-.33-.19-.77-.29-1.33-.29h-.66v-.54h10.39v.54h-.66c-.58,0-1.04.1-1.39.31-.25.14-.45.37-.6.7-.11.23-.16.85-.16,1.85v13.07c0,1.02.06,1.65.17,1.9s.33.48.66.67c.33.19.77.29,1.33.29h.66Z"/></g></g></svg>