<?xml version="1.0" encoding="utf-8"?>
<!-- Generator: Adobe Illustrator 28.0.0, SVG Export Plug-In . SVG Version: 6.00 Build 0)  -->
<svg version="1.1" id="圖層_1" xmlns="http://www.w3.org/2000/svg" xmlns:xlink="http://www.w3.org/1999/xlink" x="0px" y="0px"
	 viewBox="0 0 266.6 456" style="enable-background:new 0 0 266.6 456;" xml:space="preserve">
<style type="text/css">
	.st0{fill:#63BA21;}
</style>
<path id="volume-high-solid" class="st0" d="M39.2,154c-10.3-8.4-25.4-6.9-33.8,3.4c-8.4,10.3-6.9,25.4,3.4,33.8
	c11.3,9.3,17.8,22.7,17.8,36C26.5,241.4,20,255,8.8,263.9c-10.2,8.4-11.7,23.5-3.3,33.8c8.4,10.2,23.4,11.7,33.6,3.4
	c22.5-17.6,35.4-44.5,35.4-74S61.7,172.4,39.2,154z M99.7,80.2c-10.2-8.4-25.3-7-33.8,3.2s-7,25.3,3.2,33.8l0.1,0.1
	c33.5,26.6,53.2,67,53.3,109.8c0,41.8-19.4,82.1-53.3,110.7c-10.2,8.4-11.6,23.6-3.2,33.8c8.4,10.2,23.4,11.6,33.6,3.3
	c45-35.8,71.1-90.3,70.9-147.8C170.6,169.2,144.8,117,99.7,80.2z M161,5.4c-10.2-8.4-25.3-7-33.8,3.2s-7,25.3,3.2,33.8l0.1,0.1
	c55.9,45.8,88,113.4,88,184.6c-0.1,71.9-32.4,140-88.1,185.5c-10.2,8.4-11.7,23.5-3.4,33.7l0,0c4.2,6.1,11.2,9.7,18.6,9.7
	c5.5,0,10.9-1.9,15.2-5.4c67.1-55,105.6-136.1,105.6-223.5S228.1,60.3,161,5.4z"/>
</svg>
