<?xml version="1.0" encoding="UTF-8"?>
<svg xmlns="http://www.w3.org/2000/svg" version="1.1" xmlns:xlink="http://www.w3.org/1999/xlink" viewBox="0 0 128.9 184.4">
  <defs>
    <style>
      .cls-1 {
        fill: url(#_未命名漸層);
        mix-blend-mode: overlay;
        opacity: .1;
      }

      .cls-1, .cls-2, .cls-3 {
        isolation: isolate;
      }

      .cls-4 {
        fill: #909aaf;
      }

      .cls-5, .cls-2 {
        fill: #9aa4b9;
      }

      .cls-6 {
        fill: #d9dff1;
      }

      .cls-2 {
        mix-blend-mode: multiply;
        opacity: .5;
      }

      .cls-7 {
        fill: #b0b7cb;
      }

      .cls-8 {
        fill: #cfd6ea;
      }

      .cls-9 {
        fill: #e8eaf7;
      }

      .cls-10 {
        fill: #dadcea;
      }

      .cls-11 {
        fill: #bac0d3;
      }

      .cls-12 {
        fill: #c3c5d3;
      }
    </style>
    <linearGradient id="_未命名漸層" data-name="未命名漸層" x1="0" y1="93.8" x2="128.9" y2="93.8" gradientTransform="translate(128.9 186) rotate(-180)" gradientUnits="userSpaceOnUse">
      <stop offset="0" stop-color="#ffd7b7"/>
      <stop offset="1" stop-color="#6c001b"/>
    </linearGradient>
  </defs>
  <!-- Generator: Adobe Illustrator 28.7.2, SVG Export Plug-In . SVG Version: 1.2.0 Build 154)  -->
  <g>
    <g id="_圖層_1" data-name="圖層_1">
      <g class="cls-3">
        <g id="_圖層_2">
          <g id="_1">
            <g>
              <g>
                <polygon class="cls-4" points="33.2 74.4 128.9 19.1 128.9 129.1 33.2 184.4 33.2 74.4"/>
                <polygon class="cls-5" points="87 43.4 87 129.3 126.7 129.3 126.7 20.9 125.9 20.9 87 43.4"/>
                <polygon class="cls-11" points="33.4 83.4 87.1 52.4 126 75.1 33.2 128.8 33.4 83.4"/>
                <polygon class="cls-5" points="41.3 78.8 80.2 100.9 80.2 45.6 41.3 40.4 41.3 78.8"/>
                <polygon class="cls-11" points="33 136.1 87.1 104.7 126 127.3 33.2 181.1 33 136.1"/>
                <polygon class="cls-5" points="41.7 123.8 41.7 131 80.2 152.9 80.2 101.6 41.7 123.8"/>
                <polygon class="cls-8" points="0 55.3 95.9 0 128.9 19.1 33.1 74.4 0 55.3"/>
                <path class="cls-6" d="M33.2,74.5v109.9s95.8-55.3,95.8-55.3V19.1s-95.8,55.3-95.8,55.3ZM36.8,76.5l43.3-25v49.4s-43.3,25-43.3,25c0,0,0-49.4,0-49.4ZM125.3,25.5v49.4s-42.8,24.7-42.8,24.7v-49.4s42.8-24.7,42.8-24.7ZM125.3,77.5v49.4s-42.8,24.7-42.8,24.7v-49.4s42.8-24.7,42.8-24.7h0ZM36.8,178v-49.4s43.4-25,43.4-25v49.4s-43.4,25-43.4,25Z"/>
                <polygon class="cls-7" points="0 165.4 33.2 184.4 33.2 74.4 0 55.3 0 165.4"/>
                <polygon class="cls-2" points="86.8 104.7 88.7 103.6 88.7 103 89.3 103.3 96.2 99.3 96.2 98.7 96.8 98.9 101.6 96.2 101.6 100.7 86.8 109.2 86.8 104.7"/>
                <polygon class="cls-2" points="86.8 91.4 88.7 90.3 88.7 89.6 89.3 89.9 96.2 86 96.2 85.3 96.8 85.6 101.6 82.9 101.6 87.3 86.8 95.8 86.8 91.4"/>
                <polygon class="cls-2" points="57.9 107.9 59.9 106.8 59.9 106.2 60.5 106.4 67.4 102.5 67.4 101.8 68 102.1 72.8 99.4 72.8 103.8 57.9 112.4 57.9 107.9"/>
                <polygon class="cls-2" points="57.9 121.2 59.9 120.1 59.9 119.5 60.5 119.8 67.4 115.8 67.4 115.2 68 115.4 72.8 112.7 72.8 117.2 57.9 125.7 57.9 121.2"/>
                <g>
                  <g>
                    <polygon class="cls-12" points="98.2 85.4 96.2 84.3 96.2 85.3 98.2 86.4 98.2 85.4"/>
                    <polygon class="cls-9" points="99.4 85.3 96.9 83.9 96.2 84.3 98.7 85.7 99.4 85.3"/>
                  </g>
                  <g>
                    <polygon class="cls-12" points="90.7 89.7 88.7 88.6 88.7 89.7 90.7 90.8 90.7 89.7"/>
                    <polygon class="cls-9" points="91.9 89.6 89.4 88.2 88.7 88.6 91.2 90 91.9 89.6"/>
                  </g>
                  <polygon class="cls-10" points="87.8 92 102.6 83.5 102.6 84.8 87.8 93.3 87.8 92"/>
                  <polygon class="cls-12" points="87.8 92 86.7 91.4 86.7 92.7 87.8 93.3 87.8 92"/>
                  <polygon class="cls-9" points="86.7 91.4 101.5 82.9 102.6 83.5 87.8 92.1 86.7 91.4"/>
                </g>
                <g>
                  <g>
                    <polygon class="cls-12" points="98.2 98.7 96.2 97.6 96.2 98.7 98.2 99.8 98.2 98.7"/>
                    <polygon class="cls-9" points="99.4 98.6 96.9 97.2 96.2 97.6 98.7 99.1 99.4 98.6"/>
                  </g>
                  <g>
                    <polygon class="cls-12" points="90.7 103 88.7 101.9 88.7 103 90.7 104.1 90.7 103"/>
                    <polygon class="cls-9" points="91.9 102.9 89.4 101.5 88.7 101.9 91.2 103.4 91.9 102.9"/>
                  </g>
                  <polygon class="cls-10" points="87.8 105.3 102.6 96.8 102.6 98.1 87.8 106.7 87.8 105.3"/>
                  <polygon class="cls-12" points="87.8 105.3 86.7 104.8 86.7 106.1 87.8 106.7 87.8 105.3"/>
                  <polygon class="cls-9" points="86.7 104.8 101.5 96.2 102.6 96.8 87.8 105.4 86.7 104.8"/>
                </g>
                <g>
                  <g>
                    <polygon class="cls-12" points="69.3 101.9 67.4 100.8 67.4 101.8 69.3 102.9 69.3 101.9"/>
                    <polygon class="cls-9" points="70.6 101.8 68.1 100.4 67.4 100.8 69.9 102.2 70.6 101.8"/>
                  </g>
                  <g>
                    <polygon class="cls-12" points="61.9 106.2 59.9 105.1 59.9 106.2 61.9 107.2 61.9 106.2"/>
                    <polygon class="cls-9" points="63.1 106.1 60.6 104.7 59.9 105.1 62.4 106.6 63.1 106.1"/>
                  </g>
                  <polygon class="cls-10" points="58.9 108.5 73.8 100 73.8 101.3 58.9 109.8 58.9 108.5"/>
                  <polygon class="cls-12" points="58.9 108.5 57.9 107.9 57.9 109.2 58.9 109.8 58.9 108.5"/>
                  <polygon class="cls-9" points="57.9 107.9 72.7 99.4 73.8 100 58.9 108.6 57.9 107.9"/>
                </g>
                <g>
                  <g>
                    <polygon class="cls-12" points="69.3 115.2 67.4 114.1 67.4 115.2 69.3 116.3 69.3 115.2"/>
                    <polygon class="cls-9" points="70.6 115.1 68.1 113.7 67.4 114.1 69.9 115.6 70.6 115.1"/>
                  </g>
                  <g>
                    <polygon class="cls-12" points="61.9 119.5 59.9 118.4 59.9 119.5 61.9 120.6 61.9 119.5"/>
                    <polygon class="cls-9" points="63.1 119.4 60.6 118 59.9 118.4 62.4 119.9 63.1 119.4"/>
                  </g>
                  <polygon class="cls-10" points="58.9 121.8 73.8 113.3 73.8 114.6 58.9 123.2 58.9 121.8"/>
                  <polygon class="cls-12" points="58.9 121.8 57.9 121.2 57.9 122.6 58.9 123.2 58.9 121.8"/>
                  <polygon class="cls-9" points="57.9 121.2 72.7 112.7 73.8 113.3 58.9 121.9 57.9 121.2"/>
                </g>
              </g>
              <path class="cls-1" d="M0,55.3v110s33.2,19,33.2,19l95.8-55.3V19.1S95.9,0,95.9,0L0,55.3Z"/>
            </g>
          </g>
        </g>
      </g>
    </g>
  </g>
</svg>