<?xml version="1.0" encoding="UTF-8"?>
<svg xmlns="http://www.w3.org/2000/svg" version="1.1" xmlns:xlink="http://www.w3.org/1999/xlink" viewBox="0 0 135.4 125.2">
  <defs>
    <style>
      .cls-1 {
        fill: #c8e551;
      }

      .cls-2 {
        fill: #9dd6ea;
      }

      .cls-3 {
        fill: #716f6f;
      }

      .cls-4 {
        fill: #f4e5a6;
      }

      .cls-5 {
        fill: #ebe4e4;
      }

      .cls-6 {
        fill: #54bcd9;
      }

      .cls-7 {
        fill: #f8f9f9;
      }

      .cls-8 {
        fill: #f7d64d;
      }

      .cls-9 {
        fill: #2d2d2d;
      }

      .cls-10 {
        fill: #fff;
      }

      .cls-11 {
        fill: #86d9f6;
      }

      .cls-12 {
        fill: url(#_未命名漸層);
      }

      .cls-13 {
        fill: #afb723;
      }

      .cls-14 {
        fill: #dfff5a;
      }

      .cls-15 {
        fill: #78c3dd;
      }

      .cls-16 {
        fill: url(#_未命名漸層_2);
      }

      .cls-17 {
        fill: #b6b2b2;
      }

      .cls-18 {
        fill: #e2e2e2;
      }

      .cls-19 {
        fill: #b6cc36;
      }

      .cls-20 {
        fill: #f2f2f2;
      }

      .cls-21 {
        fill: #bbb;
      }

      .cls-22 {
        fill: #3cacbf;
      }

      .cls-23 {
        isolation: isolate;
      }

      .cls-24 {
        fill: #b3efff;
      }

      .cls-25 {
        fill: #a0ad27;
      }

      .cls-26 {
        fill: #bece2e;
      }

      .cls-27 {
        fill: #3a3a3a;
      }

      .cls-28 {
        fill: #dbdbdb;
      }

      .cls-29 {
        fill: #cfbf9b;
      }

      .cls-30 {
        fill: #abe9ff;
      }

      .cls-31 {
        fill: #9ae3f4;
      }

      .cls-32 {
        fill: #ecf0f1;
      }

      .cls-33 {
        fill: #b7b2b2;
      }

      .cls-34 {
        fill: #c5c5c5;
      }

      .cls-35 {
        fill: #d3cfcf;
      }

      .cls-36 {
        fill: #a3a0a0;
      }

      .cls-37 {
        fill: #58595b;
      }

      .cls-38 {
        fill: #888;
      }

      .cls-39 {
        fill: #ebebeb;
      }

      .cls-40 {
        fill: #f7d237;
      }

      .cls-41 {
        fill: #bdc3c7;
      }

      .cls-42 {
        fill: #eaeaea;
      }

      .cls-43 {
        fill: #e6e7e8;
      }

      .cls-44 {
        fill: #f7f7f7;
      }

      .cls-45 {
        fill: #d0e93e;
      }
    </style>
    <linearGradient id="_未命名漸層" data-name="未命名漸層" x1="-2892" y1="85.3" x2="-2891.5" y2="85.3" gradientTransform="translate(2991.1 128) scale(1 -1)" gradientUnits="userSpaceOnUse">
      <stop offset="0" stop-color="#fff"/>
      <stop offset="1" stop-color="#ecf0f1"/>
    </linearGradient>
    <linearGradient id="_未命名漸層_2" data-name="未命名漸層 2" x1="-2891.9" y1="96.2" x2="-2891.4" y2="96.2" gradientTransform="translate(2991.1 128) scale(1 -1)" gradientUnits="userSpaceOnUse">
      <stop offset="0" stop-color="#fff"/>
      <stop offset="1" stop-color="#ecf0f1"/>
    </linearGradient>
  </defs>
  <!-- Generator: Adobe Illustrator 28.7.3, SVG Export Plug-In . SVG Version: 1.2.0 Build 164)  -->
  <g>
    <g id="_圖層_2">
      <g id="Layer_1">
        <g>
          <g>
            <g>
              <polygon class="cls-30" points="65.2 0 65.2 44.8 133.2 83.8 133.4 88.6 135.4 87.4 135.4 85.1 135.4 40.3 65.2 0"/>
              <polygon class="cls-2" points="65.2 0 0 38 0 84.9 1.9 86 2 81.7 65.2 45 65.2 0"/>
              <polygon class="cls-31" points="65.2 2.1 65.2 46.9 133.4 86.2 133.4 41.4 65.2 2.1"/>
              <polygon class="cls-15" points="1.9 38.8 1.9 83.8 65.2 47.1 65.2 2.1 1.9 38.8"/>
            </g>
            <g>
              <polygon class="cls-41" points="133.4 86.6 133.4 88.2 131 88 133.4 86.6"/>
              <polygon class="cls-41" points="1.9 83.8 1.9 85 4.6 85.5 4 84 1.9 83.8"/>
              <polygon class="cls-41" points="99.2 68.5 99.2 68.5 65.1 48.7 64.8 48.9 64.4 48.7 61.1 50.6 61.1 51 61.1 51 60.7 51.2 60.4 51.1 57 53 57 53.4 57 53.4 56.8 53.5 56.5 53.3 53.2 55.3 53.2 55.7 53.2 55.7 52.9 55.8 52.6 55.6 49.3 57.5 49.3 57.9 49.3 57.9 49.1 58 48.7 57.8 45.4 59.8 45.4 60.2 45.4 60.2 45.2 60.3 44.8 60.1 41.5 62.1 41.5 62.1 41.5 62.4 41.5 62.4 41.3 62.6 40.9 62.4 37.6 64.3 37.9 64.5 37.9 64.5 37.6 64.3 37.6 64.7 37.6 64.7 37.2 64.9 36.9 64.8 33.5 66.7 33.5 67.1 33.5 67.1 33.5 67.1 67.7 86.8 67.7 86.8 33.5 67.1 33.5 67.1 33.5 67.1 33.2 67.2 32.9 67 29.5 68.9 29.5 69.3 29.6 69.4 29.2 69.6 28.9 69.4 25.5 71.4 25.5 71.7 25.5 71.7 25.3 71.9 25 71.7 21.6 73.6 21.6 74 21.6 74 21.4 74.1 21 73.9 17.7 75.9 17.7 76.3 17.7 76.3 17.5 76.4 17.2 76.2 13.8 78.1 13.8 78.5 13.8 78.5 13.6 78.6 13.3 78.5 9.9 80.4 9.9 80.8 9.9 80.8 9.7 80.9 9.4 80.7 6 82.7 6 83.1 6 83.1 5.6 83.3 5.3 83.1 1.9 85 1.9 85.4 1.9 85.4 1.9 85.4 1.9 85.9 36.1 105.5 36.1 105.5 70.3 125.2 101.8 106.9 101.8 106.9 133.4 88.6 133.4 88.2 99.2 68.5"/>
            </g>
            <g>
              <g>
                <g class="cls-23">
                  <polygon class="cls-10" points="99.2 66.5 99.2 66.8 67.7 85.2 67.7 84.8 99.2 66.5"/>
                  <polygon class="cls-42" points="67.7 84.8 67.7 85.2 33.5 65.5 33.5 65.1 67.7 84.8"/>
                  <polygon class="cls-44" points="33.5 65.1 67.7 84.8 99.2 66.5 65.1 46.8 33.5 65.1"/>
                </g>
                <g>
                  <g class="cls-23">
                    <polygon class="cls-39" points="82.8 61.6 86.2 59.6 86.2 59.2 82.8 61.2 82.8 61.6"/>
                    <polygon class="cls-5" points="61.1 49 82.8 61.6 82.8 61.2 61.1 48.6 61.1 49"/>
                    <polygon class="cls-20" points="61.1 48.6 82.8 61.2 86.2 59.2 64.4 46.7 61.1 48.6"/>
                  </g>
                  <g class="cls-23">
                    <polygon class="cls-39" points="98.6 66.4 98.6 66.8 95.3 68.8 95.3 68.4 98.6 66.4"/>
                    <polygon class="cls-5" points="83.4 61.9 95.3 68.8 95.3 68.4 83.4 61.5 83.4 61.9"/>
                    <polygon class="cls-20" points="83.4 61.5 95.3 68.4 98.6 66.4 86.8 59.6 83.4 61.5"/>
                  </g>
                  <g class="cls-23">
                    <polygon class="cls-39" points="70.9 59.4 74.3 57.5 74.3 57.1 70.9 59 70.9 59.4"/>
                    <polygon class="cls-5" points="57 51.4 70.9 59.4 70.9 59 57 51 57 51.4"/>
                    <polygon class="cls-20" points="57 51 70.9 59 74.3 57.1 60.4 49.1 57 51"/>
                  </g>
                  <g class="cls-23">
                    <polygon class="cls-39" points="94.6 68.8 94.6 69.2 91.2 71.1 91.2 70.8 94.6 68.8"/>
                    <polygon class="cls-5" points="71.5 59.7 91.2 71.1 91.2 70.8 71.5 59.3 71.5 59.7"/>
                    <polygon class="cls-20" points="71.5 59.3 91.2 70.8 94.6 68.8 74.8 57.4 71.5 59.3"/>
                  </g>
                  <g class="cls-23">
                    <polygon class="cls-39" points="57.9 56.4 61.2 54.4 61.2 54.1 57.9 56 57.9 56.4"/>
                    <polygon class="cls-5" points="53.2 53.7 57.9 56.4 57.9 56 53.2 53.3 53.2 53.7"/>
                    <polygon class="cls-20" points="53.2 53.3 57.9 56 61.2 54.1 56.5 51.3 53.2 53.3"/>
                  </g>
                  <g class="cls-23">
                    <polygon class="cls-39" points="83.5 66.9 83.5 67.3 80.2 69.3 80.2 68.9 83.5 66.9"/>
                    <polygon class="cls-5" points="58.4 56.7 80.2 69.3 80.2 68.9 58.4 56.3 58.4 56.7"/>
                    <polygon class="cls-20" points="58.4 56.3 80.2 68.9 83.5 66.9 61.8 54.4 58.4 56.3"/>
                  </g>
                  <g class="cls-23">
                    <polygon class="cls-39" points="72.7 65.2 72.7 65.6 69.4 67.6 69.4 67.2 72.7 65.2"/>
                    <polygon class="cls-5" points="49.3 55.9 69.4 67.6 69.4 67.2 49.3 55.5 49.3 55.9"/>
                    <polygon class="cls-20" points="49.3 55.5 69.4 67.2 72.7 65.2 52.6 53.6 49.3 55.5"/>
                  </g>
                  <g class="cls-23">
                    <polygon class="cls-39" points="90.7 71.1 90.7 71.4 87.3 73.4 87.3 73 90.7 71.1"/>
                    <polygon class="cls-5" points="87.3 73 87.3 73.4 80.7 69.6 80.7 69.2 87.3 73"/>
                    <polygon class="cls-20" points="90.7 71.1 87.3 73 80.7 69.2 84.1 67.2 90.7 71.1"/>
                  </g>
                  <g class="cls-23">
                    <polygon class="cls-39" points="86.8 73.3 86.8 73.7 83.4 75.7 83.4 75.3 86.8 73.3"/>
                    <polygon class="cls-5" points="83.4 75.3 83.4 75.7 69.9 67.9 69.9 67.5 83.4 75.3"/>
                    <polygon class="cls-20" points="86.8 73.3 83.4 75.3 69.9 67.5 73.3 65.5 86.8 73.3"/>
                  </g>
                  <g class="cls-23">
                    <polygon class="cls-39" points="63.2 64.2 63.2 64.6 59.9 66.6 59.9 66.2 63.2 64.2"/>
                    <polygon class="cls-5" points="45.4 58.2 59.9 66.6 59.9 66.2 45.4 57.8 45.4 58.2"/>
                    <polygon class="cls-20" points="45.4 57.8 59.9 66.2 63.2 64.2 48.7 55.9 45.4 57.8"/>
                  </g>
                  <g class="cls-23">
                    <polygon class="cls-39" points="82.9 75.6 82.9 76 79.5 77.9 79.5 77.5 82.9 75.6"/>
                    <polygon class="cls-5" points="79.5 77.5 79.5 77.9 60.4 66.9 60.4 66.5 79.5 77.5"/>
                    <polygon class="cls-20" points="82.9 75.6 79.5 77.5 60.4 66.5 63.8 64.6 82.9 75.6"/>
                  </g>
                  <g class="cls-23">
                    <polygon class="cls-39" points="46.9 63.6 50.2 61.6 50.2 61.2 46.9 63.2 46.9 63.6"/>
                    <polygon class="cls-5" points="46.9 63.2 46.9 63.6 41.5 60.5 41.5 60.1 46.9 63.2"/>
                    <polygon class="cls-20" points="41.5 60.1 46.9 63.2 50.2 61.2 44.8 58.1 41.5 60.1"/>
                  </g>
                  <g class="cls-23">
                    <polygon class="cls-39" points="72.5 74.1 72.5 74.5 69.2 76.4 69.2 76.1 72.5 74.1"/>
                    <polygon class="cls-5" points="69.2 76.1 69.2 76.4 47.4 63.9 47.4 63.5 69.2 76.1"/>
                    <polygon class="cls-20" points="47.4 63.5 69.2 76.1 72.5 74.1 50.8 61.5 47.4 63.5"/>
                  </g>
                  <g class="cls-23">
                    <polygon class="cls-39" points="61 71.9 61 72.3 57.6 74.3 57.6 73.9 61 71.9"/>
                    <polygon class="cls-5" points="57.6 73.9 57.6 74.3 37.6 62.7 37.6 62.3 57.6 73.9"/>
                    <polygon class="cls-20" points="37.6 62.3 57.6 73.9 61 71.9 40.9 60.4 37.6 62.3"/>
                  </g>
                  <g class="cls-23">
                    <polygon class="cls-39" points="79 77.8 79 78.2 75.6 80.2 75.6 79.8 79 77.8"/>
                    <polygon class="cls-5" points="75.6 79.8 75.6 80.2 69.7 76.7 69.7 76.4 75.6 79.8"/>
                    <polygon class="cls-20" points="79 77.8 75.6 79.8 69.7 76.4 73.1 74.4 79 77.8"/>
                  </g>
                  <g class="cls-23">
                    <polygon class="cls-39" points="75.1 80.1 75.1 80.5 71.7 82.4 71.7 82.1 75.1 80.1"/>
                    <polygon class="cls-5" points="71.7 82.1 71.7 82.4 58.2 74.6 58.2 74.2 71.7 82.1"/>
                    <polygon class="cls-20" points="75.1 80.1 71.7 82.1 58.2 74.2 61.5 72.3 75.1 80.1"/>
                  </g>
                  <g class="cls-23">
                    <polygon class="cls-39" points="49 69.8 49 70.2 45.7 72.1 45.7 71.7 49 69.8"/>
                    <polygon class="cls-5" points="45.7 71.7 45.7 72.1 33.5 65.1 33.5 64.7 45.7 71.7"/>
                    <polygon class="cls-20" points="49 69.8 45.7 71.7 33.5 64.7 36.9 62.8 49 69.8"/>
                  </g>
                  <g class="cls-23">
                    <polygon class="cls-39" points="71 82.5 71 82.9 67.7 84.8 67.7 84.4 71 82.5"/>
                    <polygon class="cls-5" points="67.7 84.4 67.7 84.8 46.2 72.4 46.2 72.1 67.7 84.4"/>
                    <polygon class="cls-20" points="71 82.5 67.7 84.4 46.2 72.1 49.6 70.1 71 82.5"/>
                  </g>
                </g>
              </g>
              <g>
                <g class="cls-23">
                  <polygon class="cls-10" points="67.7 84.8 67.7 85.2 36.1 103.5 36.1 103.2 67.7 84.8"/>
                  <polygon class="cls-42" points="36.1 103.2 36.1 103.5 1.9 83.8 1.9 83.4 36.1 103.2"/>
                  <polygon class="cls-44" points="67.7 84.8 36.1 103.2 1.9 83.4 33.5 65.1 67.7 84.8"/>
                </g>
                <g>
                  <g class="cls-23">
                    <polygon class="cls-39" points="54.6 77.6 54.6 77.9 51.3 79.9 51.3 79.5 54.6 77.6"/>
                    <polygon class="cls-5" points="51.3 79.5 51.3 79.9 29.5 67.3 29.5 67 51.3 79.5"/>
                    <polygon class="cls-20" points="54.6 77.6 51.3 79.5 29.5 67 32.9 65 54.6 77.6"/>
                  </g>
                  <g class="cls-23">
                    <polygon class="cls-39" points="67.1 84.8 67.1 85.2 63.7 87.1 63.7 86.7 67.1 84.8"/>
                    <polygon class="cls-5" points="63.7 86.7 63.7 87.1 51.9 80.2 51.9 79.9 63.7 86.7"/>
                    <polygon class="cls-20" points="67.1 84.8 63.7 86.7 51.9 79.9 55.2 77.9 67.1 84.8"/>
                  </g>
                  <g class="cls-23">
                    <polygon class="cls-39" points="42.7 75.4 42.7 75.8 39.3 77.8 39.3 77.4 42.7 75.4"/>
                    <polygon class="cls-5" points="39.3 77.4 39.3 77.8 25.5 69.7 25.5 69.4 39.3 77.4"/>
                    <polygon class="cls-20" points="42.7 75.4 39.3 77.4 25.5 69.4 28.9 67.4 42.7 75.4"/>
                  </g>
                  <g class="cls-23">
                    <polygon class="cls-39" points="63 87.1 63 87.5 59.7 89.5 59.7 89.1 63 87.1"/>
                    <polygon class="cls-5" points="59.7 89.1 59.7 89.5 39.9 78.1 39.9 77.7 59.7 89.1"/>
                    <polygon class="cls-20" points="63 87.1 59.7 89.1 39.9 77.7 43.2 75.7 63 87.1"/>
                  </g>
                  <g class="cls-23">
                    <polygon class="cls-39" points="29.7 72.4 29.7 72.8 26.3 74.7 26.3 74.4 29.7 72.4"/>
                    <polygon class="cls-5" points="26.3 74.4 26.3 74.7 21.6 72 21.6 71.6 26.3 74.4"/>
                    <polygon class="cls-20" points="29.7 72.4 26.3 74.4 21.6 71.6 25 69.7 29.7 72.4"/>
                  </g>
                  <g class="cls-23">
                    <polygon class="cls-39" points="52 85.3 52 85.7 48.6 87.6 48.6 87.2 52 85.3"/>
                    <polygon class="cls-5" points="48.6 87.2 48.6 87.6 26.9 75.1 26.9 74.7 48.6 87.2"/>
                    <polygon class="cls-20" points="52 85.3 48.6 87.2 26.9 74.7 30.2 72.7 52 85.3"/>
                  </g>
                  <g class="cls-23">
                    <polygon class="cls-39" points="41.2 83.6 41.2 83.9 37.8 85.9 37.8 85.5 41.2 83.6"/>
                    <polygon class="cls-5" points="37.8 85.5 37.8 85.9 17.7 74.3 17.7 73.9 37.8 85.5"/>
                    <polygon class="cls-20" points="41.2 83.6 37.8 85.5 17.7 73.9 21 71.9 41.2 83.6"/>
                  </g>
                  <g class="cls-23">
                    <polygon class="cls-39" points="59.1 89.4 59.1 89.8 55.8 91.7 55.8 91.4 59.1 89.4"/>
                    <polygon class="cls-5" points="55.8 91.4 55.8 91.7 49.2 87.9 49.2 87.6 55.8 91.4"/>
                    <polygon class="cls-20" points="59.1 89.4 55.8 91.4 49.2 87.6 52.5 85.6 59.1 89.4"/>
                  </g>
                  <g class="cls-23">
                    <polygon class="cls-39" points="55.2 91.7 55.2 92.1 51.8 94 51.9 93.6 55.2 91.7"/>
                    <polygon class="cls-5" points="51.9 93.6 51.8 94 38.4 86.2 38.4 85.8 51.9 93.6"/>
                    <polygon class="cls-20" points="55.2 91.7 51.9 93.6 38.4 85.8 41.7 83.9 55.2 91.7"/>
                  </g>
                  <g class="cls-23">
                    <polygon class="cls-39" points="31.7 82.6 31.7 83 28.3 84.9 28.3 84.5 31.7 82.6"/>
                    <polygon class="cls-5" points="28.3 84.5 28.3 84.9 13.8 76.5 13.8 76.2 28.3 84.5"/>
                    <polygon class="cls-20" points="31.7 82.6 28.3 84.5 13.8 76.2 17.2 74.2 31.7 82.6"/>
                  </g>
                  <g class="cls-23">
                    <polygon class="cls-39" points="51.3 93.9 51.3 94.3 48 96.2 48 95.9 51.3 93.9"/>
                    <polygon class="cls-5" points="48 95.9 48 96.2 28.9 85.2 28.9 84.8 48 95.9"/>
                    <polygon class="cls-20" points="51.3 93.9 48 95.9 28.9 84.8 32.2 82.9 51.3 93.9"/>
                  </g>
                  <g class="cls-23">
                    <polygon class="cls-39" points="18.6 79.6 18.6 79.9 15.3 81.9 15.3 81.5 18.6 79.6"/>
                    <polygon class="cls-5" points="15.3 81.5 15.3 81.9 9.9 78.8 9.9 78.4 15.3 81.5"/>
                    <polygon class="cls-20" points="18.6 79.6 15.3 81.5 9.9 78.4 13.3 76.5 18.6 79.6"/>
                  </g>
                  <g class="cls-23">
                    <polygon class="cls-39" points="41 92.4 41 92.8 37.6 94.8 37.6 94.4 41 92.4"/>
                    <polygon class="cls-5" points="37.6 94.4 37.6 94.8 15.8 82.2 15.8 81.8 37.6 94.4"/>
                    <polygon class="cls-20" points="41 92.4 37.6 94.4 15.8 81.8 19.2 79.9 41 92.4"/>
                  </g>
                  <g class="cls-23">
                    <polygon class="cls-39" points="29.4 90.3 29.4 90.7 26 92.6 26 92.2 29.4 90.3"/>
                    <polygon class="cls-5" points="26 92.2 26 92.6 6 81.1 6 80.7 26 92.2"/>
                    <polygon class="cls-20" points="29.4 90.3 26 92.2 6 80.7 9.4 78.7 29.4 90.3"/>
                  </g>
                  <g class="cls-23">
                    <polygon class="cls-39" points="47.4 96.2 47.4 96.6 44.1 98.5 44.1 98.1 47.4 96.2"/>
                    <polygon class="cls-5" points="44.1 98.1 44.1 98.5 38.1 95.1 38.1 94.7 44.1 98.1"/>
                    <polygon class="cls-20" points="47.4 96.2 44.1 98.1 38.1 94.7 41.5 92.8 47.4 96.2"/>
                  </g>
                  <g class="cls-23">
                    <polygon class="cls-39" points="43.5 98.5 43.5 98.8 40.2 100.8 40.2 100.4 43.5 98.5"/>
                    <polygon class="cls-5" points="40.2 100.4 40.2 100.8 26.6 93 26.6 92.6 40.2 100.4"/>
                    <polygon class="cls-20" points="43.5 98.5 40.2 100.4 26.6 92.6 30 90.6 43.5 98.5"/>
                  </g>
                  <g class="cls-23">
                    <polygon class="cls-39" points="17.5 88.1 17.5 88.5 14.1 90.5 14.1 90.1 17.5 88.1"/>
                    <polygon class="cls-39" points="14.1 90.1 14.1 90.5 1.9 83.4 1.9 83.1 14.1 90.1"/>
                    <polygon class="cls-20" points="17.5 88.1 14.1 90.1 1.9 83.1 5.3 81.1 17.5 88.1"/>
                  </g>
                  <g class="cls-23">
                    <polygon class="cls-39" points="39.5 100.8 39.5 101.2 36.1 103.2 36.1 102.8 39.5 100.8"/>
                    <polygon class="cls-39" points="36.1 102.8 36.1 103.2 14.7 90.8 14.7 90.4 36.1 102.8"/>
                    <polygon class="cls-20" points="39.5 100.8 36.1 102.8 14.7 90.4 18 88.4 39.5 100.8"/>
                  </g>
                </g>
              </g>
              <g>
                <g class="cls-23">
                  <polygon class="cls-5" points="133.4 86.2 133.4 86.6 101.8 104.9 101.8 104.5 133.4 86.2"/>
                  <polygon class="cls-42" points="101.8 104.5 101.8 104.9 67.7 85.2 67.7 84.8 101.8 104.5"/>
                  <polygon class="cls-44" points="133.4 86.2 101.8 104.5 67.7 84.8 99.2 66.5 133.4 86.2"/>
                </g>
                <g>
                  <g class="cls-23">
                    <polygon class="cls-39" points="120.3 79 120.3 79.3 117 81.3 117 80.9 120.3 79"/>
                    <polygon class="cls-5" points="117 80.9 117 81.3 95.2 68.7 95.2 68.3 117 80.9"/>
                    <polygon class="cls-20" points="120.3 79 117 80.9 95.2 68.3 98.6 66.4 120.3 79"/>
                  </g>
                  <g class="cls-23">
                    <polygon class="cls-39" points="132.8 86.2 132.8 86.5 129.4 88.5 129.4 88.1 132.8 86.2"/>
                    <polygon class="cls-5" points="129.4 88.1 129.4 88.5 117.6 81.6 117.6 81.3 129.4 88.1"/>
                    <polygon class="cls-20" points="132.8 86.2 129.4 88.1 117.6 81.3 120.9 79.3 132.8 86.2"/>
                  </g>
                  <g class="cls-23">
                    <polygon class="cls-39" points="108.4 76.8 108.4 77.2 105.1 79.1 105.1 78.8 108.4 76.8"/>
                    <polygon class="cls-5" points="105.1 78.8 105.1 79.1 91.2 71.1 91.2 70.8 105.1 78.8"/>
                    <polygon class="cls-20" points="108.4 76.8 105.1 78.8 91.2 70.8 94.6 68.8 108.4 76.8"/>
                  </g>
                  <g class="cls-23">
                    <polygon class="cls-39" points="128.7 88.5 128.7 88.9 125.4 90.8 125.4 90.5 128.7 88.5"/>
                    <polygon class="cls-5" points="125.4 90.5 125.4 90.8 105.6 79.4 105.6 79.1 125.4 90.5"/>
                    <polygon class="cls-20" points="128.7 88.5 125.4 90.5 105.6 79.1 109 77.1 128.7 88.5"/>
                  </g>
                  <g class="cls-23">
                    <polygon class="cls-39" points="95.4 73.8 95.4 74.2 92 76.1 92 75.8 95.4 73.8"/>
                    <polygon class="cls-5" points="92 75.8 92 76.1 87.3 73.4 87.3 73 92 75.8"/>
                    <polygon class="cls-20" points="95.4 73.8 92 75.8 87.3 73 90.7 71.1 95.4 73.8"/>
                  </g>
                  <g class="cls-23">
                    <polygon class="cls-39" points="117.7 86.7 117.7 87.1 114.3 89 114.3 88.6 117.7 86.7"/>
                    <polygon class="cls-5" points="114.3 88.6 114.3 89 92.6 76.4 92.6 76.1 114.3 88.6"/>
                    <polygon class="cls-20" points="117.7 86.7 114.3 88.6 92.6 76.1 95.9 74.1 117.7 86.7"/>
                  </g>
                  <g class="cls-23">
                    <polygon class="cls-39" points="106.9 84.9 106.9 85.3 103.5 87.3 103.5 86.9 106.9 84.9"/>
                    <polygon class="cls-5" points="103.5 86.9 103.5 87.3 83.4 75.7 83.4 75.3 103.5 86.9"/>
                    <polygon class="cls-20" points="106.9 84.9 103.5 86.9 83.4 75.3 86.8 73.3 106.9 84.9"/>
                  </g>
                  <g class="cls-23">
                    <polygon class="cls-39" points="124.8 90.8 124.8 91.2 121.5 93.1 121.5 92.7 124.8 90.8"/>
                    <polygon class="cls-5" points="121.5 92.7 121.5 93.1 114.9 89.3 114.9 88.9 121.5 92.7"/>
                    <polygon class="cls-20" points="124.8 90.8 121.5 92.7 114.9 88.9 118.2 87 124.8 90.8"/>
                  </g>
                  <g class="cls-23">
                    <polygon class="cls-39" points="120.9 93.1 120.9 93.4 117.6 95.4 117.6 95 120.9 93.1"/>
                    <polygon class="cls-5" points="117.6 95 117.6 95.4 104.1 87.6 104.1 87.2 117.6 95"/>
                    <polygon class="cls-20" points="120.9 93.1 117.6 95 104.1 87.2 107.4 85.3 120.9 93.1"/>
                  </g>
                  <g class="cls-23">
                    <polygon class="cls-39" points="97.4 84 97.4 84.3 94.1 86.3 94.1 85.9 97.4 84"/>
                    <polygon class="cls-5" points="94.1 85.9 94.1 86.3 79.5 77.9 79.5 77.5 94.1 85.9"/>
                    <polygon class="cls-20" points="97.4 84 94.1 85.9 79.5 77.5 82.9 75.6 97.4 84"/>
                  </g>
                  <g class="cls-23">
                    <polygon class="cls-39" points="117.1 95.3 117.1 95.7 113.7 97.6 113.7 97.3 117.1 95.3"/>
                    <polygon class="cls-5" points="113.7 97.3 113.7 97.6 94.6 86.6 94.6 86.2 113.7 97.3"/>
                    <polygon class="cls-20" points="117.1 95.3 113.7 97.3 94.6 86.2 97.9 84.3 117.1 95.3"/>
                  </g>
                  <g class="cls-23">
                    <polygon class="cls-39" points="84.4 81 84.4 81.3 81 83.3 81 82.9 84.4 81"/>
                    <polygon class="cls-5" points="81 82.9 81 83.3 75.6 80.2 75.6 79.8 81 82.9"/>
                    <polygon class="cls-20" points="84.4 81 81 82.9 75.6 79.8 79 77.8 84.4 81"/>
                  </g>
                  <g class="cls-23">
                    <polygon class="cls-39" points="106.7 93.8 106.7 94.2 103.3 96.2 103.3 95.8 106.7 93.8"/>
                    <polygon class="cls-5" points="103.3 95.8 103.3 96.2 81.6 83.6 81.6 83.2 103.3 95.8"/>
                    <polygon class="cls-20" points="106.7 93.8 103.3 95.8 81.6 83.2 84.9 81.3 106.7 93.8"/>
                  </g>
                  <g class="cls-23">
                    <polygon class="cls-39" points="95.1 91.7 95.1 92.1 91.8 94 91.8 93.6 95.1 91.7"/>
                    <polygon class="cls-5" points="91.8 93.6 91.8 94 71.7 82.4 71.7 82.1 91.8 93.6"/>
                    <polygon class="cls-20" points="95.1 91.7 91.8 93.6 71.7 82.1 75.1 80.1 95.1 91.7"/>
                  </g>
                  <g class="cls-23">
                    <polygon class="cls-39" points="113.2 97.6 113.2 97.9 109.8 99.9 109.8 99.5 113.2 97.6"/>
                    <polygon class="cls-5" points="109.8 99.5 109.8 99.9 103.9 96.5 103.9 96.1 109.8 99.5"/>
                    <polygon class="cls-20" points="113.2 97.6 109.8 99.5 103.9 96.1 107.2 94.2 113.2 97.6"/>
                  </g>
                  <g class="cls-23">
                    <polygon class="cls-39" points="109.3 99.8 109.3 100.2 105.9 102.2 105.9 101.8 109.3 99.8"/>
                    <polygon class="cls-5" points="105.9 101.8 105.9 102.2 92.3 94.3 92.4 94 105.9 101.8"/>
                    <polygon class="cls-20" points="109.3 99.8 105.9 101.8 92.4 94 95.7 92 109.3 99.8"/>
                  </g>
                  <g class="cls-23">
                    <polygon class="cls-39" points="83.2 89.5 83.2 89.9 79.8 91.8 79.8 91.5 83.2 89.5"/>
                    <polygon class="cls-5" points="79.8 91.5 79.8 91.8 67.7 84.8 67.7 84.4 79.8 91.5"/>
                    <polygon class="cls-20" points="83.2 89.5 79.8 91.5 67.7 84.4 71 82.5 83.2 89.5"/>
                  </g>
                  <g class="cls-23">
                    <polygon class="cls-39" points="105.2 102.2 105.2 102.6 101.8 104.5 101.8 104.2 105.2 102.2"/>
                    <polygon class="cls-5" points="101.8 104.2 101.8 104.5 80.4 92.2 80.4 91.8 101.8 104.2"/>
                    <polygon class="cls-20" points="105.2 102.2 101.8 104.2 80.4 91.8 83.7 89.8 105.2 102.2"/>
                  </g>
                </g>
              </g>
              <g>
                <g class="cls-23">
                  <polygon class="cls-5" points="101.8 104.5 101.8 104.9 70.3 123.2 70.3 122.9 101.8 104.5"/>
                  <polygon class="cls-42" points="70.3 122.9 70.3 123.2 36.1 103.5 36.1 103.1 70.3 122.9"/>
                  <polygon class="cls-44" points="101.8 104.5 70.3 122.9 36.1 103.1 67.7 84.8 101.8 104.5"/>
                </g>
                <g>
                  <g class="cls-23">
                    <polygon class="cls-39" points="88.8 97.3 88.8 97.7 85.4 99.6 85.4 99.2 88.8 97.3"/>
                    <polygon class="cls-5" points="85.4 99.2 85.4 99.6 63.7 87.1 63.7 86.7 85.4 99.2"/>
                    <polygon class="cls-20" points="88.8 97.3 85.4 99.2 63.7 86.7 67 84.7 88.8 97.3"/>
                  </g>
                  <g class="cls-23">
                    <polygon class="cls-39" points="101.2 104.5 101.2 104.9 97.9 106.8 97.9 106.4 101.2 104.5"/>
                    <polygon class="cls-5" points="97.9 106.4 97.9 106.8 86 100 86 99.6 97.9 106.4"/>
                    <polygon class="cls-20" points="101.2 104.5 97.9 106.4 86 99.6 89.4 97.7 101.2 104.5"/>
                  </g>
                  <g class="cls-23">
                    <polygon class="cls-39" points="76.9 95.1 76.9 95.5 73.5 97.5 73.5 97.1 76.9 95.1"/>
                    <polygon class="cls-5" points="73.5 97.1 73.5 97.5 59.7 89.5 59.7 89.1 73.5 97.1"/>
                    <polygon class="cls-20" points="76.9 95.1 73.5 97.1 59.7 89.1 63 87.1 76.9 95.1"/>
                  </g>
                  <g class="cls-23">
                    <polygon class="cls-39" points="97.2 106.8 97.2 107.2 93.8 109.2 93.8 108.8 97.2 106.8"/>
                    <polygon class="cls-5" points="93.8 108.8 93.8 109.2 74.1 97.8 74.1 97.4 93.8 108.8"/>
                    <polygon class="cls-20" points="97.2 106.8 93.8 108.8 74.1 97.4 77.4 95.4 97.2 106.8"/>
                  </g>
                  <g class="cls-23">
                    <polygon class="cls-39" points="63.8 92.1 63.8 92.5 60.5 94.4 60.5 94.1 63.8 92.1"/>
                    <polygon class="cls-5" points="60.5 94.1 60.5 94.4 55.8 91.7 55.8 91.3 60.5 94.1"/>
                    <polygon class="cls-20" points="63.8 92.1 60.5 94.1 55.8 91.3 59.1 89.4 63.8 92.1"/>
                  </g>
                  <g class="cls-23">
                    <polygon class="cls-39" points="86.1 105 86.1 105.4 82.8 107.3 82.8 106.9 86.1 105"/>
                    <polygon class="cls-5" points="82.8 106.9 82.8 107.3 61 94.8 61 94.4 82.8 106.9"/>
                    <polygon class="cls-20" points="86.1 105 82.8 106.9 61 94.4 64.4 92.4 86.1 105"/>
                  </g>
                  <g class="cls-23">
                    <polygon class="cls-39" points="75.3 103.3 75.3 103.7 72 105.6 72 105.2 75.3 103.3"/>
                    <polygon class="cls-5" points="72 105.2 72 105.6 51.8 94 51.9 93.6 72 105.2"/>
                    <polygon class="cls-20" points="75.3 103.3 72 105.2 51.9 93.6 55.2 91.7 75.3 103.3"/>
                  </g>
                  <g class="cls-23">
                    <polygon class="cls-39" points="93.3 109.1 93.3 109.5 89.9 111.4 89.9 111.1 93.3 109.1"/>
                    <polygon class="cls-5" points="89.9 111.1 89.9 111.4 83.3 107.6 83.3 107.3 89.9 111.1"/>
                    <polygon class="cls-20" points="93.3 109.1 89.9 111.1 83.3 107.3 86.7 105.3 93.3 109.1"/>
                  </g>
                  <g class="cls-23">
                    <polygon class="cls-39" points="89.4 111.4 89.4 111.8 86 113.7 86 113.3 89.4 111.4"/>
                    <polygon class="cls-5" points="86 113.3 86 113.7 72.5 105.9 72.5 105.6 86 113.3"/>
                    <polygon class="cls-20" points="89.4 111.4 86 113.3 72.5 105.6 75.9 103.6 89.4 111.4"/>
                  </g>
                  <g class="cls-23">
                    <polygon class="cls-39" points="65.8 102.3 65.8 102.7 62.5 104.6 62.5 104.2 65.8 102.3"/>
                    <polygon class="cls-5" points="62.5 104.2 62.5 104.6 48 96.2 48 95.9 62.5 104.2"/>
                    <polygon class="cls-20" points="65.8 102.3 62.5 104.2 48 95.9 51.3 93.9 65.8 102.3"/>
                  </g>
                  <g class="cls-23">
                    <polygon class="cls-39" points="85.5 113.6 85.5 114 82.1 116 82.1 115.6 85.5 113.6"/>
                    <polygon class="cls-5" points="82.1 115.6 82.1 116 63 104.9 63 104.6 82.1 115.6"/>
                    <polygon class="cls-20" points="85.5 113.6 82.1 115.6 63 104.6 66.4 102.6 85.5 113.6"/>
                  </g>
                  <g class="cls-23">
                    <polygon class="cls-39" points="52.8 99.3 52.8 99.7 49.5 101.6 49.5 101.2 52.8 99.3"/>
                    <polygon class="cls-5" points="49.5 101.2 49.5 101.6 44.1 98.5 44.1 98.1 49.5 101.2"/>
                    <polygon class="cls-20" points="52.8 99.3 49.5 101.2 44.1 98.1 47.4 96.2 52.8 99.3"/>
                  </g>
                  <g class="cls-23">
                    <polygon class="cls-39" points="75.1 112.2 75.1 112.5 71.8 114.5 71.8 114.1 75.1 112.2"/>
                    <polygon class="cls-5" points="71.8 114.1 71.8 114.5 50 101.9 50 101.6 71.8 114.1"/>
                    <polygon class="cls-20" points="75.1 112.2 71.8 114.1 50 101.6 53.3 99.6 75.1 112.2"/>
                  </g>
                  <g class="cls-23">
                    <polygon class="cls-39" points="63.5 110 63.5 110.4 60.2 112.3 60.2 111.9 63.5 110"/>
                    <polygon class="cls-5" points="60.2 111.9 60.2 112.3 40.2 100.8 40.2 100.4 60.2 111.9"/>
                    <polygon class="cls-20" points="63.5 110 60.2 111.9 40.2 100.4 43.5 98.4 63.5 110"/>
                  </g>
                  <g class="cls-23">
                    <polygon class="cls-39" points="81.6 115.9 81.6 116.3 78.2 118.2 78.2 117.9 81.6 115.9"/>
                    <polygon class="cls-5" points="78.2 117.9 78.2 118.2 72.3 114.8 72.3 114.4 78.2 117.9"/>
                    <polygon class="cls-20" points="81.6 115.9 78.2 117.9 72.3 114.4 75.7 112.5 81.6 115.9"/>
                  </g>
                  <g class="cls-23">
                    <polygon class="cls-39" points="77.7 118.2 77.7 118.5 74.3 120.5 74.3 120.1 77.7 118.2"/>
                    <polygon class="cls-5" points="74.3 120.1 74.3 120.5 60.8 112.7 60.8 112.3 74.3 120.1"/>
                    <polygon class="cls-20" points="77.7 118.2 74.3 120.1 60.8 112.3 64.2 110.3 77.7 118.2"/>
                  </g>
                  <g class="cls-23">
                    <polygon class="cls-39" points="51.6 107.8 51.6 108.2 48.3 110.2 48.3 109.8 51.6 107.8"/>
                    <polygon class="cls-39" points="48.3 109.8 48.3 110.2 36.1 103.1 36.1 102.8 48.3 109.8"/>
                    <polygon class="cls-20" points="51.6 107.8 48.3 109.8 36.1 102.8 39.5 100.8 51.6 107.8"/>
                  </g>
                  <g class="cls-23">
                    <polygon class="cls-39" points="73.6 120.5 73.6 120.9 70.3 122.9 70.3 122.5 73.6 120.5"/>
                    <polygon class="cls-39" points="70.3 122.5 70.3 122.9 48.8 110.5 48.8 110.1 70.3 122.5"/>
                    <polygon class="cls-20" points="73.6 120.5 70.3 122.5 48.8 110.1 52.2 108.2 73.6 120.5"/>
                  </g>
                </g>
              </g>
            </g>
          </g>
          <g>
            <g>
              <g class="cls-23">
                <polygon class="cls-28" points="62.9 55 56.9 51.5 65.1 46.8 71.1 50.3 62.9 55"/>
                <polygon class="cls-38" points="71.1 50.3 65.1 46.8 65.1 37.4 71.1 40.9 71.1 50.3"/>
                <polygon class="cls-28" points="54.4 60 48.3 56.5 56.5 51.7 62.6 55.2 54.4 60"/>
                <polygon class="cls-38" points="62.6 55.2 56.5 51.7 56.5 42.3 62.5 45.8 62.6 55.2"/>
                <polygon class="cls-42" points="71.1 40.5 70.7 40.7 65.1 44 62.9 45.2 62.5 45 56.9 41.7 62.5 38.5 62.9 38.2 65.1 37 71.1 40.5"/>
                <polygon class="cls-28" points="71.1 40.5 65.1 37 65.1 34.5 65.1 34.1 65 27.6 70.7 30.8 71.1 31.1 71.1 40.5"/>
                <polygon class="cls-28" points="45.8 64.9 39.8 61.4 48 56.7 54 60.2 45.8 64.9"/>
                <polygon class="cls-38" points="54 60.2 48 56.7 48 47.2 54 50.8 54 60.2"/>
                <polygon class="cls-42" points="62.5 45.4 62.2 45.6 56.5 48.9 54.3 50.2 54 50 48.3 46.7 54 43.4 54.3 43.2 56.5 41.9 62.5 45.4"/>
                <polygon class="cls-28" points="62.5 45.4 56.5 41.9 56.5 39.5 56.5 39 56.5 32.5 62.1 35.8 62.5 36 62.5 38.5 62.5 45 62.5 45.4"/>
                <polygon class="cls-28" points="71.1 30.6 65 27.1 65 24.7 65 24.2 65 17.8 70.6 21 71 21.2 71.1 30.6"/>
                <polygon class="cls-42" points="71.1 30.6 70.7 30.8 65.1 34.1 62.9 35.3 62.5 35.1 56.8 31.8 62.5 28.6 62.5 28.6 62.8 28.4 65 27.1 71.1 30.6"/>
                <g>
                  <g class="cls-23">
                    <polygon class="cls-32" points="64.1 24.4 64.1 29.9 65 29.4 65 23.9 64.1 24.4"/>
                    <polygon class="cls-32" points="65 23.9 65 29.4 68.2 31.2 68.2 25.7 65 23.9"/>
                    <polygon class="cls-11" points="67.2 26.3 67.2 31.8 68.3 31.2 68.3 25.7 67.2 26.3"/>
                    <polygon class="cls-6" points="64 24.4 64 29.9 67.2 31.8 67.2 26.3 64 24.4"/>
                    <g>
                      <polygon class="cls-41" points="64.9 23.8 64.9 23.9 65 23.9 64.9 23.8"/>
                      <polygon class="cls-30" points="64.1 24.4 64.1 24.4 67.3 26.2 68.2 25.7 65 23.9 65 23.9 64.9 23.8 65 23.8 68.3 25.7 67.2 26.3 64 24.4 64 24.4 64.1 24.4"/>
                      <polygon class="cls-10" points="64.2 24.4 64.1 24.4 65 23.9 65.1 23.9 65 23.9 65 23.9 68.2 25.7 67.3 26.2 64.1 24.4 64.1 24.4 64.2 24.4"/>
                      <g>
                        <path class="cls-32" d="M67.5,27.2l.6-.4s0,0,0,0,0,0,0,0l-.6.4s0,0,0,0,0,0,0,0Z"/>
                        <path class="cls-32" d="M67.5,27l.6-.4s0,0,0,0,0,0,0,0l-.6.4s0,0,0,0,0,0,0,0Z"/>
                        <path class="cls-32" d="M67.5,26.8l.6-.4s0,0,0,0,0,0,0,0l-.6.4s0,0,0,0,0,0,0,0Z"/>
                        <path class="cls-32" d="M67.5,26.5l.6-.4s0,0,0,0,0,0,0,0l-.6.4s0,0,0,0,0,0,0,0Z"/>
                      </g>
                    </g>
                  </g>
                  <g class="cls-23">
                    <polygon class="cls-32" points="62.7 25.1 62.7 30.6 63.6 30.1 63.6 24.6 62.7 25.1"/>
                    <polygon class="cls-32" points="63.6 24.6 63.6 30.1 66.8 32 66.8 26.5 63.6 24.6"/>
                    <polygon class="cls-19" points="65.8 27 65.9 32.6 66.9 32 66.9 26.4 65.8 27"/>
                    <polygon class="cls-25" points="62.6 25.1 62.6 30.7 65.9 32.6 65.8 27 62.6 25.1"/>
                    <g>
                      <polygon class="cls-41" points="63.5 24.6 63.5 24.7 63.6 24.6 63.5 24.6"/>
                      <polygon class="cls-1" points="62.7 25.1 62.7 25.1 65.9 27 66.8 26.5 63.6 24.6 63.6 24.6 63.5 24.6 63.6 24.5 66.9 26.4 65.8 27 62.6 25.1 62.7 25.1 62.7 25.1"/>
                      <polygon class="cls-10" points="62.8 25.2 62.7 25.1 63.6 24.6 63.7 24.7 63.6 24.6 63.6 24.6 66.8 26.5 65.9 27 62.7 25.1 62.7 25.1 62.8 25.2"/>
                      <g>
                        <path class="cls-32" d="M66.1,28l.6-.4s0,0,0,0,0,0,0,0l-.6.4s0,0,0,0,0,0,0,0Z"/>
                        <path class="cls-32" d="M66.1,27.7l.6-.4s0,0,0,0,0,0,0,0l-.6.4s0,0,0,0,0,0,0,0Z"/>
                        <path class="cls-32" d="M66.1,27.5l.6-.4s0,0,0,0,0,0,0,0l-.6.4s0,0,0,0,0,0,0,0Z"/>
                        <path class="cls-32" d="M66.1,27.3l.6-.4s0,0,0,0,0,0,0,0l-.6.4s0,0,0,0,0,0,0,0Z"/>
                      </g>
                    </g>
                  </g>
                </g>
                <polygon class="cls-28" points="54 50.3 48 46.8 48 44.4 48 43.9 48 37.4 53.6 40.7 54 40.9 54 43.4 54 50 54 50.3"/>
                <polygon class="cls-42" points="54 50.3 53.7 50.5 48 53.8 45.8 55.1 45.5 54.9 39.8 51.6 45.4 48.3 45.8 48.1 48 46.8 54 50.3"/>
                <g class="cls-23">
                  <polygon class="cls-32" points="43.7 50.6 48.5 47.8 48.5 48.8 43.7 51.6 43.7 50.6"/>
                  <polygon class="cls-32" points="43.7 51.6 48.5 48.8 51.7 50.7 46.9 53.4 43.7 51.6"/>
                  <polygon class="cls-8" points="46.9 52.3 51.7 49.6 51.7 50.8 46.9 53.5 46.9 52.3"/>
                  <polygon class="cls-40" points="43.6 50.4 48.4 47.7 51.7 49.6 46.9 52.3 43.6 50.4"/>
                  <g>
                    <polygon class="cls-41" points="43.6 51.6 43.7 51.5 43.7 51.6 43.6 51.6"/>
                    <polygon class="cls-4" points="43.7 50.6 43.7 50.6 46.9 52.4 46.9 53.4 43.7 51.6 43.7 51.6 43.6 51.6 43.6 51.7 46.9 53.5 46.9 52.3 43.6 50.4 43.6 50.5 43.7 50.6"/>
                    <polygon class="cls-10" points="43.8 50.6 43.7 50.6 43.7 51.6 43.8 51.7 43.7 51.6 43.7 51.6 46.9 53.4 46.9 52.4 43.7 50.6 43.7 50.6 43.8 50.6"/>
                    <g>
                      <path class="cls-32" d="M47.8,52.1v.7s0,0,0,0,0,0,0,0v-.7s0,0,0,0c0,0,0,0,0,0Z"/>
                      <path class="cls-32" d="M47.6,52.2v.7s0,0,0,0c0,0,0,0,0,0v-.7s0,0,0,0c0,0,0,0,0,0Z"/>
                      <path class="cls-32" d="M47.4,52.3v.7s0,0,0,0c0,0,0,0,0,0v-.7s0,0,0,0c0,0,0,0,0,0Z"/>
                      <path class="cls-32" d="M47.2,52.4v.7s0,0,0,0c0,0,0,0,0,0v-.7s0,0,0,0c0,0,0,0,0,0Z"/>
                    </g>
                  </g>
                </g>
                <polygon class="cls-42" points="62.5 35.5 62.1 35.8 56.5 39 54.3 40.3 54 40.1 48.3 36.8 54 33.5 54.3 33.3 56.5 32 62.5 35.5"/>
                <polygon class="cls-28" points="62.5 35.5 56.5 32 56.5 29.6 56.5 29.2 56.5 22.7 62.1 26 62.5 26.2 62.5 28.6 62.5 28.6 62.5 35.1 62.5 35.5"/>
                <polygon class="cls-42" points="71 20.8 70.6 21 65 24.2 62.8 25.5 62.5 25.3 56.8 22 62.5 18.8 62.8 18.5 62.8 18.5 65 17.3 71 20.8"/>
                <polygon class="cls-28" points="71 20.8 65 17.3 65 14.9 65 14.5 65 7.9 70.7 11.2 71 11.4 71 20.8"/>
                <polygon class="cls-42" points="54 40.5 53.6 40.7 48 43.9 45.8 45.2 45.4 45 39.8 41.7 45.4 38.4 45.8 38.2 48 37 54 40.5"/>
                <polygon class="cls-28" points="54 40.5 48 37 47.9 34.6 47.9 34.1 47.9 27.6 53.5 30.9 54 31.1 54 33.5 54 40.1 54 40.5"/>
                <g class="cls-23">
                  <polygon class="cls-32" points="48.4 33.9 48.4 39.4 49.3 38.9 49.3 33.4 48.4 33.9"/>
                  <polygon class="cls-32" points="49.3 33.4 49.3 38.9 52.5 40.8 52.5 35.2 49.3 33.4"/>
                  <polygon class="cls-8" points="51.6 35.8 51.6 41.4 52.7 40.8 52.6 35.2 51.6 35.8"/>
                  <polygon class="cls-40" points="48.3 33.9 48.3 39.5 51.6 41.4 51.6 35.8 48.3 33.9"/>
                  <g>
                    <polygon class="cls-41" points="49.3 33.4 49.3 33.5 49.4 33.4 49.3 33.4"/>
                    <polygon class="cls-4" points="48.4 33.9 48.4 33.9 51.6 35.8 52.5 35.2 49.3 33.4 49.3 33.4 49.3 33.4 49.4 33.3 52.6 35.2 51.6 35.8 48.3 33.9 48.4 33.9 48.4 33.9"/>
                    <polygon class="cls-10" points="48.5 34 48.4 33.9 49.3 33.4 49.4 33.5 49.3 33.4 49.3 33.4 52.5 35.2 51.6 35.8 48.4 33.9 48.4 33.9 48.5 34"/>
                    <g>
                      <path class="cls-32" d="M51.8,36.7l.6-.4s0,0,0,0,0,0,0,0l-.6.4s0,0,0,0,0,0,0,0Z"/>
                      <path class="cls-32" d="M51.8,36.5l.6-.4s0,0,0,0,0,0,0,0l-.6.4s0,0,0,0,0,0,0,0Z"/>
                      <path class="cls-32" d="M51.8,36.3l.6-.4s0,0,0,0,0,0,0,0l-.6.4s0,0,0,0,0,0,0,0Z"/>
                      <path class="cls-32" d="M51.8,36.1l.6-.4s0,0,0,0,0,0,0,0l-.6.4s0,0,0,0,0,0,0,0Z"/>
                    </g>
                  </g>
                </g>
                <g>
                  <polygon class="cls-28" points="62.5 25.7 56.5 22.2 56.5 19.8 56.5 19.4 56.4 12.9 62.1 16.2 62.5 16.4 62.5 18.8 62.5 25.3 62.5 25.7"/>
                  <polygon class="cls-42" points="62.5 25.7 62.1 26 56.5 29.2 54.3 30.5 53.9 30.2 48.3 27 53.9 23.7 54.3 23.5 56.5 22.2 62.5 25.7"/>
                </g>
                <g>
                  <g class="cls-23">
                    <polygon class="cls-32" points="55.1 20 55.1 25.5 56 25 56 19.5 55.1 20"/>
                    <polygon class="cls-32" points="56 19.5 56 25 59.2 26.9 59.2 21.3 56 19.5"/>
                    <polygon class="cls-11" points="58.2 21.9 58.2 27.5 59.3 26.8 59.3 21.3 58.2 21.9"/>
                    <polygon class="cls-6" points="55 20 55 25.5 58.2 27.5 58.2 21.9 55 20"/>
                    <g>
                      <polygon class="cls-41" points="55.9 19.5 55.9 19.5 56 19.5 55.9 19.5"/>
                      <polygon class="cls-30" points="55.1 20 55.1 20 58.3 21.9 59.2 21.3 56 19.5 56 19.5 55.9 19.5 56 19.4 59.3 21.3 58.2 21.9 55 20 55 20 55.1 20"/>
                      <polygon class="cls-10" points="55.2 20 55.1 20 56 19.5 56.1 19.5 56 19.5 56 19.5 59.2 21.3 58.3 21.9 55.1 20 55.1 20 55.2 20"/>
                      <g>
                        <path class="cls-32" d="M58.5,22.8l.6-.4s0,0,0,0,0,0,0,0l-.6.4s0,0,0,0,0,0,0,0Z"/>
                        <path class="cls-32" d="M58.5,22.6l.6-.4s0,0,0,0,0,0,0,0l-.6.4s0,0,0,0,0,0,0,0Z"/>
                        <path class="cls-32" d="M58.5,22.4l.6-.4s0,0,0,0,0,0,0,0l-.6.4s0,0,0,0,0,0,0,0Z"/>
                        <path class="cls-32" d="M58.5,22.1l.6-.4s0,0,0,0,0,0,0,0l-.6.4s0,0,0,0,0,0,0,0Z"/>
                      </g>
                    </g>
                  </g>
                  <g class="cls-23">
                    <polygon class="cls-32" points="53.7 20.7 53.7 26.3 54.6 25.7 54.6 20.2 53.7 20.7"/>
                    <polygon class="cls-32" points="54.6 20.2 54.6 25.7 57.8 27.6 57.8 22.1 54.6 20.2"/>
                    <polygon class="cls-19" points="56.8 22.7 56.9 28.2 57.9 27.6 57.9 22 56.8 22.7"/>
                    <polygon class="cls-25" points="53.6 20.8 53.6 26.3 56.9 28.2 56.8 22.7 53.6 20.8"/>
                    <g>
                      <polygon class="cls-41" points="54.5 20.2 54.5 20.3 54.6 20.2 54.5 20.2"/>
                      <polygon class="cls-1" points="53.7 20.7 53.7 20.7 56.9 22.6 57.8 22.1 54.6 20.2 54.6 20.2 54.5 20.2 54.6 20.1 57.9 22 56.8 22.7 53.6 20.8 53.7 20.7 53.7 20.7"/>
                      <polygon class="cls-10" points="53.8 20.8 53.7 20.7 54.6 20.2 54.7 20.3 54.6 20.2 54.6 20.2 57.8 22.1 56.9 22.6 53.7 20.7 53.7 20.7 53.8 20.8"/>
                      <g>
                        <path class="cls-32" d="M57.1,23.6l.6-.4s0,0,0,0,0,0,0,0l-.6.4s0,0,0,0,0,0,0,0Z"/>
                        <path class="cls-32" d="M57.1,23.3l.6-.4s0,0,0,0,0,0,0,0l-.6.4s0,0,0,0,0,0,0,0Z"/>
                        <path class="cls-32" d="M57.1,23.1l.6-.4s0,0,0,0,0,0,0,0l-.6.4s0,0,0,0,0,0,0,0Z"/>
                        <path class="cls-32" d="M57.1,22.9l.6-.4s0,0,0,0,0,0,0,0l-.6.4s0,0,0,0,0,0,0,0Z"/>
                      </g>
                    </g>
                  </g>
                </g>
                <polygon class="cls-42" points="53.9 30.6 53.5 30.9 47.9 34.1 45.8 35.4 45.4 35.2 39.7 31.9 45.4 28.6 45.7 28.4 47.9 27.1 53.9 30.6"/>
                <polygon class="cls-28" points="53.9 30.6 47.9 27.1 47.9 24.8 47.9 24.4 47.9 17.8 53.6 21.1 53.9 21.3 53.9 23.7 53.9 30.2 53.9 30.6"/>
                <polygon class="cls-20" points="45.5 55.7 45.5 55.3 45.4 45.8 45.4 45.5 45.4 36 45.4 35.6 45.4 25.8 39.3 22.3 39.4 32.1 39.4 32.5 39.4 42 39.4 42.3 39.4 51.8 39.4 52.2 39.5 62 45.5 65.5 45.5 55.7"/>
                <path class="cls-20" d="M71.4,40.9v-.2h0v-9.9s0-.3,0-.3v-9.4s0-.5,0-.5v-9.8s-.7.4-.7.4l-5.7,3.3-2.2,1.3-.3.2-.3.2-5.7,3.3-2.2,1.3-.3.2-.3.2-5.7,3.3-2.5,1.5v9.4s0,.4,0,.4v9.4s0,.5,0,.5v9.4s0,.4,0,.4v9.4s0,.8,0,.8h.2c0-.1.2-.2.2-.2l8.2-4.7.3-.2h0s0,0,0,0h.1c0,0,8-4.7,8-4.7l.3-.2h0s.1,0,.1,0h0s8.3-4.8,8.3-4.8v-9.6s0,0,0,0ZM54.3,43.2v-2.5l2.2-1.3,6-3.5v9s0,.4,0,.4l-.3.2-5.7,3.3-2.2,1.3s0-7,0-7ZM54.3,33.3v-2.4l2.2-1.3,6-3.5v2.4h0v6.6s0,.4,0,.4l-.4.2-5.6,3.2-2.2,1.3v-7s0,0,0,0ZM71.1,40.5l-.3.2-5.7,3.3-2.2,1.3v-7s0-2.5,0-2.5l2.2-1.3,6-3.5v9.4s0,0,0,0ZM71.1,30.6l-.4.2-5.6,3.2-2.2,1.3v-7s0-2.4,0-2.4l2.2-1.3,6-3.5v9.4s0,0,0,0ZM65,14.9l6-3.5v9.3s-.4.2-.4.2l-5.6,3.2-2.2,1.3v-7h0v-2.4l2.2-1.3h0ZM56.5,19.8l6-3.5v8.9s0,.4,0,.4l-.4.2-5.6,3.2-2.2,1.3v-7s0-2.4,0-2.4l2.2-1.3h0ZM45.7,28.4v-2.4l2.2-1.3,6-3.5v8.9s0,.4,0,.4l-.4.2-5.6,3.2-2.2,1.3v-7s0,0,0,0ZM45.8,38.2v-2.4l2.2-1.3,6-3.5v9s0,.4,0,.4l-.4.2-5.6,3.2-2.2,1.3v-7s0,0,0,0ZM45.8,48.1v-2.5l2.2-1.3,6-3.5v9s0,.4,0,.4l-.3.2-5.7,3.3-2.2,1.3v-7s0,0,0,0ZM45.9,64.9h0s0-6.9,0-6.9v-2.4l2.2-1.3,6-3.5v.2h0v8.8s0,.4,0,.4l-8.1,4.7h0ZM54.5,59.9h-.1c0,0,0,0,0,0v-7s0-2.2,0-2.2h0v-.2l2.2-1.3,6-3.5v9s0,.4,0,.4l-8,4.6h0ZM63.2,54.9h0s-.2.1-.2.1v-7s0-2.2,0-2.2v-.2h0s0,0,0,0l2.2-1.2,6-3.5v9.4s-7.9,4.6-7.9,4.6h0Z"/>
                <polygon class="cls-10" points="65.3 7.3 56.8 12.3 56.4 12.5 48.2 17.2 47.9 17.4 39.3 22.3 45.4 25.8 53.9 20.9 54.3 20.7 62.5 16 62.8 15.8 71.3 10.8 65.3 7.3"/>
              </g>
              <g class="cls-23">
                <polygon class="cls-13" points="63.2 55.5 62.9 55.3 62.9 45.6 63.2 45.8 63.2 55.5"/>
                <polygon class="cls-14" points="63.2 45.8 62.9 45.6 71.3 40.7 71.7 40.9 63.2 45.8"/>
                <polygon class="cls-45" points="71.7 40.9 71.7 50.6 63.2 55.5 63.2 45.8 71.7 40.9"/>
              </g>
              <g class="cls-23">
                <polygon class="cls-13" points="54.6 60.4 54.2 60.2 54.2 50.5 54.5 50.7 54.6 60.4"/>
                <polygon class="cls-14" points="54.5 50.7 54.2 50.5 62.7 45.6 63 45.8 54.5 50.7"/>
                <polygon class="cls-45" points="63 45.8 63 55.5 54.6 60.4 54.5 50.7 63 45.8"/>
              </g>
              <g class="cls-23">
                <polygon class="cls-13" points="45.9 65.4 45.6 65.2 45.6 55.5 45.9 55.7 45.9 65.4"/>
                <polygon class="cls-14" points="45.9 55.7 45.6 55.5 54 50.6 54.4 50.8 45.9 55.7"/>
                <polygon class="cls-45" points="54.4 50.8 54.4 60.5 45.9 65.4 45.9 55.7 54.4 50.8"/>
              </g>
            </g>
            <g class="cls-23">
              <polygon class="cls-33" points="50.8 53.6 50.8 53.9 51.1 54.1 51.1 53.8 50.8 53.6"/>
              <polygon class="cls-43" points="49.3 55 49.3 55.3 51.4 54.1 51.4 53.8 49.3 55"/>
              <polygon class="cls-28" points="48.9 54.7 48.9 55 49.3 55.3 49.3 55 48.9 54.7"/>
              <polygon class="cls-10" points="48.9 54.7 49.3 55 51.4 53.8 51 53.5 50.8 53.6 51.1 53.8 49.3 54.8 49.1 54.6 48.9 54.7"/>
            </g>
            <g class="cls-23">
              <polygon class="cls-33" points="59.5 48.7 59.5 49 59.8 49.1 59.8 48.8 59.5 48.7"/>
              <polygon class="cls-43" points="58.1 50 58.1 50.3 60.1 49.1 60.1 48.8 58.1 50"/>
              <polygon class="cls-28" points="57.7 49.8 57.7 50 58.1 50.3 58.1 50 57.7 49.8"/>
              <polygon class="cls-10" points="57.7 49.8 58.1 50 60.1 48.8 59.7 48.6 59.5 48.7 59.8 48.8 58.1 49.8 57.8 49.7 57.7 49.8"/>
            </g>
            <g class="cls-23">
              <polygon class="cls-33" points="68.1 43.7 68.1 44 68.3 44.2 68.3 43.9 68.1 43.7"/>
              <polygon class="cls-43" points="66.6 45.1 66.6 45.4 68.7 44.2 68.7 43.9 66.6 45.1"/>
              <polygon class="cls-28" points="66.2 44.8 66.2 45.1 66.6 45.4 66.6 45.1 66.2 44.8"/>
              <polygon class="cls-10" points="66.2 44.8 66.6 45.1 68.7 43.9 68.2 43.6 68.1 43.7 68.3 43.9 66.6 44.9 66.3 44.7 66.2 44.8"/>
            </g>
          </g>
          <g>
            <polygon class="cls-24" points="118.3 60.2 99 49 99 27.2 118.3 38.4 118.3 60.2"/>
            <g class="cls-23">
              <polygon class="cls-10" points="99.1 48.8 99.6 48.5 108.6 53.7 108.2 54 99.1 48.8"/>
              <polygon class="cls-12" points="99.2 36.9 99.7 36.6 99.6 48.5 99.1 48.8 99.2 36.9"/>
              <polygon class="cls-16" points="99.2 27.9 99.7 27.7 99.7 35.8 99.2 36 99.2 27.9"/>
              <polygon class="cls-10" points="108.9 54.4 109.4 54.1 118.4 59.3 117.9 59.6 108.9 54.4"/>
              <polygon class="cls-32" points="108.9 42.5 109.4 42.2 109.4 54.1 108.9 54.4 108.9 42.5"/>
              <polygon class="cls-10" points="109.4 41.4 108.7 41 99.7 35.8 99.2 36 108.2 41.2 108.9 41.7 117.9 46.9 118.4 46.6 109.4 41.4"/>
              <polygon class="cls-10" points="98.5 26.7 98.9 26.4 119.2 38.1 118.7 38.4 98.5 26.7"/>
              <path class="cls-42" d="M98.5,26.7l20.2,11.7v8.9s0,.8,0,.8v12.7s-9.8-5.6-9.8-5.6l-.7-.4-9.8-5.6v-12.7s0-.8,0-.8v-8.9ZM108.2,54v-11.9s-9-5.2-9-5.2v11.9s9,5.2,9,5.2h0ZM117.9,59.6v-11.9s-9-5.2-9-5.2v11.9s9,5.2,9,5.2h0ZM117.9,46.9v-8.1l-18.8-10.8v8.1l9,5.2.7.4,9,5.2h0Z"/>
              <polygon class="cls-28" points="118.7 38.4 118.7 47.3 118.7 48.1 118.6 60.9 119.1 60.6 119.2 47.9 119.2 47 119.2 38.1 118.7 38.4"/>
            </g>
          </g>
          <g class="cls-23">
            <g class="cls-23">
              <polygon class="cls-35" points="85.7 59.5 95.9 53.5 95.9 66.2 85.6 72.1 85.7 59.5"/>
              <polygon class="cls-29" points="85.3 59.2 95.5 53.3 95.9 53.5 85.7 59.5 85.3 59.2"/>
            </g>
            <polygon class="cls-6" points="117.8 65.8 117.8 65.8 107.5 71.8 107.5 72.3 107.5 72.2 107.5 84.4 117.7 78.5 117.8 66.3 117.8 66.3 117.8 66.1 117.8 65.8 117.8 65.8"/>
            <g>
              <g>
                <g>
                  <polygon class="cls-29" points="92.1 70.1 98.8 66.2 99.1 66.5 92.5 70.3 92.1 70.1"/>
                  <g class="cls-23">
                    <polygon class="cls-35" points="92.5 65.3 92.5 67.8 92.5 70.3 92.5 70.3 92.5 72.8 92.5 75.7 99.1 71.9 99.1 69 99.1 66.5 99.1 64 99.1 61.4 92.5 65.3"/>
                    <polygon class="cls-42" points="86.5 61.8 93.1 58 99.1 61.4 92.5 65.3 86.5 61.8"/>
                    <path class="cls-28" d="M86.5,61.8v7.5s0,.4,0,.4v2.5l6,3.5v-5.4s0-2.5,0-2.5v-2.5s-6-3.5-6-3.5h0ZM92.1,75.1l-5.3-3.1v-2.1l5.3,3v2.1h0ZM86.8,69.6v-2.1l5.3,3v2.1s-5.3-3-5.3-3ZM92.1,70.1l-5.3-3-.3-.2.3.2v-2.1l5.3,3v2.1h0ZM86.8,62.5l5.3,3v2.1l-5.3-3v-2.1h0Z"/>
                  </g>
                </g>
                <g>
                  <g class="cls-23">
                    <polygon class="cls-26" points="92.3 73.2 92.4 73.1 92.4 75.7 92.3 75.8 92.3 73.2"/>
                    <polygon class="cls-13" points="86.3 69.8 86.5 69.7 92.4 73.1 92.3 73.2 86.3 69.8"/>
                    <polygon class="cls-45" points="92.3 73.2 92.3 75.8 86.3 72.3 86.3 69.8 92.3 73.2"/>
                  </g>
                  <g class="cls-23">
                    <polygon class="cls-26" points="92.3 70.6 92.4 70.5 92.4 73.1 92.3 73.1 92.3 70.6"/>
                    <polygon class="cls-13" points="86.3 67.1 86.5 67.1 92.4 70.5 92.3 70.6 86.3 67.1"/>
                    <polygon class="cls-45" points="92.3 70.6 92.3 73.1 86.3 69.7 86.3 67.1 92.3 70.6"/>
                  </g>
                  <g class="cls-23">
                    <polygon class="cls-26" points="92.3 68 92.4 67.9 92.4 70.4 92.3 70.5 92.3 68"/>
                    <polygon class="cls-13" points="86.3 64.6 86.5 64.5 92.4 67.9 92.3 68 86.3 64.6"/>
                    <polygon class="cls-45" points="92.3 68 92.3 70.5 86.3 67.1 86.3 64.6 92.3 68"/>
                  </g>
                  <g class="cls-23">
                    <polygon class="cls-26" points="92.3 65.4 92.5 65.3 92.5 67.9 92.3 67.9 92.3 65.4"/>
                    <polygon class="cls-14" points="86.3 61.9 86.5 61.9 92.5 65.3 92.3 65.4 86.3 61.9"/>
                    <polygon class="cls-45" points="92.3 65.4 92.3 67.9 86.3 64.5 86.3 61.9 92.3 65.4"/>
                  </g>
                </g>
              </g>
              <g class="cls-23">
                <polygon class="cls-33" points="88.6 72.1 88.6 72.4 88.4 72.5 88.4 72.2 88.6 72.1"/>
                <polygon class="cls-28" points="89.9 73.3 89.9 73.5 88.1 72.5 88.1 72.2 89.9 73.3"/>
                <polygon class="cls-43" points="90.3 73.1 90.3 73.3 89.9 73.5 89.9 73.3 90.3 73.1"/>
                <polygon class="cls-10" points="90.3 73.1 89.9 73.3 88.1 72.2 88.5 72 88.6 72.1 88.4 72.2 89.9 73.1 90.1 73 90.3 73.1"/>
              </g>
              <g class="cls-23">
                <polygon class="cls-33" points="88.6 69.5 88.6 69.7 88.4 69.9 88.4 69.6 88.6 69.5"/>
                <polygon class="cls-28" points="89.9 70.7 89.9 70.9 88.1 69.9 88.1 69.6 89.9 70.7"/>
                <polygon class="cls-43" points="90.3 70.4 90.3 70.7 89.9 70.9 89.9 70.7 90.3 70.4"/>
                <polygon class="cls-10" points="90.3 70.4 89.9 70.7 88.1 69.6 88.5 69.4 88.6 69.5 88.4 69.6 89.9 70.5 90.1 70.4 90.3 70.4"/>
              </g>
              <g class="cls-23">
                <polygon class="cls-33" points="88.6 66.9 88.6 67.1 88.4 67.3 88.4 67 88.6 66.9"/>
                <polygon class="cls-28" points="89.9 68 89.9 68.3 88.1 67.3 88.1 67 89.9 68"/>
                <polygon class="cls-43" points="90.3 67.8 90.3 68.1 89.9 68.3 89.9 68 90.3 67.8"/>
                <polygon class="cls-10" points="90.3 67.8 89.9 68 88.1 67 88.5 66.8 88.6 66.9 88.4 67 89.9 67.9 90.1 67.7 90.3 67.8"/>
              </g>
              <g class="cls-23">
                <polygon class="cls-33" points="88.6 64.3 88.6 64.5 88.4 64.7 88.4 64.4 88.6 64.3"/>
                <polygon class="cls-28" points="89.9 65.4 89.9 65.7 88.1 64.7 88.1 64.4 89.9 65.4"/>
                <polygon class="cls-43" points="90.3 65.2 90.3 65.5 89.9 65.7 89.9 65.4 90.3 65.2"/>
                <polygon class="cls-10" points="90.3 65.2 89.9 65.4 88.1 64.4 88.5 64.2 88.6 64.3 88.4 64.4 89.9 65.3 90.1 65.1 90.3 65.2"/>
              </g>
            </g>
            <polygon class="cls-6" points="107.1 71.5 107.1 71.6 85.3 58.9 85.3 59.2 85.3 59.2 85.2 71.9 85.6 72.1 85.7 59.6 107.1 72 107.1 84.2 107.5 84.4 107.5 71.8 107.1 71.5"/>
            <polygon class="cls-11" points="117.8 65.8 107.5 71.8 85.3 58.9 95.5 52.9 117.8 65.8"/>
          </g>
          <g>
            <g class="cls-23">
              <g>
                <polygon class="cls-26" points="36.5 50.7 36.6 63.8 49.8 72.1 49.8 58.4 36.5 50.7"/>
                <polygon class="cls-26" points="49.8 58.4 49.8 72.1 50.2 71.9 50.2 58.2 49.8 58.4"/>
              </g>
              <polygon class="cls-45" points="6.2 68.2 6.2 81.4 36.6 63.8 36.5 50.7 6.2 68.2"/>
              <g>
                <g>
                  <g class="cls-23">
                    <polygon class="cls-17" points="49.2 66.8 48.3 66.2 33.4 74.9 34.3 75.4 49.2 66.8"/>
                    <polygon class="cls-17" points="34.3 75.4 33.4 74.9 29.4 77.2 30.3 77.7 34.3 75.4"/>
                    <polygon class="cls-36" points="19.6 83.9 18.7 83.4 18.7 87.7 19.6 88.2 19.6 83.9"/>
                    <polygon class="cls-17" points="30.3 77.7 29.4 77.2 18.7 83.4 19.6 83.9 30.3 77.7"/>
                    <polygon class="cls-3" points="19.6 83.9 19.6 88.2 30.3 82 34.3 79.7 49.3 71.1 49.2 66.8 34.3 75.4 30.3 77.7 19.6 83.9"/>
                  </g>
                  <g>
                    <g class="cls-23">
                      <polygon class="cls-22" points="34.9 75.6 34.6 75.4 34.6 79.7 34.9 79.9 34.9 75.6"/>
                      <polygon class="cls-22" points="49.7 67.1 49.3 66.8 34.6 75.4 34.9 75.6 49.7 67.1"/>
                      <polygon class="cls-11" points="34.9 75.6 34.9 79.9 49.7 71.3 49.7 67.1 34.9 75.6"/>
                    </g>
                    <g class="cls-23">
                      <polygon class="cls-21" points="20 84.2 19.6 84 19.6 88.3 20 88.5 20 84.2"/>
                      <polygon class="cls-22" points="34.7 75.7 34.4 75.5 19.6 84 20 84.2 34.7 75.7"/>
                      <polygon class="cls-11" points="20 84.2 20 88.5 34.8 80 34.7 75.7 20 84.2"/>
                    </g>
                  </g>
                </g>
                <g class="cls-23">
                  <polygon class="cls-36" points="19.8 83.7 19.5 83.5 19.5 84 19.8 84.2 19.8 83.7"/>
                  <polygon class="cls-25" points="30.3 77.2 34.3 74.9 49.3 66.2 49.6 66.4 34.6 75.1 30.6 77.4 19.8 83.7 19.5 83.5 30.3 77.2"/>
                  <polygon class="cls-26" points="19.8 83.7 19.8 84.2 30.6 77.9 34.6 75.6 49.7 66.9 49.6 66.4 34.6 75.1 30.6 77.4 19.8 83.7"/>
                </g>
                <g class="cls-23">
                  <polygon class="cls-34" points="6.7 73.3 6.7 75.9 19.8 83.5 19.8 80.9 6.7 73.3"/>
                  <polygon class="cls-42" points="19.8 80.9 19.8 83.5 49.6 66.2 49.6 63.7 19.8 80.9"/>
                  <polygon class="cls-10" points="6.7 73.3 19.8 80.9 49.6 63.7 36.5 56.1 6.7 73.3"/>
                </g>
              </g>
              <g>
                <polygon class="cls-26" points="19.6 76.4 19.6 89.5 20 89.3 20 76.2 19.6 76.4"/>
                <polygon class="cls-26" points="5.4 68.2 5.5 81.4 19.6 89.5 19.6 76.4 5.4 68.2"/>
              </g>
              <polygon class="cls-14" points="5.4 68.2 19.6 76.4 20 76.2 6.2 68.2 36.5 50.7 49.8 58.4 50.2 58.2 36.5 50.3 5.4 68.2"/>
            </g>
            <g class="cls-23">
              <polygon class="cls-33" points="43.5 71.4 43.5 71.8 43.8 72 43.8 71.6 43.5 71.4"/>
              <polygon class="cls-43" points="41.7 73.1 41.7 73.4 44.2 72 44.2 71.6 41.7 73.1"/>
              <polygon class="cls-28" points="41.2 72.8 41.2 73.1 41.7 73.4 41.7 73.1 41.2 72.8"/>
              <polygon class="cls-10" points="41.2 72.8 41.7 73.1 44.2 71.6 43.7 71.3 43.5 71.4 43.8 71.6 41.7 72.8 41.4 72.6 41.2 72.8"/>
            </g>
            <g class="cls-23">
              <polygon class="cls-33" points="28.2 80.2 28.2 80.6 28.5 80.7 28.5 80.4 28.2 80.2"/>
              <polygon class="cls-43" points="26.5 81.8 26.5 82.2 29 80.7 29 80.4 26.5 81.8"/>
              <polygon class="cls-28" points="26 81.5 26 81.9 26.5 82.2 26.5 81.8 26 81.5"/>
              <polygon class="cls-10" points="26 81.5 26.5 81.8 29 80.4 28.4 80.1 28.2 80.2 28.5 80.4 26.5 81.6 26.2 81.4 26 81.5"/>
            </g>
          </g>
          <path class="cls-22" d="M88.3,104.4c-11,6.3-28.9,6.3-39.9,0-11.1-6.4-11.1-16.7-.1-23.1,11-6.3,28.9-6.3,39.9,0,11.1,6.4,11.1,16.7.1,23.1Z"/>
          <g>
            <g class="cls-23">
              <polygon class="cls-9" points="99.4 79 99.8 78.8 100.2 79 99.8 79.2 99.4 79"/>
              <polygon class="cls-9" points="99.7 79.2 100.2 79 100.1 86.6 99.7 86.8 99.7 79.2"/>
            </g>
            <g class="cls-23">
              <polygon class="cls-9" points="104.9 75.8 105.2 75.6 105.6 75.8 105.2 76 104.9 75.8"/>
              <polygon class="cls-9" points="105.2 76 105.6 75.8 105.6 83.4 105.2 83.7 105.2 76"/>
              <g>
                <polygon class="cls-27" points="104.8 83.4 104.9 75.8 105.2 76 105.2 83.7 104.8 83.4"/>
                <g class="cls-23">
                  <polygon class="cls-27" points="104.8 83.4 104.9 75.8 105.2 76 105.2 83.7 104.8 83.4"/>
                </g>
              </g>
            </g>
            <g>
              <g class="cls-23">
                <polygon class="cls-9" points="92.8 75.4 93.2 75.1 93.6 75.4 93.2 75.6 92.8 75.4"/>
                <polygon class="cls-9" points="93.2 75.6 93.6 75.4 93.6 83 93.2 83.2 93.2 75.6"/>
              </g>
              <g class="cls-23">
                <polygon class="cls-9" points="98.3 72.2 98.7 72 99.1 72.2 98.7 72.4 98.3 72.2"/>
                <polygon class="cls-9" points="98.7 72.4 99.1 72.2 99.1 79.8 98.7 80 98.7 72.4"/>
                <g>
                  <polygon class="cls-27" points="98.3 79.8 98.3 72.2 98.7 72.4 98.7 80 98.3 79.8"/>
                  <g class="cls-23">
                    <polygon class="cls-27" points="98.3 79.8 98.3 72.2 98.7 72.4 98.7 80 98.3 79.8"/>
                  </g>
                </g>
              </g>
            </g>
            <g>
              <path class="cls-9" d="M105.8,75.3h0c0,0,0,.1,0,.1,0,0,0,0,0,0,0,0,0,0,0,0,0,0,0,0,0,0,0,0,0,0,0,0h0s0,0,0,0c0,0,0,0,0,0,0,0,0,0,0,0s0,0,0,0l-5.8,3.4v.3l5.8-3.4h0s0,0,0,0c0,0,0,0,0,0,0,0,0,0,0,0,0,0,0,0,0,0h0s0,0,0,0h0s0,0,0,0h0s0,0,0,0h0v-.4h0s0,0,0,0Z"/>
              <polygon class="cls-9" points="99.8 79 99.8 79.4 92.9 75.4 92.9 75 99.8 79"/>
              <path class="cls-9" d="M105.5,74.8c.4.2.4.6,0,.8l-5.8,3.4-6.9-4,5.7-3.4c.4-.2,1-.2,1.4,0l5.5,3.2h0Z"/>
              <path class="cls-37" d="M105.5,74.8c.4.2.4.6,0,.8l-5.8,3.4-6.9-4,5.7-3.3c.4-.2,1-.2,1.4,0l5.5,3.2h0Z"/>
            </g>
            <g>
              <polygon class="cls-9" points="96.3 71.3 96.6 71.1 93.6 75 93.3 75.2 96.3 71.3"/>
              <polygon class="cls-9" points="96.5 71.1 96.8 70.9 99.8 78.2 99.5 78.4 96.5 71.1"/>
              <polygon class="cls-9" points="93.1 63.3 93.5 63.1 93.4 74.5 93.1 74.7 93.1 63.3"/>
              <polygon class="cls-9" points="93.3 63.3 93.6 63.1 96.6 70.4 96.3 70.6 93.3 63.3"/>
              <polygon class="cls-9" points="99.5 67.3 99.8 67.1 96.8 70.9 96.5 71.1 99.5 67.3"/>
              <polygon class="cls-37" points="92.8 62.6 93.2 62.4 100.1 66.5 99.8 66.7 92.8 62.6"/>
              <path class="cls-27" d="M99.8,66.7l-6.9-4v12.7s0,7.6,0,7.6l.4.2v-7.6l6.2,3.6v7.5s.4.2.4.2v-7.6h0v-12.5h0ZM99.3,66.8l-3,3.8-3-7.3,6.1,3.5ZM93.1,63.5l3,7.3-3,3.8s0-11.1,0-11.1ZM93.3,75.2l3-3.8,3,7.3-6.1-3.5ZM99.5,78.4l-3-7.3,3-3.8v11.1s0,0,0,0Z"/>
              <polygon class="cls-9" points="99.8 66.7 100.1 66.5 100.1 79.2 99.8 79.4 99.8 66.7"/>
            </g>
          </g>
          <g>
            <path class="cls-7" d="M47.7,61.5s-4.6-5.6-9.6-6.1c0,0-4,1-5.5,3.7l9.5,5.6s5.6-3.2,5.6-3.2Z"/>
            <path class="cls-18" d="M47.7,61.5s-2.9,0-5.6,3.2c0,0,3.3-.7,5.6-3.2Z"/>
            <path class="cls-18" d="M32.6,59.1s3.7.5,9.5,5.6c0,0-4.8-2-9.5-5.6Z"/>
          </g>
        </g>
      </g>
    </g>
  </g>
</svg>