<?xml version="1.0" encoding="UTF-8"?>
<svg xmlns="http://www.w3.org/2000/svg" version="1.1" viewBox="0 0 366.6 64">
  <defs>
    <style>
      .cls-1, .cls-2 {
        fill: #fff;
      }

      .cls-2 {
        fill-rule: evenodd;
      }

      .cls-3 {
        fill: none;
      }

      .cls-4 {
        fill: #90242a;
      }
    </style>
  </defs>
  <!-- Generator: Adobe Illustrator 28.7.1, SVG Export Plug-In . SVG Version: 1.2.0 Build 142)  -->
  <g>
    <g id="_圖層_2">
      <path class="cls-2" d="M104.8,39.9c0-1.4-.2-2.8-.5-4.1-.3-1.2-.3-2.5-.3-3.8,0-.3,0-.9-.2-1.1-.2-.1-.2,0-.3-.3-.9-2.6.6-4.6.7-7.1,0-1.4-.3-2.8-.4-4.3,0-1.3.3-2.5.4-3.8,0-1.1-.5-2-.5-3.1,0-.2,0-.4,0-.6-.2-.9-2.3-1.4-3-1.7-.1,0-.3,0-.4-.1-.2,0-.3-.1-.5-.1-.1,0-.3,0-.4,0-.3,0-.6-.2-.9-.3-.7-.2-1.4,0-2.1,0-.8,0-1,0-1.6-.5-.5-.4-1.3-.1-1.9-.2-.3,0-.7,0-1,0-.3,0-.5.2-.8.3-.3,0-.5-.1-.8,0-.8,0-1.5-.3-2.3-.4-1.6,0-3.1,0-4.7,0-.3,0-.8,0-.9.4,0,.3.1.6.4.8,1.1,1,2.5,1.8,4,2.1.9.2,1.8.3,2.7.1,1-.2,1.9-.8,2.8-.6.3,0,.7.2,1,.1.2,0,.3-.2.5-.4,1.3-.9,4,.2,4.6,1.5.1.3.2.6.3.9.2.6.4,1.1.6,1.7,0,.1,0,.2.1.4,0,.1,0,.2.2.4,0,.1.2.2.3.4.2.3.2.7.2,1.1,0,2.6-.2,5.2-.2,7.8,0,1,0,2,0,3,0,2,0,4.1,0,6.1,0,.9-.1,1.8-.2,2.7,0,.5-.2,1.2-.9,1-.3-.1-.6-.4-.9-.6-.2-.1-.3-.2-.4-.4-.1-.2-.1-.5,0-.8,0-.3,0-.5,0-.8,0-.3-.2-.5-.5-.6,0-.9-1-1.6-1.3-2.3-.2-.5-.2-1.2-.2-1.7,0-.4-.1-1.4.3-1.7.1-.1.3,0,.4-.2.1-.1.2-.3.2-.5,0-.2,0-.4,0-.6,0-.2.2-.4.4-.5.4-.5.3-1.1.2-1.7,0-1.2-.2-2.5,0-3.7,0-.5,0-.9-.5-1.1-.5-.2-.9-.6-1.3-1.1-.3-.4-.5-.9-.8-1.4-.2-.4-.5-.9-.2-1.3.2-.2.4-.2.4-.5,0-.3,0-.6,0-.9,0-.6-.1-1.1-.3-1.7,0-.4-.2-1-.7-1.1-.6-.2-1.7,0-2.3.2-.2.1-.4.3-.5.6,0,.3.2.6,0,.9,0,.1-.2.1-.3.2-.8.3-1.5.4-2.4.4-.6,0-1.1,0-1.6.3s-.8.8-1.3,1.1c-.4.3-1,.5-1.5.7-.3,0-.6.2-.8,0-.1-.1-.2-.2-.3-.3-.1,0-.2,0-.3,0-.2,0-.2-.2-.3-.4-.7-1.1-2.9-1.4-3.2.3,0,.2,0,.4,0,.6-.2.4-.4.4-.3,1,0,.4.3.8.6,1,.4.4.9.7,1.3,1.1s1,.7,1,1.3-.4,1.2-.7,1.9c-.2.4-.2,1.1-.6,1.4,0,0-.2.1-.3.2,0,.1,0,.2,0,.4,0,.4,0,.9,0,1.3,0,.3-.3.5-.4.8-.2.4-.1,1.2.2,1.6.3.3.8,0,1.1,0,.8-.3,1.7-1.4,2.7-1.3.2.6-.1,1.4-.5,1.9-.4.5-.8.9-1.1,1.5-.2.3-.3.6-.4.9-.1.3,0,.7,0,1,0,.3-.2.5-.3.8-.2.3-.1.6,0,1,.2.5.6.8.7,1.4.9.2,2.3-1.5,3-2,1.1-.9,2.1-1.8,3.4-2.2.2,0,2.7-.9,2.8-.8.2,1-.6,2.3-1.1,3.1-.6.9-1.2,1.8-2,2.5-.4.4-.8.8-1.3,1.1-.2.2-.4.2-.7.2-.2,0-.3,0-.5.2-.2.3-.2.7-.7.9-.9.4-1.9.1-2.8.7-.3-.3-.8-.3-1.2-.3-.8,0-1.5-.5-1.8-1.2s0-1.1,0-1.7c0-1.4,0-2.7,0-4.1,0-1,0-1.9,0-2.8,0-.5.2-1.9-.3-2.2,0,0-.1,0-.2-.1,0,0,0-.2,0-.3,0-2.4.5-5-.6-7.2-.2-.4-.6-1-1-1.2-.3-.1-.9-.2-.9.2-.2,1,0,2,.2,3,.1.5.6,1.2.5,1.6,0,.1-.1.3-.2.4-.4.7,0,1.5,0,2.3,0,.5,0,1.1-.2,1.6-.3,1.7-.6,3.4-1.2,4.9-.6,1.5-.7,2.7-.4,4.3.2,1.2.4,2.5.9,3.7.4.9,1,1.5,2,1.6,1.3.1,2.6-.3,3.9-.4,1.3-.1,2.6-.3,3.8-.8.6-.3,1.2-.5,1.9-.5,1.1,0,1.9-.2,2.9-.5.7-.2,1.4-.2,2.1-.1.4,0,.9.2,1.2,0,.1,0,.2-.1.3-.2.4-.2.8,0,1.2,0,.9.2,1.8.3,2.4.9.6.6.8,1.5,1.2,2.1,0,.1.2.3.3.4.4.6.7,1.1,1.1,1.7.2.3.3.7.6,1,.3.3.7.5,1,.3.3,0,.5-.3.8-.5.2,0,.4-.1.6-.2.2,0,.3-.3.4-.4.2-.2.3-.5.5-.7.2-.4.4-.7.4-1.2,0-.7.4-1.2.6-1.8.2-.7.2-1.3.2-2h0ZM89.9,28.1c-.2.3,0,.3-.4.5-.4.3-.7.4-1,.7,0,0,0,.2-.1.2-.1,0-.3,0-.4,0-.1,0-.2.2-.3.2-.4.3-.9.2-1.4.1,0-.5.6-1.1,1-1.5.4-.4,1.1-.5,1.4-1,.2-.3.1-.6.1-1,0-.6.2-.9-.6-1.1-.2,0-.4,0-.6-.1-.4,0-.8-.2-1.2-.2-.9-.2-1.9-.2-2.8-.2s.6-1.7.7-1.9c.3-.6.9-1.1,1.4-1.5.4-.3.9-.9,1.5-.9.1,0,.2,0,.3.1,1.2.7,1.6,2.3,2.1,3.5.5,1.2,1.2,2.7.3,3.9h0ZM94.2,35.5c0,.5,0,1-.3,1.5-.2.3-.5.2-.8.2-.3,0-1.1.1-1.3-.2,0,0,0,0,0,0-.1-.4.3-1.1.6-1.4,0-.1.8-1.1.9-1.1h.7c.4,0,.3.8.3,1h0ZM94.7,23.9c0,.2-.3.4-.5.6-.5.6-1.3.3-1.8-.2-.4-.5-.7-1.2-.9-1.7-.3-.6-.7-1.2-.9-1.9,0-.2-.2-.5-.2-.8,0-.4.8-.8,1.1-.9.2,0,.5,0,.8,0h1.3c.3,0,.5,0,.6.2,0,.1.1.2.2.3.2.1.3.1.4.4.1.4,0,.9,0,1.3s0,1.4,0,1.5c0,0,0,1.1,0,1.4h0Z"/>
      <path class="cls-2" d="M122.2,14.3c.3.4.6.7.9,1.2.4.7.2,1.4,1.1,1.7.3,0,.5.2.8.4,1,.5,2.4.1,3.5,0,0,0,.1,0,.2,0,0,0,0,0,0,0,.6-.6-.6-2.4-1-2.8-.4-.3-.9-.5-1.3-.8-.5-.4-.7-.9-1.4-1-1.3-.2-2.4-.9-3.6-1.2,0,.2-.3.5-.4.7,0,.2.2.5.2.7.2.5.6.9.9,1.4h0Z"/>
      <path class="cls-2" d="M139.8,39.5c-.3-.3-.7-.6-1.1-.8-2.3-1.1-4.8-1.6-7.3-1.3-.6,0-1.3,0-1.4-.6,0-.4.2-.7.5-.9,1.9-1.7,3.2-4.1,3.6-6.6.2-.9.2-1.9-.4-2.7-.4-.6-1.2-.9-2-1-.8,0-1.5.2-2.2.4-.4.1-.7.3-1.1.5-.4.3-.7.8-1,1.2-1,1.4-2.4,2.4-3.8,3.4-.4.3-.9.6-1.4.7-.5,0-1.2-.2-1.3-.7-.1-.4.1-.9.3-1.3.4-.8.9-1.5,1.4-2.3.8-1.4,1.7-2.9,3.1-3.8,1-.7,2.3-1,3.4-1.5,1-.4,1.9-.9,2.8-1.5.3-.2.5-.4.6-.7,0-.2,0-.5-.1-.6-.2-.2-.4-.4-.6-.5-1.5-.6-3.1.2-4.6.8-2.6,1.1-5.3,1.8-8.1,2.1-.7,0-4.4.5-3.6,1.8.1.2.4.4.6.5,1.2.6,2.6.9,4,.7.6,0,1.3-.1,1.5.4.1.4,0,.7-.3,1-.7,1-1.4,1.9-2.1,2.8-.4.5-.8.9-1.2,1.3-.3.3-.6.6-.9.9,0,0,0,0,0,0,0,0,0,.1,0,.1.7.7,1,1.6,1.3,2.5.3.8.8,1.6,1.6,1.8.6.2,1.3,0,1.8-.2,1.3-.5,2.5-1.3,3.6-2.2.6-.5,1.1-1,1.3-1.8.1-.6,0-1.2.1-1.8.2-.8.8-1.5,1.7-1.7.1,0,.3,0,.4,0,.1.1.1.3.1.5-.3,2.6-2.2,4.8-4.1,6.7-1.9,2-4.1,3.9-6.8,4.5-.5,0-1,.1-1.4.4-.4.2-.7.8-.6,1.2.1.3.3.4.6.6.8.6,1.8,1.1,2.9,1,.5,0,.9-.2,1.3-.4,1-.3,2.1-.4,3.1-.6,2.7-.5,5.4-1.7,8.2-1.5,2.1.1,4.2,1.1,6.3.5.5-.1.9-.3,1.1-.8.2-.4,0-.9-.2-1.3h0Z"/>
      <path class="cls-2" d="M179.8,31.1c0,0-.1.5-.7.4-1.2-.3-2.2-1.1-3.3-1.6-.6-.2-1.2-.6-1.9-.7-.5,0-1,.3-1.1.4-.2,0-1.6.9-1.8,1.5-.2.6,0,2,0,2.7,0,1.6-.1,3.2-.7,4.7-.3.8-.9,1.5-1.1,2.6-2,.6-3.9,1.2-5.9,1.8h-.4v-1.1c.4-.1.7-.2,1.1-.4,0-.1.5-.4.7-.4,0-.1.7-.4,1.1-.4,1.4-.6,2.6-1.6,3-3.3.6-.7.6-1.5.5-2.3,0-.2-.5-1.5-.5-1.4.2-1.3-1.7-1.8-2.3-2.5l-.4-.4c.5-.6,2.5-1.7,1.9-3.3,0,0-.6-.5-.8-.7,1.1-1,2.2-2,3.3-3,.7-1,.8-1.9,1.9-2.6v-1.1c-.9-.2-1.8-.6-2.6-.9-.7-.2-1.4-.1-2.1-.3-.9-.2-1.6-.8-2.5-.9-.3,0-2.5.1-2.5.2.9-1.5,2.9-3.2,4.4-4.1,0-1.6-.4-2-1.5-2.6v-3c1-.5,2-1,3-1.5v-.7c.4-.4.2,0,.4-.7-.9-.5-1.8-.9-3-1.1,0,0-.3-.7-.7-1.3-.6-.9-1.1-.8-2-.2-.3.2-1.5.8-.6,1.1.9.3.2,2.5-.3,3.1-.3.3-3.1,1.5-3.1,1v1.1c1.1.1,2.2.2,3.3.4v3c-1.7,0-2,.2-3,.7-.1,0,0,1.4,0,1.6.3.3,1,.3,1.4.2,0,0,.1.8,0,.8-1.1.2-1.4.7-2.2,1.1,0,3.4,1.1,3.5,3.7,3.3.6,0-1.2,1.3-1.1,1.2-.4.3-4.6,3-5.3,3.4-.3.2-.9.5-1.2.6-.3.2-1,.4-1.4.7-.9.6-2,1.2-2.8,1.8-.4.3-.6.7-.9.9-.7.5-1.6.9-2.4,1,.1-.9-.6-1.1-.1-2.3.4-.8,1.1-1.7,1.9-2.1v-.4c-1.3.3-4.2,1.7-4.8,2.6-.4.6,0,.8-.7,1.5,0,2.5.4,3.3,1.1,4.8.3,0,2.1.8,2.2.7.2-.4,1.1-.5,1.5-.9,1.4-1,2.5-2.4,3.8-3.5.4-.4.8-.2,1.2-.6.7-.6,1.1-1.4,1.9-1.8.7-.4,1.4-.8,2-1.3.5-.4,1.6-.9,1.9-1.5.4-.8,4-2.3,4.5-2.6.9-.5,2.1-1,3.1-1,0,1-1,1.4-1.3,2.2-.9,2.1-3.9,2.7-4.9,2.9,0,0-1.3.9-.7,3.3.7-.1,1.5-.2,2.2-.4.1-.2.2-.5.4-.7.4,0,1.1-.2,1.1-.4h.4c-.4,1.4-1.4,1.7-2.6,2.2v1.8c.1,0,.4.2.4.4.6-.1,1.2-.2,1.9-.4,1.7-.3,2.8,2.6,2.9,2.6,0,.7-.5,2.1-1.1,2.5-.4.3,0,0-.4.4h-.4v-1.1c.1,0,.9-1.7-.7-3-.1,0-1.6,0-1.6,0,0,0-1.2,0-1.7,0-.9.7-1.7,1.5-2.6,2.2-.4.6,0,.8-.7,1.5,0,2.2.5,3,1.9,3.7-.5,1.9-.9.8-2.2,1.5-.1,0-.3.5-.7.7.1,1.5.5,1.7.7,3,1.7,0,3.3-.2,4.9-.7.5-.2,3.9-1,4-1.2.5-1.5,7.9-.7,7.8-1.8-.4-3.5-.7-6.9-1.1-10.4,2.4.2,3,1.3,4.8,1.8.9-.1,1.7-.2,2.6-.4.4-.9.7-1.7,1.1-2.6-.5-.2-.6-.5-1.5-.4h0ZM161.9,38.5c-.3.5-.7,1.4-1.4,1.1-.8-.3-.3-1.9,0-2.4.2-.4.5-.8.7-1.1,0-.1.2-.4.4-.5.3,0,.8.4,1.1.4-.4.8-.4,1.8-.8,2.6h0Z"/>
      <path class="cls-2" d="M199.8,24.1c.1.4.2.7.4,1.1,0,.1,1.3-.2,1.5-.3.5-.2.6-.6.6-1.2,0-.3,0-.5,0-.8,0-.4.3-.7.4-1,0-.1,0-.4,0-.4s.4,0,.5,0c.4.1.7.3,1,.5.2.1,1,.9,1.1.9.5,0,.9,0,1.4,0,.3-1,.5-1.6.2-2.7,0-.4-.6-2-.9-2.2-.7-.2-1.5-.5-2.2-.7,0,0-.7,0-1.1-.4.8-.4,1.4-.7,2.6-.7,0-.3,0-3.3,0-3.3,0,0,.6-.4.4-1.1-.2-.1-.5-.2-.7-.4v-.7h1.1v-1.1c-1.1-.4-2.3-.5-3-1.5-2.4,0-2.7.2-3,2.2-2.9.5-3.2.7-5.9.7-.2.6-.7,1.9-.4,3h.4c.6,2.2-1.3,4.8-2.2,5.6,0,1-.2,2.5.4,3,.4.4.4-.3,1.1.7,2.7-.1,2.5-2.5,2.5-4.6,0-.7.4-6.1-.6-6.1,1.2.1,2.5.2,3.7.4.1.6.8,1.7.4,2.6-.4.2-.7.5-1.1.7-.3.4-.3.8-.7,1.1v.4h1.5c-.1,2.4-.9,4.9.7,6.3h0Z"/>
      <path class="cls-2" d="M212.4,14.7c-.4-.7-.8-1.5-.8-2.3,0-.6,0-1.1,0-1.7,0,0-.6-.5-.7-.7h-1.5c-.3,2.6-1.1,4.9-1.1,7.8,1.3,0,2.3,0,3-.7.9-.2.8-.4,1.5-.7.5-.3-.2-1.3-.4-1.6h0Z"/>
      <path class="cls-2" d="M186.5,19c.3.5.1,1.4,0,1.9,0,.3,0,.6,0,1,0,.2.3.6.3.7,0,.2,0,.4,0,.6.7-.3,1.7-.8,2.1-1.5.2-.3.5-.8.6-1.2.2-.6,0-.5-.1-1-.1-.5,0-.7-.4-1.1-.2-.3-.5-.6-.8-.9-.2-.2-.9-1.4-1.1-1.4h-1.1c-.4.4,0,.2-.8.4.2.5.3,1.1.6,1.6.2.3.4.4.6.7h0Z"/>
      <path class="cls-2" d="M194,25.4c-.1.1-.3.3-.4.6-.3.9-.7,1.7-1.3,2.4-.4.4-.8.8-1.2,1.1,0,0-1,.9-.9.9-1.1,0-2.1-2.1-2.6-3-.3-.5-.3-1.6-.7-1.9h-.7c.2,1.1.1,2.3.4,3.4.2.9-.2,1.5-.1,2.3,0,.9.2,1.6-.2,2.4-.3.7-.9,1.3-1,2.1,0,.6,0,1.1.1,1.7.1.9.5,3.6,1.9,3.2,1.2-.4.7-1.3.9-2.2.1-.4.4-.7.5-1,.1-.5.1-.8.4-1.2.5-.8.9-1.6,1.4-2.4.2-.4.2-.8.4-1.2.2-.4.4-.6.8-.9.6-.4,1.2-1.4,1.6-2,.2-.3.3-.7.6-1,.2-.2.6-.4.8-.6.2-.2.2-.6.3-.8.2-.7.4-1.4.4-2.1-.6,0-1,0-1.3.2h0Z"/>
      <path class="cls-2" d="M200.2,30c1.1,0,1.6,1.4,2.9,1.1.6-.1,1.1-.5,1.6-.8.9-.6,1.8-1.5,2.9-1.8.2-.7,0-.3.4-.7,0-1.1-.1-1.6-.4-2.2-3.7.1-5.9,2-8.5,3.3,0,0,1.1,1,1.2,1.1h0Z"/>
      <path class="cls-2" d="M209.8,32.6c-2.1,0-4.9,0-5.9,1.1-1.4-.2-1.7-.5-2.2-1.5-.6.1-1.2.2-1.9.4.1,1,.2,2,.4,3,.4.3,0,0,.4.4.2.3,2.2-.8,2.4-1,.7-.5,1.1-.5,2-.5,0-.7,2.7-.2,2.6,0,0,.9-.1,1.8-.2,2.8,0,.5,0,1,0,1.4-.1.6-1.1,2.3-1.7,2.5-1.1.3-2.5.3-3.6.3.2,1.8,1,2.6,1.1,4.4.2,0,.7.2.7.4.3,0,2.4-.9,2.6-1.1.5-.1.9-.3,1.3-.7.5-.5.6-.8.9-1.5.4-1,1-1.8,1.3-2.8.2-.8.4-1.6.6-2.4,0-1.4.7-3,0-3.7-.2-.9-.4-.8-.7-1.5h0Z"/>
      <path class="cls-2" d="M250.1,23c0,0-.9-.7-1.1-1.1,0,0-2.9-.3-3.1-.3-1.1.1-3,.9-3.8-.2-.4-.5-.1-1.2-.5-1.8-.3-.5-1-.5-1.3-1-.1-.2-.3-1.5-.1-1.5,2-.4,5.4-1.2,6.3-2.6.1,0,.4-.2.4-.4-.7-.4-1.1-.8-1.5-1.5-4.3.1-6.4,2.2-10.7,2.2v1.1c.6.1,1.2.2,1.9.4,1.1,1.9,2.2,3.7,3.3,5.6-.2.9-.2,1.2-1.1,1.6-.1,0-1.7.5-1.7.6-.3-.4-.2-.7-.2-1.1,0-.7-.2-.8-.4-1.4,0,0-.1,0-.2,0-.2.5-.7.8-.9,1.4-.2.7-.4,1.2-.7,1.8,0,.1-.4,1.3-.4,1.3-.9.7-1.7,1.5-2.6,2.2-.3.3-1.4,0-1.5-.3-1.1,0,.6-2,.8-2.2.7-1,1-1.7.7-2.8-.1-.5-.5-2-1.1-2h-1.1c-.5-1.6.5-1.5,1.1-2.7.1-.2.2-2.8.4-2.8.8,0,.7-1.8.8-2.2-.7,0-3.7-.4-4.1-.7-1.6,0-1.2.2-2.2.7.6,1.1,1.5,1.3,3,1.5,0,2.5-.6,3.2-1.5,4.8h-1.1c-.7,0-1.1-2-1.4-2.5-.1-.2-1.5-1.6-1.7-1.6-.5,0-1.7,0-2.1.3.1,1.2.5,1.8,1.1,2.6.2.1.5.2.8.4.2.1.2,2.9.2,3.4,0,.6-.2,2.4.5,2.6.7.2-.1,5.1-.4,5.1-.8,0-.5,2.1-.7,2.6-.2.6-.7,1-.8,1.6-.2,1,1.3,3.3,1.8,4.2.3.5.4,1.3,1.2,1.2,1.4,0,2.1-2.3,3.1-2.9.4-.3,1-.1,1.4-.4.5-.3,2-2,1.9-2.5,1.4-.1.8-3.2,2.3-2.3.4.2,1.4,2.6,1.3,2.6,1.7,0,1.6-.5,2.6-1.1.2-.1-.2-4.1-.7-4.1,0-.8.1-1.8.7-2.3.5-.4,1.4-.3,1.6-.9.6,0,1.2.1,1.5.5.5.8,0,1.5,0,2-.2,1.9.4,3.5.4,5.3,0,1.4,0,2.8,0,4.2s0,3.1-.4,4.8c-.4,1.5-.1,3.4.4,4.8.3.7,1.6-.4,1.8-.7.3-.5.5-1.3.5-1.9,0-1.1-.1-2.2-.2-3.3,0-1-.2-2.2-.1-3.2,0-.8.5-1.6.6-2.3,0-1.4-.3-3.6.4-4.4v-.4c.7.5,1.8,1.1,2.2,1.8,1.7,0,2.3-.3,3.3-.7.7-1.7,2.7-6.7,1.5-8.9h0ZM225.3,24.1c.2-.4,1.8-1.3,2.1-1.1,0,0,0,0,.1,0,.1,0,.4.8.4,1,.3,1.3-1.2,3.1-2.4,3.6-.7-.6-.8-2.8-.4-3.6h0ZM227.4,33.2c-.5.4-1.1.5-2.1.1,0-1.9.1-1.5.7-2.6,1.1,0,1.6.1,2.2.4-.1.9-.4,1.7-.9,2.1ZM245.3,29.2c-.2.3-1.7-.2-2-.4-.8-.6-.6-1.6-.5-2.5.5-.2.5-3.1,1.1-3,1.3.1,3.3.8,3.3,2.3,0,1.3-1.2,2.5-1.9,3.6Z"/>
      <path class="cls-2" d="M266.3,16.2c.1,0,.3,0,.4.1,0,0,.6.3.8.4,0,.2.1.4.3.5.8.3,1.6,0,2.4,0,.2,0,.9-.3,1.1-.4.4-.2.9-.2,1.3-.4.2,0,.4-.1.6-.3.2-.2,1.5-.6,1.8-.7.2-.1.5-.9.7-1,.3,0,3.3-.5,3.3-.3.2.9,4.7.3,5.6,0,0-.9-.2-.9-.4-1.5h-3.7c0,0,.3-1.6.4-1.9h0c.1-.1.9,0,1.1,0,.5,0,.6-.3.9-.4.7-.1,1.3.4,2,.3.1,0,1.5-.7,1.5-.7,0-.2-.2-1-.3-1.1-.9-.3-2.3-.4-3.7-.4,0,0-.6-1.6-.7-1.8-.1-.2-.3-.4-.5-.6-.2-.2-.7-.3-.9-.5,0,0-1.1,0-1.2,0-1.6,0-1.2.2-2.2.7-.1,0,0,1.9,0,2.1,0,.5.2,1.4,0,1.9-.2.3-.5.3-.6.7-.3.7-.9,1.2-1.1,1.9-.2.4-.2,1.2-.7,1.2-2.3.2-4.7.5-7,.7.1-1.2.3-1.1.7-1.9,0-.1.6-.2.8-.3.3-.1.6-.2.9-.3.6-.2,1.3-.3,2-.4s1.3-.3,2-.4c.3,0,.5,0,.6-.3,0-.2,0-.6,0-.8-.1-.2-.5-.2-.7-.3-.2-.1-.2-.4-.4-.5-.4-.2-1,0-1.4,0-.5,0-1,0-1.4,0-.5,0-.4-.1-.6-.5-.3-.5-1-.6-1.3-.9-.5-.5-1.4-.4-1.8.1-.4.5-.1,1.2-.2,1.8-.1.8-.6,1.4-.9,2.1-.2.4-.4,1.1-.7,1.5-.4.5-.9.7-1.3,1.3-.1.2-.8,2-.7,2,.9,0,1.7-.5,2.5-.7.3,0,.8-.2,1.1-.1h0Z"/>
      <path class="cls-2" d="M288.3,33.7c0-1.2,0-1.3-.7-1.9,0-.1-.2-.4-.4-.4-1,1.8-1.8,3.1-2.2,5.6,0,.2-2.5.4-2.8.4-1.2,0-2-.4-3.1-.8-.4-.1-.2-2.2-.3-2.6-.2-1-.4-2,.1-3,.1-.2.3-.5.6-.6,1-.5,2-1.1,2.8-1.9.4-.4.9-1,1.2-1.5.4-.5.5-1.1.9-1.7.5-.7,1.2-1.3,1.1-2.2,0-.5-.2-.9-.4-1.4,0-.2-.7-1.5-.9-1.5-.6,0-1.2,0-1.8.1-.2,0-.5,0-.6.2,0,0-.4.5-.2.5-.8.2-1.4.2-2.1.6-.4.2-.8.3-1.1.5-.5.3-.4.5-1.1.3-.3,0-1.2-.3-1.2-.7v-.4c-.7-.4-1.8-.3-3-.4.3-1.3.7-.8.7-2.6-1,.1-2,.2-3,.4v.4c-.5.1-1.1.1-1.6,0,0,0-.9-.6-.7-.6-.3,0-2.9.2-2.9.4-.3,1.2-.9,2.2-1.6,3.2-.3.5-.7.9-1,1.4-.1.2-.4.4-.4.7,0,.3,0,.5-.2.8-.2.2-.4.3-.5.5-.1.2,0,.5-.3.7-.2.2-.4.2-.5.4,0,.1-.2.3-.2.4-.2.4-.4.8-.5,1.2-.2.5-.3,1-.3,1.6,0,.3-.1.5,0,.8.1.2.4.3.5.5.2.4.2.8.4,1.2.2.3.6.6.9.7.4,0,.7.2,1.1.3.3,0,2.7.5,2.7.3,0,.7-.2,1.3-.6,1.8-.9,1.2-2.6,1.5-3.8,2.2-.4.3-1.2.6-1.2,1.1s2.2-.2,2.3-.2c.7-.3,2.2-.6,2.8.3.4.6,0,1.3,0,2,.2,1,1.2,2.8,2.4,2.2,1.3-.6.9-2.7,1.1-3.8.3-1.5.6-3.4,1.6-4.6.8-1,5.9-3,4.6-5-.4-.6-1.5-.2-2-.7-.6-.6-.3-1.4.1-2,.5-.6,1.2-.7,1.9-1,.4-.1,1.2-.9,1.5-.9,1.4,0,2.8,0,3.7.4,0,0,0,1.6,0,1.7,0,.1-.7,1-.9,1.1-.5.4-1.2.2-1.7.5-.1,0-.3.5-.7.7-.3.8-.7,1.6-.8,2.5-.1.8.2,1.5.2,2.2,0,.8-.2,1.5.1,2.3.5,1.1.7,2.2,1.6,3,1,.9,2.5,1.5,3.8,1.6,1.5.1,2.9-.5,4.3-.8,1.1-.2,1.7-1,2.7-1.5.3-1.5.7-3.8-.4-4.8h0ZM263.8,24.8h.4c.3.2-.7.7-.7.7.1-.2.2-.5.4-.7h0ZM266.4,30.3c0,.1-.2.3-.5.4-.3.1-1.1,0-1.4-.2-.5-.3-.5-.7-.6-1.2.2,0,.4-.1.4-.4.2,0,2.1.3,2.1.3,0,.5,0,.8,0,1.1h0ZM268.7,33h-1.1c.3-1,0-.8,1.1-1.1v1.1Z"/>
      <path class="cls-2" d="M320.1,36.3c0-.5-.9-2.9-1.5-3-1-.2-1.8-.8-2.6-1.1-1.2-.4-3-.3-4.3-.4-1.3-.1-2.8,0-3.8-.7.6-.9.5-2.3,1-3.2.3-.6.2-.4.8-.5.4,0,.7-.2.9-.6.6.1,1-.6,1.5-.9.6-.4,1.3-.7,2-.9.6-.1,1.1-.2,1.6-.6.5-.4.6-.6,1.2-.8.3-.1.5-.4.7-.5.8-.5,1.3-.8,1.5-1.7,0-.1.4-1.8.3-1.8-.4,0-6.3.1-6.3,0-.5-.1-1.3,0-1.8,0,0,0,0-.2-.7-.4-.6-.1-.2-3.1-.2-3.5,0-.9,0-1.7,0-2.6,0-.8-.2-1.2-.6-1.8,0-.1,0-.4,0-.5-.2-.4-.5-.9-.8-1.2,0,0,0,0,0,0-.3-.3-1.1-.4-1.5-.5-1.2-.3-2.6-.6-3.5.5-.6.7-.8,1.9-.5,2.8.2.6.3,1.2.5,1.7s.6,1,.8,1.5c.2.4.2.9.2,1.4,0,.7,0,2.1.5,2.6,0,3.4-.5,1.9-2.6,2.6-.6.2-1.8.4-2.3.8-.3.2-.4,1.8-.3,1.8.2,0,1,.7,1.1.7.4.4,1,.5,1.4,1,0,0,.8,1.2.8.9,0,.7-.3,1.6-.6,2.1-.2.4-.5.5-.8.8-.1.2,0,.5-.1.8-.2.3-.5.3-.7.6-.4.7-.2,1-.8,1.5-.6.6-1.4,1-2.1,1.5v1.8c1.2,0,1.9-.5,3-1,.9-.3,1.9-.2,2.7-1,.5-.5.7-.8,1.4-1,0-.1,1.4,0,1.5,0,.6,0,.8.5,1.3.7.6.2,1.2.1,1.8.4.5.2,1,.7,1.4,1,.3.2.5.1.8.4.3.3.3.7.6.9.3.3.7.3,1.1.5.4.2,1,.8,1,.9.2,0,3.6.6,3.6.4,0-.6.9-.6,1.2-1,.4-.4.4-1,.3-1.5h0Z"/>
      <path class="cls-2" d="M365.6,15.2h-2.2v.4h-2.6c0-.1-.7,0-.7,0-.5-.1-1-.2-1.5-.4-.2,0,.4-1.4.7-1.5,0-1.3.3-2.5.6-3.7,0-.3.6-2.5.9-2.5.1-.5.6-1.5.7-1.5.5-1.3-.2-2,.7-3,0-.9-.2-.9-.4-1.5-1.1-.2-3.6-.9-5.2-.4v.4c-1.7.5-3.5,1-5.2,1.5-.2-.9-.4-1.4-.4-2.6-.1,0-.4-.2-.4-.4-1.4,0-2.8,0-3.7.4.2,1.5.5,3,.7,4.4-.1,0-1.8.3-1.8.3,0-.5-.5-.3-.8-.6-.1-.1-.4-.9-.4-.9-1.9-.2-1.8-.3-3.7,0,0,1.2,0,1.7.7,2.2,0,1.2.2,2.7-.4,3.3-.7.8-.8-1.2-1.3-1.6-.4-.3-.4-.4-.7-.8-.1-.2,0-.4-.2-.5-.2-.2-.4-.1-.6-.3-.2-.2-.3-.6-.5-.8-.1,0-.7-.2-.7-.4-1.5,0-3,.3-3.7,1.1-.1,0-.6,1.1-.8,1.1.8,1,1.8,2,2.2,3.3,0,.3.1.7.3.9.2.3.5.4.7.7.2.4,0,.9,0,1.2s0,.8,0,1.2c0,.5.5,1.1.5,1.5,0,1.9.1,1.4.7,2.6h2.6c0-.1.2-.4.4-.4.8-1.3-.8-3,.7-4.4.3-.4,0,0,.4-.4.7,1.9.4,3.6,1.9,4.8-.1.4-.2.7-.4,1.1-1.4.2-3.2.7-4.4,1.1h-2.2c-.4,0-1,.7-1.9.4-.2-.4-.5-.7-.7-1.1-.2,0-.8-.2-.8-.4-1.2.1-2.5.2-3.7.4,0,1.2,0,1.8.4,2.6,0,.1,0,.2.1.4.1.6.1,1.2.2,1.8,0,.3,0,.7,0,1s.1.6.2,1c0,.2,0,.5.1.8,0,.2.2.4.3.6.1.4.3.5.5.7.5.5,1.1.4,1.7.4.2,0,.4,0,.5,0,0-.1,0-.3,0-.5,0-.2.1-.4.1-.7.1-.5.3-1,.4-1.5.1-.5.3-1,.4-1.4,0-.1.3-1.4.4-1.4,5.4-.9,10.9-1.7,16.3-2.6,0-.1,1-.6,1.5-.7,0-.1,2.1-.4,3-1.1.5,0,1.5.2,1.5.4.1,0,.4.7.4,1.1,2,0,2.9-.2,4.5-.7,0-.1,1.5-.4,2.2-.4,0-.1.5-.4.7-.4.1-.2,1.1-1,1.5-1.1v-1.5c-.1,0-.6-.7-.7-1.1h0ZM347.5,18.1h-1.9c-.1-2.8-.3-6.1,0-9.6h1.1c.3.4,0,0,.4.4-.1.7-.2,1.5-.4,2.2h-.4c-.8,2.3.5,4.8,1.5,5.6,0,.9-.1.9-.4,1.5h0ZM350.5,12.2c-.4.1-.7.2-1.1.4,0,0-1-1.3-.4-1.5,0-.2.6-1.9.8-1.8,1.1.8.2.7.7,1.5h.4c0,.9-.2.9-.4,1.5h0ZM352.3,17c.1-1,.2-2,.4-3,.7-.2.3,0,.7-.4,1.1,0,1.6.1,2.2.4,0,2.2-1.3,2.8-3.3,3ZM356.8,10.3c-.1,0-.2,0-.4,0,.1.6-1.9.7-1.9.7-.1-.3-.3-.7-.3-1,.3,0,.8-1.2.7-1.2.6.1,1.2.2,1.9.4,0,0,0,.9,0,1.1h0ZM357.1,5.9c-1.4.2-.8.2-2.2,0-.1-.4-.2-.7-.4-1.1.2-.1.5-.2.8-.4.2-.2.3-.4.6-.3,0,0,1.2.9,1.2.7,0,0,0,1.1,0,1.1Z"/>
      <path class="cls-2" d="M359,30.7c-.1-.2-.2-.5-.4-.7-1.3-.8-3.2.6-5.2,0,0-.1-.7-.4-1.1-.4,0-.1-.2-.4-.4-.4.4-2.6,3-2.1,3.7-4.5.6-.6.8-2.1.7-3.3-2.1.1-4.2.2-6.3.4-.1.2-.9.7-1.1.7,0,.1-.5.4-.7.4,0,.1-1.2.4-1.9.4-.1.2-1.1.7-1.5.7-.1.2-1.9,1-2.6,1.1-1,.5-2,1-3,1.5.2.9.4.8.7,1.5h3c1.9-1.1,3.7-2.2,5.5-3.3.6.1,1.2.2,1.9.4v1.1c-1.4.7-2.7,1.5-4.1,2.2,0,1.3,0,1.7.8,2.2-.1.4-.3,1.1-.7,1.2-.3,0-.6,0-.9.1-.3,0-.5,0-.8.2-.3,0-.6.3-.9.4-.3,0-.5.1-.7.2-.3.2-.6,0-1,.2-.4.2-.5.4-1,.5-.3,0-.6,0-.9,0-.6,0-1.2.2-1.8.3-1.2.2-2.4.4-3.6.6,0,1,.1,1.3.4,1.8,2.7,1.1,10.5,1.3,12.2-.7,1,0,1.6.1,2.2.4,0,.7-.2,1.4-.4,2.1-.1.4-.2.9-.2,1.4,0,.6,0,1.3-.1,1.8-.1.3-.4.6-.5.9,0,.2,0,.8-.2.8-1.7.4-2.7,1.7-4.4,1.9,0-.1-.7-.2-.7-.4-.6-.1-1.2-.2-1.9-.4.2,1.6.9,1.5,1.5,2.6,1,.2,2,.5,3,.6.6,0,1.2.1,1.7.1.3,0,.6,0,.9,0,.2,0,.4-.3.6-.4.2,0,.4,0,.6-.2.4-.2.6-.5.8-.8.3-.3.7-.5.9-.9.2-.4.2-.8.4-1.2.2-.5.4-.9.6-1.3,0-.2,0-.5,0-.8,0-.2,0-.3.1-.5.1-.4.2-.9.2-1.3,0-.2,0-.5,0-.7,0-.1.2-.3.2-.4.4-1.1,0-2.2.2-3.3.1-.9.4-1.8.7-2.6.7-.1,1.5-.2,2.2-.4,0-.1,1.2-.4,1.9-.4.1-.2.2-.5.4-.7.2,0,.7-.2.7-.4.1,0,.1-.4,0-.4h0Z"/>
      <path class="cls-1" d="M79.8,60.1h0v-8.2h2.2v12h-2.8l-2.9-8.4h0v8.4h-2.2v-12h2.8l2.9,8.2Z"/>
      <path class="cls-1" d="M89.9,51.9l3.2,12h-2.5l-.6-2.5h-3.2l-.6,2.5h-2.5l3.2-12h3,0ZM89.6,59.3l-1.2-5.4h0l-1.2,5.4h2.4Z"/>
      <path class="cls-1" d="M100.8,53.9h-2.6v10h-2.4v-10h-2.6v-2h7.6v2h0Z"/>
      <path class="cls-1" d="M102.8,51.9h2.4v12h-2.4v-12Z"/>
      <path class="cls-1" d="M107.8,55.4c0-.8.3-1.4.6-2,.3-.5.7-1,1.2-1.3s1.3-.5,2.2-.5,1.6.2,2.2.5c.5.3.9.7,1.2,1.3.3.5.5,1.2.6,2s.1,1.6.1,2.5,0,1.8-.1,2.5c0,.8-.3,1.4-.6,2-.3.5-.7,1-1.2,1.3-.5.3-1.3.4-2.2.4s-1.6-.2-2.2-.4c-.5-.3-.9-.7-1.2-1.3-.3-.5-.5-1.2-.6-2s-.1-1.6-.1-2.5,0-1.7.1-2.5ZM110.1,59.9c0,.6.1,1,.2,1.4s.3.6.5.8.5.2.9.2.6,0,.9-.2.4-.4.5-.8.2-.8.2-1.4c0-.6,0-1.2,0-2s0-1.5,0-2c0-.6-.1-1-.2-1.4s-.3-.6-.5-.8-.5-.2-.9-.2-.7,0-.9.2c-.2.2-.4.4-.5.8s-.2.8-.2,1.4c0,.6,0,1.2,0,2s0,1.5,0,2Z"/>
      <path class="cls-1" d="M123.7,60.1h0v-8.2h2.2v12h-2.8l-2.9-8.4h0v8.4h-2.2v-12h2.8l2.9,8.2Z"/>
      <path class="cls-1" d="M133.8,51.9l3.2,12h-2.5l-.6-2.5h-3.2l-.6,2.5h-2.5l3.2-12h3,0ZM133.5,59.3l-1.2-5.4h0l-1.2,5.4h2.4Z"/>
      <path class="cls-1" d="M138.6,51.9h2.4v10h4.3v2h-6.7v-12h0Z"/>
      <path class="cls-1" d="M158.5,53.9h-2.6v10h-2.4v-10h-2.6v-2h7.6v2h0Z"/>
      <path class="cls-1" d="M164.8,51.9l3.2,12h-2.5l-.6-2.5h-3.2l-.6,2.5h-2.5l3.2-12h3,0ZM164.4,59.3l-1.2-5.4h0l-1.2,5.4h2.4Z"/>
      <path class="cls-1" d="M169.7,51.9h2.4v12h-2.4v-12Z"/>
      <path class="cls-1" d="M176.4,51.9l1.3,8.9h0l1.4-8.8h2.3l1.4,8.8h0l1.3-8.8h2.3l-2.2,12h-2.7l-1.3-8.7h0l-1.3,8.7h-2.7l-2.2-12h2.3Z"/>
      <path class="cls-1" d="M193.3,51.9l3.2,12h-2.5l-.6-2.5h-3.2l-.6,2.5h-2.5l3.2-12h3,0ZM193,59.3l-1.2-5.4h0l-1.2,5.4h2.4Z"/>
      <path class="cls-1" d="M203.9,60.1h0v-8.2h2.2v12h-2.8l-2.9-8.4h0v8.4h-2.2v-12h2.8l2.9,8.2Z"/>
      <path class="cls-1" d="M219.2,60.1h0v-8.2h2.2v12h-2.8l-2.9-8.4h0v8.4h-2.2v-12h2.8l2.9,8.2Z"/>
      <path class="cls-1" d="M223.8,55.4c0-.8.3-1.4.6-2,.3-.5.7-1,1.2-1.3s1.3-.5,2.2-.5,1.6.2,2.2.5.9.7,1.2,1.3.5,1.2.6,2,.1,1.6.1,2.5,0,1.8-.1,2.5c0,.8-.3,1.4-.6,2-.3.5-.7,1-1.2,1.3-.5.3-1.3.4-2.2.4s-1.6-.2-2.2-.4c-.5-.3-.9-.7-1.2-1.3s-.5-1.2-.6-2-.1-1.6-.1-2.5,0-1.7.1-2.5ZM226.2,59.9c0,.6.1,1,.2,1.4s.3.6.5.8.5.2.9.2.6,0,.9-.2.4-.4.5-.8c.1-.3.2-.8.2-1.4,0-.6,0-1.2,0-2s0-1.5,0-2c0-.6-.1-1-.2-1.4-.1-.4-.3-.6-.5-.8s-.5-.2-.9-.2-.6,0-.9.2c-.2.2-.4.4-.5.8s-.2.8-.2,1.4c0,.6,0,1.2,0,2s0,1.5,0,2Z"/>
      <path class="cls-1" d="M238.6,51.9c1,0,1.8.2,2.4.8s.8,1.3.8,2.3-.2,1.5-.5,2c-.3.5-.8.8-1.5,1h0c.6.1,1.1.3,1.3.6.3.3.4.8.5,1.5,0,.2,0,.5,0,.7,0,.3,0,.6,0,.9,0,.6,0,1.1.1,1.5,0,.3.2.6.4.7h0c0,0-2.6,0-2.6,0-.1-.2-.2-.4-.2-.6s0-.4,0-.7v-2.3c0-.5-.2-.8-.4-1.1s-.6-.4-1.1-.4h-1.3v5.1h-2.4v-12h4.5,0ZM237.5,57.1c.6,0,1-.1,1.3-.4s.5-.7.5-1.4c0-1.1-.6-1.7-1.7-1.7h-1.1v3.5h1Z"/>
      <path class="cls-1" d="M247.9,51.9l1.7,8.5h0l1.7-8.5h3.6v12h-2.2v-9.5h0l-2.1,9.5h-1.9l-2.1-9.5h0v9.5h-2.2v-12h3.6,0Z"/>
      <path class="cls-1" d="M262.8,51.9l3.2,12h-2.5l-.5-2.5h-3.2l-.5,2.5h-2.5l3.2-12h3,0ZM262.5,59.3l-1.2-5.4h0l-1.2,5.4h2.4Z"/>
      <path class="cls-1" d="M267.7,51.9h2.4v10h4.3v2h-6.7v-12h0Z"/>
      <path class="cls-1" d="M283.4,60.2c0,.3,0,.6,0,.8s.1.5.2.7c.1.2.2.3.4.4s.4.2.7.2.5,0,.7-.2c.2-.1.3-.2.4-.4.1-.2.2-.4.2-.7s0-.5,0-.8v-8.4h2.4v8.3c0,.8-.1,1.4-.3,1.9-.2.5-.5.9-.9,1.2s-.8.5-1.2.6c-.5,0-.9.1-1.4.1s-1,0-1.4-.1c-.5,0-.9-.3-1.2-.5-.4-.3-.6-.7-.9-1.2s-.3-1.2-.3-2v-8.3h2.4v8.3h0Z"/>
      <path class="cls-1" d="M296.7,60.1h0v-8.2h2.2v12h-2.8l-3-8.4h0v8.4h-2.2v-12h2.8l2.9,8.2Z"/>
      <path class="cls-1" d="M301.5,51.9h2.4v12h-2.4v-12Z"/>
      <path class="cls-1" d="M310.1,60.7h0l1.8-8.9h2.5l-2.8,12h-3.1l-2.8-12h2.6l1.7,8.8h0Z"/>
      <path class="cls-1" d="M322.8,53.9h-4.3v2.8h4v2h-4v3.2h4.4v2h-6.9v-12h6.7v2h0Z"/>
      <path class="cls-1" d="M329.5,51.9c1,0,1.8.2,2.4.8s.8,1.3.8,2.3-.2,1.5-.5,2c-.3.5-.8.8-1.5,1h0c.6.1,1,.3,1.3.6.3.3.5.8.5,1.5,0,.2,0,.5,0,.7,0,.3,0,.6,0,.9,0,.6,0,1.1.1,1.5,0,.3.2.6.4.7h0c0,0-2.6,0-2.6,0-.1-.2-.2-.4-.2-.6s0-.4,0-.7v-2.3c0-.5-.2-.8-.4-1.1s-.6-.4-1.1-.4h-1.3v5.1h-2.4v-12h4.5,0ZM328.4,57.1c.6,0,1-.1,1.3-.4s.5-.7.5-1.4c0-1.1-.6-1.7-1.7-1.7h-1.1v3.5h1Z"/>
      <path class="cls-1" d="M337.1,60.5c0,.3,0,.5,0,.8s.1.4.2.6c.1.2.3.3.5.4.2,0,.5.1.8.1s.7-.1,1-.4.4-.6.4-1.1,0-.5-.1-.7c0-.2-.2-.4-.4-.5s-.4-.3-.7-.4-.6-.3-1-.4c-.5-.2-1-.4-1.4-.6-.4-.2-.7-.5-1-.8s-.5-.6-.6-1c-.1-.4-.2-.8-.2-1.3,0-1.2.3-2.1,1-2.7s1.6-.9,2.7-.9,1,0,1.5.2.8.3,1.2.6c.3.3.6.6.8,1s.3.9.3,1.5v.3h-2.3c0-.6-.1-1-.3-1.3-.2-.3-.5-.5-1-.5s-.5,0-.7.1c-.2,0-.3.2-.4.3s-.2.3-.2.4c0,.2,0,.3,0,.5,0,.4,0,.7.2.9.2.2.5.5,1,.7l1.9.8c.5.2.8.4,1.1.6s.5.5.7.7.3.5.4.8c0,.3.1.6.1,1,0,1.3-.4,2.2-1.1,2.8-.7.6-1.8.9-3.1.9s-2.3-.3-2.9-.9c-.6-.6-.9-1.4-.9-2.5v-.5h2.4v.3h0Z"/>
      <path class="cls-1" d="M344.8,51.9h2.4v12h-2.4v-12Z"/>
      <path class="cls-1" d="M356.9,53.9h-2.6v10h-2.4v-10h-2.6v-2h7.6v2h0Z"/>
      <path class="cls-1" d="M362.3,56.5h0l1.7-4.6h2.6l-3.1,7.3v4.7h-2.4v-4.7l-3.1-7.3h2.7l1.6,4.6h0Z"/>
      <g>
        <path class="cls-4" d="M63.2,31.5c0,17.5-14,31.7-31.5,31.7C14.3,63.3,0,49.2,0,31.7,0,14.3,14,0,31.5,0c17.5,0,31.7,14,31.7,31.5Z"/>
        <g>
          <g>
            <path class="cls-1" d="M21.2,8.4l.2.2c1.9,1.5,2.5,2.3,3.4,5.3l1.5,4.6c0,0,0,.1,0,.2,0,0,0,0,0,0,.2.6.8,1,1.4,1,0,0,0,0,0,0h3.8s3.8,0,3.8,0c0,0,0,0,0,0,.6,0,1.2-.4,1.4-1,0,0,0,0,0,0,0,0,0-.1,0-.2l1.5-4.6c.8-3,1.5-3.8,3.4-5.3l.2-.2c.4-.3.7-.8.7-1.3s-.3-1.1-.7-1.3c0,0-.1,0-.2-.1h0s0,0,0,0c0,0-.1,0-.2,0-2.5-1-5-1.5-7.5-1.7-.4-.8-1.3-1.4-2.4-1.4s-2.1.6-2.4,1.4c-2.5.2-5,.8-7.5,1.7,0,0-.1,0-.2,0,0,0,0,0,0,0h0c0,0-.1,0-.2.1-.4.3-.7.8-.7,1.3,0,.5.3,1,.7,1.3ZM22.8,7.1c2.8-1,5.6-1.5,8.5-1.5h.2s0,0,0,0h0s0,0,0,0h0s0,0,0,0h.2c2.9,0,5.8.5,8.5,1.5,0,0,.1,0,.1.2s0,.1-.1.2h0c-2.8,1.8-3.7,6-3.7,6l-1.3,4.2h0c0,.3-.3.5-.6.5h0s-3.2,0-3.2,0h0s0,0,0,0h-3.2s0,0,0,0c-.3,0-.5-.2-.6-.4h0s-1.3-4.2-1.3-4.2c0,0-.9-4.3-3.7-6h0c0,0-.1,0-.1-.2,0-.1.1-.2.1-.2Z"/>
            <path class="cls-1" d="M4.1,27.7c0,.5.3,1,.8,1.3.5.3,1,.3,1.5,0h.3c2.3-1,3.3-1.2,6.3-.4l4.7,1c0,0,.1,0,.2,0,0,0,0,0,0,0,.6,0,1.2-.2,1.6-.7,0,0,0,0,0,0l1.9-3.2,1.9-3.2s0,0,0,0c.3-.6.2-1.2-.2-1.7,0,0,0,0,0,0,0,0,0,0-.1-.1l-3.2-3.6c-2.2-2.2-2.5-3.2-2.9-5.6v-.3c0-.5-.4-1-.8-1.3-.5-.3-1.1-.3-1.5,0,0,0-.1,0-.2.1h0s0,0,0,0c0,0,0,0-.1.1-2.1,1.7-3.8,3.6-5.3,5.7-.9,0-1.9.4-2.4,1.4-.6,1-.5,2.1,0,2.8-1.1,2.3-1.8,4.8-2.3,7.4,0,0,0,.1,0,.2,0,0,0,0,0,0h0c0,0,0,.1,0,.2ZM6,26.9c.5-2.9,1.5-5.6,3-8.1v-.2c.1,0,.1,0,.1,0h0s0,0,0,0h0s0,0,0,0h0s.1-.2.1-.2c1.5-2.5,3.3-4.7,5.6-6.6,0,0,.1-.1.2,0,0,0,0,.1,0,.2h0c.1,3.3,3.4,6.3,3.4,6.3l3,3.2h0c.2.2.2.5,0,.8h0s-1.6,2.7-1.6,2.7h0s0,0,0,0l-1.6,2.7h0c-.1.2-.4.4-.7.3h0s-4.2-1-4.2-1c0,0-4.2-1.3-7.1.2h0c0,0-.1,0-.2,0-.1,0,0-.2,0-.2Z"/>
            <path class="cls-1" d="M23.1,42.6s0,0,0,0c.4-.5.5-1.2.2-1.7,0,0,0,0,0,0l-1.9-3.2-1.9-3.3s0,0,0,0c-.3-.5-1-.8-1.6-.7,0,0,0,0,0,0,0,0-.1,0-.2,0l-4.7,1c-3,.8-4,.6-6.3-.3h-.3c-.5-.3-1-.3-1.5,0-.5.3-.8.8-.8,1.3,0,0,0,.1,0,.2h0s0,0,0,0c0,0,0,.1,0,.2.4,2.6,1.2,5.1,2.3,7.4-.5.7-.5,1.8,0,2.8.6,1,1.5,1.5,2.4,1.4,1.4,2.1,3.2,4,5.3,5.7,0,0,0,0,.1.1,0,0,0,0,0,0h0c0,0,.1,0,.2.1.5.2,1,.3,1.5,0,.5-.3.8-.8.8-1.3v-.3c.4-2.4.8-3.4,3-5.6l3.2-3.6s0,0,.1-.1ZM21.4,41.9h0s-3,3.2-3,3.2c0,0-3.2,2.9-3.4,6.3h0c0,0,0,.1,0,.2-.1,0-.2,0-.2,0-2.2-1.9-4.1-4.1-5.6-6.6v-.2c-.1,0-.1,0-.1,0h0s0,0,0,0h0s-.1-.2-.1-.2c-1.4-2.6-2.4-5.3-3-8.1,0,0,0-.1,0-.2,0,0,.1,0,.2,0h0c2.9,1.6,7.1.2,7.1.2l4.2-1h0c.3,0,.5,0,.7.3h0s1.6,2.7,1.6,2.7h0s1.6,2.7,1.6,2.7h0c.1.2,0,.5,0,.7Z"/>
            <path class="cls-1" d="M42,54.8l-.2-.2c-1.9-1.5-2.5-2.3-3.4-5.3l-1.5-4.6c0,0,0-.1,0-.2,0,0,0,0,0,0-.2-.6-.8-1-1.4-1,0,0,0,0,0,0h-3.8s-3.8,0-3.8,0c0,0,0,0,0,0-.6,0-1.2.4-1.4,1,0,0,0,0,0,0,0,0,0,.1,0,.2l-1.5,4.6c-.8,3-1.5,3.8-3.4,5.3l-.2.2c-.4.3-.7.8-.7,1.3,0,.6.3,1.1.7,1.3,0,0,.1,0,.2.1h0s0,0,0,0c0,0,.1,0,.2,0,2.5,1,5,1.5,7.5,1.7.4.8,1.3,1.4,2.4,1.4,1.1,0,2.1-.6,2.4-1.4,2.5-.2,5-.8,7.5-1.7,0,0,.1,0,.2,0,0,0,0,0,0,0h0c0,0,.1,0,.2-.1.4-.3.7-.8.7-1.3s-.3-1-.7-1.3ZM40.4,56.1c-2.8,1-5.6,1.5-8.5,1.5h-.2s0,0,0,0h0s0,0,0,0h0s0,0,0,0h-.2c-2.9,0-5.8-.5-8.5-1.5,0,0-.1,0-.1-.2,0,0,0-.1.1-.2h0c2.8-1.8,3.7-6,3.7-6l1.3-4.2h0c0-.3.3-.5.6-.5h0s3.2,0,3.2,0h0s0,0,0,0h3.2s0,0,0,0c.3,0,.5.2.6.4h0s1.3,4.2,1.3,4.2c0,0,.9,4.3,3.7,6h0c0,0,.1,0,.1.2,0,.1-.1.2-.1.2Z"/>
            <path class="cls-1" d="M59.1,35.6c0-.5-.3-1-.8-1.3-.5-.3-1-.3-1.5,0h-.3c-2.3,1-3.3,1.2-6.3.4l-4.7-1c0,0-.1,0-.2,0,0,0,0,0,0,0-.6,0-1.2.2-1.6.7,0,0,0,0,0,0l-1.9,3.2-1.9,3.2s0,0,0,0c-.3.6-.2,1.2.2,1.7,0,0,0,0,0,0,0,0,0,0,.1.1l3.2,3.6c2.2,2.2,2.5,3.2,2.9,5.6v.3c0,.5.4,1,.8,1.3.5.3,1.1.3,1.5,0,0,0,.1,0,.2-.1h0s0,0,0,0c0,0,0,0,.1-.1,2.1-1.7,3.8-3.6,5.3-5.7.9,0,1.9-.4,2.4-1.4.6-1,.5-2.1,0-2.8,1.1-2.3,1.8-4.8,2.3-7.4,0,0,0-.1,0-.2,0,0,0,0,0,0h0c0,0,0-.1,0-.2ZM57.2,36.3c-.5,2.9-1.5,5.6-3,8.1v.2c-.1,0-.1,0-.1,0h0s0,0,0,0h0v.2c-1.6,2.5-3.5,4.7-5.7,6.6,0,0-.1.1-.2,0,0,0-.1-.1,0-.2h0c-.1-3.3-3.4-6.3-3.4-6.3l-3-3.2h0c-.2-.2-.2-.5,0-.8h0s1.6-2.7,1.6-2.7h0s0,0,0,0l1.6-2.7h0c.1-.2.4-.4.7-.3h0s4.2,1,4.2,1c0,0,4.2,1.3,7.1-.2h0c0,0,.1,0,.2,0,.1,0,0,.2,0,.2Z"/>
            <path class="cls-1" d="M40.2,20.6s0,0,0,0c-.4.5-.5,1.2-.2,1.7,0,0,0,0,0,0l1.9,3.2,1.9,3.2s0,0,0,0c.3.5,1,.8,1.6.7,0,0,0,0,0,0,0,0,.1,0,.2,0l4.7-1c3-.8,4-.6,6.3.3h.3c.5.3,1,.3,1.5,0,.5-.3.8-.8.8-1.3,0,0,0-.1,0-.2h0s0,0,0,0c0,0,0-.1,0-.2-.4-2.6-1.2-5.1-2.3-7.4.5-.7.5-1.8,0-2.8-.6-1-1.5-1.5-2.4-1.4-1.4-2.1-3.2-4-5.3-5.7,0,0,0,0-.1-.1,0,0,0,0,0,0h0c0,0-.1,0-.2-.1-.5-.2-1-.3-1.5,0-.5.3-.8.8-.8,1.3v.3c-.4,2.4-.8,3.4-3,5.6l-3.2,3.6s0,0-.1.1ZM41.8,21.4h0s3-3.2,3-3.2c0,0,3.2-2.9,3.4-6.3h0c0,0,0-.1,0-.2.1,0,.2,0,.2,0,2.2,1.9,4.1,4.1,5.6,6.6v.2c.1,0,.1,0,.1,0h0s0,0,0,0h0s0,0,0,0v.2c1.6,2.6,2.5,5.3,3.1,8.1,0,0,0,.1,0,.2,0,0-.1,0-.2,0h0c-2.9-1.6-7.1-.2-7.1-.2l-4.2,1h0c-.3,0-.5,0-.7-.3h0s-1.6-2.7-1.6-2.7h0s0,0,0,0l-1.6-2.7h0c-.1-.2,0-.5,0-.7Z"/>
          </g>
          <rect class="cls-3" x="28.9" y="29.4" width="1" height="1"/>
          <rect class="cls-3" x="28.9" y="26.5" width="1" height=".8"/>
          <path class="cls-1" d="M40.9,32.5h-3.9v1.3h2.6v.2c-1.2,3.5-4.4,5.8-8,5.8s-6.8-2.3-7.9-5.8v-.2c0,0,.2,0,.2,0h2.3v-1.3h-3.9c-.3,0-.5.2-.5.5s0,0,0,0c.3,2.2,1.4,4.2,3,5.8,1.8,1.7,4.2,2.6,6.7,2.6s4.9-.9,6.7-2.6c1.6-1.5,2.7-3.5,3-5.7,0,0,0,0,0,0,0-.3-.2-.5-.5-.5Z"/>
          <path class="cls-1" d="M41.4,30.1s0,0,0,0c-.3-2.2-1.4-4.2-3-5.7-1.5-1.4-3.5-2.3-5.5-2.6v1.5c3.1.5,5.7,2.6,6.7,5.7v.2c0,0-.2,0-.2,0h-2.3v1.3h3.9c.3,0,.5-.2.5-.5Z"/>
          <path class="cls-1" d="M22.3,30.6h3.9v-1.3h-2.6v-.2c1.1-3.1,3.7-5.2,6.8-5.7v-1.5c-2.1.3-4,1.1-5.5,2.6-1.6,1.5-2.7,3.6-3,5.8,0,0,0,0,0,0,0,.3.2.5.5.5Z"/>
          <path class="cls-1" d="M28.2,37v.9c2.1-.5,3-1.7,3.5-2.6.5,1,1.5,2.1,3.5,2.6v-.9c-2.4-.7-2.9-2.3-3-3h2.8v-.9h-2.9v-1.3h-.9v1.2h0c-.2,0-3,0-3,0v.9h3c-.1.7-.7,2.3-3,3Z"/>
          <path class="cls-1" d="M32.7,26.1h-1.3c0,0-.2,0-.2.2v4s.8,0,.8,0v-3.6h.7v4.4h.8v-4.4h.8s0,3.6,0,3.6h.7v-4c0,0,0-.2-.2-.2h-1.3s0-.6,0-.6h1.6v-.6h-4.2v.6h1.7v.6Z"/>
          <path class="cls-1" d="M29.2,25.8c.4-.3.5-.9.5-.9h-.8s0,.6-.3.9h-.3c0,0-.2,0-.2.2v4.8c0,0,0,.2.2.2h2.1c0,0,.2,0,.2-.2v-2c0,0,0-.2-.2-.2h-1.5v-.6h1.5c0,0,.2,0,.2-.2v-1.8c0,0,0-.2-.2-.2h-1.2ZM29.8,29.4v1h-1v-1h1ZM29.8,27.3h-1v-.8h1v.8Z"/>
        </g>
      </g>
    </g>
  </g>
</svg>