<?xml version="1.0" encoding="UTF-8"?>
<svg id="_圖層_2" data-name="圖層_2" xmlns="http://www.w3.org/2000/svg" xmlns:xlink="http://www.w3.org/1999/xlink" viewBox="0 0 425.32 117.33">
  <defs>
    <style>
      .cls-1 {
        fill: url(#_藍色);
      }

      .cls-2 {
        fill: #0068b7;
      }

      .cls-3 {
        fill: #fff799;
      }
    </style>
    <linearGradient id="_藍色" data-name="藍色" x1="0" y1="58.67" x2="162.7" y2="58.67" gradientUnits="userSpaceOnUse">
      <stop offset="0" stop-color="#3fbff0"/>
      <stop offset=".5" stop-color="#00a1e9"/>
      <stop offset="1" stop-color="#008dd7"/>
    </linearGradient>
  </defs>
  <g id="_圖層_1-2" data-name="圖層_1">
    <path class="cls-1" d="M155.68,4.23c-4.63-3.02-11.77-4.84-22.06-4.04-32.5,2.52-32.22,18.77-35.58,39.5-3.07,18.98-6.94-33.99-58.41-23.76-1.06.21-2.07.53-3.05.91-5.62-.86-12.55,3.64-16.59,11.28-2.97,5.61-3.67,11.55-2.31,15.96-4.82,2.05-8.84,8.16-9.84,15.82-.5,3.83-.16,7.47.8,10.57C3.12,72.44-.6,80.17.08,89.1c.67,8.86,5.45,15.9,11.15,17.09,3.04,6.66,8.5,10.81,15.38,11.11,12.89.56,24.65-6.44,23.53-14.01-1.12-7.57,4.3-12.6,15.5-10.36,11.26,2.25,14.47,7.84,24.84,17.36,10.65,9.79,30.26,7.57,37.82-7.84,1.56-3.17.57-14.6,1.93-27.99.09-.89.19-1.79.3-2.69.39-3.08.92-6.23,1.63-9.39.19-.84.38-1.69.6-2.54,1.07-4.14,2.49-8.25,4.41-12.17,4.04-8.26,10.2-15.73,19.71-20.87,7.11-3.84,8.8-16.03-1.2-22.57Z"/>
    <g>
      <path class="cls-3" d="M151.74,4.92c-11.28,3.39-38.75,12.25-31.21,23.2,5.49,7.97,9.34,15.26,13.55,19.61,3.95-8.31,10.04-15.83,19.5-21.07,7.07-3.91,10.91-16.49-1.84-21.74Z"/>
      <path class="cls-3" d="M129.22,62.48c.18-.84.37-1.7.58-2.54-5.81-2.37-10.78-6.67-10.78-6.67-1.68,3.63,5.99,7.44,10.2,9.21Z"/>
      <path class="cls-3" d="M127.41,74.59c.08-.89.17-1.79.28-2.69-4.78-2.41-8.53-5.66-8.53-5.66-1.44,3.12,4.02,6.37,8.26,8.35Z"/>
    </g>
    <g>
      <path class="cls-2" d="M146.62,71.82h-4.14v-6.66h4.14v6.66ZM142.48,107.88v-32.27h4.14v32.27h-4.14Z"/>
      <path class="cls-2" d="M179.12,85.52c-1.27-2.35-2.82-4.08-4.65-5.21-1.83-1.12-4-1.69-6.53-1.69-3.33,0-6.15,1.26-8.46,3.78s-3.48,5.64-3.48,9.36,1.16,6.82,3.49,9.31c2.33,2.49,5.2,3.74,8.62,3.74,2.5,0,4.71-.62,6.63-1.85,1.92-1.23,3.37-2.96,4.37-5.19h4.58c-1.25,3.5-3.22,6.21-5.9,8.12-2.68,1.92-5.84,2.87-9.47,2.87-4.67,0-8.62-1.66-11.84-4.97-3.22-3.32-4.83-7.31-4.83-11.98s1.63-8.81,4.88-12.13c3.26-3.31,7.22-4.97,11.89-4.97,3.5,0,6.59.94,9.25,2.83s4.67,4.54,6,7.96h-4.58Z"/>
      <path class="cls-2" d="M221.36,93.06h-29.13c.25,3.51,1.53,6.35,3.81,8.51,2.29,2.16,5.14,3.25,8.57,3.25,2.42,0,4.61-.63,6.54-1.88,1.94-1.26,3.43-3,4.49-5.24h4.69c-1.49,3.57-3.57,6.31-6.26,8.22-2.69,1.91-5.8,2.87-9.34,2.87-4.69,0-8.66-1.67-11.91-5.02-3.25-3.34-4.87-7.36-4.87-12.06s1.59-8.97,4.77-12.17c3.18-3.21,7.24-4.81,12.19-4.81s8.8,1.67,11.87,5.01c3.06,3.34,4.59,7.68,4.59,13.02v.3ZM216.78,89.45c-.78-3.59-2.22-6.29-4.31-8.1-2.09-1.81-4.82-2.72-8.18-2.72-3.13,0-5.78.98-7.95,2.92-2.17,1.95-3.5,4.58-3.99,7.9h24.44Z"/>
      <path class="cls-2" d="M277.77,76.22c-1.92-2.66-4.06-4.62-6.42-5.87-2.37-1.25-5.07-1.88-8.1-1.88-4.75,0-8.82,1.76-12.19,5.28-3.37,3.52-5.06,7.71-5.06,12.55,0,5.16,1.68,9.51,5.03,13.05,3.35,3.54,7.43,5.31,12.22,5.31,2.95,0,5.62-.62,8.01-1.85,2.39-1.23,4.46-3.07,6.22-5.51h4.99c-1.96,3.64-4.58,6.45-7.86,8.43-3.29,1.99-6.97,2.98-11.06,2.98-6.28,0-11.51-2.14-15.71-6.42-4.19-4.28-6.29-9.63-6.29-16.05,0-2.99.57-5.83,1.7-8.51,1.13-2.68,2.8-5.09,4.99-7.25,2.03-2.03,4.32-3.57,6.85-4.62,2.53-1.05,5.28-1.57,8.23-1.57,4.24,0,8.06,1.04,11.45,3.11,3.39,2.07,6.08,5.01,8.05,8.8h-5.05Z"/>
      <path class="cls-2" d="M315.49,102.77c-1.29,1.86-3.04,3.32-5.24,4.37-2.2,1.06-4.57,1.58-7.11,1.58-4.73,0-8.67-1.62-11.82-4.85s-4.72-7.23-4.72-11.98,1.61-8.87,4.83-12.11c3.22-3.25,7.24-4.87,12.07-4.87,2.48,0,4.76.5,6.83,1.51,2.07,1.01,3.79,2.46,5.16,4.36v-5.16h4.05v32.27h-4.05v-5.1ZM315.49,91.54c0-3.42-1.22-6.41-3.67-8.96-2.44-2.55-5.26-3.83-8.45-3.83-3.46,0-6.41,1.28-8.84,3.83-2.43,2.55-3.65,5.72-3.65,9.49s1.21,6.63,3.64,9.11c2.42,2.47,5.34,3.71,8.74,3.71s6.15-1.31,8.58-3.92c2.44-2.61,3.65-5.75,3.65-9.43Z"/>
      <path class="cls-2" d="M330.22,107.88h-4.19v-32.27h3.9v3.73c1.02-1.43,2.13-2.47,3.33-3.14,1.2-.66,2.61-1.02,4.21-1.06l.03,4.49c-2.6.23-4.46,1.01-5.59,2.33-1.12,1.32-1.69,3.47-1.69,6.44v19.48Z"/>
      <path class="cls-2" d="M372.75,93.06h-29.13c.25,3.51,1.53,6.35,3.81,8.51,2.29,2.16,5.14,3.25,8.57,3.25,2.42,0,4.61-.63,6.54-1.88,1.94-1.26,3.43-3,4.49-5.24h4.69c-1.49,3.57-3.57,6.31-6.26,8.22-2.69,1.91-5.8,2.87-9.34,2.87-4.69,0-8.66-1.67-11.91-5.02-3.25-3.34-4.87-7.36-4.87-12.06s1.59-8.97,4.77-12.17c3.18-3.21,7.24-4.81,12.19-4.81s8.8,1.67,11.87,5.01c3.06,3.34,4.59,7.68,4.59,13.02v.3ZM368.18,89.45c-.78-3.59-2.22-6.29-4.31-8.1-2.09-1.81-4.82-2.72-8.18-2.72-3.13,0-5.78.98-7.95,2.92-2.17,1.95-3.5,4.58-3.99,7.9h24.43Z"/>
      <path class="cls-2" d="M409.16,93.06h-29.13c.25,3.51,1.53,6.35,3.81,8.51,2.29,2.16,5.14,3.25,8.57,3.25,2.42,0,4.61-.63,6.54-1.88,1.94-1.26,3.43-3,4.49-5.24h4.69c-1.49,3.57-3.57,6.31-6.26,8.22-2.69,1.91-5.8,2.87-9.34,2.87-4.69,0-8.66-1.67-11.91-5.02-3.25-3.34-4.87-7.36-4.87-12.06s1.59-8.97,4.77-12.17c3.18-3.21,7.24-4.81,12.19-4.81s8.8,1.67,11.87,5.01c3.06,3.34,4.59,7.68,4.59,13.02v.3ZM404.58,89.45c-.78-3.59-2.22-6.29-4.31-8.1-2.09-1.81-4.82-2.72-8.18-2.72-3.13,0-5.78.98-7.95,2.92-2.17,1.95-3.5,4.58-3.99,7.9h24.43Z"/>
      <path class="cls-2" d="M418.04,107.88h-4.2v-32.27h3.9v3.73c1.02-1.43,2.13-2.47,3.33-3.14,1.2-.66,2.61-1.02,4.21-1.06l.03,4.49c-2.6.23-4.46,1.01-5.59,2.33-1.12,1.32-1.69,3.47-1.69,6.44v19.48Z"/>
    </g>
    <g>
      <path class="cls-2" d="M315.97,26.68v2.79h-10.21v-2.79h10.21ZM309.19,53.91h-2.79v-11.51c0-.59.29-.88.88-.88h8.48c.61,0,.92.29.92.88v9.15c0,.64-.32.95-.95.95h-6.53v1.41ZM315.83,22.02v2.79h-9.08v-2.79h9.08ZM315.69,31.77v2.79h-8.79v-2.79h8.79ZM315.69,36.71v2.79h-8.79v-2.79h8.79ZM309.65,44.3c-.31,0-.46.15-.46.46v4.94h4.13c.38,0,.57-.19.57-.56v-4.38c-.02-.31-.19-.46-.5-.46h-3.74ZM328.08,29.54v-2.37h3.88v-1.8h-2.37c-.33.52-.68,1.02-1.06,1.52-.66-.73-1.27-1.24-1.84-1.52h-1.98v1.8h2.68v2.37h-2.05v1.87c.54-.14,1.06-.28,1.55-.42l.71,2.12c-1.58.61-3.54,1.07-5.9,1.38l-.28-2.51c.52-.07,1.04-.12,1.55-.14v-2.3h-1.17c-.05,1.74-1.04,3.47-2.97,5.19l-2.01-1.62c1.74-1.25,2.61-2.44,2.61-3.57h-1.84v-2.37h4.59v-1.8h-2.12c-.24.45-.51.89-.81,1.34-.71-.68-1.35-1.14-1.94-1.38.82-1.2,1.34-2.54,1.55-4.03l2.47.56c-.14.4-.26.82-.35,1.27h1.2v-2.19h2.51v2.19h2.26v1.84c.87-1.25,1.45-2.54,1.73-3.88l2.4.78c-.14.4-.29.82-.46,1.27h1.31v-2.05h2.51v2.05h3.11v2.23h-3.11v1.8h3.67v2.37h-2.9v2.23c-.02.45.19.68.63.71h.71c.09,0,.18-.18.25-.53.02-.24.02-.78,0-1.62l1.98.57c-.12,1.81-.35,2.86-.71,3.14-.4.26-.82.39-1.27.39h-2.9c-.73-.05-1.08-.4-1.06-1.06v-3.81h-.85c.02.12.04.22.04.32-.02,1.51-.75,3.11-2.19,4.8l-2.23-1.34c1.37-1.25,2.05-2.51,2.05-3.78h-1.62ZM319.04,49.03c-.24-.02-.35-.15-.35-.39v-13.21c0-.24.12-.35.35-.35h18.15c.26,0,.39.12.39.35v13.21c-.02.26-.15.39-.39.39h-5.76c2.02.68,4.32,1.77,6.89,3.25l-1.45,2.54c-2.87-1.6-5.24-2.68-7.1-3.25l.81-2.54h-5.97l1.45,1.91c-2.68,1.93-5.16,3.08-7.42,3.46l-1.2-2.75c2.28-.47,4.36-1.34,6.22-2.61h-4.63ZM321.48,45.15v1.38c-.02.07.01.12.11.14h13.07c.09-.02.14-.07.14-.14v-1.38h-13.31ZM334.79,39.11v-1.55c0-.07-.05-.11-.14-.11h-13.07c-.09,0-.13.04-.11.11v1.55h13.31ZM334.79,42.92v-1.59h-13.31v1.59h13.31Z"/>
      <path class="cls-2" d="M360.94,41.76h-11.44v-3.07h11.44v-8.23h-8.97c-1.18,2.4-2.59,4.46-4.24,6.18l-2.61-1.98c1.6-1.74,2.94-3.61,4.03-5.62.8-1.6,1.48-4.03,2.05-7.28l3.18.46c-.28,1.88-.67,3.6-1.16,5.16h7.73v-6.15h3.21v6.15h12.78v3.07h-12.78v8.23h11.65v3.07h-11.65v8.79h14.06v3.07h-32.24v-3.07h14.97v-8.79Z"/>
      <path class="cls-2" d="M386.84,29.72c1.74.94,3.67,2.34,5.79,4.2l-1.94,2.47c-2.19-1.91-4.06-3.28-5.62-4.13l1.77-2.54ZM392.35,39.32c-.71,4.14-2.19,9.01-4.45,14.59l-2.83-1.17c2.33-5.7,3.79-10.35,4.38-13.95l2.9.53ZM387.44,21.52c1.79,1.04,3.75,2.54,5.9,4.52l-1.98,2.4c-2.26-2.02-4.18-3.5-5.76-4.41l1.84-2.51ZM417.49,25.16h-20.09c-.26.02-.39.15-.39.39v13.46c0,5.84-1.45,10.88-4.34,15.12l-2.72-1.31c1.65-2.5,2.77-4.85,3.35-7.06.49-2.05.75-4.59.78-7.63v-15.08c.02-.54.29-.81.81-.81h22.6v2.93ZM406.51,45.71h-7.49v-2.79h7.49v-3.46h2.93v3.46h7.28v2.79h-7.28v4.98h9.11v2.79h-21.65v-2.79h9.61v-4.98ZM406.37,31.59h-6.92v-2.79h6.92v-2.75h2.93v2.75h7.13v2.79h-7.13v3.85h8.26v2.79h-18.96v-2.79h7.77v-3.85Z"/>
    </g>
  </g>
</svg>