<?xml version="1.0" encoding="UTF-8"?><svg id="_圖層_2" xmlns="http://www.w3.org/2000/svg" viewBox="0 0 366.59 64.03"><defs><style>.cls-1,.cls-2,.cls-3,.cls-4,.cls-5{stroke-width:0px;}.cls-1,.cls-3{fill:#231815;}.cls-2{fill:none;}.cls-3{fill-rule:evenodd;}.cls-4{fill:#fff;}.cls-5{fill:#91252a;}</style></defs><g id="_圖層_1-2"><path class="cls-3" d="m104.85,39.88c-.08-1.38-.22-2.79-.53-4.14-.28-1.23-.32-2.51-.29-3.77,0-.32.09-.91-.19-1.14-.16-.14-.23-.04-.3-.26-.86-2.57.57-4.59.74-7.13.1-1.42-.32-2.83-.41-4.26-.08-1.27.33-2.49.36-3.75.02-1.05-.52-2.02-.47-3.06,0-.19.04-.39,0-.58-.17-.89-2.29-1.45-3.02-1.69-.14-.04-.27-.09-.41-.13-.16-.05-.33-.11-.5-.13-.13-.02-.26-.02-.38-.04-.31-.05-.6-.2-.91-.27-.71-.18-1.43.02-2.14.07-.78.06-1.03-.06-1.61-.49-.49-.36-1.3-.15-1.86-.17-.33-.02-.67-.08-1.01-.01-.28.06-.51.25-.78.33-.31.09-.49-.1-.78-.08-.76.04-1.5-.34-2.32-.35-1.55-.03-3.1-.05-4.65-.08-.34,0-.77.04-.88.37-.1.29.14.58.36.78,1.13,1.02,2.52,1.77,4,2.14.89.23,1.84.32,2.74.12.96-.21,1.89-.76,2.85-.58.35.06.71.22,1.04.1.2-.07.35-.24.52-.36,1.34-.93,3.97.17,4.61,1.52.13.28.22.58.31.88.18.57.38,1.13.59,1.69.04.12.08.23.13.35.05.13.09.25.17.36.09.14.22.25.32.39.22.32.22.73.22,1.11,0,2.61-.2,5.19-.15,7.78.02,1.02.02,2.03.03,3.05.02,2.04,0,4.08-.1,6.12-.04.91-.12,1.82-.19,2.73-.04.52-.2,1.17-.9.95-.34-.11-.59-.39-.87-.61-.15-.12-.31-.23-.41-.39-.14-.22-.14-.51-.1-.77.04-.26.1-.53.06-.79-.04-.26-.22-.53-.48-.56.08-.86-.99-1.57-1.31-2.28-.24-.54-.18-1.18-.15-1.74.02-.42-.11-1.39.28-1.67.13-.1.32-.07.44-.2.13-.13.15-.34.16-.51.02-.19,0-.4.05-.59.07-.24.24-.35.4-.53.4-.45.26-1.14.22-1.7-.1-1.24-.15-2.45,0-3.68.06-.53,0-.89-.51-1.13-.54-.25-.93-.61-1.27-1.1-.3-.44-.54-.92-.77-1.4-.18-.37-.48-.94-.15-1.31.17-.19.38-.24.44-.52.06-.27-.01-.6-.03-.87-.05-.57-.14-1.14-.27-1.71-.1-.44-.23-.98-.72-1.11-.63-.16-1.74-.08-2.34.2-.24.11-.45.34-.48.6-.03.3.18.65,0,.89-.08.1-.21.15-.34.19-.85.29-1.47.42-2.38.4-.56-.02-1.13,0-1.63.27-.5.27-.83.75-1.28,1.09-.44.34-.96.54-1.5.69-.27.08-.59.21-.83,0-.11-.1-.2-.22-.34-.26-.11-.03-.24,0-.35-.04-.16-.05-.25-.22-.34-.36-.7-1.08-2.93-1.35-3.19.3-.03.21.09.44,0,.63-.21.44-.39.41-.29.95.08.39.34.76.62,1.03.41.4.89.74,1.32,1.11.43.37.96.66.96,1.29,0,.7-.41,1.25-.7,1.86-.2.41-.2,1.09-.6,1.37-.1.07-.21.11-.29.2-.08.1-.09.24-.1.38-.02.4.04.89-.05,1.27-.07.28-.26.52-.37.79-.17.43-.12,1.23.18,1.6.26.32.77.09,1.08-.03.84-.33,1.71-1.36,2.67-1.26.16.62-.12,1.38-.53,1.85-.42.48-.81.89-1.1,1.47-.15.29-.31.59-.42.91-.11.34-.06.68-.1,1.04-.04.31-.21.51-.34.78-.16.32-.11.63.04.95.22.49.62.84.68,1.39.93.18,2.34-1.47,3.02-2.04,1.05-.87,2.13-1.75,3.41-2.25.22-.09,2.73-.94,2.75-.78.17,1.04-.62,2.28-1.12,3.14-.55.94-1.23,1.79-2.02,2.54-.41.39-.84.8-1.32,1.1-.25.16-.43.19-.71.18-.22,0-.35,0-.49.19-.24.32-.25.68-.65.86-.91.4-1.94.12-2.8.72-.27-.32-.75-.34-1.17-.35-.77-.01-1.54-.5-1.84-1.25-.2-.5-.09-1.14-.09-1.67,0-1.37,0-2.74.05-4.11.03-.95.07-1.89.08-2.84,0-.53.21-1.87-.28-2.25-.06-.05-.14-.09-.18-.15-.05-.08-.06-.17-.07-.27-.1-2.35.52-4.98-.62-7.16-.23-.43-.55-.97-1.01-1.19-.3-.14-.86-.25-.94.16-.19.97-.07,2.02.17,2.97.12.47.58,1.17.54,1.65-.02.15-.11.28-.19.42-.37.69-.09,1.53-.04,2.31.03.54-.06,1.07-.15,1.6-.29,1.67-.58,3.35-1.16,4.94-.56,1.54-.7,2.69-.44,4.32.2,1.25.37,2.54.86,3.71.37.9,1.04,1.51,2.03,1.61,1.32.12,2.64-.32,3.94-.44,1.34-.12,2.55-.26,3.8-.78.62-.26,1.22-.46,1.9-.47,1.08-.03,1.86-.22,2.9-.54.67-.2,1.38-.25,2.06-.13.42.07.86.19,1.25.03.12-.05.23-.13.35-.18.38-.17.82-.07,1.23.02.87.21,1.75.26,2.4.88.59.57.82,1.45,1.25,2.13.09.14.18.28.26.42.36.57.72,1.14,1.05,1.74.18.34.35.68.63.95.27.27.67.45,1.04.35.31-.08.54-.33.83-.46.2-.09.43-.13.61-.25.15-.1.26-.26.36-.41.17-.25.32-.46.46-.67.23-.36.39-.72.45-1.23.08-.65.36-1.21.55-1.83.2-.65.21-1.33.17-2Zm-14.98-11.82c-.22.31-.1.33-.45.55-.42.26-.68.4-1.03.74-.08.07-.01.18-.12.24-.11.07-.29-.03-.39.03-.13.08-.18.17-.27.23-.4.28-.94.17-1.42.12.08-.51.6-1.11.98-1.48.41-.41,1.08-.53,1.44-.99.24-.31.12-.64.13-1,.02-.62.15-.94-.55-1.08-.2-.04-.41-.09-.61-.14-.39-.09-.79-.18-1.18-.25-.94-.17-1.89-.23-2.85-.23-.06,0,.61-1.72.69-1.87.35-.61.86-1.11,1.41-1.54.36-.29.95-.94,1.46-.86.11.02.22.07.32.13,1.18.7,1.57,2.3,2.12,3.49.54,1.17,1.18,2.71.33,3.9Zm4.34,7.39c-.01.5-.01,1.04-.34,1.45-.21.27-.48.21-.79.22-.32.01-1.11.13-1.31-.15-.02-.02-.03-.05-.04-.08-.11-.41.34-1.09.58-1.38.1-.13.82-1.08.88-1.08h.74c.36,0,.29.8.29,1.01Zm.45-11.51c-.05.25-.34.39-.51.59-.52.64-1.34.31-1.77-.22-.42-.52-.65-1.16-.94-1.74-.32-.63-.67-1.25-.93-1.91-.1-.25-.19-.51-.24-.77-.07-.37.79-.83,1.08-.94.24-.09.46-.06.75-.06.45,0,.9,0,1.35,0,.28,0,.46,0,.63.25.07.1.13.18.22.26.15.13.3.15.36.35.11.39,0,.91,0,1.32s-.01,1.42.07,1.49c.04.03-.01,1.07-.07,1.39Z"/><path class="cls-3" d="m122.2,14.3c.31.37.63.73.86,1.16.41.75.15,1.44,1.08,1.67.34.08.54.24.82.37,1.01.47,2.44.15,3.5-.04.07-.01.13-.03.19-.07,0,0,.01-.01.02-.02.61-.56-.58-2.44-1.03-2.77-.41-.3-.88-.48-1.27-.83-.46-.42-.7-.91-1.37-1.02-1.27-.21-2.39-.93-3.64-1.24-.1.22-.34.47-.37.7-.03.24.15.54.25.74.24.49.6.93.95,1.35Z"/><path class="cls-3" d="m139.8,39.54c-.29-.35-.7-.58-1.1-.78-2.26-1.1-4.82-1.56-7.32-1.31-.56.06-1.33,0-1.41-.56-.05-.36.25-.66.52-.9,1.88-1.72,3.18-4.07,3.64-6.58.17-.91.2-1.93-.35-2.67-.45-.61-1.23-.92-1.98-.95-.76-.04-1.5.17-2.22.41-.37.12-.74.26-1.05.5-.41.32-.68.79-.97,1.22-.98,1.41-2.41,2.44-3.81,3.44-.44.31-.9.63-1.43.71-.53.07-1.15-.19-1.29-.71-.12-.43.12-.87.35-1.26.45-.76.91-1.51,1.36-2.27.84-1.4,1.73-2.85,3.08-3.76,1.04-.7,2.27-1.03,3.44-1.49.99-.39,1.93-.89,2.82-1.47.26-.17.53-.37.6-.67.06-.23-.01-.45-.15-.64-.16-.21-.4-.39-.65-.49-1.48-.61-3.13.18-4.6.81-2.57,1.1-5.31,1.76-8.08,2.14-.65.09-4.39.47-3.56,1.78.14.22.37.36.61.47,1.23.61,2.63.86,3.99.71.57-.06,1.32-.1,1.52.43.14.35-.08.73-.29,1.05-.65.96-1.36,1.89-2.12,2.77-.39.45-.79.89-1.2,1.32-.3.3-.6.58-.9.87-.02.02-.05.05-.05.08-.01.05.03.1.07.14.68.73.98,1.63,1.34,2.53.32.79.76,1.57,1.63,1.83.61.18,1.26-.02,1.85-.25,1.31-.53,2.54-1.26,3.63-2.17.57-.48,1.14-1.04,1.31-1.76.14-.57.02-1.17.13-1.75.16-.82.83-1.53,1.65-1.72.15-.04.33-.05.45.05.15.12.15.34.13.53-.3,2.65-2.22,4.79-4.1,6.69-1.93,1.95-4.08,3.94-6.78,4.46-.47.09-.97.14-1.38.38-.42.24-.72.76-.55,1.21.11.26.35.44.59.6.85.57,1.84,1.1,2.86.96.46-.06.88-.25,1.32-.4,1-.32,2.06-.4,3.09-.57,2.74-.46,5.4-1.66,8.18-1.49,2.11.13,4.22,1.06,6.26.54.47-.12.95-.35,1.15-.79.18-.42.04-.92-.25-1.27Z"/><path class="cls-3" d="m179.8,31.1c-.06.01-.13.52-.74.37-1.16-.27-2.23-1.07-3.31-1.56-.56-.25-1.25-.64-1.87-.67-.51-.03-.97.34-1.15.35-.22.01-1.61.9-1.84,1.51-.25.65,0,1.96-.03,2.68-.06,1.57-.14,3.24-.68,4.73-.3.83-.9,1.55-1.11,2.59-1.98.62-3.95,1.24-5.93,1.85h-.37v-1.11c.37-.12.74-.25,1.11-.37,0-.13.49-.38.74-.38,0-.12.74-.37,1.12-.37,1.43-.6,2.59-1.63,2.96-3.33.63-.66.58-1.47.52-2.32-.02-.23-.47-1.53-.49-1.43.2-1.31-1.74-1.75-2.26-2.55,0,0-.37-.37-.37-.37.51-.56,2.53-1.71,1.85-3.33,0,0-.63-.53-.75-.74,1.12-.98,2.22-1.97,3.33-2.96.7-.98.84-1.93,1.85-2.59v-1.11c-.85-.25-1.76-.61-2.57-.85-.66-.19-1.39-.13-2.05-.3-.85-.22-1.6-.81-2.49-.89-.28-.03-2.47.1-2.52.18.87-1.51,2.94-3.23,4.44-4.07-.05-1.63-.44-2.03-1.47-2.59v-2.96c.98-.49,1.98-.99,2.96-1.48v-.74c.41-.42.16,0,.37-.74-.86-.46-1.75-.91-2.96-1.11-.01-.05-.32-.71-.69-1.28-.6-.93-1.12-.77-1.97-.23-.28.18-1.54.8-.65,1.1.87.29.16,2.52-.29,3.08-.28.34-3.08,1.49-3.08,1.04v1.11c1.11.13,2.22.24,3.33.37v2.96c-1.66,0-2.02.24-2.96.74-.11.06-.05,1.41.08,1.55.29.32.96.3,1.35.22.02.08.14.8.06.81-1.12.25-1.4.67-2.23,1.11-.09,3.44,1.12,3.49,3.71,3.33.63-.04-1.25,1.3-1.07,1.16-.39.29-4.64,2.97-5.29,3.4-.31.2-.94.46-1.23.62-.32.17-1.04.44-1.37.66-.9.63-2.01,1.21-2.81,1.82-.35.27-.56.67-.91.93-.67.5-1.62.92-2.44,1,.13-.93-.64-1.1-.12-2.27.37-.83,1.13-1.69,1.93-2.13v-.37c-1.26.31-4.17,1.68-4.82,2.59-.42.61,0,.84-.74,1.48,0,2.46.43,3.31,1.11,4.81.28.09,2.12.8,2.18.7.23-.39,1.06-.52,1.53-.87,1.37-1.04,2.47-2.44,3.79-3.53.42-.35.81-.24,1.21-.58.74-.63,1.14-1.35,1.9-1.77.7-.39,1.38-.82,1.98-1.34.48-.42,1.59-.86,1.89-1.46.41-.81,3.97-2.3,4.54-2.61.93-.5,2.07-1.01,3.12-1.04.08.95-.98,1.41-1.34,2.21-.94,2.09-3.89,2.73-4.89,2.89-.08.05-1.34.91-.74,3.33.74-.12,1.48-.25,2.22-.38.12-.24.25-.49.37-.73.37,0,1.11-.25,1.11-.37h.38c-.36,1.38-1.42,1.74-2.59,2.22v1.85c.12,0,.37.25.37.37.62-.12,1.24-.25,1.85-.37,1.68-.34,2.83,2.61,2.93,2.64.05.71-.5,2.12-1.07,2.55-.42.31-.06-.05-.37.36h-.37v-1.11c.12,0,.86-1.72-.74-2.96-.1,0-1.62.06-1.64-.06-.01-.1-1.17.06-1.7.06-.86.74-1.72,1.48-2.59,2.22-.42.62,0,.84-.74,1.48-.04,2.23.48,2.96,1.85,3.7-.53,1.89-.88.75-2.22,1.48-.11.07-.32.54-.74.74.1,1.54.49,1.74.74,2.96,1.66,0,3.28-.15,4.86-.65.46-.15,3.89-.97,3.98-1.23.54-1.45,7.93-.74,7.82-1.82-.37-3.45-.74-6.91-1.11-10.36,2.43.17,3.03,1.34,4.81,1.85.86-.12,1.73-.25,2.59-.37.37-.86.74-1.73,1.11-2.59-.49-.17-.63-.52-1.48-.37Zm-17.86,7.42c-.3.5-.68,1.36-1.37,1.08-.76-.31-.3-1.86-.02-2.42.19-.39.48-.76.73-1.11.09-.13.24-.44.4-.49.3-.07.76.36,1.09.36-.35.83-.35,1.8-.82,2.59Z"/><path class="cls-3" d="m199.79,24.07c.13.37.25.74.38,1.11.05.14,1.33-.2,1.49-.27.51-.25.58-.65.6-1.17,0-.27,0-.54.03-.8.04-.41.29-.67.44-1.03.05-.12-.03-.35.08-.43.11-.08.4.02.51.05.36.11.68.33,1,.52.19.11.99.91,1.11.91.46.02.92.05,1.38.04.28-1.02.47-1.57.19-2.67-.09-.36-.57-2.05-.9-2.16-.74-.25-1.48-.5-2.22-.74,0,0-.69.06-1.11-.37.84-.35,1.44-.66,2.59-.74.06-.33,0-3.34,0-3.33,0,0,.62-.4.37-1.11-.25-.12-.49-.25-.74-.37v-.74h1.11v-1.11c-1.15-.43-2.32-.5-2.96-1.48-2.45-.09-2.66.16-2.96,2.22-2.86.53-3.23.7-5.93.74-.21.59-.66,1.87-.37,2.96h.37c.59,2.2-1.27,4.78-2.22,5.55,0,1.03-.18,2.46.37,2.96.45.41.43-.27,1.11.74,2.73-.15,2.48-2.52,2.47-4.59,0-.69.36-6.05-.62-6.14,1.23.12,2.46.25,3.7.37.12.63.78,1.66.37,2.59-.37.25-.74.49-1.11.74-.34.39-.31.79-.74,1.11v.37h1.49c-.11,2.36-.89,4.9.73,6.29Z"/><path class="cls-3" d="m212.35,14.72c-.4-.71-.76-1.47-.77-2.31,0-.56.06-1.12.06-1.67,0,0-.6-.47-.74-.74h-1.48c-.28,2.65-1.12,4.86-1.11,7.78,1.33,0,2.31-.08,2.96-.74.9-.23.81-.39,1.48-.74.49-.26-.25-1.29-.4-1.57Z"/><path class="cls-3" d="m186.49,18.96c.3.52.1,1.37.06,1.93-.02.32-.07.65,0,.96.04.21.3.58.3.74,0,.23,0,.44.05.65.73-.29,1.66-.83,2.13-1.49.24-.34.47-.76.6-1.16.19-.59.03-.53-.11-1.01-.15-.53-.04-.66-.39-1.09-.22-.27-.54-.56-.78-.85-.16-.19-.91-1.35-1.12-1.35h-1.11c-.42.41,0,.16-.75.37.18.52.29,1.15.55,1.63.16.3.44.41.58.66Z"/><path class="cls-3" d="m194.03,25.37c-.15.13-.27.33-.37.63-.28.86-.73,1.68-1.34,2.36-.37.41-.8.76-1.25,1.08-.08.06-1.01.91-.93.91-1.06-.05-2.09-2.14-2.55-2.95-.28-.49-.31-1.58-.74-1.86h-.74c.19,1.12.14,2.26.35,3.37.17.9-.17,1.48-.13,2.34.03.88.23,1.58-.17,2.4-.34.7-.91,1.3-.96,2.11-.03.56.01,1.13.1,1.68.13.9.49,3.57,1.9,3.15,1.21-.36.72-1.28.95-2.2.1-.39.43-.66.54-1.04.13-.47.15-.83.39-1.22.5-.78.87-1.62,1.35-2.39.23-.37.23-.77.39-1.17.19-.44.38-.59.77-.89.6-.44,1.17-1.36,1.58-1.97.2-.31.34-.68.59-.95.24-.25.6-.35.82-.62.18-.21.24-.57.31-.84.2-.69.42-1.41.45-2.12-.58-.07-1.01-.09-1.31.17Z"/><path class="cls-3" d="m200.22,29.97c1.11.05,1.65,1.44,2.86,1.1.55-.15,1.1-.45,1.58-.76.92-.59,1.83-1.51,2.9-1.81.22-.74-.05-.32.37-.74-.02-1.06-.13-1.58-.37-2.22-3.67.13-5.94,2.01-8.51,3.34,0,0,1.14.98,1.16,1.09Z"/><path class="cls-3" d="m209.79,32.58c-2.15-.02-4.9.08-5.92,1.11-1.36-.15-1.71-.55-2.22-1.48-.62.12-1.24.24-1.86.37.13.99.25,1.98.38,2.96.42.32.06-.05.37.37.25.34,2.19-.84,2.43-1.03.67-.54,1.11-.47,1.96-.48.04-.74,2.66-.22,2.65.02-.07.93-.14,1.85-.21,2.77-.04.46.07.96-.04,1.42-.14.56-1.07,2.35-1.7,2.55-1.09.34-2.46.31-3.6.29.2,1.81.96,2.63,1.11,4.44.24,0,.74.24.74.37.29,0,2.38-.9,2.59-1.11.51-.12.91-.32,1.27-.7.52-.54.64-.82.94-1.5.42-.95,1.01-1.77,1.3-2.8.22-.79.35-1.61.56-2.41.09-1.39.7-2.96,0-3.71-.22-.9-.39-.81-.74-1.48Z"/><path class="cls-3" d="m250.14,22.95c-.04-.08-.86-.7-1.11-1.11,0-.01-2.92-.33-3.13-.31-1.08.11-2.96.94-3.78-.21-.36-.51-.1-1.22-.51-1.78-.34-.46-1.03-.53-1.32-1.04-.12-.2-.27-1.45-.14-1.48,1.97-.36,5.37-1.21,6.29-2.59.12,0,.37-.25.37-.37-.66-.39-1.11-.81-1.48-1.48-4.32.13-6.41,2.24-10.74,2.22v1.11c.62.12,1.23.25,1.85.37,1.11,1.85,2.22,3.7,3.33,5.56-.23.86-.24,1.22-1.08,1.56-.11.05-1.73.53-1.67.61-.26-.36-.16-.71-.22-1.15-.09-.66-.17-.8-.4-1.35-.06-.07-.13-.08-.22-.04-.18.53-.67.81-.87,1.36-.25.71-.38,1.24-.69,1.79-.06.11-.45,1.32-.4,1.29-.86.74-1.73,1.48-2.59,2.22-.32.28-1.43.05-1.52-.34-1.06.08.62-1.96.81-2.22.7-.97,1.03-1.66.74-2.82-.11-.46-.5-2.03-1.14-2.03h-1.11c-.53-1.61.5-1.45,1.09-2.74.1-.22.22-2.81.35-2.79.75.08.71-1.76.79-2.25-.72-.05-3.69-.4-4.07-.74-1.6.08-1.25.23-2.22.74.64,1.08,1.52,1.26,2.96,1.48-.03,2.53-.64,3.23-1.48,4.81h-1.11c-.73,0-1.05-2.03-1.4-2.49-.14-.19-1.53-1.58-1.69-1.55-.53.04-1.66.03-2.09.33.15,1.19.51,1.84,1.11,2.59.25.12.49.25.75.37.25.12.18,2.93.21,3.35.04.63-.19,2.41.5,2.61.7.21-.13,5.12-.37,5.11-.75-.02-.51,2.14-.71,2.63-.24.57-.7,1.01-.83,1.64-.21,1.05,1.26,3.31,1.8,4.15.3.47.45,1.27,1.17,1.25,1.43-.06,2.09-2.26,3.05-2.94.41-.29,1.04-.14,1.45-.41.52-.34,1.98-2.04,1.89-2.53,1.37-.11.83-3.18,2.34-2.28.35.21,1.35,2.61,1.34,2.61,1.69-.1,1.58-.52,2.59-1.11.23-.13-.22-4.11-.7-4.11.04-.79.12-1.83.66-2.33.47-.44,1.39-.28,1.57-.92.56.08,1.19.13,1.48.55.52.75.05,1.54,0,2.04-.21,1.88.39,3.5.42,5.33.02,1.42-.08,2.83-.08,4.25,0,1.75-.03,3.11-.43,4.79-.35,1.51-.11,3.4.43,4.84.27.72,1.65-.43,1.81-.72.3-.53.47-1.33.52-1.94.09-1.09-.1-2.19-.2-3.27-.09-1.05-.24-2.15-.12-3.2.09-.81.54-1.61.57-2.35.07-1.42-.32-3.62.37-4.44v-.37c.72.47,1.78,1.1,2.22,1.85,1.71,0,2.28-.27,3.33-.74.73-1.73,2.67-6.69,1.48-8.88Zm-24.8,1.18c.2-.42,1.76-1.34,2.15-1.09.04.03.09.06.13.09.12.09.4.84.45,1.03.34,1.34-1.24,3.07-2.36,3.57-.71-.63-.77-2.78-.38-3.6Zm2.09,9.05c-.47.4-1.14.49-2.1.14.04-1.93.13-1.45.74-2.6,1.06.02,1.58.13,2.22.37-.12.94-.38,1.68-.86,2.09Zm17.89-3.94c-.18.29-1.74-.18-2.03-.39-.84-.63-.64-1.6-.53-2.53.49-.16.48-3.07,1.08-3.01,1.31.14,3.27.75,3.33,2.33.05,1.32-1.21,2.54-1.85,3.6Z"/><path class="cls-3" d="m266.34,16.19c.12.03.3.01.39.11.03.03.56.34.79.38-.03.22.14.4.32.46.75.27,1.6.09,2.36.04.22-.01.92-.26,1.11-.36.39-.22.85-.25,1.27-.38.21-.06.4-.15.57-.29.21-.18,1.52-.55,1.82-.74.23-.14.52-.95.72-.97.26-.03,3.27-.46,3.3-.34.2.91,4.72.29,5.59-.03-.09-.88-.16-.92-.37-1.48h-3.7c.06,0,.31-1.59.38-1.85,0,0,0-.02,0-.02.11-.11.9.08,1.06.06.48-.06.58-.34.94-.42.67-.15,1.26.43,1.96.29.15-.03,1.53-.73,1.54-.7-.02-.17-.18-.99-.34-1.05-.89-.33-2.29-.4-3.69-.37-.07,0-.59-1.62-.72-1.83-.14-.23-.32-.42-.53-.59-.24-.19-.68-.29-.88-.5-.08-.09-1.08-.05-1.2-.04-1.59.09-1.25.23-2.22.74-.15.08,0,1.92,0,2.15,0,.51.2,1.41-.08,1.86-.18.28-.51.34-.65.67-.3.69-.85,1.2-1.15,1.87-.16.37-.16,1.16-.71,1.22-2.34.25-4.68.49-7.03.74.15-1.2.34-1.08.74-1.85.07-.13.64-.25.79-.3.3-.1.61-.19.91-.28.65-.18,1.3-.32,1.96-.45.66-.13,1.33-.26,2-.36.34-.05.55.03.64-.32.06-.22.06-.62-.07-.82-.15-.24-.45-.19-.66-.33-.16-.11-.23-.38-.38-.48-.35-.22-1.01-.04-1.39-.01-.48.03-.96.04-1.44.02-.55-.02-.39-.13-.63-.5-.31-.46-.95-.58-1.34-.95-.53-.49-1.35-.42-1.82.15-.44.52-.11,1.16-.22,1.77-.13.75-.58,1.44-.86,2.14-.17.43-.39,1.11-.66,1.48-.39.52-.93.74-1.29,1.32-.1.17-.76,2-.73,1.99.89-.06,1.67-.5,2.53-.72.33-.08.75-.19,1.09-.12Z"/><path class="cls-3" d="m288.27,33.69c-.04-1.25.02-1.35-.74-1.85,0-.12-.24-.37-.37-.37-.98,1.79-1.83,3.07-2.22,5.56-.02.16-2.55.41-2.79.42-1.2.07-2.02-.42-3.13-.8-.41-.14-.21-2.19-.28-2.62-.18-1.01-.43-2.03.12-2.98.14-.24.32-.48.57-.61.98-.51,1.97-1.11,2.84-1.87.39-.35.94-1.04,1.22-1.47.36-.54.47-1.14.85-1.71.49-.72,1.19-1.29,1.1-2.23-.04-.46-.19-.92-.36-1.35-.08-.2-.74-1.46-.88-1.45-.58.02-1.19-.01-1.75.11-.18.04-.47.04-.62.17-.04.03-.36.53-.24.5-.79.21-1.39.25-2.12.65-.35.2-.79.26-1.11.47-.55.34-.4.47-1.11.33-.3-.06-1.19-.32-1.19-.74v-.38c-.71-.43-1.84-.34-2.96-.37.34-1.34.66-.79.74-2.59-.98.12-1.97.25-2.96.37v.37c-.5.14-1.12.11-1.59-.09-.04-.02-.94-.62-.67-.64-.3.02-2.88.21-2.91.37-.28,1.19-.87,2.24-1.56,3.23-.32.46-.66.9-.98,1.35-.15.21-.35.43-.42.67-.08.28,0,.5-.23.75-.17.19-.4.26-.52.51-.12.23-.06.5-.28.67-.2.16-.39.16-.55.39-.09.13-.16.29-.23.43-.19.39-.36.78-.5,1.19-.17.5-.26,1.05-.34,1.57-.04.28-.15.51,0,.77.12.2.36.32.49.52.23.35.19.8.42,1.15.21.32.57.57.93.66.35.1.7.21,1.06.3.27.07,2.72.46,2.73.29-.03.65-.2,1.3-.59,1.83-.86,1.15-2.57,1.49-3.76,2.22-.42.26-1.21.57-1.21,1.13,0,.24,2.19-.17,2.32-.22.69-.26,2.19-.61,2.76.31.37.6-.08,1.32.07,1.97.23.97,1.18,2.77,2.44,2.19,1.31-.6.9-2.65,1.09-3.75.26-1.52.62-3.36,1.56-4.61.77-1.02,5.91-3.05,4.57-4.96-.41-.58-1.49-.17-2.03-.71-.64-.62-.33-1.4.14-2.03.46-.61,1.19-.74,1.86-1,.35-.14,1.21-.89,1.51-.9,1.4-.01,2.8.03,3.71.37.05.02.08,1.58.03,1.7-.06.14-.73,1.02-.9,1.15-.46.38-1.2.19-1.73.48-.12.07-.32.54-.74.74-.34.81-.67,1.62-.81,2.49-.12.75.21,1.47.22,2.22,0,.79-.23,1.53.1,2.29.46,1.06.66,2.2,1.58,2.98,1.03.87,2.48,1.46,3.82,1.57,1.45.12,2.87-.54,4.28-.81,1.08-.2,1.72-.96,2.66-1.5.3-1.48.73-3.76-.37-4.81Zm-24.43-8.89h.38c.33.16-.71.73-.74.74.12-.24.24-.49.37-.74Zm2.52,5.52c-.08.15-.23.26-.49.35-.34.11-1.07,0-1.38-.2-.46-.29-.5-.66-.63-1.19.25.02.39-.14.44-.36.19.01,2.12.26,2.12.33,0,.45.07.81-.07,1.07Zm2.3,2.63h-1.12c.28-1.01.09-.84,1.12-1.11v1.11Z"/><path class="cls-3" d="m320.1,36.34c-.07-.5-.91-2.89-1.47-3.02-1.03-.24-1.77-.84-2.59-1.11-1.25-.42-3-.29-4.32-.41-1.26-.12-2.78,0-3.81-.7.65-.9.47-2.27.96-3.25.29-.58.23-.37.83-.52.36-.09.74-.24.85-.64.63.1,1-.59,1.47-.87.63-.38,1.26-.72,1.99-.9.58-.14,1.13-.17,1.61-.58.5-.42.6-.57,1.24-.78.3-.1.51-.35.7-.47.79-.48,1.26-.79,1.52-1.7.04-.15.43-1.76.31-1.76-.41,0-6.3.13-6.33.03-.55-.15-1.27-.03-1.82-.03,0,0,0-.24-.73-.37-.6-.11-.22-3.06-.2-3.46.04-.85.08-1.7.05-2.55-.03-.83-.21-1.16-.56-1.84-.07-.13.01-.37-.07-.5-.2-.35-.53-.89-.8-1.2-.02-.03-.05-.05-.07-.07-.34-.29-1.11-.4-1.54-.52-1.19-.33-2.59-.55-3.49.51-.56.67-.78,1.92-.51,2.76.18.57.31,1.16.49,1.72.18.56.61.97.81,1.51.16.42.17.92.21,1.37.07.72-.05,2.07.48,2.65.03,3.35-.51,1.85-2.59,2.59-.57.2-1.81.42-2.27.77-.29.22-.35,1.82-.32,1.82.24,0,.99.74,1.11.74.4.44.98.54,1.38.95,0,0,.8,1.19.81.93-.04.67-.26,1.56-.59,2.14-.24.43-.55.45-.83.81-.15.19.02.54-.13.77-.18.28-.53.28-.72.62-.4.68-.16.95-.76,1.52-.6.58-1.44,1.03-2.12,1.52v1.85c1.17-.07,1.93-.55,2.97-.95.9-.34,1.93-.24,2.66-.96.48-.49.72-.84,1.4-1.04,0-.12,1.4-.04,1.52-.02.64.09.78.49,1.34.73.56.24,1.21.12,1.78.36.54.23.95.69,1.44,1.01.29.2.53.13.81.41.27.27.34.66.64.91.32.26.74.26,1.09.46.44.25,1.02.82,1.04.92.25.09,3.6.59,3.63.37.08-.58.89-.61,1.21-1.01.36-.44.37-.96.3-1.49Z"/><path class="cls-3" d="m365.65,15.18h-2.23v.37h-2.59c0-.12-.74,0-.74,0-.49-.12-.99-.25-1.48-.37-.2-.05.39-1.45.72-1.52.05-1.27.27-2.51.62-3.74.08-.27.56-2.5.88-2.51.12-.49.62-1.48.73-1.48.51-1.34-.19-1.98.74-2.96-.09-.87-.17-.91-.37-1.48-1.11-.2-3.58-.88-5.18-.37v.37c-1.73.49-3.46.99-5.18,1.48-.17-.91-.36-1.35-.37-2.59-.13,0-.37-.25-.37-.37-1.41-.01-2.8.03-3.7.37.24,1.48.49,2.96.73,4.44-.14.03-1.83.28-1.84.35.08-.54-.48-.33-.76-.56-.13-.11-.39-.9-.37-.9-1.85-.16-1.8-.34-3.7,0,.04,1.22.09,1.67.74,2.22.03,1.15.18,2.74-.38,3.33-.72.77-.75-1.22-1.29-1.61-.41-.29-.44-.37-.69-.79-.1-.17-.08-.39-.25-.53-.19-.16-.4-.14-.59-.33-.21-.21-.34-.56-.5-.81-.12,0-.74-.24-.74-.37-1.46.04-2.99.3-3.7,1.11-.13,0-.62,1.11-.75,1.11.84,1.04,1.82,2.02,2.2,3.33.08.27.11.66.27.9.2.3.53.35.69.7.16.36.06.87.06,1.25,0,.41-.03.81,0,1.22.04.48.48,1.1.49,1.48.04,1.93.14,1.44.74,2.59h2.6c0-.12.24-.37.37-.37.83-1.3-.82-3,.74-4.45.31-.41-.05-.05.36-.37.7,1.92.42,3.57,1.86,4.81-.13.37-.25.74-.37,1.11-1.42.25-3.21.74-4.44,1.11h-2.22c-.4.07-1.04.74-1.85.37-.25-.37-.5-.74-.74-1.11-.25,0-.75-.25-.75-.37-1.23.13-2.46.25-3.69.37.03,1.17.02,1.76.37,2.59.05.12.08.23.11.36.11.59.15,1.2.2,1.8.03.34.06.68.06,1.02,0,.38.13.65.23,1,.07.25.04.52.12.77.08.23.24.43.33.65.14.35.26.45.51.7.48.48,1.06.36,1.69.35.17,0,.37.04.47-.09.09-.12.06-.33.09-.47.03-.22.1-.44.15-.66.13-.51.29-1.01.43-1.52.14-.47.27-.95.41-1.42.04-.15.3-1.38.4-1.39,5.43-.86,10.86-1.73,16.29-2.59,0-.12.98-.62,1.48-.74,0-.12,2.1-.35,2.96-1.11.5,0,1.48.25,1.48.37.12,0,.37.74.37,1.11,2.04-.02,2.94-.19,4.45-.74,0-.12,1.48-.37,2.22-.37,0-.12.49-.37.74-.37.12-.25,1.11-.99,1.48-1.11v-1.48c-.12,0-.62-.74-.74-1.11Zm-18.14,2.96h-1.85c-.1-2.79-.34-6.06,0-9.63h1.11c.32.42-.04.06.38.37-.13.74-.25,1.48-.38,2.22h-.37c-.82,2.29.54,4.81,1.48,5.55-.08.88-.15.92-.37,1.48Zm2.96-5.92c-.37.12-.74.25-1.11.37.02,0-1.01-1.34-.37-1.52.05-.19.59-1.92.75-1.81,1.12.76.16.68.74,1.48h.37c-.09.87-.16.92-.37,1.48Zm1.85,4.81c.12-.99.24-1.97.37-2.96.74-.23.32.05.74-.38,1.06.02,1.58.13,2.22.38-.05,2.21-1.26,2.85-3.33,2.96Zm4.44-6.7c-.1.03-.25.07-.35.05.1.64-1.89.68-1.87.72-.11-.34-.26-.69-.32-1.04.26-.08.82-1.16.7-1.19.61.13,1.23.25,1.85.37.03,0,0,.95,0,1.08Zm.37-4.41c-1.37.21-.84.22-2.21,0-.13-.37-.25-.74-.38-1.11.24-.12.49-.25.75-.37.18-.18.31-.37.61-.35.09,0,1.23.89,1.23.74,0,.09.02,1.08,0,1.09Z"/><path class="cls-3" d="m358.98,30.73c-.12-.24-.25-.49-.37-.74-1.33-.78-3.2.57-5.18,0,0-.12-.74-.38-1.11-.38,0-.12-.25-.36-.38-.36.37-2.63,3.05-2.08,3.7-4.45.58-.58.76-2.1.74-3.33-2.1.13-4.2.25-6.3.38-.12.24-.86.74-1.11.74,0,.12-.5.37-.74.37,0,.13-1.23.37-1.85.37-.12.24-1.11.74-1.48.74-.12.25-1.85.99-2.59,1.11-.99.49-1.98.99-2.96,1.48.23.9.39.82.74,1.48h2.96c1.85-1.11,3.7-2.22,5.55-3.33.62.13,1.24.25,1.85.37v1.12c-1.35.74-2.72,1.48-4.07,2.22,0,1.34-.06,1.7.75,2.22-.12.39-.27,1.09-.73,1.17-.29.05-.59.08-.88.12-.27.04-.55.08-.82.15-.32.08-.57.28-.88.37-.27.08-.47.12-.72.24-.31.15-.65.1-.95.24-.36.17-.54.4-.96.46-.29.04-.57.05-.86.09-.6.09-1.2.19-1.81.28-1.2.19-2.4.38-3.6.57.04.97.15,1.26.37,1.85,2.74,1.13,10.46,1.31,12.22-.74,1.05.02,1.59.13,2.22.37-.07.71-.22,1.42-.43,2.1-.14.44-.17.93-.22,1.39-.07.59.04,1.28-.12,1.84-.1.33-.42.56-.48.9-.03.15-.03.76-.23.8-1.69.38-2.67,1.7-4.44,1.86,0-.13-.74-.25-.74-.37-.62-.12-1.24-.25-1.85-.37.2,1.59.85,1.54,1.48,2.59.99.21,1.97.47,2.97.6.58.08,1.16.12,1.74.14.28,0,.59.07.86-.05.23-.1.37-.32.61-.41.2-.08.42-.05.62-.15.36-.18.57-.54.84-.82.29-.3.7-.51.9-.89.2-.37.24-.81.41-1.2.19-.45.44-.86.59-1.33.08-.25.07-.51.08-.77.01-.23.04-.29.1-.49.12-.43.18-.89.23-1.34.02-.21-.01-.47.05-.67.04-.13.17-.27.22-.42.37-1.06.03-2.17.21-3.26.15-.89.38-1.79.68-2.64.74-.12,1.49-.25,2.22-.37,0-.12,1.23-.37,1.85-.37.13-.25.25-.49.37-.74.25,0,.74-.24.74-.37.12,0,.12-.37,0-.37Z"/><path class="cls-5" d="m63.21,31.6c.06,17.45-14.03,31.66-31.49,31.72C14.27,63.39.06,49.29,0,31.84-.06,14.38,14.04.18,31.49.11c17.46-.06,31.66,14.03,31.72,31.49Z"/><path class="cls-4" d="m21.21,8.54l.24.2c1.9,1.54,2.54,2.31,3.37,5.33l1.5,4.57c.01.07.03.13.06.19,0,.01,0,.03.01.04.22.57.77.98,1.41,1.01.02,0,.04,0,.05,0h3.75s3.75,0,3.75,0c.01,0,.04,0,.05,0,.64-.03,1.19-.43,1.41-1.01,0-.01.01-.03.01-.04.02-.06.04-.12.06-.19l1.5-4.57c.83-3.02,1.48-3.79,3.37-5.33l.24-.2c.42-.28.7-.77.7-1.31s-.3-1.06-.74-1.34c-.06-.04-.12-.08-.19-.1h0s-.02,0-.02,0c-.05-.02-.11-.04-.17-.06-2.5-.95-5.03-1.53-7.55-1.74-.37-.81-1.32-1.39-2.43-1.39s-2.06.58-2.43,1.39c-2.51.22-5.04.79-7.54,1.74-.06.02-.11.04-.17.06,0,0-.02,0-.02,0h0c-.07.03-.13.06-.19.1-.45.28-.74.77-.74,1.34,0,.55.28,1.03.7,1.31Zm1.64-1.34c2.77-.97,5.58-1.47,8.53-1.51h.23s0,0,0,0h0s0,0,0,0h0s0,0,0,0h.22c2.95.03,5.76.54,8.53,1.51,0,0,.15.05.15.18,0,.08-.05.14-.11.17h0c-2.83,1.77-3.74,6.04-3.74,6.04l-1.27,4.15v.02c-.09.25-.32.44-.6.44h0s-3.17,0-3.17,0h0s0,0,0,0h-3.17s0,0,0,0c-.28,0-.52-.18-.6-.44v-.02s-1.28-4.15-1.28-4.15c0,0-.91-4.27-3.74-6.04h0c-.07-.03-.11-.1-.11-.17,0-.14.15-.18.15-.18Z"/><path class="cls-4" d="m4.06,27.78c.02.52.3,1.03.79,1.31.47.27,1.03.27,1.49.05l.29-.11c2.28-.87,3.27-1.05,6.3-.26l4.71.98c.06.02.13.04.19.05.01,0,.03,0,.04,0,.61.09,1.23-.17,1.58-.72.01-.01.03-.03.03-.04l1.87-3.25,1.88-3.25s.01-.03.02-.05c.3-.57.22-1.25-.17-1.72,0-.01-.02-.02-.03-.03-.04-.05-.09-.1-.14-.14l-3.21-3.59c-2.2-2.23-2.54-3.17-2.93-5.58l-.05-.3c-.03-.51-.31-.99-.79-1.26-.49-.28-1.06-.27-1.53-.03-.06.03-.13.07-.18.11h0s-.01.01-.02.01c-.05.04-.09.07-.14.12-2.08,1.69-3.84,3.59-5.28,5.67-.89-.09-1.87.44-2.42,1.41-.56.97-.53,2.08,0,2.8-1.07,2.29-1.84,4.76-2.26,7.4-.01.06-.02.12-.03.18,0,0,0,.02,0,.02h0c-.01.07-.01.14,0,.21Zm1.93-.73c.55-2.88,1.51-5.57,2.96-8.14l.11-.19h0s0,0,0,0h0s0,0,0,0h0s.11-.19.11-.19c1.5-2.54,3.35-4.72,5.57-6.63,0,0,.11-.1.23-.04.07.04.1.11.09.18h0c.12,3.33,3.36,6.26,3.36,6.26l2.96,3.18v.02c.19.2.23.49.09.73h0s-1.59,2.75-1.59,2.75h0s0,0,0,0l-1.59,2.75h0c-.14.24-.42.35-.68.3h-.02s-4.23-.98-4.23-.98c0,0-4.15-1.34-7.1.22h0c-.06.04-.14.05-.2.01-.12-.07-.09-.22-.09-.22Z"/><path class="cls-4" d="m23.06,42.69s.02-.02.03-.03c.38-.48.47-1.15.17-1.72,0-.02-.01-.04-.02-.05l-1.88-3.25-1.87-3.25s-.02-.03-.03-.04c-.34-.54-.97-.81-1.58-.72-.01,0-.03,0-.04,0-.06.01-.13.03-.19.05l-4.71.99c-3.03.79-4.02.62-6.3-.26l-.29-.11c-.46-.23-1.01-.22-1.49.05-.49.28-.77.79-.79,1.31,0,.07,0,.14,0,.21h0s0,.02,0,.02c0,.06.02.12.03.18.42,2.64,1.19,5.12,2.26,7.41-.52.73-.55,1.84.01,2.8.56.97,1.53,1.5,2.42,1.41,1.45,2.07,3.21,3.97,5.28,5.66.04.04.09.08.14.12,0,0,.01.01.02.02h0c.06.04.12.08.18.11.46.25,1.04.26,1.53-.03.47-.27.75-.75.79-1.26l.05-.3c.39-2.41.73-3.35,2.93-5.59l3.21-3.59s.09-.09.14-.14Zm-1.64-.73v.02s-2.97,3.18-2.97,3.18c0,0-3.24,2.93-3.36,6.26h0c0,.07-.03.14-.09.18-.12.07-.23-.04-.23-.04-2.22-1.92-4.07-4.09-5.57-6.63l-.11-.19h0s0,0,0,0h0s-.11-.2-.11-.2c-1.45-2.57-2.41-5.26-2.96-8.14,0,0-.03-.15.09-.22.07-.04.14-.03.2.01h0c2.95,1.56,7.1.22,7.1.22l4.23-.97h.02c.26-.06.54.05.68.3h0s1.59,2.75,1.59,2.75h0s1.59,2.75,1.59,2.75h0c.14.24.1.54-.08.74Z"/><path class="cls-4" d="m42,54.89l-.24-.2c-1.9-1.54-2.54-2.31-3.37-5.33l-1.5-4.57c-.01-.07-.03-.13-.06-.19,0-.01,0-.03-.01-.04-.22-.57-.77-.98-1.41-1.01-.02,0-.04,0-.05,0h-3.75s-3.75,0-3.75,0c-.01,0-.04,0-.05,0-.64.03-1.19.43-1.41,1.01,0,.01,0,.03-.01.04-.02.06-.04.12-.06.19l-1.5,4.57c-.83,3.02-1.48,3.79-3.37,5.33l-.24.2c-.42.28-.7.76-.7,1.31,0,.57.3,1.06.74,1.34.06.04.12.08.19.1h0s.02,0,.02,0c.05.02.11.05.17.06,2.5.95,5.03,1.53,7.55,1.74.37.81,1.32,1.39,2.43,1.39,1.12,0,2.06-.58,2.43-1.39,2.51-.22,5.04-.79,7.54-1.74.06-.02.11-.04.17-.06,0,0,.01,0,.02,0h0c.07-.03.13-.06.19-.1.44-.28.74-.77.74-1.34s-.28-1.03-.7-1.31Zm-1.64,1.34c-2.77.97-5.58,1.47-8.53,1.51h-.22s0,0,0,0h0s0,0,0,0h0s0,0,0,0h-.22c-2.95-.03-5.76-.54-8.53-1.51,0,0-.15-.05-.15-.18,0-.08.05-.14.11-.17h0c2.83-1.77,3.74-6.04,3.74-6.04l1.27-4.15v-.02c.09-.25.32-.44.6-.44h0s3.17,0,3.17,0h0s0,0,0,0h3.17s0,0,0,0c.28,0,.52.18.6.44v.02s1.28,4.15,1.28,4.15c0,0,.91,4.27,3.74,6.04h0c.07.03.11.1.11.17,0,.14-.15.18-.15.18Z"/><path class="cls-4" d="m59.15,35.66c-.02-.52-.3-1.03-.79-1.31-.47-.27-1.03-.27-1.49-.05l-.29.11c-2.28.87-3.27,1.05-6.3.26l-4.71-.98c-.06-.02-.13-.04-.19-.05-.01,0-.03,0-.04,0-.61-.09-1.23.17-1.58.72-.01.01-.03.03-.03.04l-1.87,3.25-1.88,3.25s-.01.03-.02.05c-.3.57-.22,1.24.17,1.72,0,.01.02.02.03.03.04.05.09.1.14.14l3.21,3.59c2.2,2.23,2.54,3.17,2.93,5.59l.05.3c.03.51.31.99.79,1.26.49.28,1.06.27,1.53.03.06-.03.13-.07.18-.11h0s.01,0,.02-.01c.05-.04.09-.07.14-.11,2.08-1.69,3.84-3.59,5.28-5.67.89.09,1.87-.44,2.42-1.41.56-.97.53-2.08,0-2.8,1.07-2.28,1.84-4.76,2.26-7.4.01-.06.02-.12.03-.18,0,0,0-.02,0-.02h0c.01-.07.01-.14,0-.21Zm-1.94.73c-.55,2.88-1.51,5.57-2.96,8.14l-.11.19h0,0s0,0,0,0h0l-.11.19c-1.5,2.54-3.35,4.72-5.57,6.63,0,0-.11.1-.23.03-.07-.04-.1-.11-.09-.18h0c-.12-3.33-3.36-6.26-3.36-6.26l-2.96-3.18-.02-.02c-.18-.2-.22-.49-.08-.73h0s1.59-2.75,1.59-2.75h0s0,0,0,0l1.58-2.75h0c.14-.24.42-.35.68-.3h.02s4.23.98,4.23.98c0,0,4.15,1.34,7.1-.22h0c.06-.04.14-.05.2-.01.12.07.08.22.08.22Z"/><path class="cls-4" d="m40.16,20.75s-.02.02-.03.03c-.38.48-.47,1.15-.17,1.72,0,.02.01.04.02.05l1.88,3.25,1.88,3.25s.02.03.03.04c.34.54.97.81,1.58.72.01,0,.03,0,.04,0,.06-.01.13-.03.19-.05l4.71-.99c3.03-.79,4.02-.61,6.3.26l.29.11c.46.22,1.01.22,1.49-.05.49-.28.77-.78.79-1.31,0-.07,0-.14,0-.21h0s0-.02,0-.02c0-.06-.02-.12-.03-.18-.42-2.64-1.19-5.12-2.26-7.41.52-.73.55-1.84,0-2.8-.56-.97-1.54-1.5-2.42-1.41-1.44-2.07-3.21-3.97-5.28-5.66-.04-.04-.09-.08-.14-.11,0,0-.01-.01-.02-.02h0c-.06-.04-.12-.08-.18-.11-.46-.25-1.04-.26-1.53.03-.47.27-.75.76-.79,1.26l-.05.3c-.39,2.41-.73,3.35-2.93,5.58l-3.21,3.59s-.09.09-.14.14Zm1.64.73v-.02s2.98-3.18,2.98-3.18c0,0,3.24-2.93,3.36-6.26h0c0-.07.03-.14.09-.18.12-.07.23.04.23.04,2.22,1.92,4.07,4.09,5.57,6.63l.11.2h0s0,0,0,0h0s0,0,0,0h0s0,0,0,0l.11.19c1.45,2.57,2.41,5.26,2.96,8.14,0,0,.03.15-.09.22-.07.04-.15.03-.2-.01h0c-2.95-1.56-7.1-.22-7.1-.22l-4.23.97h-.02c-.26.06-.54-.05-.68-.29h0s-1.59-2.75-1.59-2.75h0s0,0,0,0l-1.59-2.75h0c-.14-.24-.1-.54.08-.74Z"/><rect class="cls-2" x="28.88" y="29.47" width=".96" height="1.02"/><rect class="cls-2" x="28.88" y="26.59" width=".96" height=".82"/><path class="cls-4" d="m40.88,32.59h-3.87v1.34h2.6l-.08.25c-1.11,3.47-4.29,5.79-7.92,5.79s-6.82-2.33-7.92-5.79l-.08-.25h2.6v-1.34h-3.88c-.26,0-.47.21-.47.47,0,0,0,.02,0,.03.33,2.2,1.38,4.22,3.03,5.76,1.83,1.71,4.21,2.64,6.72,2.64s4.89-.94,6.71-2.64c1.64-1.53,2.7-3.55,3.03-5.74,0-.02,0-.03,0-.04,0-.26-.21-.47-.47-.47Z"/><path class="cls-4" d="m41.35,30.21s0-.03,0-.04c-.33-2.2-1.39-4.21-3.03-5.74-1.53-1.43-3.46-2.32-5.51-2.57v1.54c3.12.45,5.74,2.63,6.72,5.7l.08.25h-2.6v1.34h3.87c.26,0,.47-.21.47-.47Z"/><path class="cls-4" d="m22.33,30.68h3.88v-1.34h-2.6l.08-.25c.98-3.07,3.6-5.25,6.71-5.7v-1.54c-2.05.25-3.97,1.14-5.5,2.57-1.64,1.53-2.7,3.56-3.03,5.76,0,.01,0,.02,0,.03,0,.26.21.47.47.47Z"/><path class="cls-4" d="m28.17,37.06v.92c2.06-.53,3.05-1.66,3.53-2.63.47.97,1.46,2.08,3.49,2.62v-.92c-2.36-.71-2.89-2.31-3.01-3.03h2.84v-.91h-2.86v-1.26h-.89v1.26h-3.01v.91h2.97c-.12.72-.66,2.33-3.05,3.04Z"/><path class="cls-4" d="m32.72,26.24h-1.32c-.1,0-.18.08-.18.17v3.98s.77,0,.77,0v-3.55h.74v4.37h.82v-4.37h.77s0,3.55,0,3.55h.74v-3.98c0-.1-.08-.18-.18-.18h-1.33s0-.62,0-.62h1.65v-.62h-4.23v.62h1.74v.62Z"/><path class="cls-4" d="m29.22,25.93c.36-.33.46-.91.46-.91h-.79s-.06.59-.31.92h-.26c-.1,0-.18.08-.18.18v4.8c0,.1.08.18.18.18h2.07c.1,0,.18-.08.18-.18v-1.98c0-.1-.08-.18-.18-.18h-1.51v-.64h1.51c.1,0,.18-.08.18-.18v-1.83c0-.1-.08-.18-.18-.18h-1.17Zm.62,3.54v1.02h-.96v-1.02h.96Zm0-2.06h-.96v-.82h.96v.82Z"/><path class="cls-1" d="m79.84,60.08h.03v-8.2h2.21v11.97h-2.75l-2.95-8.38h-.03v8.38h-2.21v-11.97h2.78l2.92,8.2Z"/><path class="cls-1" d="m89.91,51.88l3.17,11.97h-2.51l-.55-2.53h-3.18l-.55,2.53h-2.51l3.17-11.97h2.98Zm-.32,7.46l-1.16-5.38h-.03l-1.16,5.38h2.35Z"/><path class="cls-1" d="m100.84,53.86h-2.61v9.99h-2.41v-9.99h-2.61v-1.98h7.64v1.98Z"/><path class="cls-1" d="m102.83,51.88h2.41v11.97h-2.41v-11.97Z"/><path class="cls-1" d="m107.75,55.36c.08-.76.27-1.42.55-1.97.28-.55.7-.97,1.23-1.28s1.26-.46,2.16-.46,1.63.15,2.16.46c.54.31.95.73,1.23,1.28.28.55.47,1.2.55,1.97.08.77.13,1.6.13,2.51s-.04,1.75-.13,2.51c-.08.76-.27,1.41-.55,1.96-.28.55-.7.97-1.23,1.26-.54.29-1.26.44-2.16.44s-1.63-.15-2.16-.44c-.54-.29-.95-.71-1.23-1.26-.28-.55-.47-1.2-.55-1.96-.08-.76-.13-1.6-.13-2.51s.04-1.74.13-2.51Zm2.35,4.56c.04.56.12,1.02.23,1.37s.28.61.5.77c.22.16.51.24.86.24s.64-.08.86-.24c.22-.16.39-.42.5-.77s.2-.81.23-1.37c.04-.56.06-1.25.06-2.05s-.02-1.49-.06-2.04c-.04-.56-.12-1.02-.23-1.37s-.28-.62-.5-.78c-.22-.16-.51-.24-.86-.24s-.65.08-.86.24c-.22.16-.39.42-.5.78s-.2.82-.23,1.37c-.04.56-.06,1.24-.06,2.04s.02,1.49.06,2.05Z"/><path class="cls-1" d="m123.73,60.08h.03v-8.2h2.21v11.97h-2.75l-2.95-8.38h-.03v8.38h-2.21v-11.97h2.78l2.92,8.2Z"/><path class="cls-1" d="m133.8,51.88l3.17,11.97h-2.51l-.55-2.53h-3.18l-.55,2.53h-2.51l3.17-11.97h2.98Zm-.32,7.46l-1.16-5.38h-.03l-1.16,5.38h2.35Z"/><path class="cls-1" d="m138.64,51.88h2.41v9.99h4.27v1.98h-6.69v-11.97Z"/><path class="cls-1" d="m158.48,53.86h-2.61v9.99h-2.41v-9.99h-2.61v-1.98h7.64v1.98Z"/><path class="cls-1" d="m164.75,51.88l3.17,11.97h-2.51l-.55-2.53h-3.18l-.55,2.53h-2.51l3.17-11.97h2.98Zm-.32,7.46l-1.16-5.38h-.03l-1.16,5.38h2.35Z"/><path class="cls-1" d="m169.71,51.88h2.41v11.97h-2.41v-11.97Z"/><path class="cls-1" d="m176.37,51.88l1.32,8.85h.03l1.41-8.85h2.31l1.41,8.85h.03l1.32-8.85h2.31l-2.18,11.97h-2.7l-1.34-8.68h-.03l-1.34,8.68h-2.7l-2.18-11.97h2.31Z"/><path class="cls-1" d="m193.34,51.88l3.17,11.97h-2.51l-.55-2.53h-3.18l-.55,2.53h-2.51l3.17-11.97h2.98Zm-.32,7.46l-1.16-5.38h-.03l-1.16,5.38h2.35Z"/><path class="cls-1" d="m203.88,60.08h.03v-8.2h2.21v11.97h-2.75l-2.95-8.38h-.03v8.38h-2.21v-11.97h2.78l2.92,8.2Z"/><path class="cls-1" d="m219.2,60.08h.03v-8.2h2.21v11.97h-2.75l-2.95-8.38h-.03v8.38h-2.21v-11.97h2.78l2.92,8.2Z"/><path class="cls-1" d="m223.83,55.36c.08-.76.27-1.42.55-1.97.28-.55.7-.97,1.23-1.28s1.26-.46,2.16-.46,1.63.15,2.16.46.95.73,1.23,1.28c.28.55.47,1.2.55,1.97.08.77.13,1.6.13,2.51s-.04,1.75-.13,2.51c-.08.76-.27,1.41-.55,1.96-.29.55-.7.97-1.23,1.26-.54.29-1.26.44-2.16.44s-1.63-.15-2.16-.44c-.54-.29-.95-.71-1.23-1.26-.28-.55-.47-1.2-.55-1.96-.08-.76-.13-1.6-.13-2.51s.04-1.74.13-2.51Zm2.35,4.56c.04.56.12,1.02.23,1.37s.28.61.5.77c.22.16.51.24.86.24s.64-.08.86-.24c.22-.16.39-.42.5-.77.12-.35.2-.81.23-1.37.04-.56.06-1.25.06-2.05s-.02-1.49-.06-2.04c-.04-.56-.12-1.02-.23-1.37-.12-.36-.28-.62-.5-.78-.22-.16-.51-.24-.86-.24s-.65.08-.86.24c-.22.16-.39.42-.5.78s-.2.82-.23,1.37c-.04.56-.06,1.24-.06,2.04s.02,1.49.06,2.05Z"/><path class="cls-1" d="m238.57,51.88c1.01,0,1.79.25,2.35.76s.84,1.28.84,2.32c0,.8-.16,1.46-.49,1.97-.32.51-.83.84-1.51.98v.03c.6.09,1.05.28,1.32.59.28.3.45.79.52,1.46.02.22.04.47.05.73.01.26.02.56.03.88.02.64.06,1.12.1,1.46.07.34.21.56.44.69v.1h-2.61c-.12-.17-.2-.36-.23-.58-.03-.22-.06-.44-.07-.68l-.07-2.3c-.02-.47-.14-.84-.35-1.11s-.57-.4-1.07-.4h-1.29v5.06h-2.41v-11.97h4.46Zm-1.04,5.23c.58,0,1.03-.14,1.34-.41.31-.27.47-.73.47-1.38,0-1.11-.56-1.66-1.68-1.66h-1.14v3.45h1.01Z"/><path class="cls-1" d="m247.91,51.88l1.71,8.45h.03l1.73-8.45h3.57v11.97h-2.21v-9.55h-.03l-2.13,9.55h-1.88l-2.13-9.55h-.03v9.55h-2.21v-11.97h3.59Z"/><path class="cls-1" d="m262.82,51.88l3.17,11.97h-2.51l-.55-2.53h-3.18l-.55,2.53h-2.51l3.17-11.97h2.98Zm-.32,7.46l-1.16-5.38h-.03l-1.16,5.38h2.35Z"/><path class="cls-1" d="m267.67,51.88h2.41v9.99h4.27v1.98h-6.69v-11.97Z"/><path class="cls-1" d="m283.39,60.23c0,.3.02.58.06.83.04.25.11.47.22.65.11.18.25.33.44.44s.42.16.7.16.52-.05.7-.16c.18-.11.32-.25.43-.44.11-.18.18-.4.22-.65.04-.25.06-.53.06-.83v-8.35h2.41v8.35c0,.76-.11,1.39-.32,1.89-.21.5-.5.89-.86,1.18-.36.29-.77.49-1.22.59-.46.1-.93.15-1.42.15s-.97-.04-1.42-.13c-.46-.09-.87-.27-1.22-.54-.36-.27-.64-.66-.85-1.16-.21-.5-.32-1.16-.32-1.96v-8.35h2.41v8.35Z"/><path class="cls-1" d="m296.68,60.08h.03v-8.2h2.21v11.97h-2.75l-2.95-8.38h-.03v8.38h-2.21v-11.97h2.78l2.92,8.2Z"/><path class="cls-1" d="m301.55,51.88h2.41v11.97h-2.41v-11.97Z"/><path class="cls-1" d="m310.08,60.73h.05l1.78-8.85h2.5l-2.75,11.97h-3.1l-2.75-11.97h2.58l1.69,8.85Z"/><path class="cls-1" d="m322.82,53.86h-4.27v2.82h4.02v1.98h-4.02v3.22h4.44v1.98h-6.85v-11.97h6.69v1.98Z"/><path class="cls-1" d="m329.49,51.88c1.01,0,1.79.25,2.35.76s.84,1.28.84,2.32c0,.8-.16,1.46-.49,1.97-.32.51-.83.84-1.51.98v.03c.6.09,1.05.28,1.32.59.28.3.45.79.52,1.46.02.22.04.47.05.73.01.26.02.56.03.88.02.64.06,1.12.1,1.46.07.34.21.56.44.69v.1h-2.61c-.12-.17-.2-.36-.23-.58-.03-.22-.06-.44-.07-.68l-.07-2.3c-.02-.47-.14-.84-.35-1.11s-.57-.4-1.07-.4h-1.29v5.06h-2.41v-11.97h4.46Zm-1.04,5.23c.58,0,1.03-.14,1.34-.41.31-.27.47-.73.47-1.38,0-1.11-.56-1.66-1.68-1.66h-1.14v3.45h1.01Z"/><path class="cls-1" d="m337.13,60.46c0,.28.02.53.07.76s.13.42.25.58c.12.16.29.28.49.37.21.09.47.13.78.13.37,0,.7-.12,1-.36.3-.24.44-.61.44-1.11,0-.27-.04-.5-.11-.7-.07-.2-.19-.37-.36-.53s-.39-.3-.66-.43c-.27-.13-.61-.26-1.01-.39-.54-.18-1-.37-1.39-.59-.39-.21-.72-.46-.98-.75-.26-.29-.46-.61-.58-.99-.12-.37-.18-.81-.18-1.3,0-1.18.33-2.07.99-2.65.66-.58,1.56-.87,2.72-.87.54,0,1.03.06,1.48.18.45.12.84.31,1.17.57.33.26.59.6.77,1.01.18.41.28.9.28,1.47v.34h-2.31c0-.57-.1-1.01-.3-1.32-.2-.31-.54-.46-1.01-.46-.27,0-.49.04-.67.12-.18.08-.32.18-.43.31-.11.13-.18.28-.22.44-.04.17-.06.34-.06.52,0,.37.08.68.23.93.16.25.49.48,1.01.7l1.86.8c.46.2.83.41,1.12.63.29.22.52.45.69.7.17.25.29.53.36.83.07.3.1.64.1,1.01,0,1.26-.37,2.18-1.1,2.76-.73.58-1.75.86-3.06.86s-2.34-.3-2.92-.89c-.59-.59-.88-1.44-.88-2.55v-.49h2.41v.35Z"/><path class="cls-1" d="m344.84,51.88h2.41v11.97h-2.41v-11.97Z"/><path class="cls-1" d="m356.89,53.86h-2.61v9.99h-2.41v-9.99h-2.61v-1.98h7.64v1.98Z"/><path class="cls-1" d="m362.27,56.51h.03l1.68-4.63h2.61l-3.1,7.26v4.71h-2.41v-4.71l-3.1-7.26h2.72l1.57,4.63Z"/></g></svg>