<?xml version="1.0" encoding="UTF-8"?>
<svg id="_圖層_2" data-name="圖層_2" xmlns="http://www.w3.org/2000/svg" xmlns:xlink="http://www.w3.org/1999/xlink" viewBox="0 0 162.7 117.33">
  <defs>
    <style>
      .cls-1 {
        fill: url(#_藍色);
      }

      .cls-2 {
        fill: #fff799;
      }
    </style>
    <linearGradient id="_藍色" data-name="藍色" x1="0" y1="58.67" x2="162.7" y2="58.67" gradientUnits="userSpaceOnUse">
      <stop offset="0" stop-color="#3fbff0"/>
      <stop offset=".5" stop-color="#00a1e9"/>
      <stop offset="1" stop-color="#008dd7"/>
    </linearGradient>
  </defs>
  <g id="_圖層_1-2" data-name="圖層_1">
    <path class="cls-1" d="M155.68,4.23c-4.63-3.02-11.77-4.84-22.06-4.04-32.5,2.52-32.22,18.77-35.58,39.5-3.07,18.98-6.94-33.99-58.41-23.76-1.06.21-2.07.53-3.05.91-5.62-.86-12.55,3.64-16.59,11.28-2.97,5.61-3.67,11.55-2.31,15.96-4.82,2.05-8.84,8.16-9.84,15.82-.5,3.83-.16,7.47.8,10.57C3.12,72.44-.6,80.17.08,89.1c.67,8.86,5.45,15.9,11.15,17.09,3.04,6.66,8.5,10.81,15.38,11.11,12.89.56,24.65-6.44,23.53-14.01-1.12-7.57,4.3-12.6,15.5-10.36,11.26,2.25,14.47,7.84,24.84,17.36,10.65,9.79,30.26,7.57,37.82-7.84,1.56-3.17.57-14.6,1.93-27.99.09-.89.19-1.79.3-2.69.39-3.08.92-6.23,1.63-9.39.19-.84.38-1.69.6-2.54,1.07-4.14,2.49-8.25,4.41-12.17,4.04-8.26,10.2-15.73,19.71-20.87,7.11-3.84,8.8-16.03-1.2-22.57Z"/>
    <g>
      <path class="cls-2" d="M151.74,4.92c-11.28,3.39-38.75,12.25-31.21,23.2,5.49,7.97,9.34,15.26,13.55,19.61,3.95-8.31,10.04-15.83,19.5-21.07,7.07-3.91,10.91-16.49-1.84-21.74Z"/>
      <path class="cls-2" d="M129.22,62.48c.18-.84.37-1.7.58-2.54-5.81-2.37-10.78-6.67-10.78-6.67-1.68,3.63,5.99,7.44,10.2,9.21Z"/>
      <path class="cls-2" d="M127.41,74.59c.08-.89.17-1.79.28-2.69-4.78-2.41-8.53-5.66-8.53-5.66-1.44,3.12,4.02,6.37,8.26,8.35Z"/>
    </g>
  </g>
</svg>