<?xml version="1.0" encoding="utf-8"?>
<!-- Generator: Adobe Illustrator 28.0.0, SVG Export Plug-In . SVG Version: 6.00 Build 0)  -->
<svg version="1.1" id="圖層_1" xmlns="http://www.w3.org/2000/svg" xmlns:xlink="http://www.w3.org/1999/xlink" x="0px" y="0px"
	 viewBox="0 0 266.6 456" style="enable-background:new 0 0 266.6 456;" xml:space="preserve">
<style type="text/css">
	.st0{fill:#63BA21;}
</style>
<path class="st0" d="M39.2,154c-10.3-8.4-25.4-6.9-33.8,3.4c-8.4,10.3-6.9,25.4,3.4,33.8c11.3,9.3,17.8,22.7,17.8,36
	C26.5,241.4,20,255,8.8,263.9c-10.2,8.4-11.7,23.5-3.3,33.8c8.4,10.2,23.4,11.7,33.6,3.4c22.5-17.6,35.4-44.5,35.4-74
	S61.7,172.4,39.2,154z"/>
<path class="st0" d="M99.7,80.2c-10.2-8.4-25.3-7-33.8,3.2s-7,25.3,3.2,33.8l0.1,0.1c33.5,26.6,53.2,67,53.3,109.8
	c0,41.8-19.4,82.1-53.3,110.7c-10.2,8.4-11.6,23.6-3.2,33.8c8.4,10.2,23.4,11.6,33.6,3.3c45-35.8,71.1-90.3,70.9-147.8
	C170.6,169.2,144.8,117,99.7,80.2z"/>
</svg>
