<?xml version="1.0" encoding="UTF-8"?>
<svg xmlns="http://www.w3.org/2000/svg" version="1.1" viewBox="0 0 250 250">
  <defs>
    <style>
      .cls-1 {
        fill: #adb5bd;
        stroke: #adb5bd;
        stroke-linejoin: round;
      }

      .cls-1, .cls-2, .cls-3 {
        stroke-width: 3px;
      }

      .cls-1, .cls-2, .cls-3, .cls-4 {
        stroke-linecap: round;
      }

      .cls-5, .cls-3, .cls-4 {
        fill: #fff;
      }

      .cls-2 {
        fill: none;
      }

      .cls-2, .cls-3 {
        stroke-miterlimit: 10;
      }

      .cls-2, .cls-3, .cls-4 {
        stroke: #0068b7;
      }

      .cls-4 {
        stroke-miterlimit: 10;
        stroke-width: 3px;
      }

      .cls-6 {
        fill: #00a1e9;
      }
		
		@keyframes hand-an {
			  0% { transform: rotate(40deg); }
		     50% { transform: rotate(40deg); }
		
			 66.6% { transform: rotate(0deg); }
		     83.3% { transform: rotate(0deg); }
			100%   { transform: rotate(0deg); }
		}
		#hand {
			animation: hand-an 2s infinite alternate;
			transform-origin: 163.7817px 174.25px;
			transform: rotate(40deg);
		}
		
		@keyframes eye-an {
			  0% {   filter: opacity(0); }
		     50% {   filter: opacity(0); }
		
			 66.6% { filter: opacity(0); }
		     83.3% { filter: opacity(1); }
			100%   { filter: opacity(0); }
		}
		#eye {
			animation: eye-an 2s ease-out infinite alternate;
			transform-origin: center;
			filter: opacity(0);
		}
    </style>
  </defs>
  <!-- Generator: Adobe Illustrator 28.7.3, SVG Export Plug-In . SVG Version: 1.2.0 Build 164)  -->
  <g>
    <g id="_掌握關鍵資訊" data-name="掌握關鍵資訊">
      <g id="people">
        <path class="cls-2" d="M106.9,137.9c.3,0,.6-.2.9-.4.8-.5,1.3-1.4,1.4-2.4l.7-6c-4.3-3.3-7.4-8.3-8.9-14-2.7-.2-4.8-3.3-4.8-7.1s1.7-6.3,4.1-6.9"/>
        <path class="cls-2" d="M143.3,101c2.4.6,4.2,3.5,4.2,7s-2.1,6.8-4.8,7.1c-1.5,5.8-4.7,10.7-8.9,14l.7,6c0,1,.6,1.8,1.4,2.4.3.2.6.3.9.4"/>
        <path class="cls-2" d="M143.3,101s1.3-25.2-21.4-25.2-21.5,25.3-21.5,25.3"/>
        <path class="cls-2" d="M101.9,90.2c.9-1.8,2.6-3.2,4.5-3.9,3.1-1.1,6.5-.2,9.5,1.1,4.3,2,8,4.3,12.9,4.8,4.6.5,8.8,0,12.9-2.1"/>
        <path class="cls-1" d="M121.8,152.1l14-14.6h0c.3.2.6.3.9.4l15.2,4.4c1.9.4,3.9,1.5,5.9,3.1,2.4,1.9,4.2,4.5,5.2,7.3l.8,21.6h-86.8c-.3,0-.5,0-.7-.3-.2-.2-.2-.5-.2-.7l3.6-17.8c.8-3.9,2.9-7.5,6-10.1,2-1.6,4-2.7,5.9-3.1l15.2-4.4,1-.4,14,14.6"/>
        <path class="cls-5" d="M137.3,141.9l-13,13.7c-.7.7-1.6,1.1-2.6,1.1s-1.9-.3-2.6-1.1l-13-13.7-5.3,1.6,20.8,22.2h0l20.8-22.2-5.3-1.6h.2Z"/>
      </g>
      <g id="eye">
        <polygon id="star" class="cls-6" points="134.7 104 140.6 106.1 134.7 108.4 132.4 114.5 130.1 108.4 123.9 106.1 130.1 104 132.4 97.8 134.7 104"/>
        <polygon id="star-2" data-name="star" class="cls-6" points="113.8 104 119.8 106.1 113.8 108.4 111.5 114.5 109.2 108.4 103 106.1 109.2 104 111.5 97.8 113.8 104"/>
      </g>
      <g id="hand">
        <path class="cls-1" d="M149.9,138.9l14.5.8-.6,34.6-14.4-.5.5-34.9Z"/>
        <g>
          <polyline class="cls-3" points="138.7 122.3 143.4 127.8 147.7 124.2 143.1 118.6"/>
          <path class="cls-3" d="M150.6,124.2c-.6-.8-1.8-.9-2.7-.2l-4.9,4.1c-.8.6-.9,1.8-.2,2.7l22.8,26.9c.6.8,1.8.9,2.7.2l4.9-4.1c.8-.6.9-1.8.2-2.7l-22.8-26.9Z"/>
          <circle class="cls-2" cx="128.2" cy="105.4" r="19.7" transform="translate(-37.8 107.1) rotate(-40)"/>
        </g>
        <rect class="cls-4" x="151" y="133.4" width="13.7" height="11.7" rx="5.4" ry="5.4" transform="translate(-46.9 187.9) rotate(-54.8)"/>
      </g>
    </g>
  </g>
</svg>