<?xml version="1.0" encoding="UTF-8"?>
<svg xmlns="http://www.w3.org/2000/svg" version="1.1" viewBox="0 0 250 250">
  <defs>
    <style>
      .cls-1, .cls-2 {
        stroke-miterlimit: 10;
      }

      .cls-1, .cls-2, .cls-3 {
        stroke: #0068b7;
      }

      .cls-1, .cls-2, .cls-3, .cls-4, .cls-5 {
        stroke-width: 3px;
      }

      .cls-1, .cls-6 {
        fill: #fff;
      }

      .cls-2, .cls-3 {
        fill: none;
      }

      .cls-3, .cls-4 {
        stroke-linejoin: round;
      }

      .cls-3, .cls-4, .cls-5 {
        stroke-linecap: round;
      }

      .cls-4, .cls-5 {
        fill: #adb5bd;
        stroke: #fff;
      }

      .cls-7 {
        fill: #00a1e9;
      }
		
		@keyframes paper-an {
		    0% { transform: translateY( 0%); }
		   25% { transform: translateY( 0%); }
		
		
		   50% { transform: translateY(-2%); }
		   70% { transform: translateY(42%); }
		   90% { transform: translateY(-2%); }
		  100% { transform: translateY( 0%); }
		}
		#paper {
		  animation: paper-an 3s infinite;
		}
		
		@keyframes arrow-an {
		    0% { transform: translateY(0); }
		   25% { transform: translateY(0); }
		
		   70% { transform: translateY(6%); }
		  100% { transform: translateY(0); }
		}
		#arrow {
		  animation: arrow-an 3s infinite;
		}
    </style>
  </defs>
  <!-- Generator: Adobe Illustrator 28.7.3, SVG Export Plug-In . SVG Version: 1.2.0 Build 164)  -->
  <g>
    <g id="_自動匯入讚生涯測驗結果" data-name="自動匯入讚生涯測驗結果">
      <path id="computerScreen" class="cls-4" d="M62.5,150.9v-59.4c0-3.2,2.6-5.8,5.8-5.8h113.4c3.2,0,5.8,2.6,5.8,5.8v59.4"/>
      <g id="arrow">
        <line class="cls-3" x1="119.4" y1="46.5" x2="119.4" y2="63.7"/>
        <line class="cls-3" x1="130.6" y1="63.7" x2="130.6" y2="46.5"/>
        <polyline class="cls-3" points="134.8 59.3 125 69.1 115.2 59.3"/>
      </g>
      <g id="paper">
        <rect class="cls-1" x="84.6" y="46.5" width="80.8" height="101.3"/>
        <rect class="cls-2" x="94.3" y="55.3" width="27.8" height="25.3"/>
        <line class="cls-2" x1="92.7" y1="89.7" x2="156.9" y2="89.7"/>
        <line class="cls-2" x1="92.7" y1="99.1" x2="156.9" y2="99.1"/>
        <line class="cls-2" x1="92.7" y1="108.4" x2="156.9" y2="108.4"/>
        <line class="cls-2" x1="130.9" y1="55.3" x2="156.9" y2="55.3"/>
        <line class="cls-2" x1="130.9" y1="64.6" x2="156.9" y2="64.6"/>
        <line class="cls-2" x1="92.7" y1="117.7" x2="156.9" y2="117.7"/>
        <line class="cls-2" x1="156.9" y1="138.5" x2="134.7" y2="138.5"/>
        <rect class="cls-7" x="134.7" y="127.5" width="22.2" height="6.1"/>
        <path class="cls-7" d="M100.1,75.5h16.3v-14.9s-5,10.6-16.3,14.9Z"/>
      </g>
      <rect id="cover" class="cls-6" y="149.1" width="250" height="100.9"/>
      <g id="computerShelf">
        <path class="cls-6" d="M62.5,151.5v8.4c0,3.2,2.6,5.8,5.8,5.8h36.8s.5,5-.5,10c-.8,3.8-3.6,7.2-7.7,9.3-1.1.6-.6,2,.8,2h54.4c1.4,0,2-1.4.8-2-4.1-2.1-6.9-5.5-7.7-9.3-1-5-.5-10-.5-10h37c3.2,0,5.8-2.6,5.8-5.8v-8.4H62.5Z"/>
        <g>
          <path class="cls-4" d="M125.4,159.5c0,.2-.2.4-.4.4s-.4-.2-.4-.4.2-.4.4-.4.4.2.4.4Z"/>
          <path class="cls-4" d="M125,165.7h19.7s-.5,5,.5,10c.8,3.8,3.6,7.2,7.7,9.3h0c1.2.6.6,2-.8,2h-54.4c-1.4,0-1.9-1.4-.8-2h0c4.1-2.1,6.9-5.5,7.7-9.3,1-5,.5-10,.5-10h19.9Z"/>
          <path class="cls-5" d="M62.5,151.5h125v8.4c0,3.2-2.6,5.8-5.8,5.8h-113.4c-3.2,0-5.8-2.6-5.8-5.8,0,0,0-8.4,0-8.4Z"/>
        </g>
      </g>
    </g>
  </g>
</svg>