<?xml version="1.0" encoding="UTF-8"?>
<svg xmlns="http://www.w3.org/2000/svg" version="1.1" viewBox="0 0 250 250">
  <defs>
    <style>
      .cls-1, .cls-2 {
        fill: none;
        stroke: #0068b7;
        stroke-miterlimit: 10;
        stroke-width: 3px;
      }

      .cls-3 {
        fill: #8aa0b2;
      }

      .cls-2 {
        stroke-linecap: round;
      }

      .cls-4 {
        fill: #00a1e9;
      }
		
		@keyframes search-an {
			  0% { transform: rotate(0); }
		     50% { transform: rotate(0); }
			100% { transform: rotate(90deg); }
		}
		#search {
			animation: search-an 2s infinite alternate;
			transform-origin: center;
		}
    </style>
  </defs>
  <!-- Generator: Adobe Illustrator 28.7.3, SVG Export Plug-In . SVG Version: 1.2.0 Build 164)  -->
  <g>
    <g id="_快速比較" data-name="快速比較">
      <g id="chart">
        <line class="cls-2" x1="89.6" y1="124.1" x2="157.6" y2="124.1"/>
        <rect class="cls-3" x="89.6" y="93.9" width="7.4" height="23.8"/>
        <rect class="cls-4" x="150" y="81.6" width="7.4" height="36.3"/>
        <rect class="cls-4" x="109.7" y="81.1" width="7.4" height="36.6"/>
        <circle class="cls-1" cx="113.5" cy="69" r="5.2"/>
        <circle class="cls-1" cx="153.7" cy="69.5" r="5.2"/>
        <rect class="cls-3" x="129.9" y="92.5" width="7.4" height="25.2"/>
        <circle class="cls-1" cx="133.6" cy="80.5" r="3.1"/>
        <path class="cls-1" d="M96.5,81.9c0-1.7-1.4-3.1-3.1-3.1s-3.1,1.4-3.1,3.1,1.4,3.1,3.1,3.1,3.1-1.4,3.1-3.1Z"/>
        <line class="cls-1" x1="95.8" y1="79.8" x2="108.9" y2="71.7"/>
        <line class="cls-1" x1="118.3" y1="71.1" x2="130.5" y2="78.7"/>
        <line class="cls-1" x1="136.4" y1="79" x2="149.1" y2="71.8"/>
      </g>
      <g id="search">
        <path class="cls-1" d="M101.9,59.3c23.5,0,42.6,19.1,42.6,42.6s-19.1,42.6-42.6,42.6c-23.5,0-42.6-19.1-42.6-42.6s19.1-42.6,42.6-42.6Z"/>
        <polyline class="cls-1" points="127.7 136.4 138.7 147.4 147.5 138.6 136.5 127.6"/>
        <g>
          <path class="cls-2" d="M174.5,159.1l-21-21c-1.5-1.5-4-1.5-5.5,0l-9.8,9.8c-1.5,1.5-1.5,4,0,5.5l21,21"/>
          <path class="cls-2" d="M159.2,174.4l8.6,8.6c1.5,1.5,4,1.5,5.5,0l9.8-9.8c1.5-1.5,1.6-4.1,0-5.6l-8.6-8.6"/>
        </g>
      </g>
    </g>
  </g>
</svg>