<?xml version="1.0" encoding="UTF-8"?>
<svg xmlns="http://www.w3.org/2000/svg" version="1.1" viewBox="0 0 250 250">
  <defs>
    <style>
      .cls-1 {
        stroke: #0068b7;
      }

      .cls-1, .cls-2 {
        fill: none;
      }

      .cls-1, .cls-2, .cls-3, .cls-4 {
        stroke-linecap: round;
        stroke-linejoin: round;
        stroke-width: 3px;
      }

      .cls-2, .cls-3, .cls-4 {
        stroke: #fff;
      }

      .cls-3 {
        fill: #adb5bd;
      }

      .cls-4 {
        fill: #00a1e9;
      }
		
		@keyframes good-an {
		    0%   { transform: rotate( 0deg); }
		   50%   { transform: rotate( 0deg); }
		
		   66.6% { transform: rotate(20deg); }
		   83.3% { transform: rotate(-5deg); }
		  100%   { transform: rotate( 0deg); }
		}

		#good {
		  animation: good-an 2s ease infinite;
		  transform-origin: 187.5px 143.2px;
		}
    </style>
  </defs>
  <!-- Generator: Adobe Illustrator 28.7.3, SVG Export Plug-In . SVG Version: 1.2.0 Build 164)  -->
  <g>
    <g id="good">
      <g>
        <line class="cls-1" x1="92.8" y1="165.3" x2="85.4" y2="165.3"/>
        <line class="cls-1" x1="91.4" y1="146.1" x2="80.5" y2="146.1"/>
        <line class="cls-1" x1="90.1" y1="126.9" x2="76.9" y2="126.9"/>
        <path class="cls-1" d="M154.2,109.7s-23.5-7.3-24-35.2c0-8.2-11.3-10.6-14.8-3.2-4,8.4-6.3,18.7-3.7,30.8.6,2.9-1.6,5.6-4.5,5.6h-35.1c-5.5,0-9.9,4.6-9.6,10.2.3,5.1,4.8,9,9.9,9h4.1c-5.5,0-9.9,4.6-9.6,10.2.3,5.1,4.8,9,9.9,9h4.1c-5.5,0-9.9,4.6-9.6,10.2.3,5.1,4.8,9,9.9,9h4.1c-5.5,0-9.6,3.9-9.6,8.8s4.8,8.7,9.9,8.7c36.6,0,68.4-5.7,68.4-5.7"/>
        <path class="cls-3" d="M187.5,103.5h-29.3c-2.2,0-4.1,1.8-4.1,4.1v71.4c0,2.2,1.8,4.1,4.1,4.1h29.3v-79.5h0Z"/>
        <path class="cls-4" d="M187.5,182.9v-79.4h-16.7v54.9h0c6.3,0,11.5,5.1,11.5,11.5s-2.2,7.9-5.7,9.9v3.3h10.9s0-.2,0-.2Z"/>
        <path class="cls-2" d="M170.8,175.4c3.1,0,5.7-2.5,5.7-5.7s-2.5-5.7-5.7-5.7-5.7,2.5-5.7,5.7,2.5,5.7,5.7,5.7Z"/>
        <line class="cls-2" x1="170.8" y1="182.9" x2="170.8" y2="175.4"/>
      </g>
    </g>
  </g>
</svg>