<?xml version="1.0" encoding="utf-8"?>
<!-- Generator: Adobe Illustrator 27.4.0, SVG Export Plug-In . SVG Version: 6.00 Build 0)  -->
<svg version="1.1" id="圖層_1" xmlns="http://www.w3.org/2000/svg" xmlns:xlink="http://www.w3.org/1999/xlink" x="0px" y="0px"
	 viewBox="0 0 100 87.5" style="enable-background:new 0 0 100 87.5;" xml:space="preserve">
<style type="text/css">
	.st0{fill:#FFFFFF;}
</style>
<path id="Path_170" class="st0" d="M89.1,0H29.7c-6,0-10.9,4.9-10.9,10.9v62.5c0,2.6-2.2,4.7-4.8,4.6c-2.5,0-4.6-2.1-4.6-4.6V15.6
	C9.3,13,7.2,11,4.6,11C2.1,11,0,13.1,0,15.6v57.8c0,7.8,6.3,14.1,14.1,14.1h68.8c9.5,0,17.2-7.7,17.2-17.2V10.9
	C100,4.9,95.1,0,89.1,0z M90.6,70.3c0,4.3-3.5,7.8-7.8,7.8H27.3c0.5-1.5,0.8-3.1,0.8-4.7V10.9c0-0.9,0.7-1.6,1.6-1.6h59.4
	c0.9,0,1.6,0.7,1.6,1.6V70.3z M51.6,46.9H39.1c-2.6,0-4.7,2.2-4.6,4.8c0,2.5,2.1,4.6,4.6,4.6h12.5c2.6,0,4.7-2.2,4.6-4.8
	C56.1,49,54.1,46.9,51.6,46.9z M79.7,46.9H67.2c-2.6,0-4.7,2.2-4.6,4.8c0,2.5,2.1,4.6,4.6,4.6h12.5c2.6,0,4.7-2.2,4.6-4.8
	C84.3,49,82.2,46.9,79.7,46.9z M51.6,62.5H39.1c-2.6,0-4.7,2.2-4.6,4.8c0,2.5,2.1,4.6,4.6,4.6h12.5c2.6,0,4.7-2.2,4.6-4.8
	C56.1,64.6,54.1,62.5,51.6,62.5z M79.7,62.5H67.2c-2.6,0-4.7,2.2-4.6,4.8c0,2.5,2.1,4.6,4.6,4.6h12.5c2.6,0,4.7-2.2,4.6-4.8
	C84.3,64.6,82.2,62.5,79.7,62.5z M78.1,15.6H40.6c-3.5,0-6.2,2.8-6.2,6.2v12.5c0,3.5,2.8,6.2,6.2,6.2h37.5c3.5,0,6.2-2.8,6.2-6.2
	V21.9C84.4,18.4,81.6,15.6,78.1,15.6C78.1,15.6,78.1,15.6,78.1,15.6z"/>
<text transform="matrix(1 0 0 1 -0.3945 108.9155)" style="font-family:'AdobeMingStd-Light-B5pc-H'; font-size:9px;">https://fontawesome.com/</text>
</svg>
