<?xml version="1.0" encoding="utf-8"?>
<!-- Generator: Adobe Illustrator 27.4.0, SVG Export Plug-In . SVG Version: 6.00 Build 0)  -->
<svg version="1.1" id="圖層_1" xmlns="http://www.w3.org/2000/svg" xmlns:xlink="http://www.w3.org/1999/xlink" x="0px" y="0px"
	 viewBox="0 0 100 88.9" style="enable-background:new 0 0 100 88.9;" xml:space="preserve">
<style type="text/css">
	.st0{fill:#FFFFFF;}
</style>
<path id="Path_169" class="st0" d="M0,11.1C0,5,5,0,11.1,0h27.8v22.2c0,3.1,2.5,5.6,5.5,5.6c0,0,0,0,0,0h22.2v21.8L51.6,64.7
	c-1.8,1.8-3,4-3.6,6.5l-3.2,13c-0.4,1.6-0.3,3.2,0.2,4.8H11.1C5,88.9,0,83.9,0,77.8V11.1z M66.7,22.2H44.5V0L66.7,22.2z M95.5,40.9
	l2.5,2.5c2.7,2.7,2.7,7.1,0,9.8l-5.1,5.1L80.5,46l5.1-5.1C88.4,38.2,92.8,38.2,95.5,40.9L95.5,40.9z M54.2,72.4L76.6,50l12.3,12.3
	L66.5,84.7c-0.7,0.7-1.6,1.2-2.6,1.5l-10.4,2.6c-1.5,0.4-3-0.5-3.4-2c-0.1-0.4-0.1-0.9,0-1.3L52.7,75C52.9,74,53.4,73.1,54.2,72.4
	L54.2,72.4z"/>
<text transform="matrix(1 0 0 1 -0.3945 109.9155)" style="font-family:'AdobeMingStd-Light-B5pc-H'; font-size:9px;">https://fontawesome.com/</text>
</svg>
