<?xml version="1.0" encoding="utf-8"?>
<!-- Generator: Adobe Illustrator 27.4.0, SVG Export Plug-In . SVG Version: 6.00 Build 0)  -->
<svg version="1.1" id="圖層_1" xmlns="http://www.w3.org/2000/svg" xmlns:xlink="http://www.w3.org/1999/xlink" x="0px" y="0px"
	 viewBox="0 0 100 88.2" style="enable-background:new 0 0 100 88.2;" xml:space="preserve">
<style type="text/css">
	.st0{fill:#FFFFFF;}
</style>
<g id="Group_428" transform="translate(-498 -610)">
	<path id="Path_125" class="st0" d="M561.4,626.9c5.2-5.2,13.6-5.2,18.7,0c0,0,0,0,0,0l2.2,2.2c5.2,5.2,5.2,13.6,0,18.8l-36.3,36.3
		c-1.6,1.6-3.6,2.7-5.7,3.4l-18.4,5.3c-1.6,0.5-3.3,0-4.3-1.3c-1.1-1.1-1.6-2.7-1.1-4.2l5.3-18.4c0.6-2.2,1.8-4.1,3.4-5.7
		L561.4,626.9z M573.7,633.1c-1.6-1.7-4.3-1.7-6-0.1c0,0-0.1,0.1-0.1,0.1l-5.4,5.4l8.5,8.5l5.4-5.5c1.7-1.6,1.7-4.3,0.1-6
		c0,0-0.1-0.1-0.1-0.1L573.7,633.1z M530.2,671.4l-3.1,10.8l10.8-3.1c0.7-0.2,1.4-0.6,1.9-1.1l24.7-24.7l-8.5-8.5l-24.7,24.7
		C530.8,670,530.4,670.7,530.2,671.4z"/>
	<path id="Path_126" class="st0" d="M541.1,617.8l-6.9,2.6c-0.7,0.3-1.1,1.1-0.8,1.8c0.1,0.4,0.4,0.7,0.8,0.8l6.9,2.6l2.6,6.9
		c0.3,0.7,1.1,1.1,1.8,0.8c0.4-0.1,0.7-0.4,0.8-0.8l2.6-6.9l6.9-2.6c0.7-0.3,1.1-1.1,0.8-1.8c-0.1-0.4-0.4-0.7-0.8-0.8l-6.9-2.6
		l-2.6-6.9c-0.3-0.7-1.1-1.1-1.8-0.8c-0.4,0.1-0.7,0.4-0.8,0.8L541.1,617.8z M499.4,631.5c-1.1,0.4-1.7,1.6-1.2,2.7
		c0.2,0.6,0.7,1,1.2,1.2l10.4,3.9l3.9,10.4c0.4,1.1,1.6,1.7,2.7,1.2c0.6-0.2,1-0.7,1.2-1.2l3.9-10.4l10.4-3.9
		c1.1-0.4,1.7-1.6,1.2-2.7c-0.2-0.6-0.7-1-1.2-1.2l-10.4-3.9l-3.9-10.4c-0.4-1.1-1.6-1.7-2.7-1.2c-0.6,0.2-1,0.7-1.2,1.2l-3.9,10.4
		L499.4,631.5z M564.1,678.6c-1.1,0.4-1.7,1.6-1.2,2.7c0.2,0.6,0.7,1,1.2,1.2l10.4,3.9l3.9,10.4c0.4,1.1,1.6,1.7,2.7,1.2
		c0.6-0.2,1-0.7,1.2-1.2l3.9-10.4l10.4-3.9c1.1-0.4,1.7-1.6,1.2-2.7c-0.2-0.6-0.7-1-1.2-1.2l-10.4-3.9l-3.9-10.4
		c-0.4-1.1-1.6-1.7-2.7-1.2c-0.6,0.2-1,0.7-1.2,1.2l-3.9,10.4L564.1,678.6z"/>
</g>
<text transform="matrix(1 0 0 1 -5.859375e-02 105.4707)" style="font-family:'AdobeMingStd-Light-B5pc-H'; font-size:9px;">https://fontawesome.com/</text>
</svg>
