<?xml version="1.0" encoding="UTF-8"?>
<svg xmlns="http://www.w3.org/2000/svg" version="1.1" viewBox="0 0 145 145">
  <defs>
    <style>
      .cls-1 {
        fill: #344154;
      }

      .cls-2 {
        isolation: isolate;
      }

      .cls-3 {
        fill: none;
        stroke: #344154;
        stroke-linecap: round;
        stroke-linejoin: round;
        stroke-width: 3px;
      }
    </style>
  </defs>
  <!-- Generator: Adobe Illustrator 28.7.2, SVG Export Plug-In . SVG Version: 1.2.0 Build 154)  -->
  <g>
    <g id="_圖層_1" data-name="圖層_1">
      <g id="_圖層_2">
        <circle class="cls-3" cx="72.5" cy="72.5" r="34.4"/>
        <g class="cls-2">
          <g class="cls-2">
            <path class="cls-1" d="M74.9,90.6c-4.4,0-7.9-1.6-10.6-4.9-2.8-3.3-4.2-7.7-4.2-13.2s1.4-10,4.2-13.2c2.7-3.2,6.3-4.8,10.8-4.8s6.2,1.2,8.5,3.5c.4.4.4,1,0,1.6-.6.7-1.2.7-1.9,0-1.9-1.7-4.1-2.5-6.6-2.5-3.7,0-6.7,1.4-8.9,4.2-2.2,2.8-3.3,6.6-3.3,11.3s1.1,8.5,3.2,11.4c2.1,2.8,5.1,4.2,8.7,4.2s5.4-1.1,7.7-3.2c.7-.7,1.3-.7,1.9,0,.5.6.5,1.2,0,1.7-2.7,2.8-5.9,4.1-9.7,4.1Z"/>
          </g>
        </g>
      </g>
    </g>
  </g>
</svg>