<?xml version="1.0" encoding="UTF-8"?>
<svg xmlns="http://www.w3.org/2000/svg" version="1.1" viewBox="0 0 145 145">
  <defs>
    <style>
      .cls-1 {
        fill: #344154;
      }

      .cls-2 {
        isolation: isolate;
      }

      .cls-3 {
        fill: none;
        stroke: #344154;
        stroke-linecap: round;
        stroke-linejoin: round;
        stroke-width: 3px;
      }
    </style>
  </defs>
  <!-- Generator: Adobe Illustrator 28.7.2, SVG Export Plug-In . SVG Version: 1.2.0 Build 154)  -->
  <g>
    <g id="_圖層_1" data-name="圖層_1">
      <g id="_圖層_1-2" data-name="_圖層_1">
        <g id="_圖層_2">
          <circle class="cls-3" cx="72.5" cy="72.5" r="34.4"/>
          <g class="cls-2">
            <g class="cls-2">
              <g class="cls-2">
                <path class="cls-1" d="M63,90c-1,0-1.4-.5-1.4-1.4v-31.6c0-.6.2-1.1.5-1.4s.8-.5,1.4-.5h8.3c7.8,0,11.7,3.1,11.7,9.4s-.8,4.9-2.4,6.6c-1.5,1.6-3.7,2.6-6.4,3l8.4,14.2c.7,1.2.4,1.9-1.1,1.9s-1.3-.3-1.6-.9l-8.8-14.9h-7.2v14.4c0,1-.5,1.4-1.4,1.4ZM64.4,71.8h6.7c6.2,0,9.3-2.5,9.3-7.4s-.8-4.3-2.4-5.4c-1.5-1.1-3.8-1.6-6.9-1.6h-6.7v14.4Z"/>
              </g>
            </g>
          </g>
        </g>
      </g>
    </g>
  </g>
</svg>