<?xml version="1.0" encoding="UTF-8"?>
<svg xmlns="http://www.w3.org/2000/svg" version="1.1" viewBox="0 0 145 145">
  <defs>
    <style>
      .cls-1 {
        fill: #344154;
      }

      .cls-2 {
        fill: none;
        stroke: #344154;
        stroke-linecap: round;
        stroke-linejoin: round;
        stroke-width: 3px;
      }
    </style>
  </defs>
  <!-- Generator: Adobe Illustrator 28.7.2, SVG Export Plug-In . SVG Version: 1.2.0 Build 154)  -->
  <g>
    <g id="_圖層_2">
      <circle class="cls-2" cx="72.5" cy="72.5" r="34.4"/>
      <path class="cls-1" d="M72.6,90.6c-4.4,0-8.1-1.5-11.1-4.4-.5-.6-.5-1.2,0-1.8.6-.7,1.3-.8,2,0,2.7,2.4,5.7,3.6,9.1,3.6s4.6-.6,6.1-1.8c1.5-1.2,2.3-2.9,2.3-4.9s-.6-3.4-1.8-4.6c-.8-.7-2.2-1.5-4.4-2.5l-2.6-1.2-2.6-1.2c-2-.9-3.6-1.9-4.7-2.9-1.6-1.6-2.4-3.5-2.4-5.8s1-4.7,2.9-6.3c2-1.6,4.4-2.5,7.4-2.5s6.6,1.2,9.1,3.5c.5.5.5,1,0,1.6-.6.7-1.2.7-1.8.1-2.1-1.8-4.5-2.6-7.3-2.6s-4,.5-5.4,1.6c-1.4,1.1-2,2.5-2,4.3s.7,3.2,2,4.3c.8.7,2.1,1.4,3.9,2.3h.1s2.6,1.2,2.6,1.2l2.6,1.2c2.4,1.1,4.1,2.2,5.2,3.3,1.4,1.6,2.2,3.6,2.2,6s-1,5-3.1,6.8c-2.1,1.8-4.9,2.7-8.3,2.7Z"/>
    </g>
  </g>
</svg>