<?xml version="1.0" encoding="UTF-8"?>
<svg xmlns="http://www.w3.org/2000/svg" version="1.1" viewBox="0 0 145 145">
  <defs>
    <style>
      .cls-1 {
        fill: #344154;
      }

      .cls-2 {
        isolation: isolate;
      }

      .cls-3 {
        fill: none;
        stroke: #344154;
        stroke-linecap: round;
        stroke-linejoin: round;
        stroke-width: 3px;
      }
    </style>
  </defs>
  <!-- Generator: Adobe Illustrator 28.7.2, SVG Export Plug-In . SVG Version: 1.2.0 Build 154)  -->
  <g>
    <g id="_圖層_1" data-name="圖層_1">
      <g id="_圖層_2">
        <circle class="cls-3" cx="72.5" cy="72.5" r="34.4"/>
        <g class="cls-2">
          <g class="cls-2">
            <path class="cls-1" d="M60.5,90c-1.2,0-1.5-.5-1.2-1.6l11.1-32c.3-.9,1-1.4,2-1.4h.1c.9,0,1.5.4,1.8,1.2l5.7,16.3,5.5,15.7c.4,1.2,0,1.8-1.2,1.8s-1.3-.4-1.6-1.2l-3.6-10.6h-13.6l-3.6,10.7c-.2.7-.7,1.1-1.5,1.1ZM66.4,75.9h12l-2.1-6.3c-1.3-4-2.6-8-3.8-12h-.2c-.9,3.2-2.2,7.2-3.8,12l-1.1,3.2-1.1,3.2Z"/>
          </g>
        </g>
      </g>
    </g>
  </g>
</svg>