<?xml version="1.0" encoding="UTF-8"?>
<svg xmlns="http://www.w3.org/2000/svg" version="1.1" viewBox="0 0 128 128">
  <defs>
    <style>
      .cls-1 {
        font-family: MingLiU, MingLiU;
        font-size: 12px;
      }

      .cls-1, .cls-2, .cls-3 {
        isolation: isolate;
      }

      .cls-3 {
        fill: #0039ac;
        opacity: .5;
      }

      .cls-4 {
        fill: none;
        stroke: #344154;
        stroke-linecap: round;
        stroke-linejoin: round;
        stroke-width: 3px;
      }
    </style>
  </defs>
  <!-- Generator: Adobe Illustrator 28.7.3, SVG Export Plug-In . SVG Version: 1.2.0 Build 164)  -->
  <g>
    <g id="_圖層_1" data-name="圖層_1">
      <g id="_圖層_1-2">
        <g id="_圖層_1-2-2" data-name="_圖層_1-2">
          <g>
            <path class="cls-4" d="M76.4,82.3v-24.7c0-1,.6-1.9,1.5-2.4.4-.2.8-.3,1.2-.3s1.1.2,1.6.5c1.5,1.1,3.3,1.8,5.2,1.8,2.8,0,5.1-2.3,5.1-5.1v-3.9c0-2.8-2.3-5.1-5.1-5.1s-3.7.6-5.2,1.8c-.8.6-1.9.7-2.8.3s-1.5-1.4-1.5-2.4v-24.9c0-.8-.6-1.4-1.4-1.7-.2,0-.5-.2-.7-.2h-24.9c-1,0-1.9-.7-2.4-1.6-.4-.9-.3-2,.3-2.8,1.1-1.5,1.8-3.3,1.8-5.2,0-2.8-2.3-5.1-5.1-5.1h-3.9c-2.8,0-5.1,2.3-5.1,5.1s.6,3.7,1.8,5.2c.6.8.7,1.9.3,2.8-.4.9-1.3,1.5-2.4,1.5H10.1c-1,0-1.7.8-1.7,1.8v25.1c0,.4.3.7.7.9s1,0,1.3,0c1.7-1.3,3.8-2,6-2,3.6,0,6.4,2.9,6.4,6.4v3.9c0,3.6-2.9,6.4-6.4,6.4s-4.3-.7-6-2c-.4-.3-.9-.3-1.3,0-.4.2-.6.5-.7.9v25.2h68v-.2Z"/>
            <path class="cls-4" d="M95,44.2h8.4c.9,0,1.7.8,1.7,1.7v24.6c0,1,.6,1.9,1.5,2.4.9.4,2,.3,2.8-.3,1.5-1.1,3.3-1.8,5.2-1.8,2.8,0,5.1,2.3,5.1,5.1v3.9c0,2.8-2.3,5.1-5.1,5.1s-3.7-.6-5.2-1.8c-.8-.6-1.9-.7-2.8-.3-.9.4-1.5,1.3-1.5,2.4v24.9c0,.3-.2.5-.3.7-.3.8-.9,1.3-1.7,1.3h-24.9c-1,0-1.9.7-2.4,1.6-.4.9-.3,2,.3,2.8,1.1,1.5,1.8,3.3,1.8,5.2,0,2.8-2.3,5.1-5.1,5.1h-3.9c-2.8,0-5.1-2.3-5.1-5.1s.6-3.7,1.8-5.2c.3-.4.5-1,.5-1.6s0-.8-.3-1.2c-.4-.9-1.4-1.5-2.4-1.5h-24.7v-24.2"/>
            <line class="cls-4" x1="35.1" y1="58.5" x2="44.5" y2="34.3"/>
            <line class="cls-4" x1="53.8" y1="58.5" x2="44.5" y2="34.3"/>
            <line class="cls-4" x1="38.7" y1="49.2" x2="50.2" y2="49.2"/>
            <polygon class="cls-3" points="14 76.7 70.8 76.7 70.8 70.4 14 70.4 14 76.7"/>
          </g>
        </g>
      </g>
      <g class="cls-2">
        <text class="cls-1" transform="translate(52 156.6)"><tspan x="0" y="0">外語</tspan></text>
      </g>
    </g>
  </g>
</svg>