<?xml version="1.0" encoding="UTF-8"?>
<svg xmlns="http://www.w3.org/2000/svg" version="1.1" viewBox="0 0 128 128">
  <defs>
    <style>
      .cls-1 {
        font-family: MingLiU, MingLiU;
        font-size: 12px;
      }

      .cls-1, .cls-2, .cls-3 {
        isolation: isolate;
      }

      .cls-4 {
        stroke-width: 3px;
      }

      .cls-4, .cls-5 {
        fill: none;
        stroke: #344154;
        stroke-linecap: round;
        stroke-linejoin: round;
      }

      .cls-5 {
        stroke-width: 3px;
      }

      .cls-3 {
        fill: #0bf;
      }
    </style>
  </defs>
  <!-- Generator: Adobe Illustrator 28.7.3, SVG Export Plug-In . SVG Version: 1.2.0 Build 164)  -->
  <g>
    <g id="_圖層_1" data-name="圖層_1">
      <g id="_圖層_1-2">
        <g id="_圖層_1-2-2" data-name="_圖層_1-2">
          <g id="_圖層_1-2-2">
            <g id="_圖層_1-2-2-2" data-name="_圖層_1-2-2">
              <g id="_圖層_1-2-2-2">
                <g id="_圖層_2">
                  <g id="Icon_Set">
                    <g>
                      <line class="cls-5" x1="62.9" y1="112.5" x2="62.9" y2="102.3"/>
                      <line class="cls-5" x1="81.3" y1="100" x2="81.3" y2="112.5"/>
                      <path class="cls-5" d="M57,46.8l-4.1,4.1c-.9.9-.9,2.2,0,3l6.9,6.9c.9.9,2.2.9,3,0l4.1-4.1"/>
                      <line class="cls-5" x1="51.7" y1="84" x2="29.8" y2="62.1"/>
                      <path class="cls-5" d="M36.5,68.8l-11.8,11.8c-1.4,1.4-1.4,3.7,0,5.1l3.4,3.4c1.4,1.4,3.7,1.4,5.1,0l11.8-11.8"/>
                      <path class="cls-5" d="M91.1,38.9l3.7,3.7c1.2,1.2,3.2,1.2,4.4,0l2.9-2.9c1.2-1.2,1.2-3.2,0-4.4l-3.7-3.7"/>
                      <path class="cls-5" d="M101.5,41.8c12.2,12.3,9.6,33.3-6.1,48.9-15.7,15.7-41.1,15.7-56.8,0l-3.6-3.6"/>
                      <rect class="cls-4" x="53.9" y="20.8" width="55.8" height="22.4" rx="1.7" ry="1.7" transform="translate(1.3 67.2) rotate(-45)"/>
                      <path class="cls-5" d="M96.5,7.3l3.1-5.1c.9-.9,2.2-.9,3,0l8.8,8.8c.9.9.9,2.2,0,3l-5.1,3.1"/>
                      <line class="cls-5" x1="16" y1="89.3" x2="24.5" y2="97.7"/>
                      <path class="cls-5" d="M95.9,126.5h-47.6l1.4-6.6c.9-4.3,4.7-7.5,9.2-7.5h26.5c4.4,0,8.2,3.1,9.2,7.5l1.4,6.6h-.1Z"/>
                      <line class="cls-5" x1="94.1" y1="27.1" x2="86.6" y2="19.7"/>
                      <rect class="cls-3" x="63.4" y="35.5" width="18.8" height="10.6" transform="translate(-7.5 63.4) rotate(-45)"/>
                    </g>
                  </g>
                </g>
              </g>
            </g>
          </g>
        </g>
      </g>
      <g class="cls-2">
        <text class="cls-1" transform="translate(40 156.6)"><tspan x="0" y="0">科學推理</tspan></text>
      </g>
    </g>
  </g>
</svg>