<?xml version="1.0" encoding="UTF-8"?>
<svg xmlns="http://www.w3.org/2000/svg" version="1.1" viewBox="0 0 128 128">
  <defs>
    <style>
      .cls-1 {
        font-family: MingLiU, MingLiU;
        font-size: 12px;
      }

      .cls-1, .cls-2, .cls-3 {
        isolation: isolate;
      }

      .cls-3 {
        fill: #0039ac;
        opacity: .5;
      }

      .cls-4 {
        fill: none;
        stroke: #344154;
        stroke-linecap: round;
        stroke-linejoin: round;
        stroke-width: 3px;
      }
    </style>
  </defs>
  <!-- Generator: Adobe Illustrator 28.7.3, SVG Export Plug-In . SVG Version: 1.2.0 Build 164)  -->
  <g>
    <g id="_圖層_1" data-name="圖層_1">
      <g id="_圖層_1-2">
        <g id="_圖層_1-2-2" data-name="_圖層_1-2">
          <g>
            <line class="cls-4" x1="76.3" y1="64.3" x2="82.5" y2="64.3"/>
            <line class="cls-4" x1="76.3" y1="69.5" x2="82.5" y2="69.5"/>
            <line class="cls-4" x1="75.4" y1="101.5" x2="81.5" y2="101.5"/>
            <line class="cls-4" x1="75.4" y1="106.6" x2="81.5" y2="106.6"/>
            <path class="cls-4" d="M28.6,63.3c-.3-1.7.9-3.5,2.5-4,1.4-.4,3.1.2,3.9,1.5.6,1,.7,2.2.4,3.3-1.3,4.7-8.1,5.4-8.8,10.4h10.3"/>
            <path class="cls-4" d="M61.6,63.3c-.3-1.7.9-3.5,2.5-4,1.4-.4,3.1.2,3.9,1.5.6,1,.7,2.2.4,3.3-1.3,4.7-8.1,5.4-8.8,10.4h10.3"/>
            <polyline class="cls-4" points="66 112.2 66 95.8 59.8 99.4"/>
            <path class="cls-4" d="M27.1,100.3c0-2.5,2-4.5,4.5-4.5s4.5,2,4.5,4.5-2,4.5-4.5,4.5"/>
            <path class="cls-4" d="M31.6,104.8c2.5,0,4.5,2,4.5,4.5s-2,4.5-4.5,4.5-4.5-2-4.5-4.5"/>
            <path class="cls-4" d="M88.6,100.3c0-2.5,2-4.5,4.5-4.5s4.5,2,4.5,4.5-2,4.5-4.5,4.5"/>
            <path class="cls-4" d="M93.1,104.8c2.5,0,4.5,2,4.5,4.5s-2,4.5-4.5,4.5-4.5-2-4.5-4.5"/>
            <polyline class="cls-4" points="89.8 58.1 89.8 69.7 97.5 69.7"/>
            <line class="cls-4" x1="97.5" y1="62.8" x2="97.5" y2="75.4"/>
            <polyline class="cls-4" points="111.8 48.6 111.8 126.5 16.2 126.5 16.2 48.6"/>
            <line class="cls-4" x1="44.8" y1="62.4" x2="53.6" y2="71.3"/>
            <line class="cls-4" x1="53.6" y1="62.4" x2="44.8" y2="71.3"/>
            <line class="cls-4" x1="44.5" y1="100.4" x2="53.1" y2="109.1"/>
            <line class="cls-4" x1="53.1" y1="100.4" x2="44.5" y2="109.1"/>
            <rect class="cls-4" x="6" y="29.1" width="116.1" height="19.5" rx="6.1" ry="6.1"/>
            <rect class="cls-3" x="11.5" y="34.7" width="104.8" height="8.1"/>
            <polyline class="cls-4" points="111.8 29.1 62.9 1.5 16.2 29.1"/>
            <circle class="cls-4" cx="63" cy="10" r="1.4"/>
          </g>
        </g>
      </g>
      <g class="cls-2">
        <text class="cls-1" transform="translate(52 156.9)"><tspan x="0" y="0">數學</tspan></text>
      </g>
    </g>
  </g>
</svg>