<?xml version="1.0" encoding="UTF-8"?>
<svg xmlns="http://www.w3.org/2000/svg" version="1.1" viewBox="0 0 128 128">
  <defs>
    <style>
      .cls-1 {
        font-family: MingLiU, MingLiU;
        font-size: 12px;
      }

      .cls-1, .cls-2 {
        isolation: isolate;
      }

      .cls-3 {
        fill: none;
        stroke: #344154;
        stroke-linecap: round;
        stroke-linejoin: round;
        stroke-width: 3px;
      }

      .cls-4 {
        fill: #0bf;
      }
    </style>
  </defs>
  <!-- Generator: Adobe Illustrator 28.7.3, SVG Export Plug-In . SVG Version: 1.2.0 Build 164)  -->
  <g>
    <g id="_圖層_1" data-name="圖層_1">
      <g id="_圖層_1-2">
        <g id="_圖層_1-2-2" data-name="_圖層_1-2">
          <g id="_圖層_1-2-2">
            <g>
              <path class="cls-3" d="M47.4,126.5c1.4-4.2,1.3-9.4.3-14-.6-2.7-2.7-4.9-5.4-5.6-2.5-.6-5.1-.9-7.6-.9s-5.4.4-7.9.2c-6.1-.6-9.8-4.7-7.2-11,1.4-3.1,0-5.1-1.1-6.7-2.9-5.2,1.4-6.3,1.4-9.9s-1.3-2.9-2.9-3.1c-2.3-.2-4.3-1.2-5.6-2.5-1.1-1.1-1.3-2.8-.4-4.2,10.6-17.3,8.4-12.8,12.2-37.1C25.6,15.7,43.3-3.3,78.8,2.6c7.4,1.2,14.9,3.4,21.1,7.6,14.5,9.9,22.2,30.8,14.7,55-4.3,13.6-13.8,28.2-10.8,43.4l4.2,17"/>
              <path class="cls-3" d="M38.6,41.7l-.2,2.5c-.2,2,1.3,3.7,3.3,3.9l5.2.5c.7,4.1,2.5,7.9,5.3,11.3l-3,4.2c-1.1,1.6-.8,3.9.9,5l4.7,3.3c1.6,1.1,3.9.8,5-.9l3-4.2c4,1.4,8.2,1.8,12.4,1.1l2.2,4.7c.8,1.8,3,2.6,4.8,1.8l5.2-2.4c1.8-.8,2.6-3,1.8-4.8l-2.2-4.7c3.4-2.8,5.8-6.3,7.1-10.2l5.2.5c2,.2,3.7-1.3,3.9-3.3l.2-2.5"/>
              <path class="cls-3" d="M38.6,41.7l.2-2.5c.2-2,1.9-3.5,3.9-3.3l5.2.5c1.4-3.9,3.8-7.3,7.1-10.2l-2.2-4.7c-.8-1.8,0-4,1.8-4.8l5.2-2.4c1.8-.8,4,0,4.8,1.8l2.2,4.7c4.2-.7,8.4-.3,12.4,1.1l3-4.2c1.1-1.6,3.4-2,5-.9l4.7,3.3c1.6,1.1,2,3.4.9,5l-3,4.2c2.8,3.4,4.6,7.2,5.3,11.3l5.2.5c2,.2,3.5,1.9,3.3,3.9l-.2,2.5"/>
              <path class="cls-3" d="M86.2,45.9c-.8,8.5-8.2,14.8-16.8,14-8.5-.8-14.8-8.2-14-16.8.8-8.5,8.2-14.8,16.8-14,8.5.8,14.8,8.2,14,16.8Z"/>
              <path class="cls-4" d="M78.3,38.2c-1.7-2-4.1-3.3-6.6-3.5h-.9c-1.8,0-3.5.5-4.9,1.4,1,.6,1.9,1.3,2.6,2.2,1.7,2,2.5,4.6,2.3,7.2-.3,3.3-2.2,6.1-4.9,7.6,1.2.7,2.6,1.2,4.1,1.3h.9c5.1,0,9.3-4,9.8-9,.2-2.6-.6-5.2-2.3-7.2h0Z"/>
            </g>
          </g>
        </g>
      </g>
      <g class="cls-2">
        <text class="cls-1" transform="translate(40 156.8)"><tspan x="0" y="0">邏輯推理</tspan></text>
      </g>
    </g>
  </g>
</svg>