<?xml version="1.0" encoding="UTF-8"?>
<svg xmlns="http://www.w3.org/2000/svg" version="1.1" viewBox="0 0 128 128">
  <defs>
    <style>
      .cls-1 {
        stroke-dasharray: 0 10;
      }

      .cls-1, .cls-2 {
        fill: none;
        stroke: #344154;
        stroke-linecap: round;
        stroke-linejoin: round;
        stroke-width: 3px;
      }

      .cls-3 {
        font-family: MingLiU, MingLiU;
        font-size: 12px;
      }

      .cls-3, .cls-4, .cls-5 {
        isolation: isolate;
      }

      .cls-5 {
        fill: #0039ac;
        opacity: .5;
      }
    </style>
  </defs>
  <!-- Generator: Adobe Illustrator 28.7.3, SVG Export Plug-In . SVG Version: 1.2.0 Build 164)  -->
  <g>
    <g id="_圖層_1" data-name="圖層_1">
      <g id="_圖層_1-2">
        <g id="_圖層_1-2-2" data-name="_圖層_1-2">
          <g id="_圖層_1-2-2">
            <g>
              <polygon class="cls-2" points="64 64 9.8 32.8 64 1.5 118.2 32.8 64 64"/>
              <path class="cls-5" d="M65.8,11.3l-1.8-2.9,42.2,24.3-42.2,24.3,1.8-2.9c8-13.2,8-29.8,0-42.9h0Z"/>
              <line class="cls-2" x1="72.3" y1="68.9" x2="72.3" y2="68.9"/>
              <line class="cls-1" x1="78.9" y1="72.6" x2="114.9" y2="93.4"/>
              <line class="cls-2" x1="118.2" y1="95.2" x2="118.2" y2="95.2"/>
              <line class="cls-2" x1="9.8" y1="95.2" x2="9.8" y2="95.2"/>
              <line class="cls-1" x1="16.4" y1="91.5" x2="52.2" y2="70.8"/>
              <line class="cls-2" x1="55.5" y1="69" x2="55.5" y2="69"/>
              <polyline class="cls-2" points="118.2 32.8 118.2 95.2 64 126.5 9.8 95.2 9.8 32.8"/>
              <line class="cls-2" x1="64" y1="64" x2="64" y2="105.5"/>
            </g>
          </g>
        </g>
      </g>
      <g class="cls-4">
        <text class="cls-3" transform="translate(52 156.6)"><tspan x="0" y="0">空間</tspan></text>
      </g>
    </g>
  </g>
</svg>