<?xml version="1.0" encoding="UTF-8"?>
<svg xmlns="http://www.w3.org/2000/svg" version="1.1" viewBox="0 0 128 128">
  <defs>
    <style>
      .cls-1 {
        font-family: MingLiU, MingLiU;
        font-size: 12px;
      }

      .cls-1, .cls-2, .cls-3, .cls-4 {
        isolation: isolate;
      }

      .cls-3 {
        fill: #0039ac;
        opacity: .5;
      }

      .cls-5 {
        fill: none;
        stroke: #344154;
        stroke-linecap: round;
        stroke-linejoin: round;
        stroke-width: 3px;
      }

      .cls-4 {
        fill: #0bf;
      }
    </style>
  </defs>
  <!-- Generator: Adobe Illustrator 28.7.3, SVG Export Plug-In . SVG Version: 1.2.0 Build 164)  -->
  <g>
    <g id="_圖層_1" data-name="圖層_1">
      <g id="_圖層_1-2">
        <g id="_圖層_1-2-2" data-name="_圖層_1-2">
          <g id="_圖層_1-2-2">
            <g>
              <path class="cls-5" d="M56.6,24c1.9-3.9,1.7-8.7-1.2-12.3-3.2-4.1-9.9-8-23.1-10.2-1,13.3,1.2,20.7,4.5,24.8,4,5.1,11.4,5.8,16.5,1.8h0"/>
              <path class="cls-5" d="M89.8,63.2c2.5-3,4.6-5.6,4.8-6.1,5.2-8.4.5-19.4-9.1-21.8h0c-5.5-1.4-11.1-1.9-16.7-1.5-.7,0-1.4,0-2.2.2"/>
              <path class="cls-5" d="M52.5,36.3c-1.4.4-2.7.9-4.1,1.4C20.7,48.4,5.4,75.9,14.3,99c8.9,23.1,39.5,35,66.4,22.4,21.8-10.2,31.5-22.7,35-34,3-9.5-8.6-16.6-15.7-9.6-2.9,2.9-5.9,5.3-8.3,6.9-3.2,2.3-7.4,1.9-10.1-.9h0c-3.1-3.1-3-8.1.2-11.1"/>
              <line class="cls-5" x1="53.2" y1="28.1" x2="96.8" y2="80.9"/>
              <path class="cls-4" d="M35,57.6c2.3,2,3.8,4.9,3.8,8.1,0,6-4.9,10.8-10.8,10.8s-3.3-.4-4.7-1.1c2.2-6.7,5.9-12.5,11.7-17.9h0Z"/>
              <path class="cls-3" d="M21.9,88.5c1.1-.4,2.3-.6,3.6-.6,6,0,10.8,4.9,10.8,10.8s-1.7,6.6-4.3,8.5c-3.8-3.4-7.5-6.9-9.3-11.4-.9-2.4-1.1-4.3-.8-7.2h0Z"/>
              <path class="cls-4" d="M44,114.2c.7-5.3,5.3-9.2,10.6-9.2s10.8,4.9,10.8,10.8,0,.2,0,.2c-2.5.4-10.7,2.8-21.4-1.8Z"/>
            </g>
          </g>
        </g>
      </g>
      <g class="cls-2">
        <text class="cls-1" transform="translate(52 157.1)"><tspan x="0" y="0">美感</tspan></text>
      </g>
    </g>
  </g>
</svg>