<?xml version="1.0" encoding="UTF-8"?>
<svg xmlns="http://www.w3.org/2000/svg" version="1.1" viewBox="0 0 128 128">
  <defs>
    <style>
      .cls-1 {
        fill: #c1d135;
      }

      .cls-2 {
        fill: #00ab28;
      }

      .cls-3 {
        font-family: MingLiU, MingLiU;
        font-size: 12px;
      }

      .cls-3, .cls-4 {
        isolation: isolate;
      }

      .cls-5 {
        fill: none;
        stroke: #344154;
        stroke-linecap: round;
        stroke-linejoin: round;
        stroke-width: 3px;
      }
    </style>
  </defs>
  <!-- Generator: Adobe Illustrator 28.7.3, SVG Export Plug-In . SVG Version: 1.2.0 Build 164)  -->
  <g>
    <g id="_圖層_1" data-name="圖層_1">
      <g id="_圖層_1-2">
        <g id="_圖層_1-2-2" data-name="_圖層_1-2">
          <g id="_圖層_1-2-2">
            <g id="_圖層_2">
              <g id="Icon_Set">
                <g>
                  <path class="cls-5" d="M12.1,82.6l-.2,2.5c-.2,1.9,1.3,3.7,3.2,3.9l5.1.5c.7,4,2.4,7.9,5.3,11.2l-2.9,4.1c-1.1,1.7-.7,3.9.8,5l4.6,3.2c1.7,1.1,3.9.7,5-.8l2.9-4.1c4,1.4,8.2,1.8,12.3,1.1l2.1,4.6c.8,1.8,2.9,2.6,4.7,1.8l5.1-2.4c1.8-.8,2.6-2.9,1.8-4.7l-2.1-4.6c3.3-2.9,5.7-6.4,7.1-10.1l5.1.5c1.9.2,3.7-1.3,3.9-3.2l.2-2.5"/>
                  <path class="cls-5" d="M12.1,82.6l.2-2.5c.2-1.9,1.9-3.4,3.9-3.2l5.1.5c1.4-3.8,3.8-7.4,7.1-10.1l-2.1-4.6c-.8-1.8,0-3.9,1.8-4.7l5.2-2.4c1.8-.8,3.9,0,4.7,1.8l2.1,4.6c4.1-.7,8.4-.3,12.3,1.1l2.9-4.1c1.1-1.7,3.3-2,5-.8l4.6,3.2c1.7,1.1,2,3.3.8,5l-2.9,4.1c2.8,3.3,4.5,7.2,5.3,11.2l5.1.5c1.9.2,3.4,1.9,3.2,3.9l-.2,2.5"/>
                  <circle class="cls-5" cx="44.1" cy="85.5" r="15.3"/>
                  <path class="cls-2" d="M51.6,79.1c-1.7-2-4.1-3.2-6.6-3.5h-.9c-1.6,0-2.9.4-4.2,1,1.2.6,2.3,1.5,3.2,2.5,1.7,2,2.5,4.5,2.2,7.2-.3,3.5-2.5,6.4-5.5,7.9,1.1.6,2.2.8,3.4.9h.9c5,0,9.3-4,9.8-8.9.2-2.6-.6-5.2-2.2-7.2h-.1Z"/>
                  <path class="cls-5" d="M20,18.3l-.6,1.8c-.6,1.5.3,3,1.8,3.6l3.8,1.3c-.2,3.2.4,6.5,1.8,9.6l-3,2.6c-1.2,1-1.3,2.8-.3,4l2.9,3.4c1,1.2,2.8,1.3,4,.3l3-2.7c2.8,1.8,5.9,2.9,9.2,3.2l.7,4c.3,1.6,1.8,2.6,3.3,2.2l4.4-.8c1.6-.3,2.6-1.8,2.2-3.3l-.7-4c3.1-1.5,5.6-3.8,7.4-6.4l3.8,1.3c1.5.6,3-.3,3.6-1.8l.6-1.8"/>
                  <path class="cls-5" d="M20,18.3l.6-1.8c.6-1.5,2.1-2.2,3.6-1.8l3.8,1.3c1.8-2.7,4.3-4.9,7.4-6.4l-.7-4c-.3-1.6.7-3,2.2-3.3l4.4-.8c1.6-.3,3,.7,3.3,2.2l.7,4c3.3.3,6.4,1.4,9.2,3.2l3-2.7c1.2-1,2.9-.9,4,.3l2.9,3.4c1,1.2.9,2.9-.3,4l-3,2.7c1.5,3.1,2,6.4,1.8,9.6l3.8,1.3c1.5.6,2.2,2.1,1.8,3.6l-.6,1.8"/>
                  <path class="cls-5" d="M55.4,30.7c-2.2,6.4-9.1,9.7-15.5,7.5s-9.7-9.1-7.5-15.5,9.1-9.7,15.5-7.5c6.4,2.2,9.7,9.1,7.5,15.5h0Z"/>
                  <path class="cls-1" d="M44.6,29.5c-.7-1.6-.8-3.4-.3-5.1.6-1.6,1.6-2.8,2.9-3.5l-1.1-.6c-.7-.3-1.5-.4-2.2-.4-2.8,0-5.3,1.8-6.3,4.4-.6,1.7-.5,3.5.3,5.1s2.1,2.8,3.8,3.3c.7.3,1.5.4,2.2.4,1.2,0,2.3-.4,3.3-.9-1.1-.6-2-1.7-2.6-2.9h0s0,.2,0,.2Z"/>
                  <path class="cls-5" d="M115.7,108c-.4-2.9-1.8-5.6-4.1-7.5h0c-1.7-1.3-2.7-3.3-2.7-5.5v-55.1c0-3.7,1.4-7.2,3.9-9.8.7-.8,1.5-1.8,1.9-2.8,1.4-2.7,1.6-5.7.6-8.6-1.9-5.9-4.7-8.8-8.8-12.1-.4-.3-1,0-.9.6l2.3,10.4c.4,1.8-.2,3.7-1.6,5l-.4.4c-2.1,1.8-5,2.6-7.6,1.8l-.7-.2c-1.8-.5-3.2-1.9-3.7-3.9l-2.3-10.3c0-.6-.8-.6-1,0-2.3,4.7-3.5,8.6-2.9,14.6.4,2.9,1.8,5.6,4.1,7.5h0c1.7,1.4,2.7,3.3,2.7,5.5v55.1c0,3.6-1.4,7.2-3.9,9.8-.7.8-1.5,1.8-1.9,2.8-1.4,2.7-1.6,5.7-.6,8.6,1.9,5.9,4.7,8.8,8.8,12.1.4.4,1,0,.9-.6l-2.3-10.4v-1.4c0-1.4.6-2.7,1.8-3.6l.4-.4c2.1-1.8,5-2.6,7.6-1.8l.7.2c.9.3,1.8.7,2.4,1.4s1.1,1.5,1.3,2.4l2.3,10.3c0,.6.8.6,1,0,2.3-4.7,3.5-8.6,2.9-14.6h-.2Z"/>
                </g>
              </g>
            </g>
          </g>
        </g>
      </g>
      <g class="cls-4">
        <text class="cls-3" transform="translate(52 156.8)"><tspan x="0" y="0">機械</tspan></text>
      </g>
    </g>
  </g>
</svg>