<?xml version="1.0" encoding="UTF-8"?>
<svg xmlns="http://www.w3.org/2000/svg" version="1.1" viewBox="0 0 128 128">
  <defs>
    <style>
      .cls-1 {
        fill: #c1d135;
      }

      .cls-2 {
        font-family: AdobeMingStd-Light-B5pc-H, 'Adobe Ming Std';
        font-size: 12px;
        font-weight: 300;
      }

      .cls-3 {
        fill: none;
        stroke: #344154;
        stroke-linecap: round;
        stroke-linejoin: round;
        stroke-width: 3px;
      }
    </style>
  </defs>
  <!-- Generator: Adobe Illustrator 28.7.3, SVG Export Plug-In . SVG Version: 1.2.0 Build 164)  -->
  <g>
    <g id="_圖層_1" data-name="圖層_1">
      <g id="_圖層_1-2" data-name="_圖層_1">
        <g id="_圖層_2">
          <g id="Icon_Set">
            <g>
              <polyline class="cls-3" points="79 48.7 1.5 48.7 64 18 126.5 48.7 91.4 48.7"/>
              <polyline class="cls-3" points="15.6 48.7 15.6 58.9 112.4 58.9 112.4 48.7"/>
              <polyline class="cls-3" points="10.8 109.1 10.8 98.9 117.1 98.9 117.1 109.1"/>
              <polyline class="cls-3" points="41.4 109.1 122.1 109.1 122.1 119.4 5.8 119.4 5.8 109.1 24.7 109.1"/>
              <line class="cls-3" x1="24.7" y1="59.1" x2="24.7" y2="98.8"/>
              <line class="cls-3" x1="15.6" y1="98.8" x2="15.6" y2="59.1"/>
              <line class="cls-3" x1="46.6" y1="59.1" x2="46.6" y2="98.8"/>
              <line class="cls-3" x1="37.5" y1="98.8" x2="37.5" y2="59.1"/>
              <line class="cls-3" x1="68.6" y1="59.1" x2="68.6" y2="98.8"/>
              <line class="cls-3" x1="59.4" y1="98.8" x2="59.4" y2="59.1"/>
              <line class="cls-3" x1="90.5" y1="59.1" x2="90.5" y2="98.8"/>
              <line class="cls-3" x1="81.3" y1="98.8" x2="81.3" y2="59.1"/>
              <line class="cls-3" x1="103.2" y1="98.8" x2="103.2" y2="59.1"/>
              <line class="cls-3" x1="112.4" y1="59.1" x2="112.4" y2="98.8"/>
              <line class="cls-3" x1="15.6" y1="41.8" x2="15.6" y2="30.2"/>
              <line class="cls-3" x1="112.4" y1="41.8" x2="112.4" y2="30.2"/>
              <line class="cls-3" x1="64" y1="18" x2="64" y2="8.6"/>
              <path class="cls-1" d="M24.8,43.3h37.5c-3.6-2.9-3.1-8.6,1-10.7l8.8-4.7-8-4-39.2,19.3h0Z"/>
            </g>
          </g>
        </g>
      </g>
      <text class="cls-2" transform="translate(52 157.6)"><tspan x="0" y="0">建築</tspan></text>
    </g>
  </g>
</svg>