<?xml version="1.0" encoding="UTF-8"?>
<svg xmlns="http://www.w3.org/2000/svg" version="1.1" viewBox="0 0 128 128">
  <defs>
    <style>
      .cls-1 {
        fill: #00ab28;
      }

      .cls-2 {
        font-family: AdobeMingStd-Light-B5pc-H, 'Adobe Ming Std';
        font-size: 12px;
        font-weight: 300;
      }

      .cls-3 {
        fill: none;
        stroke: #344154;
        stroke-linecap: round;
        stroke-linejoin: round;
        stroke-width: 3px;
      }
    </style>
  </defs>
  <!-- Generator: Adobe Illustrator 28.7.3, SVG Export Plug-In . SVG Version: 1.2.0 Build 164)  -->
  <g>
    <g id="_圖層_1" data-name="圖層_1">
      <g id="_圖層_1-2" data-name="_圖層_1">
        <g id="_圖層_1-2">
          <g id="_圖層_1-2-2" data-name="_圖層_1-2">
            <g>
              <polyline class="cls-3" points="35.1 31.3 35.1 48.2 1.5 48.2"/>
              <polyline class="cls-3" points="52 14.5 52 31.3 18.4 31.3 18.4 14.5"/>
              <g>
                <g>
                  <rect class="cls-3" x="47.9" y="52" width="33.6" height="16.9"/>
                  <rect class="cls-1" x="53.5" y="57.6" width="22.6" height="5.8"/>
                </g>
                <g>
                  <polyline class="cls-3" points="34.2 54.7 28.4 60.5 28.4 60.5 34.2 66.3"/>
                  <line class="cls-3" x1="36.5" y1="60.5" x2="47.8" y2="60.5"/>
                </g>
              </g>
              <polyline class="cls-3" points="1.5 14.5 108 14.5 108 46.7"/>
              <line class="cls-3" x1="18.4" y1="31.3" x2="1.5" y2="31.3"/>
              <polyline class="cls-3" points="35.1 89.6 35.1 72.9 1.5 72.9"/>
              <polyline class="cls-3" points="52 106.5 52 89.6 18.4 89.6 18.4 106.5"/>
              <line class="cls-3" x1="1.5" y1="106.5" x2="98.8" y2="106.5"/>
              <line class="cls-3" x1="18.4" y1="89.6" x2="1.5" y2="89.6"/>
              <g>
                <line class="cls-3" x1="114.9" y1="71.9" x2="101.2" y2="71.9"/>
                <line class="cls-3" x1="101.1" y1="51.7" x2="114.9" y2="51.7"/>
                <path class="cls-3" d="M114.9,71.9c.4,2.9,2.8,5.1,5.8,5.1h0c3.2,0,5.9-2.6,5.9-5.9v-18.6c0-3.2-2.6-5.9-5.9-5.9h0c-3.2,0-5.9,2.6-5.9,5.9v9.3"/>
                <path class="cls-3" d="M101.1,51.7c-.4-2.9-2.8-5.1-5.8-5.1h0c-3.2,0-5.9,2.6-5.9,5.9v18.6c0,3.2,2.6,5.9,5.9,5.9h0c3.2,0,5.9-2.6,5.9-5.9v-9.7"/>
                <path class="cls-3" d="M111.4,76.4v33.6c0,1.9-1.6,3.5-3.5,3.5h0c-1.9,0-3.5-1.6-3.5-3.5v-33.6"/>
              </g>
            </g>
          </g>
        </g>
      </g>
      <text class="cls-2" transform="translate(52 157.6)"><tspan x="0" y="0">土木</tspan></text>
    </g>
  </g>
</svg>