<?xml version="1.0" encoding="UTF-8"?>
<svg xmlns="http://www.w3.org/2000/svg" version="1.1" viewBox="0 0 128 128">
  <defs>
    <style>
      .cls-1 {
        fill: #c1d135;
      }

      .cls-2 {
        font-family: MingLiU, MingLiU;
        font-size: 12px;
      }

      .cls-2, .cls-3 {
        isolation: isolate;
      }

      .cls-4 {
        fill: none;
        stroke: #344154;
        stroke-linecap: round;
        stroke-linejoin: round;
        stroke-width: 3px;
      }
    </style>
  </defs>
  <!-- Generator: Adobe Illustrator 28.7.3, SVG Export Plug-In . SVG Version: 1.2.0 Build 164)  -->
  <g>
    <g id="_圖層_1" data-name="圖層_1">
      <g id="_圖層_1-2">
        <g id="_圖層_1-2-2" data-name="_圖層_1-2">
          <g>
            <rect class="cls-4" x="15.8" y="103.8" width="96.5" height="12" rx="5.9" ry="5.9"/>
            <path class="cls-4" d="M92.9,103.8v-.8c0-12.9-10.4-23.3-23.3-23.3h-11.2c-12.9,0-23.3,10.4-23.3,23.3v.8"/>
            <line class="cls-4" x1="64" y1="79.8" x2="64" y2="26.1"/>
            <path class="cls-4" d="M71,19.1c0-3.8-3.1-6.9-6.9-6.9s-6.9,3.1-6.9,6.9,3.1,6.9,6.9,6.9,6.9-3.1,6.9-6.9Z"/>
            <polyline class="cls-4" points="22.4 33.4 22.4 23.2 57.1 19.1"/>
            <polyline class="cls-4" points="105.7 33.4 105.7 23.2 71 19.1"/>
            <path class="cls-4" d="M43.1,42h0c0,10.8-8.8,19.6-19.6,19.6h-2.4c-10.8,0-19.6-8.8-19.6-19.6h41.6Z"/>
            <path class="cls-4" d="M126.5,42h0c0,10.8-8.8,19.6-19.6,19.6h-2.4c-10.8,0-19.6-8.8-19.6-19.6h41.6Z"/>
            <path class="cls-1" d="M69.7,85.6h-11.2c-7,0-13.1,4.2-15.9,10.2h42.9c-2.8-6-8.8-10.2-15.9-10.2h0Z"/>
          </g>
        </g>
      </g>
      <g class="cls-3">
        <text class="cls-2" transform="translate(52 156.6)"><tspan x="0" y="0">法律</tspan></text>
      </g>
    </g>
  </g>
</svg>