<?xml version="1.0" encoding="UTF-8"?>
<svg xmlns="http://www.w3.org/2000/svg" version="1.1" viewBox="0 0 128 128">
  <defs>
    <style>
      .cls-1 {
        fill: #c1d135;
      }

      .cls-2 {
        font-family: AdobeMingStd-Light-B5pc-H, 'Adobe Ming Std';
        font-size: 12px;
        font-weight: 300;
      }

      .cls-3 {
        fill: none;
        stroke: #344154;
        stroke-linecap: round;
        stroke-linejoin: round;
        stroke-width: 3px;
      }
    </style>
  </defs>
  <!-- Generator: Adobe Illustrator 28.7.3, SVG Export Plug-In . SVG Version: 1.2.0 Build 164)  -->
  <g>
    <g id="_圖層_1" data-name="圖層_1">
      <g id="_圖層_1-2" data-name="_圖層_1">
        <g id="_圖層_2">
          <g id="Icon_Set">
            <g>
              <g>
                <path class="cls-3" d="M47.5,35.2h0c-2.9,0-5.1-2.3-5.1-5.2v-8.1c0-2.9,2.3-5.2,5.1-5.2h0c2.9,0,5.1,2.3,5.1,5.2v8.1c0,2.9-2.3,5.1-5.1,5.1h0Z"/>
                <polyline class="cls-3" points="30 34.8 30 17.3 25.1 22.2"/>
                <path class="cls-3" d="M83.9,35.2h0c-2.8,0-5.1-2.3-5.1-5.2v-8.1c0-2.9,2.3-5.2,5.1-5.2h0c2.8,0,5.1,2.3,5.1,5.2v8.1c0,2.9-2.3,5.1-5.1,5.1h0Z"/>
                <polyline class="cls-3" points="66.4 34.8 66.4 17.3 61.5 22.2"/>
                <polyline class="cls-3" points="102.9 34.8 102.9 17.3 98 22.2"/>
                <path class="cls-3" d="M47.5,65.2h0c-2.9,0-5.1-2.3-5.1-5.1v-8.1c0-2.9,2.3-5.1,5.1-5.1h0c2.9,0,5.1,2.3,5.1,5.1v8.1c0,2.8-2.3,5.1-5.1,5.1Z"/>
                <polyline class="cls-3" points="30 64.7 30 47.2 25.1 52.1"/>
                <path class="cls-3" d="M83.9,65.2h0c-2.8,0-5.1-2.3-5.1-5.1v-8.1c0-2.9,2.3-5.1,5.1-5.1h0c2.8,0,5.1,2.3,5.1,5.1v8.1c0,2.8-2.3,5.1-5.1,5.1Z"/>
                <polyline class="cls-3" points="66.4 64.7 66.4 47.2 61.5 52.1"/>
                <polyline class="cls-3" points="102.9 64.7 102.9 47.2 98 52.1"/>
              </g>
              <path class="cls-3" d="M102.5,1.5H17.9c-4.4,0-8.1,3.7-8.1,8.1v64.2c0,4.4,3.7,8.1,8.1,8.1h92.2c4.4,0,8.1-3.7,8.1-8.1V9.6c0-4.4-3.7-8.1-8.1-8.1h-7.6"/>
              <polyline class="cls-3" points="36.4 81.9 31.4 94.4 64 94.4 96.5 94.4 91.6 81.9"/>
              <path class="cls-3" d="M109.6,103.8l9.4,17c1.4,2.6-.4,5.7-3.4,5.7H12.4c-2.9,0-4.8-3.2-3.4-5.7l9.4-17h91.2Z"/>
              <polygon class="cls-1" points="15.6 120.7 21.9 109.6 106.1 109.6 112.4 120.7 15.6 120.7"/>
            </g>
          </g>
        </g>
      </g>
      <text class="cls-2" transform="translate(52 157.6)"><tspan x="0" y="0">資訊</tspan></text>
    </g>
  </g>
</svg>