<?xml version="1.0" encoding="UTF-8"?>
<svg xmlns="http://www.w3.org/2000/svg" version="1.1" viewBox="0 0 128 128">
  <defs>
    <style>
      .cls-1 {
        fill: #c1d135;
      }

      .cls-2 {
        font-family: MingLiU, MingLiU;
        font-size: 12px;
      }

      .cls-2, .cls-3 {
        isolation: isolate;
      }

      .cls-4 {
        fill: none;
        stroke: #344154;
        stroke-linecap: round;
        stroke-linejoin: round;
        stroke-width: 3px;
      }
    </style>
  </defs>
  <!-- Generator: Adobe Illustrator 28.7.3, SVG Export Plug-In . SVG Version: 1.2.0 Build 164)  -->
  <g>
    <g id="_圖層_1" data-name="圖層_1">
      <g id="_圖層_1-2">
        <g id="_圖層_1-2-2" data-name="_圖層_1-2">
          <g id="_圖層_1-2-2">
            <g>
              <g>
                <path class="cls-4" d="M65.3,13.4l-2.8-1.6c-2.1-1.2-4.9-.5-6.1,1.6l-3.3,5.6c-4.9-1.3-10.4-1.4-15.6.2l-3.2-5.4c-1.4-2.2-4.2-2.9-6.1-1.7l-6.1,3.6c-2.2,1.4-2.9,4.2-1.7,6.1l3.2,5.4c-3.8,3.9-6.3,8.5-7.7,13.5h-6.4c-2.5,0-4.5,2-4.5,4.4v7.1c0,2.5,2.1,4.5,4.5,4.5h6.4c1.6,5.3,4.3,9.9,7.9,13.4l-3.3,5.6c-1.2,2.1-.5,4.9,1.6,6.1l2.8,1.6"/>
                <path class="cls-4" d="M78,56.5h-3.6c-1.4,5-4.1,9.8-7.7,13.5l3.2,5.4c1.4,2.2.6,4.8-1.7,6.1l-6.1,3.6c-2.2,1.4-4.8.6-6.1-1.7l-3.2-5.4c-5.2,1.5-10.7,1.4-15.6.2l-3.3,5.6c-1.2,2.1-4,2.9-6.1,1.6l-2.8-1.6"/>
                <path class="cls-4" d="M65.3,13.4l2.8,1.6c2.1,1.2,2.9,4,1.6,6.1l-3.3,5.6c3.7,3.6,6.5,8.2,7.9,13.4h3.5"/>
                <circle class="cls-4" cx="45.2" cy="48.7" r="19.4"/>
              </g>
              <g>
                <path class="cls-4" d="M100.3,42.7c5.1-.3,9-4.5,9-9.6s-1.5-5.9-3.7-7.6c4.4-2,7.3-6.3,7.3-11.4s-5.6-12.5-12.5-12.5-10.7,4-12.1,9.3c-4.7.7-8.1,4.8-8.1,9.5s2.6,7.5,6.2,9c-2.9,1.1-5,3.9-5,7.1s3.4,7.6,7.6,7.6,1.1,0,1.6-.2"/>
                <path class="cls-4" d="M88.5,10.7s-1.3,5.8,3.7,8.8"/>
                <path class="cls-4" d="M86.5,29.3s5.3-1.4,7.2,3.6"/>
                <g>
                  <line class="cls-4" x1="86.3" y1="63.2" x2="92" y2="63.2"/>
                  <line class="cls-4" x1="86.3" y1="68.6" x2="92" y2="68.6"/>
                </g>
                <path class="cls-4" d="M86.8,57.9c-2.2,0-4-1.8-4-4v-3.4h22.8v3.4c0,2.2-1.3,4-3.5,4v18.7l19.8,36.6c3.3,6.1-1.1,13.3-7.9,13.3h-39.7c-6.8,0-11.2-7.3-7.9-13.3l19.8-36.6v-18.7h0"/>
                <line class="cls-4" x1="86.3" y1="57.9" x2="94.3" y2="57.9"/>
                <path class="cls-1" d="M83,100.4c-1.6-.3-3.2-.7-4.8-1l-8.4,15.5c-.9,1.7-.9,3.7,0,5.4,1,1.7,2.7,2.7,4.7,2.7h39.7c2,0,3.7-1,4.7-2.7s1-3.7,0-5.4l-8.8-16.2c-3.9,1.8-8.1,3.1-12.4,3.3-5,.3-9.9-.7-14.8-1.7h.2,0Z"/>
              </g>
            </g>
          </g>
        </g>
      </g>
      <g class="cls-3">
        <text class="cls-2" transform="translate(52 156.6)"><tspan x="0" y="0">化工</tspan></text>
      </g>
    </g>
  </g>
</svg>