<?xml version="1.0" encoding="UTF-8"?>
<svg xmlns="http://www.w3.org/2000/svg" version="1.1" viewBox="0 0 128 128">
  <defs>
    <style>
      .cls-1 {
        fill: #00ab28;
      }

      .cls-2 {
        font-family: AdobeMingStd-Light-B5pc-H, 'Adobe Ming Std';
        font-size: 12px;
        font-weight: 300;
      }

      .cls-3 {
        fill: none;
        stroke: #344154;
        stroke-linecap: round;
        stroke-linejoin: round;
        stroke-width: 3px;
      }
    </style>
  </defs>
  <!-- Generator: Adobe Illustrator 28.7.3, SVG Export Plug-In . SVG Version: 1.2.0 Build 164)  -->
  <g>
    <g id="_圖層_1" data-name="圖層_1">
      <g id="_圖層_1-2" data-name="_圖層_1">
        <g id="_圖層_1-2">
          <g id="_圖層_1-2-2" data-name="_圖層_1-2">
            <g id="_圖層_1-2-2">
              <g id="_圖層_2">
                <g id="Icon_Set">
                  <g>
                    <line class="cls-3" x1="89" y1="35.6" x2="74.9" y2="49.7"/>
                    <line class="cls-3" x1="54.2" y1="29.1" x2="68.3" y2="15.2"/>
                    <path class="cls-3" d="M88.9,35.6c3.3,2.5,8.1,2.2,11.1-.7h0c3.3-3.3,3.3-8.7,0-11.9l-19.1-19c-3.3-3.3-8.7-3.3-11.9,0h0c-3.3,3.3-3.3,8.7,0,11.9l9.6,9.6"/>
                    <path class="cls-3" d="M54.2,29.1c-3.3-2.5-8.1-2.2-11.1.8h0c-3.3,3.3-3.3,8.7,0,11.9l18.9,18.9c3.3,3.3,8.7,3.3,11.9,0h0c3.3-3.3,3.3-8.7,0-11.9l-10-10"/>
                    <path class="cls-3" d="M90,43.7l34.3,34.3c1.9,1.9,1.9,5.1,0,7h0c-1.9,1.9-5.1,1.9-7,0l-34.3-34.3"/>
                    <path class="cls-3" d="M11.3,111h68.7c4.9,0,9,4,9,9v6.4H2.3v-6.4c0-4.9,4-9,9-9h0Z"/>
                    <path class="cls-1" d="M82.8,120v.4H8.3v-.4c0-1.6,1.3-2.9,2.9-2.9h68.7c1.6,0,2.9,1.3,2.9,2.9h0Z"/>
                    <line class="cls-3" x1="45.2" y1="95.8" x2="45.2" y2="78.1"/>
                    <line class="cls-3" x1="57.4" y1="98.5" x2="70" y2="85.9"/>
                    <line class="cls-3" x1="33.6" y1="98.5" x2="21.1" y2="85.9"/>
                  </g>
                </g>
              </g>
            </g>
          </g>
        </g>
      </g>
      <text class="cls-2" transform="translate(38.1 157.6)"><tspan x="0" y="0">政治/公行</tspan></text>
    </g>
  </g>
</svg>