<?xml version="1.0" encoding="UTF-8"?>
<svg xmlns="http://www.w3.org/2000/svg" version="1.1" viewBox="0 0 128 128">
  <defs>
    <style>
      .cls-1 {
        fill: #c1d135;
      }

      .cls-2 {
        fill: #00ab28;
      }

      .cls-3 {
        font-family: MingLiU, MingLiU;
        font-size: 12px;
      }

      .cls-3, .cls-4 {
        isolation: isolate;
      }

      .cls-5 {
        fill: none;
        stroke: #344154;
        stroke-linecap: round;
        stroke-linejoin: round;
        stroke-width: 3px;
      }
    </style>
  </defs>
  <!-- Generator: Adobe Illustrator 28.7.3, SVG Export Plug-In . SVG Version: 1.2.0 Build 164)  -->
  <g>
    <g id="_圖層_1" data-name="圖層_1">
      <g id="_圖層_1-2">
        <g id="_圖層_1-2-2" data-name="_圖層_1-2">
          <g>
            <g>
              <circle class="cls-2" cx="16.5" cy="26.6" r="5.2"/>
              <circle class="cls-5" cx="50.8" cy="46.3" r="5.2"/>
              <circle class="cls-2" cx="85.1" cy="26.6" r="5.2"/>
              <circle class="cls-5" cx="50.8" cy="6.7" r="5.2"/>
              <circle class="cls-2" cx="16.5" cy="69.3" r="5.2"/>
              <circle class="cls-5" cx="50.9" cy="89.1" r="5.2"/>
              <line class="cls-5" x1="58.2" y1="11" x2="77.8" y2="22.3"/>
              <line class="cls-5" x1="23.9" y1="22.3" x2="43.5" y2="11"/>
              <line class="cls-5" x1="16.5" y1="60.3" x2="16.5" y2="35.1"/>
              <line class="cls-5" x1="43.5" y1="84.8" x2="23.9" y2="73.5"/>
              <line class="cls-5" x1="46.4" y1="43.8" x2="23.9" y2="30.8"/>
              <line class="cls-5" x1="77.8" y1="30.8" x2="55.4" y2="43.8"/>
              <line class="cls-5" x1="50.9" y1="51.6" x2="50.9" y2="80.3"/>
              <line class="cls-5" x1="85.1" y1="41.8" x2="85.1" y2="35.1"/>
              <line class="cls-5" x1="58.2" y1="84.9" x2="70" y2="78.1"/>
              <path class="cls-5" d="M68.8,39.8c.8,2.1,1.2,4.3,1.2,6.6,0,9.5-7,17.4-16.1,18.8"/>
              <path class="cls-5" d="M36.2,34.3c3.5-4.2,8.8-6.9,14.7-6.9s11.1,2.7,14.6,6.8"/>
              <path class="cls-5" d="M47.6,65.2c-9-1.5-15.8-9.4-15.8-18.8s.4-4.5,1.2-6.5"/>
            </g>
            <g>
              <line class="cls-5" x1="79.3" y1="61.8" x2="85.1" y2="61.8"/>
              <line class="cls-5" x1="79.3" y1="67.2" x2="85.1" y2="67.2"/>
              <path class="cls-5" d="M79.8,56.4c-2.3,0-4.1-1.8-4.1-4.1v-3.5h23.3v3.5c0,2.3-1.3,4.1-3.6,4.1v19.2l20.2,37.3c3.3,6.1-1.1,13.6-8.1,13.6h-40.4c-7,0-11.4-7.5-8.1-13.6l20.2-37.3v-19.2h0"/>
              <line class="cls-5" x1="79.3" y1="56.4" x2="87.4" y2="56.4"/>
              <path class="cls-1" d="M75.8,99.8c-1.6-.3-3.3-.7-4.9-1l-8.6,15.9c-1,1.8-.9,3.8,0,5.5s2.8,2.7,4.8,2.7h40.4c2,0,3.8-1,4.8-2.7s1.1-3.7,0-5.5l-9-16.5c-4,1.9-8.2,3.1-12.6,3.4-5.1.3-10.1-.7-15.1-1.7h.2,0Z"/>
            </g>
          </g>
        </g>
      </g>
      <g class="cls-4">
        <text class="cls-3" transform="translate(52 156.5)"><tspan x="0" y="0">材料</tspan></text>
      </g>
    </g>
  </g>
</svg>