<?xml version="1.0" encoding="UTF-8"?>
<svg xmlns="http://www.w3.org/2000/svg" version="1.1" viewBox="0 0 128 128">
  <defs>
    <style>
      .cls-1 {
        fill: #00ab28;
      }

      .cls-2 {
        font-family: AdobeMingStd-Light-B5pc-H, 'Adobe Ming Std';
        font-size: 12px;
        font-weight: 300;
      }

      .cls-3 {
        fill: none;
        stroke: #344154;
        stroke-linecap: round;
        stroke-linejoin: round;
        stroke-width: 3px;
      }
    </style>
  </defs>
  <!-- Generator: Adobe Illustrator 28.7.3, SVG Export Plug-In . SVG Version: 1.2.0 Build 164)  -->
  <g>
    <g id="_圖層_1" data-name="圖層_1">
      <g id="_圖層_2">
        <g id="Icon_Set">
          <g>
            <path class="cls-3" d="M31,64.1c-11.6,0-15,15.3-7.9,17.7,2.8.9,8.9-1.7,10.4,6.6,0,.7.2,20.4,9.8,12.3,4.9-4.2,10.2-21.5,10.2-23.8,0-9.4-15.3-12.7-22.5-12.8h0Z"/>
            <path class="cls-3" d="M38.6,34.4c2.8-.4,5.8.3,8.7.4,14.3.3,19.2-10.5,40.1-6.1,16.5,3.5,16.7,3.3,18.4,4.5,8.8,6-7.1,13.9-8.8,15.6-6.3,6.4-3.1,19.6-11.8,23.6-12.6,5.9-36-13.9-41.2-15.1-2.8-.7-5.8-.4-8.7-.8-9.5-1.4-10.7-20.1,3.2-21.9h0v-.2h.1Z"/>
            <path class="cls-3" d="M100.2,71.8c2.7-2.1,6.6-1.4,8.3,1.5h0c1.3,2.5,1.5,5.4,1.2,8.2-.3,2.8-1,5.5-2.1,8.1-3.9,8.7-11.5,13.1-19.6,7.7-2.1-1.3-3.8-3.1-5.5-4.9s-3.4-3.9-3.7-6.5c-.3-2.6,1.2-6.1,7.2-4.7,11.9,2.7,8.8-5.3,14.1-9.4h0Z"/>
            <rect class="cls-3" x="1.5" y="19" width="125" height="90"/>
            <line class="cls-3" x1="10.4" y1="27.6" x2="22.5" y2="27.6"/>
            <line class="cls-3" x1="10.4" y1="35.1" x2="22.5" y2="35.1"/>
            <path class="cls-1" d="M87.9,34.5c-3.6,3.8-6.2,8.4-7.3,13.6-.9,4-1.1,8.5-4.1,11.3-2.3,2.1-5.6,2.7-8.7,2.8h-3.2c5.3,2.8,11,5.3,15.4,5.3s2.2-.2,2.9-.6c2.1-.9,2.8-3.5,4-8.7,1-4.6,2.2-9.8,6.1-13.8.8-.8,1.6-1.3,3-2.3,3.1-2,5.1-3.6,6.2-4.7-1-.3-3.7-.9-7.9-1.7-1.8-.4-3.9-.9-6.5-1.3h0Z"/>
          </g>
        </g>
      </g>
      <text class="cls-2" transform="translate(52 157.6)"><tspan x="0" y="0">觀光</tspan></text>
    </g>
  </g>
</svg>