<?xml version="1.0" encoding="UTF-8"?>
<svg xmlns="http://www.w3.org/2000/svg" version="1.1" viewBox="0 0 128 128">
  <defs>
    <style>
      .cls-1 {
        fill: #c1d135;
      }

      .cls-2 {
        font-family: AdobeMingStd-Light-B5pc-H, 'Adobe Ming Std';
        font-size: 12px;
        font-weight: 300;
      }

      .cls-3 {
        fill: none;
        stroke: #344154;
        stroke-linecap: round;
        stroke-linejoin: round;
        stroke-width: 3px;
      }
    </style>
  </defs>
  <!-- Generator: Adobe Illustrator 28.7.3, SVG Export Plug-In . SVG Version: 1.2.0 Build 164)  -->
  <g>
    <g id="_圖層_1" data-name="圖層_1">
      <g id="_圖層_1-2" data-name="_圖層_1">
        <g id="_圖層_1-2">
          <g>
            <path class="cls-3" d="M100.3,41.2c4.1,0,8.1-2.2,10-6.1,2.1-4.4,2.7-11.8-.9-23.9-11.8,4.7-17.2,9.7-19.3,14.1-2.7,5.5-.2,12.1,5.3,14.8h0"/>
            <line class="cls-3" x1="95.3" y1="40.1" x2="86.1" y2="60.3"/>
            <g>
              <polyline class="cls-3" points="51.5 60 51.5 44.1 66.4 44.1 66.4 60"/>
              <polyline class="cls-3" points="66.4 44.1 59 27.7 51.5 44.1"/>
            </g>
            <polyline class="cls-3" points="28.2 60.3 28.2 1 49.9 1 49.9 34.2"/>
            <g>
              <line class="cls-3" x1="49.9" y1="24.5" x2="37.8" y2="24.5"/>
              <line class="cls-3" x1="49.9" y1="14.2" x2="41.7" y2="14.2"/>
            </g>
            <polyline class="cls-3" points="89.7 77.5 89.7 127 27.6 127 27.6 77.5"/>
            <path class="cls-3" d="M24.6,60.3h68c4.7,0,8.6,3.8,8.6,8.5h0c0,4.7-3.9,8.6-8.6,8.6H24.6c-4.7,0-8.6-3.8-8.6-8.6h0c0-4.7,3.9-8.5,8.6-8.5Z"/>
            <polyline class="cls-3" points="74.1 21.9 74.1 11.9 59 11.9 59 21.9 74.1 21.9 74.1 60"/>
            <path class="cls-3" d="M74.1,16.9h4.7c1.9,0,3.5,1.5,3.5,3.5v15.6"/>
            <polygon class="cls-1" points="84.1 98.9 58.1 121.4 84.1 121.4 84.1 98.9"/>
          </g>
        </g>
      </g>
      <text class="cls-2" transform="translate(52 157.6)"><tspan x="0" y="0">美術</tspan></text>
    </g>
  </g>
</svg>