<?xml version="1.0" encoding="UTF-8"?>
<svg xmlns="http://www.w3.org/2000/svg" version="1.1" viewBox="0 0 128 128">
  <defs>
    <style>
      .cls-1 {
        fill: #c1d135;
      }

      .cls-2 {
        font-family: AdobeMingStd-Light-B5pc-H, 'Adobe Ming Std';
        font-size: 12px;
        font-weight: 300;
      }

      .cls-3 {
        fill: none;
        stroke: #344154;
        stroke-linecap: round;
        stroke-linejoin: round;
        stroke-width: 3px;
      }
    </style>
  </defs>
  <!-- Generator: Adobe Illustrator 28.7.3, SVG Export Plug-In . SVG Version: 1.2.0 Build 164)  -->
  <g>
    <g id="_圖層_1" data-name="圖層_1">
      <g id="_圖層_1-2" data-name="_圖層_1">
        <g id="_圖層_2">
          <g id="Icon_Set">
            <g>
              <g>
                <path class="cls-3" d="M51.2,117.2c1.3,1.3,2.8,2.3,4.2,3.1,5.3,2.9,11.8,2.9,17.2,0,1.4-.8,2.9-1.8,4.2-3.1l49.7,3.9-18.5-44.8s-12.7-6.5-26.9-4.7"/>
                <path class="cls-3" d="M46.9,71.8c-3.9-.6-8.7-.7-13.5.4"/>
                <path class="cls-3" d="M51.2,117.2l-49.7,3.9,18.6-44.8s5.5-2.9,13.3-4.3"/>
                <path class="cls-3" d="M64,112.5c12-18.3,34.1-1.7,52.7,1.6"/>
                <path class="cls-3" d="M64,112.5c-12-18.3-34.1-1.7-52.7,1.6"/>
              </g>
              <path class="cls-3" d="M85.7,37.2c0-12.5-10.5-22.5-23.2-21.6-10.5.7-19.2,9.2-20,19.8-.5,6.6,1.9,12.7,6.1,17,2.4,2.4,3.8,5.6,3.8,9.1h23.2c0-3.4,1.2-6.6,3.7-8.9,3.9-3.9,6.4-9.4,6.4-15.3h0Z"/>
              <line class="cls-3" x1="52.3" y1="67" x2="75.7" y2="67"/>
              <path class="cls-3" d="M52.3,73.2h23.4v1.6c0,5.3-4.4,9.6-9.6,9.6h-4.1c-5.3,0-9.6-4.4-9.6-9.6v-1.6h-.1Z"/>
              <path class="cls-3" d="M59.2,84.6v1.7c0,2.7,2.1,4.8,4.8,4.8h0c2.7,0,4.8-2.1,4.8-4.8v-1.7"/>
              <line class="cls-3" x1="64" y1="10.5" x2="64" y2="5.6"/>
              <line class="cls-3" x1="54.9" y1="12.3" x2="53.2" y2="7.6"/>
              <line class="cls-3" x1="46.9" y1="17.1" x2="43.7" y2="13.3"/>
              <line class="cls-3" x1="41.1" y1="24.4" x2="36.8" y2="21.9"/>
              <line class="cls-3" x1="73.1" y1="12.3" x2="74.8" y2="7.6"/>
              <line class="cls-3" x1="81.2" y1="17.1" x2="84.4" y2="13.3"/>
              <line class="cls-3" x1="86.9" y1="24.4" x2="91.3" y2="21.9"/>
              <path class="cls-1" d="M64,20.9h-1.2c-4.4.3-8.3,2.4-11,5.5,2.8-.4,5.6-.4,8.4,0,5.6,1,10.9,4.3,14.3,8.8,2,2.8,3.5,6,4.1,9.4,1.2-2.3,1.9-4.8,1.9-7.5,0-9-7.3-16.3-16.3-16.3h-.2,0Z"/>
            </g>
          </g>
        </g>
      </g>
      <text class="cls-2" transform="translate(52 158)"><tspan x="0" y="0">教育</tspan></text>
    </g>
  </g>
</svg>