<?xml version="1.0" encoding="UTF-8"?>
<svg xmlns="http://www.w3.org/2000/svg" version="1.1" viewBox="0 0 128 128">
  <defs>
    <style>
      .cls-1 {
        fill: #00ab28;
      }

      .cls-2 {
        font-family: AdobeMingStd-Light-B5pc-H, 'Adobe Ming Std';
        font-size: 12px;
        font-weight: 300;
      }

      .cls-3 {
        fill: none;
        stroke: #344154;
        stroke-linecap: round;
        stroke-linejoin: round;
        stroke-width: 3px;
      }
    </style>
  </defs>
  <!-- Generator: Adobe Illustrator 28.7.3, SVG Export Plug-In . SVG Version: 1.2.0 Build 164)  -->
  <g>
    <g id="_圖層_1" data-name="圖層_1">
      <g id="_圖層_1-2" data-name="_圖層_1">
        <g id="_圖層_1-2">
          <g id="_圖層_1-2-2" data-name="_圖層_1-2">
            <g>
              <g>
                <path class="cls-3" d="M13,126.5v-20.3c0-2.9,2.4-5.3,5.3-5.3h30.2"/>
                <path class="cls-3" d="M48.4,100.9v-20.3c0-2.9,2.4-5.3,5.3-5.3h30.2"/>
                <path class="cls-3" d="M83.8,75.3v-20.3c0-2.9,2.4-5.3,5.3-5.3h30.2"/>
              </g>
              <path class="cls-3" d="M34.5,122h32.4c22.2,0,40.2-18,40.2-40.2h0v-12.2"/>
              <polyline class="cls-3" points="98.4 71.4 107.3 62.5 115.5 70.8"/>
              <path class="cls-1" d="M105,6.9l3.8,7.5c.8,1.7,2.4,2.8,4.2,3.1l8.3,1.2h0l-6.1,5.9c-1.3,1.3-1.9,3.1-1.6,5l1.4,8.3-7.4-4c-1.6-.9-3.6-.9-5.2,0l-7.4,4,1.4-8.3c.3-1.8-.3-3.7-1.6-5l-6.1-5.9h0l8.3-1.2c1.8-.3,3.4-1.4,4.2-3.1l3.8-7.5h0Z"/>
              <g>
                <path class="cls-3" d="M37.1,28.2l6,4.9c1.8,1.5,2.9,3.7,2.9,6.1v12.8c0,3.9-3.2,7-7,7h0"/>
                <path class="cls-3" d="M15.6,28.2l-6,4.9c-1.8,1.5-2.9,3.7-2.9,6.1v12.8c0,3.9,3.2,7,7,7h0"/>
                <path class="cls-3" d="M38.5,41.1v45.8c0,3.4-2.8,6.2-6.2,6.2h-1.9"/>
                <path class="cls-3" d="M14,41.1v45.8c0,3.4,2.8,6.2,6.2,6.2h0c3.4,0,6.2-2.8,6.2-6.2v-24.3"/>
                <circle class="cls-3" cx="26.3" cy="13.8" r="12.3"/>
              </g>
            </g>
          </g>
        </g>
      </g>
      <text class="cls-2" transform="translate(40 159.2)"><tspan x="0" y="0">經營管理</tspan></text>
    </g>
  </g>
</svg>