<?xml version="1.0" encoding="UTF-8"?>
<svg xmlns="http://www.w3.org/2000/svg" version="1.1" viewBox="0 0 128 128">
  <defs>
    <style>
      .cls-1 {
        fill: #00ab28;
      }

      .cls-2 {
        font-family: AdobeMingStd-Light-B5pc-H, 'Adobe Ming Std';
        font-size: 12px;
        font-weight: 300;
      }

      .cls-3 {
        fill: none;
        stroke: #344154;
        stroke-linecap: round;
        stroke-linejoin: round;
        stroke-width: 3px;
      }
    </style>
  </defs>
  <!-- Generator: Adobe Illustrator 28.7.3, SVG Export Plug-In . SVG Version: 1.2.0 Build 164)  -->
  <g>
    <g id="_圖層_1" data-name="圖層_1">
      <g id="_圖層_1-2" data-name="_圖層_1">
        <g id="_圖層_2">
          <g id="Icon_Set">
            <g>
              <path class="cls-3" d="M60.5,30.2c1.2-2.1,2.4-4.1,3.8-6.1,2.1-3.1,4.6-6.5,6.6-8.9l.8,1c13.7,15.2,32.9,24.2,53.4,25h1.4c-.5,3.1-1.6,7.2-2.6,10.8-2.6,9.3-6.8,18-12.8,25.5-20.3,25.5-46.4,23.2-46.4,23.2,0,0-1.4-1.4-3.2-4"/>
              <path class="cls-3" d="M82.2,49.9c-2.3,1.4-5.7,1.4-8.8,0"/>
              <path class="cls-3" d="M107.1,61.6c-2.3,1.4-5.7,1.4-8.8,0-3.2-1.5-5.3-4.2-5.7-6.8"/>
              <path class="cls-3" d="M87.7,79.5c-3.4,1.9-8.4,2-13,0-1.4-.7-2.7-1.5-3.8-2.4"/>
              <path class="cls-3" d="M65,33.2l1.2-.5c.8,3,1.6,7.1,2.2,10.8,1.6,9.5,1.4,19.2-.8,28.6-7.5,31.7-32.1,40.7-32.1,40.7,0,0-24.6-9-32.1-40.7-2.2-9.4-2.4-19.1-.8-28.6.6-3.7,1.4-7.9,2.2-10.8l1.2.5c18.8,7.9,40.1,7.9,59,0h.2s-.2,0-.2,0Z"/>
              <path class="cls-3" d="M29.9,59.2c-1.5,2.2-4.6,3.6-8,3.6s-6.6-1.5-8.1-3.8"/>
              <path class="cls-3" d="M57.3,59.2c-1.5,2.2-4.6,3.6-8,3.6s-6.6-1.5-8-3.8"/>
              <path class="cls-3" d="M23.7,88.9c2.3-3.2,6.7-5.4,11.8-5.4s9.7,2.3,11.9,5.6"/>
              <path class="cls-1" d="M62.6,39.5c-8.7,3.1-17.7,4.6-27,4.6s-18.3-1.6-27-4.6c-.3,1.4-.6,3-.8,4.7-.2.9-.3,1.9-.4,2.8,7.6,3.4,17.5,5.4,28.3,5.4s20.7-2,28.3-5.4c0-.9-.3-1.9-.4-2.8-.3-1.7-.6-3.3-.8-4.7,0,0-.2,0-.2,0Z"/>
            </g>
          </g>
        </g>
      </g>
      <text class="cls-2" transform="translate(52 157.6)"><tspan x="0" y="0">表演</tspan></text>
    </g>
  </g>
</svg>