<?xml version="1.0" encoding="UTF-8"?>
<svg xmlns="http://www.w3.org/2000/svg" version="1.1" viewBox="0 0 128 128">
  <defs>
    <style>
      .cls-1 {
        fill: #c1d135;
      }

      .cls-2 {
        fill: #00ab28;
      }

      .cls-3 {
        font-family: AdobeMingStd-Light-B5pc-H, 'Adobe Ming Std';
        font-size: 12px;
        font-weight: 300;
      }

      .cls-4 {
        fill: none;
        stroke: #344154;
        stroke-linecap: round;
        stroke-linejoin: round;
        stroke-width: 3px;
      }
    </style>
  </defs>
  <!-- Generator: Adobe Illustrator 28.7.3, SVG Export Plug-In . SVG Version: 1.2.0 Build 164)  -->
  <g>
    <g id="_圖層_1" data-name="圖層_1">
      <g id="_圖層_1-2" data-name="_圖層_1">
        <g id="_圖層_1-2">
          <g id="_圖層_2">
            <g id="Icon_Set">
              <g>
                <g>
                  <path class="cls-4" d="M9,44.4l4.1-.8c2.3-.4,4.4,1,4.8,3.3,1,5.3,3.1,17.9,4,22.7l3,3.9"/>
                  <path class="cls-4" d="M17.8,45.7l2.2-.4c2.3-.4,4.4,1,4.8,3.3,1.1,6.6,2,12.8,3.1,18.1l3,4.2"/>
                  <path class="cls-4" d="M25.8,50.6l1.8-.4c2.3-.4,4.4,1,4.8,3.3,1.1,6.6,3,16,3,16"/>
                  <path class="cls-4" d="M43.1,89.2c-5.6-5.1-14.4-6.6-21.5-3.4-.6.3-1.3.5-1.9.7-4.8,1-5.7-3.1-7.1-6.1-1.2-2.7-3.9-4.8-6.9-6.3-2.4-1.1-4.8,1.1-4.1,3.5,1.5,4.5,3.3,8.9,5.5,13.1,1.2,2.4,2.5,4.7,4.5,6.4,3.8,3.4,9.2,4.1,14.3,5.2,5,1.1,10.5,3.1,12.6,7.7v15.1"/>
                  <path class="cls-4" d="M34.1,73.8c6.3,1.5,14.1,2.5,19.2,10.5,2.5,3.9,4.2,8.8,4.7,13.6v28"/>
                  <path class="cls-4" d="M6,73.9l-3.4-26.2c-.3-2,1.1-3.9,3.2-4.2h0c2-.4,3.9,1,4.2,2.9l4.1,25.7,3.7,4.3"/>
                </g>
                <g>
                  <path class="cls-4" d="M119,44.4l-4.1-.8c-2.3-.4-4.4,1-4.8,3.3-1,5.3-3.1,17.9-4,22.7l-3,3.9"/>
                  <path class="cls-4" d="M110.2,45.7l-2.2-.4c-2.3-.4-4.4,1-4.8,3.3-1.1,6.6-2,12.8-3.1,18.1l-3,4.2"/>
                  <path class="cls-4" d="M102.2,50.6l-1.7-.4c-2.3-.4-4.4,1-4.8,3.3-1.1,6.6-3,16-3,16"/>
                  <path class="cls-4" d="M85,89.2c5.6-5.1,14.4-6.6,21.4-3.4.6.3,1.3.5,1.9.7,4.8,1,5.7-3.1,7.1-6.1,1.2-2.7,3.9-4.8,6.9-6.3,2.3-1.1,4.8,1.1,4.1,3.5-1.5,4.5-3.3,8.9-5.5,13.1-1.2,2.4-2.5,4.7-4.5,6.4-3.8,3.4-9.2,4.1-14.3,5.2-5,1.1-10.5,3.1-12.6,7.7v15.1"/>
                  <path class="cls-4" d="M93.9,73.8c-6.3,1.5-14.1,2.5-19.2,10.5-2.5,3.9-4.2,8.8-4.7,13.6v28"/>
                  <path class="cls-4" d="M122,73.9l3.4-26.2c.3-2-1.1-3.9-3.2-4.2h0c-2-.4-3.9,1-4.2,2.9l-4.1,25.7-3.7,4.3"/>
                </g>
                <circle class="cls-4" cx="64" cy="32.4" r="30.3"/>
                <path class="cls-1" d="M55.3,33.2c-1.2-6.9-5-12.9-10.7-16.6-3.5,4.3-5.6,9.8-5.6,15.8,0,8.7,4.5,16.5,11.4,21,4.3-5.6,6.2-13.1,4.9-20.2Z"/>
                <path class="cls-2" d="M75.9,29.1c1.6,6.2,5,11.7,9.8,15.9,2.1-3.7,3.3-7.9,3.3-12.5,0-9.2-4.9-17.2-12.3-21.6-2.1,5.7-2.4,12.1-.8,18.1h0Z"/>
              </g>
            </g>
          </g>
        </g>
      </g>
      <text class="cls-3" transform="translate(40 157.6)"><tspan x="0" y="0">環境科學</tspan></text>
    </g>
  </g>
</svg>