<?xml version="1.0" encoding="UTF-8"?>
<svg xmlns="http://www.w3.org/2000/svg" version="1.1" viewBox="0 0 128 128">
  <defs>
    <style>
      .cls-1 {
        fill: #c1d135;
      }

      .cls-2 {
        stroke-miterlimit: 10;
      }

      .cls-2, .cls-3, .cls-4 {
        fill: none;
        stroke: #344154;
        stroke-linecap: round;
        stroke-width: 3px;
      }

      .cls-5 {
        font-family: AdobeMingStd-Light-B5pc-H, 'Adobe Ming Std';
        font-size: 12px;
        font-weight: 300;
      }

      .cls-4 {
        stroke-linejoin: round;
      }
    </style>
  </defs>
  <!-- Generator: Adobe Illustrator 28.7.3, SVG Export Plug-In . SVG Version: 1.2.0 Build 164)  -->
  <g>
    <g id="_圖層_1" data-name="圖層_1">
      <g id="_圖層_1-2" data-name="_圖層_1">
        <g id="_圖層_1-2">
          <g>
            <path class="cls-2" d="M58.9,95.1l-2.2-7.6c-2-6.9-6.8-12.6-13.3-15.6l-5.4-2.5c-3.2-1.5-5.5-4.2-6.5-7.6l-2.6-9.2.2-1.5c.4-3.1-1-6.1-3.7-7.7h-.1"/>
            <path class="cls-2" d="M32.4,79.8h-1.1c-6.2.5-12.2-2.3-16-7.2-7.8-10.1-13.8-3.8-13.8-3.8,0,0,6.5,7.8,10.9,15.4,3.1,5.5,8.3,9.6,14.4,11.2.4,0,.8.2,1.2.3,4,.8,7.4,3.4,9.2,7"/>
            <path class="cls-2" d="M7.3,67.2l-2.7-12.2,7.8-24.1s4.5,1.1,3.3,8l-3.6,15.7,2.4,9.9"/>
            <path class="cls-2" d="M15.3,33.3l2.1-6.5s5.8,2.1,3.9,9.9l-3.3,17,2.6,9.2"/>
            <path class="cls-2" d="M21.6,33.3l.3.2c2.7,2,4.1,5.4,3.5,8.8l-1.9,10.1,2.7,9.4"/>
          </g>
          <polyline class="cls-4" points="34.2 107.8 32.9 104.4 58.9 95 58.9 99.1"/>
          <polyline class="cls-3" points="58.9 99.1 58.9 101.3 35 109.7 34.1 107.4"/>
          <line class="cls-2" x1="35" y1="109.7" x2="58.9" y2="101.3"/>
          <line class="cls-2" x1="35" y1="109.7" x2="58.9" y2="101.3"/>
          <g>
            <path class="cls-2" d="M69.1,95.1l2.2-7.6c2-6.9,6.8-12.6,13.3-15.6l5.4-2.5c3.2-1.5,5.5-4.2,6.5-7.6l2.6-9.2-.2-1.5c-.4-3.1,1-6.1,3.7-7.7h0"/>
            <path class="cls-2" d="M95.6,79.8h1.1c6.2.5,12.2-2.3,16-7.2,7.8-10.1,13.8-3.8,13.8-3.8,0,0-6.5,7.8-10.9,15.4-3.1,5.5-8.3,9.6-14.4,11.2-.4,0-.8.2-1.2.3-4,.8-7.4,3.4-9.2,7"/>
            <path class="cls-2" d="M120.7,67.2l2.7-12.2-7.8-24.1s-4.5,1.1-3.3,8l3.6,15.7-2.4,9.9"/>
            <path class="cls-2" d="M112.7,33.3l-2.1-6.5s-5.8,2.1-3.9,9.9l3.3,17-2.6,9.2"/>
            <path class="cls-2" d="M106.4,33.3l-.3.2c-2.7,2-4.1,5.4-3.5,8.8l1.9,10.1-2.7,9.4"/>
          </g>
          <g>
            <path class="cls-2" d="M87.1,57.9l-1.8-9c-.4-2-1.5-3.8-3-5.1-1-.8-2-1.4-3-1.6l-7.7-2.2c-.2,0-.3,0-.5-.2-.4-.3-.7-.7-.7-1.2l-.4-3c2.2-1.7,3.8-4.2,4.5-7.1,1.4-.1,2.4-1.7,2.4-3.6s-.9-3.2-2.1-3.5"/>
            <path class="cls-2" d="M53.1,21.4c-1.2.3-2.1,1.8-2.1,3.5s1,3.5,2.4,3.6c.8,2.9,2.4,5.4,4.5,7.1l-.4,3c0,.5-.3.9-.7,1.2,0,0-.3.2-.5.2l-7.7,2.2c-1,.2-2,.8-3,1.6-1.6,1.3-2.7,3.1-3,5.1l-1.8,9"/>
            <path class="cls-2" d="M74.8,21.3s.6-12.8-10.8-12.8-10.9,12.8-10.9,12.8"/>
            <path class="cls-2" d="M53.9,15.9c.4-.9,1.3-1.6,2.3-2,1.6-.6,3.3-.1,4.8.6,2.2,1,4.1,2.2,6.5,2.4,2.3.3,4.4,0,6.5-1.1"/>
            <line class="cls-2" x1="56.9" y1="39.8" x2="64" y2="47.2"/>
            <line class="cls-2" x1="71.1" y1="39.8" x2="64" y2="47.2"/>
            <line class="cls-2" x1="64" y1="47.2" x2="64" y2="52"/>
          </g>
          <polygon class="cls-1" points="34.1 111.6 60.5 102.3 60.5 111.9 36.9 119.5 34.1 111.6"/>
          <g>
            <polyline class="cls-4" points="69.1 99.1 69.1 95 95.1 104.4 93.8 107.8"/>
            <line class="cls-2" x1="69.1" y1="101.3" x2="93" y2="109.7"/>
            <polygon class="cls-1" points="93.9 111.6 67.5 102.3 67.5 111.9 91.1 119.5 93.9 111.6"/>
          </g>
        </g>
      </g>
      <text class="cls-5" transform="translate(38.1 157.6)"><tspan x="0" y="0">助人/照護</tspan></text>
    </g>
  </g>
</svg>