<?xml version="1.0" encoding="UTF-8"?>
<svg xmlns="http://www.w3.org/2000/svg" version="1.1" viewBox="0 0 128 128">
  <defs>
    <style>
      .cls-1 {
        fill: #c1d135;
      }

      .cls-2 {
        stroke-miterlimit: 10;
      }

      .cls-2, .cls-3 {
        fill: none;
        stroke: #344154;
        stroke-linecap: round;
        stroke-width: 3px;
      }

      .cls-4 {
        fill: #00ab28;
      }

      .cls-5 {
        font-family: AdobeMingStd-Light-B5pc-H, 'Adobe Ming Std';
        font-size: 12px;
        font-weight: 300;
      }

      .cls-3 {
        stroke-linejoin: round;
      }
    </style>
  </defs>
  <!-- Generator: Adobe Illustrator 28.7.3, SVG Export Plug-In . SVG Version: 1.2.0 Build 164)  -->
  <g>
    <g id="_圖層_1" data-name="圖層_1">
      <g id="_圖層_1-2" data-name="_圖層_1">
        <g id="_圖層_1-2">
          <path class="cls-2" d="M88.9,126.4v-25s0-9.2,5.9-17c2.4-3.1,4.4-6.4,5.6-10.2,3.6-11.1,5.7-32.8-18.1-45.5,0,0-26.9-13.9-47.4,5-3.8,3.5-6.6,7.9-8,12.9-1,3.8-1.7,8.7-1,14.7,0,.7.2,1.4.3,2.1.3,1.6.7,6.1-2.1,10.4l-5.5,7.9s-1.6,3.5,2.5,4.3c0,0,1.3,0,2.2.5.6.3.8,1.1.4,1.6-.6.7-1.2,1.9.6,2.8.5.3.7.9.4,1.4-.6,1-.9,2.4,1.5,3.1.5.2.8.6.7,1.2-.6,2.9-1.6,11.3,6.2,11.2l6.4-.6c4.5-.4,8.6,2.6,9.4,7,.5,2.9.9,6.9.9,12.5"/>
          <g>
            <path class="cls-3" d="M85.7,57.9c1.5-1.4,2.2-3.5,1.6-5.6-.7-2.1-2.5-3.5-4.6-3.6.9-1.9.6-4.1-.9-5.7-1.5-1.6-3.7-2.1-5.6-1.5,0-2.1-1.1-4-3.1-4.9s-4.2-.4-5.7,1c-.8-1.9-2.7-3.2-4.9-3.2s-4.1,1.3-4.9,3.2c-1.5-1.4-3.8-1.8-5.7-1-2,.9-3.2,2.9-3.1,4.9-1.9-.7-4.2-.2-5.6,1.5-1.5,1.6-1.7,3.9-.9,5.7-2,.2-3.9,1.6-4.6,3.6-.7,2.1,0,4.3,1.6,5.6-1.8,1-2.9,3-2.7,5.2s1.7,3.9,3.7,4.5c-1.2,1.6-1.4,3.9-.3,5.7,1.1,1.9,3.2,2.9,5.2,2.6-.5,2,.3,4.2,2.1,5.5s4.1,1.3,5.7.3c.4,2,2,3.7,4.1,4.2s4.2-.5,5.4-2.1c1.2,1.7,3.3,2.6,5.4,2.1s3.7-2.1,4.1-4.2c1.8,1.1,4.1,1,5.7-.3,1.8-1.3,2.5-3.5,2.1-5.5,2,.2,4.1-.7,5.2-2.6s.9-4.2-.3-5.7c2-.6,3.5-2.3,3.7-4.5.2-2.2-.9-4.2-2.7-5.2Z"/>
            <path class="cls-3" d="M48,66.4c2.7,0,4.9-2.2,4.9-4.9s-.2-1.5-.5-2.1c1,.2,2,.2,3.1-.3,1.6-.7,2.9-2.1,3.2-3.8.2-1,0-2-.2-2.9h1c4.8-.4,6.1-6.7,2.1-9.4-1.9-1.2-3.6-3-3.8-5.5"/>
            <path class="cls-3" d="M58.7,52.6s-4.6-1.6-6.2-6.4"/>
            <path class="cls-3" d="M76.3,41.5s-3.1,10.2-12.5,7.1"/>
            <path class="cls-3" d="M85.7,57.9s-5.8-.4-7.3,5.9c0,0-6-3.3-11.6,0-1.2.7-2.2,1.7-3,2.9-1.5,2.1-3.5,6-1.8,10.5"/>
            <path class="cls-3" d="M82.8,48.5s-12.1,2.2-11.8,14.1"/>
            <path class="cls-3" d="M45.4,75.9s6.4-7.9,16.4-4.6"/>
            <path class="cls-3" d="M72,81.6s-3-2-3-5.8,3.8-5.7,6.7-4h0"/>
            <path class="cls-3" d="M57.6,57.6s6.7.6,7.3,7.9"/>
            <path class="cls-3" d="M52.4,59.4s-3-1.4-5-3.9"/>
          </g>
          <line class="cls-2" x1="63.9" y1="12.9" x2="63.9" y2="1.5"/>
          <line class="cls-2" x1="48.3" y1="15.7" x2="44.1" y2="4.2"/>
          <line class="cls-2" x1="33.7" y1="22.7" x2="26" y2="13.6"/>
          <line class="cls-2" x1="24.3" y1="32.4" x2="13.5" y2="26.2"/>
          <line class="cls-2" x1="105.2" y1="34.8" x2="114.5" y2="29.5"/>
          <line class="cls-2" x1="95.1" y1="23.7" x2="102.6" y2="14.9"/>
          <line class="cls-2" x1="79.6" y1="16.6" x2="83.7" y2="5.1"/>
          <path class="cls-1" d="M55.3,62s3.1-.4,3.5-1.8c0,0,3.9,1.8,3.7,4.8,0,0-1.5,1.2-2.2,3.4,0,0-2.6-1.4-8.9.3,0,0,4.8-2.8,4.1-6.6h-.2Z"/>
          <path class="cls-4" d="M60.9,56.2c4.6,1.8,5.3,5.4,5.3,5.4,1.1-1,2.9-1.1,2.9-1.1-1.3-3.4,4-10,4-10-3.1,2.2-7.6,1-7.6,1,0,0-2,3.3-4.2,3.1,0,0,0,1-.3,1.6h-.1Z"/>
        </g>
      </g>
      <text class="cls-5" transform="translate(52 157.7)"><tspan x="0" y="0">心理</tspan></text>
    </g>
  </g>
</svg>