<?xml version="1.0" encoding="UTF-8"?>
<svg xmlns="http://www.w3.org/2000/svg" version="1.1" viewBox="0 0 128 128">
  <defs>
    <style>
      .cls-1 {
        fill: #c1d135;
      }

      .cls-2 {
        stroke-linecap: round;
      }

      .cls-2, .cls-3 {
        fill: none;
        stroke: #344154;
        stroke-miterlimit: 10;
        stroke-width: 3px;
      }

      .cls-4 {
        fill: #00ab28;
      }

      .cls-5 {
        font-family: AdobeMingStd-Light-B5pc-H, 'Adobe Ming Std';
        font-size: 12px;
        font-weight: 300;
      }
    </style>
  </defs>
  <!-- Generator: Adobe Illustrator 28.7.3, SVG Export Plug-In . SVG Version: 1.2.0 Build 164)  -->
  <g>
    <g id="_圖層_1" data-name="圖層_1">
      <g id="_圖層_1-2" data-name="_圖層_1">
        <g id="_圖層_1-2">
          <g id="_圖層_1-2-2" data-name="_圖層_1-2">
            <g>
              <path class="cls-2" d="M69.4,87.3h6c5.9,0,11.4-1.7,16.3-5.1l4.5-3c.7-.5,1-1.5.5-2.2-.7-1.1-1.6-1.8-2.5-2.4-2.2-1.3-4.9-1.1-7.1,0-8.2,4-15.6.6-15.6.6-2.7-1.7-5.3-3-7.6-3.9-10.1-4.2-21.7-2.6-30.6,3.7h0"/>
              <path class="cls-3" d="M33.3,96.3s13.8-2.7,37.8-1.3c6.3.4,12.7-1.1,18.2-4l36.4-19.2c.8-.4,1-1.4.5-2.2-1.3-1.7-4.4-4-10.2-2.4-.7.2-1.3.4-2,.7l-18.3,7.8"/>
              <polyline class="cls-3" points="19.3 105.3 32.9 105.3 32.9 70.3 19.3 70.3"/>
              <rect class="cls-4" y="60.2" width="19.3" height="54.2"/>
              <g>
                <path class="cls-1" d="M75.8,45.8v-2h-.2c-.9,0-1.7-.2-2.5-.7v-1.9c.3.2.8.4,1.3.5.7.2,1.4.3,2,.3.9,0,1.6-.3,2.1-.8s.8-1.2.8-2,0-.9-.3-1.4c-.2-.4-.5-.8-.8-1-.3-.3-1-.6-1.9-1.1l-1.2-.5c-1.3-.6-2.2-1.3-2.8-2.2-.6-.8-.9-2-.9-3.3s.4-2.1,1.2-2.9c.8-.9,1.7-1.3,3-1.5h0v-2.1h2.1v2h.2c.6,0,1,.2,1.5.3.4,0,.8.2,1.1.4v1.9c-.6-.2-.9-.3-1.6-.5-.8-.2-1.4-.2-2-.2-1,0-1.9.3-2.5.8-.6.6-.9,1.3-.9,2.2s0,1,.3,1.4c.2.4.4.8.8,1,.3.3,1,.6,2.1,1.1l1.5.7c1.2.6,2.1,1.2,2.6,2s.7,1.7.7,2.8-.4,2.1-1.1,2.9c-.7.8-1.4,1.2-2.4,1.5h0v2.1h-2s-.2.2-.2.2Z"/>
                <rect class="cls-3" x="40.3" y="13.6" width="72.5" height="41.5"/>
                <path class="cls-3" d="M101.8,35.4c0-.4-.3-.8-.8-.8s-.8.3-.8.8.3.8.8.8.8-.3.8-.8Z"/>
                <path class="cls-3" d="M52.6,35.4c0-.4-.3-.8-.8-.8s-.8.3-.8.8.3.8.8.8.8-.3.8-.8Z"/>
                <circle class="cls-3" cx="76.5" cy="34.5" r="16.4"/>
              </g>
            </g>
          </g>
        </g>
      </g>
      <text class="cls-5" transform="translate(52 157.6)"><tspan x="0" y="0">經濟</tspan></text>
    </g>
  </g>
</svg>