<?xml version="1.0" encoding="UTF-8"?>
<svg xmlns="http://www.w3.org/2000/svg" version="1.1" viewBox="0 0 128 128">
  <defs>
    <style>
      .cls-1 {
        fill: #00ab28;
      }

      .cls-2 {
        font-family: AdobeMingStd-Light-B5pc-H, 'Adobe Ming Std';
        font-size: 12px;
        font-weight: 300;
      }

      .cls-3 {
        fill: none;
        stroke: #344154;
        stroke-linecap: round;
        stroke-linejoin: round;
        stroke-width: 3px;
      }
    </style>
  </defs>
  <!-- Generator: Adobe Illustrator 28.7.3, SVG Export Plug-In . SVG Version: 1.2.0 Build 164)  -->
  <g>
    <g id="_圖層_1" data-name="圖層_1">
      <g id="_圖層_1-2" data-name="_圖層_1">
        <g id="_圖層_1-2">
          <g id="_圖層_1-2-2" data-name="_圖層_1-2">
            <g>
              <path class="cls-3" d="M99.2,117.7l8.2-27.8c.9-3.1-1.4-6.1-4.6-6.1H26.4c-3.2,0-5.5,3.1-4.6,6.1l8.2,27.8h34.7"/>
              <path class="cls-3" d="M21.4,111.8l-4.4,8.2c-1.3,2.4.5,5.4,3.2,5.4h89c2.8,0,4.5-2.9,3.2-5.4l-4.4-8.2"/>
              <g>
                <path class="cls-3" d="M102.2,20c0,8.1-5.4,14.7-12,14.7s-12-6.5-12-14.7,5.4-14.7,12-14.7,12,6.5,12,14.7Z"/>
                <path class="cls-3" d="M104.5,75.9v-21l13.8,12.3c1.9,1.7,4.9,1.7,6.7-.2h0c2.1-2,2-5.4-.2-7.2l-16.3-14-5.6-5"/>
                <path class="cls-3" d="M79.1,40.8l-15.6-12.5c-2-1.6-5.1-1.6-6.8.4-1.9,2.1-1.6,5.3.6,6.9l14.4,11.6c2.5,2,4,5.1,4,8.2v20.4"/>
              </g>
              <polyline class="cls-3" points="67.3 55.9 1.5 55.9 1.5 2.6 76.2 2.6"/>
              <polyline class="cls-3" points="10.4 46.3 28.1 28.7 36.1 36.7 58 14.9"/>
              <line class="cls-3" x1="54" y1="55.9" x2="54" y2="68.1"/>
              <path class="cls-3" d="M60,68.1c0,3.3-2.7,6-6,6s-6-2.7-6-6"/>
              <polygon class="cls-1" points="64.7 89.7 27.9 89.7 29.9 96.4 99.5 96.4 101.5 89.7 64.7 89.7"/>
            </g>
          </g>
        </g>
      </g>
      <text class="cls-2" transform="translate(40 157.6)"><tspan x="0" y="0">貿易行銷</tspan></text>
    </g>
  </g>
</svg>