<?xml version="1.0" encoding="UTF-8"?>
<svg xmlns="http://www.w3.org/2000/svg" version="1.1" viewBox="0 0 128 128">
  <defs>
    <style>
      .cls-1 {
        fill: #c1d135;
      }

      .cls-2 {
        fill: #00ab28;
      }

      .cls-3 {
        font-family: AdobeMingStd-Light-B5pc-H, 'Adobe Ming Std';
        font-size: 12px;
        font-weight: 300;
      }

      .cls-4 {
        fill: none;
        stroke: #344154;
        stroke-linecap: round;
        stroke-linejoin: round;
        stroke-width: 3px;
      }
    </style>
  </defs>
  <!-- Generator: Adobe Illustrator 28.7.3, SVG Export Plug-In . SVG Version: 1.2.0 Build 164)  -->
  <g>
    <g id="_圖層_1" data-name="圖層_1">
      <g id="_圖層_1-2" data-name="_圖層_1">
        <g id="_圖層_1-2">
          <g>
            <path class="cls-4" d="M35.9,95.2c-22.7,14.8-22.2,26.7-22.2,29.6"/>
            <path class="cls-4" d="M13.6,3.1c0,2.9-.6,14.8,22.2,29.6"/>
            <path class="cls-4" d="M58.6,124.9c0-2.9.6-14.8-22.2-29.6-23.2-15.2-22.7-29-22.7-31.2s-.6-16.1,22.7-31.2c5-3.3,8.8-6.4,11.9-9.2,10.3-9.9,27.6-4.1,29.8,10v.7l4.3,30.5c.4,3.1,1.6,6,3.3,8.4.9,1.3.9,3.1,0,4.4-1.7,2.5-2.9,5.4-3.3,8.4l-4.3,30.3c-.5,3.7,1.8,7.2,5.4,7.9,3.9.8,7.6-1.9,8.1-5.8l4.3-30.3c.4-2.6,2.2-4.8,4.7-5.4,3.8-.9,7.2,1.6,7.7,5.2l4.2,29.5c.5,3.8,4.1,6.9,7.9,6.9h0c3.8,0,6.6-3.1,6-6.9l-4.5-31.4c-.4-3.1-1.6-6-3.3-8.4-.9-1.3-.9-3.1,0-4.4,1.7-2.5,2.9-5.4,3.3-8.4l4.3-30.3c.5-3.7-1.8-7.2-5.4-7.9-3.9-.8-7.6,1.9-8.1,5.8l-4.3,30.3c-.4,2.6-2.2,4.8-4.7,5.4-3.8.9-7.2-1.6-7.7-5.2l-4.3-30.2"/>
            <path class="cls-4" d="M35.9,32.8c23.2,15.2,22.7,29,22.7,31.2s.6,16.1-22.7,31.2"/>
            <line class="cls-4" x1="13.6" y1="3.1" x2="36.2" y2="3.1"/>
            <line class="cls-4" x1="21.2" y1="10.3" x2="36.2" y2="10.3"/>
            <line class="cls-4" x1="26.4" y1="17.4" x2="36.2" y2="17.4"/>
            <g>
              <line class="cls-4" x1="58.3" y1="124.9" x2="35.9" y2="124.9"/>
              <line class="cls-4" x1="50.9" y1="117.7" x2="35.9" y2="117.7"/>
              <line class="cls-4" x1="45.5" y1="110.6" x2="35.9" y2="110.6"/>
            </g>
            <line class="cls-4" x1="13.6" y1="64" x2="29.8" y2="64"/>
            <line class="cls-4" x1="15.3" y1="55.5" x2="25.1" y2="55.5"/>
            <line class="cls-4" x1="15.3" y1="72.2" x2="25.1" y2="72.2"/>
            <path class="cls-2" d="M7.2,63.9v.3c0,10.6,6.6,21.5,18.6,31.2-1.6,1.2-3.1,2.5-4.5,3.7C8.5,88.4,1.4,76.3,1.5,64.1v-.2c0-12.1,7-24.3,19.8-34.9,1.4,1.2,2.9,2.5,4.5,3.7-12.1,9.6-18.7,20.6-18.6,31.2Z"/>
            <path class="cls-1" d="M64.9,124.7h5.7c0-12.3-7-24.4-19.8-35.1-1.4,1.2-2.9,2.5-4.5,3.7,12.1,9.6,18.7,20.6,18.6,31.2h0v.2Z"/>
          </g>
        </g>
      </g>
      <text class="cls-3" transform="translate(40 157.6)"><tspan x="0" y="0">生命科學</tspan></text>
    </g>
  </g>
</svg>