<?xml version="1.0" encoding="UTF-8"?>
<svg xmlns="http://www.w3.org/2000/svg" version="1.1" viewBox="0 0 128 128">
  <defs>
    <style>
      .cls-1 {
        fill: #00ab28;
      }

      .cls-2 {
        font-family: AdobeMingStd-Light-B5pc-H, 'Adobe Ming Std';
        font-size: 12px;
        font-weight: 300;
      }

      .cls-3 {
        fill: none;
        stroke: #344154;
        stroke-linecap: round;
        stroke-linejoin: round;
        stroke-width: 3px;
      }
    </style>
  </defs>
  <!-- Generator: Adobe Illustrator 28.7.3, SVG Export Plug-In . SVG Version: 1.2.0 Build 164)  -->
  <g>
    <g id="_圖層_1" data-name="圖層_1">
      <g id="_圖層_1-2" data-name="_圖層_1">
        <g id="_圖層_1-2">
          <g id="_圖層_1-2-2" data-name="_圖層_1-2">
            <g>
              <g>
                <path class="cls-3" d="M60.5,125.7H8.4c-3,0-4.9-3.2-3.4-5.8l9.5-17.2h62.6"/>
                <g>
                  <line class="cls-3" x1="19.2" y1="114.2" x2="19.2" y2="114.2"/>
                  <line class="cls-3" x1="28.9" y1="114.2" x2="62.9" y2="114.2"/>
                  <line class="cls-3" x1="67.7" y1="114.2" x2="67.7" y2="114.2"/>
                </g>
              </g>
              <g>
                <path class="cls-3" d="M77.1,82.8H13.8c-4.5,0-8.1-3.7-8.1-8.1V9.6c0-4.4,3.6-8.1,8.1-8.1h93.2c4.5,0,8.1,3.7,8.1,8.1v55"/>
                <polyline class="cls-3" points="32.5 82.8 27.5 95.3 77.3 95.3"/>
                <g>
                  <rect class="cls-3" x="82.9" y="70.4" width="40.6" height="56.1"/>
                  <rect class="cls-1" x="88.6" y="76.1" width="29.2" height="9.9"/>
                  <g>
                    <line class="cls-3" x1="94" y1="100.4" x2="96.9" y2="100.4"/>
                    <line class="cls-3" x1="101.7" y1="100.4" x2="104.6" y2="100.4"/>
                    <line class="cls-3" x1="109.4" y1="100.4" x2="112.3" y2="100.4"/>
                    <line class="cls-3" x1="94" y1="107.2" x2="96.9" y2="107.2"/>
                    <line class="cls-3" x1="101.7" y1="107.2" x2="104.6" y2="107.2"/>
                    <line class="cls-3" x1="109.4" y1="107.2" x2="112.3" y2="107.2"/>
                    <line class="cls-3" x1="94" y1="114" x2="96.9" y2="114"/>
                    <line class="cls-3" x1="101.7" y1="114" x2="104.6" y2="114"/>
                    <line class="cls-3" x1="109.4" y1="114" x2="112.3" y2="114"/>
                  </g>
                </g>
                <g>
                  <g>
                    <polyline class="cls-3" points="30.8 70.3 30.8 38.2 40.8 38.2 40.8 70.3"/>
                    <line class="cls-3" x1="40.8" y1="51.2" x2="50.8" y2="51.2"/>
                    <polyline class="cls-3" points="50.8 70.3 50.8 21.6 60.7 21.6 60.7 70.3"/>
                  </g>
                  <polyline class="cls-3" points="17.5 18.3 17.5 70.4 75.2 70.4"/>
                </g>
                <circle class="cls-3" cx="89.2" cy="33.1" r="14"/>
                <polyline class="cls-3" points="89.2 19.2 89.2 33.1 103.1 33.1"/>
              </g>
            </g>
          </g>
        </g>
      </g>
      <text class="cls-2" transform="translate(40 157.6)"><tspan x="0" y="0">商業行政</tspan></text>
    </g>
  </g>
</svg>