<?xml version="1.0" encoding="UTF-8"?>
<svg xmlns="http://www.w3.org/2000/svg" version="1.1" viewBox="0 0 128 128">
  <defs>
    <style>
      .cls-1 {
        fill: #c1d135;
      }

      .cls-2 {
        fill: none;
        stroke: #344154;
        stroke-linecap: round;
        stroke-linejoin: round;
        stroke-width: 3px;
      }
    </style>
  </defs>
  <!-- Generator: Adobe Illustrator 28.7.3, SVG Export Plug-In . SVG Version: 1.2.0 Build 164)  -->
  <g>
    <g id="_圖層_1" data-name="圖層_1">
      <g id="_圖層_1-2" data-name="_圖層_1">
        <g>
          <path class="cls-2" d="M19.1,118.5c0-6.4-8-14.5-8-14.5,0,0-8,8.1-8,14.5s3.6,8,8,8h0c4.4,0,8-3.6,8-8Z"/>
          <path class="cls-2" d="M81,60.5l37-27.8c7.6-5.8,9.2-16.7,3.5-24.3h0c-5.8-7.6-16.7-9.2-24.3-3.5l-39.1,29.4-1.5-2.1c-1.6-2.1-4.6-2.5-6.6-.9l-1.3,1c-2.1,1.6-2.5,4.6-.9,6.6l23.9,31.8c1.6,2.1,4.6,2.5,6.6.9l1.3-1c2.1-1.6,2.5-4.6.9-6.6h0c-.9-1.1-.6-2.8.5-3.6Z"/>
          <path class="cls-2" d="M52.1,44.8l-35.9,27c-2.1,1.6-3.1,4.3-2.5,6.8h0c.6,2.4-.3,5-2.3,6.4l-.5.4c-2.2,1.6-2.6,4.7-1,6.7h0c1.6,2.2,4.7,2.6,6.7,1l.5-.4c2-1.5,4.7-1.7,6.8-.4h0c2.3,1.3,5.2,1.1,7.2-.4l35.9-27"/>
          <line class="cls-2" x1="58.1" y1="34.3" x2="65.7" y2="44.4"/>
          <path class="cls-1" d="M116.6,12.1c-2.2-2.9-5.5-4.5-9-4.5s-4.8.8-6.7,2.3l-26.6,19.9,13.4,18.2,26.7-20c2.4-1.8,4-4.5,4.4-7.4s-.3-6-2.2-8.3h0Z"/>
        </g>
      </g>
    </g>
  </g>
</svg>