<?xml version="1.0" encoding="UTF-8"?>
<svg xmlns="http://www.w3.org/2000/svg" version="1.1" viewBox="0 0 128 128">
  <defs>
    <style>
      .cls-1 {
        fill: #c1d135;
      }

      .cls-2 {
        fill: none;
        stroke: #344154;
        stroke-linecap: round;
        stroke-linejoin: round;
        stroke-width: 3px;
      }
    </style>
  </defs>
  <!-- Generator: Adobe Illustrator 28.7.3, SVG Export Plug-In . SVG Version: 1.2.0 Build 164)  -->
  <g>
    <g id="_圖層_1" data-name="圖層_1">
      <g id="_圖層_1-2" data-name="_圖層_1">
        <g id="_圖層_1-2">
          <g>
            <path class="cls-2" d="M112.1,65.5h7.8v52.5c0,4.7-3.8,8.4-8.4,8.4H16.1c-4.7,0-8.4-3.8-8.4-8.4v-52.5h7.8"/>
            <path class="cls-2" d="M39.5,53.2v55.3c0,4.6-3.7,8.2-8.2,8.2h0c-4.6,0-8.2-3.7-8.2-8.2v-55.3h-.6c-1.6,0-2.9-1.3-2.9-2.9v-6h23.3v6c0,1.6-1.3,2.9-2.9,2.9h-8.8"/>
            <path class="cls-2" d="M72,53.2v55.3c0,4.6-3.7,8.2-8.2,8.2h0c-4.6,0-8.2-3.7-8.2-8.2v-55.3h-.6c-1.6,0-2.9-1.3-2.9-2.9v-6h23.3v6c0,1.6-1.3,2.9-2.9,2.9h-8.8"/>
            <path class="cls-2" d="M104.5,53.2v55.3c0,4.6-3.7,8.2-8.2,8.2h0c-4.6,0-8.2-3.7-8.2-8.2v-55.3h-.6c-1.6,0-2.9-1.3-2.9-2.9v-6h23.3v6c0,1.6-1.3,2.9-2.9,2.9h-8.8"/>
            <path class="cls-2" d="M74.7,17.6V1.5h40c3.1,0,5.7,2.7,5.7,5.8v4.8c0,3.1-2.6,5.7-5.7,5.7h-40Z"/>
            <path class="cls-2" d="M74.8,4.9h-38.7c-2.6,0-4.7,2.1-4.7,4.7h0c0,2.6,2.1,4.7,4.7,4.7h38.7"/>
            <path class="cls-2" d="M36.2,30.8c0-3.9-4.9-8.8-4.9-8.8,0,0-4.9,5-4.9,8.8s2.2,4.9,4.9,4.9h0c2.7,0,4.9-2.2,4.9-4.9Z"/>
            <path class="cls-1" d="M29.1,108.4c0,1.2,1,2.3,2.3,2.3s2.3-1,2.3-2.3v-27.9h-4.5v27.9h0Z"/>
            <path class="cls-1" d="M61.6,108.4c0,1.2,1,2.3,2.3,2.3s2.3-1,2.3-2.3v-27.9h-4.5v27.9h0Z"/>
            <path class="cls-1" d="M94,108.4c0,1.2,1,2.3,2.3,2.3s2.3-1,2.3-2.3v-27.9h-4.5v27.9h0Z"/>
          </g>
        </g>
      </g>
    </g>
  </g>
</svg>