<?xml version="1.0" encoding="UTF-8"?>
<svg xmlns="http://www.w3.org/2000/svg" version="1.1" viewBox="0 0 128 128">
  <defs>
    <style>
      .cls-1 {
        fill: #c1d135;
      }

      .cls-2 {
        fill: none;
        stroke: #344154;
        stroke-linecap: round;
        stroke-linejoin: round;
        stroke-width: 3px;
      }
    </style>
  </defs>
  <!-- Generator: Adobe Illustrator 28.7.2, SVG Export Plug-In . SVG Version: 1.2.0 Build 154)  -->
  <g>
    <g id="_圖層_2">
      <g id="Icon_Set">
        <g>
          <path class="cls-2" d="M61.2,53.6s19-8.8,38.8,6.9l-8.6,3.8s4.5,5.5,11.7,3.7c0,0,6.1,5.8,6.7,10.1l-3.4,1.2c-3.6,1.2-3.4,6.2.2,7.2,2.2.6,4.9.8,8,0,0,0,8.7,15.1,3.3,24"/>
          <path class="cls-2" d="M61.2,53.6s-8.7,19,6.9,38.8l3.8-8.6s5.5,4.5,3.7,11.7c0,0,5.8,6.1,10.1,6.7l1.2-3.4c1.2-3.6,6.2-3.4,7.2.2.6,2.2.8,4.9,0,8,0,0,15.1,8.7,24,3.3"/>
          <line class="cls-2" x1="51.9" y1="44.3" x2="111.5" y2="103.8"/>
          <line class="cls-2" x1="101.9" y1="51.1" x2="101.9" y2="24.8"/>
          <path class="cls-2" d="M82.3,121.1L8.2,100.5v13.4c0,6.9,5.6,12.6,12.6,12.6h67c5.3,0,9.9-2.9,12.3-7.1"/>
          <path class="cls-2" d="M37.3,6.9l74.2,20.6v-13.4c0-6.9-5.6-12.6-12.6-12.6H32c-7.8,0-14.1,6.3-14.1,14.1v87.6"/>
          <line class="cls-2" x1="30.5" y1="36.8" x2="68" y2="36.8"/>
          <line class="cls-2" x1="30.5" y1="44.3" x2="46.5" y2="44.3"/>
          <polygon class="cls-1" points="53 107 23.6 59.2 23.6 98.8 53 107"/>
        </g>
      </g>
    </g>
  </g>
</svg>