<?xml version="1.0" encoding="UTF-8"?>
<svg xmlns="http://www.w3.org/2000/svg" version="1.1" viewBox="0 0 128 128">
  <defs>
    <style>
      .cls-1 {
        fill: #00ab28;
      }

      .cls-2 {
        fill: none;
        stroke: #344154;
        stroke-linecap: round;
        stroke-linejoin: round;
        stroke-width: 3px;
      }
    </style>
  </defs>
  <!-- Generator: Adobe Illustrator 28.7.3, SVG Export Plug-In . SVG Version: 1.2.0 Build 164)  -->
  <g>
    <g id="_圖層_1" data-name="圖層_1">
      <g id="_圖層_1-2" data-name="_圖層_1">
        <g id="_圖層_1-2">
          <g>
            <path class="cls-2" d="M47.6,55.3h0c-2.5-2.5-2.5-6.5,0-8.9L87.8,6.2c2.5-2.5,6.5-2.5,8.9,0h0c2.5,2.5,2.5,6.5,0,8.9l-40.1,40.1c-2.5,2.5-6.5,2.5-8.9,0h0Z"/>
            <line class="cls-2" x1="82" y1="12" x2="91" y2="20.8"/>
            <path class="cls-2" d="M96.7,15.2l2.3,2.3c2.2,2.2,2.2,5.7,0,7.8l-12,12"/>
            <line class="cls-2" x1="47.6" y1="55.3" x2="42.2" y2="60.7"/>
            <line class="cls-2" x1="51.5" y1="42.6" x2="60.4" y2="51.4"/>
            <path class="cls-2" d="M64,57.2v55.2s17.2-15,53.2-14.7l-5.5-64.2c-4-.2-7.7-.2-11.2,0"/>
            <path class="cls-2" d="M64,112.3s-17.2-15-53.2-14.7l5.5-64.2c13.5-.7,23.7,1.7,31.2,5"/>
            <path class="cls-2" d="M112.5,41.5c1-.5,2.9-.7,4.7-.8,2.4,0,4.4,1.7,4.6,4l4.8,57.2c.2,2.8-2.2,5.1-4.9,4.7-7.7-1-23.2-1.3-43.4,7.1,0,0-.2.6-.7,1.6-5.5,11.2-21.6,11.2-27.1,0-.5-1-.7-1.6-.7-1.6-20.1-8.4-35.7-8.1-43.4-7.1-2.8.4-5.2-1.9-4.9-4.7l4.8-57.2c.2-2.4,2.2-4.1,4.6-4,1.8,0,3.7.3,4.7.8"/>
            <path class="cls-2" d="M27.5,69c0-3.2,2.6-5.8,5.8-5.8s5.8,2.6,5.8,5.8-2.6,5.8-5.8,5.8"/>
            <path class="cls-2" d="M33.3,74.7c3.2,0,5.8,2.6,5.8,5.8s-2.6,5.8-5.8,5.8-5.8-2.6-5.8-5.8"/>
            <polyline class="cls-2" points="86.7 48.6 86.7 65.1 97.7 65.1"/>
            <line class="cls-2" x1="97.7" y1="55.4" x2="97.7" y2="73.3"/>
            <path class="cls-1" d="M110.8,91.9l-.9-10.1c-6.9.3-14,1.2-20.8,2.5-5.4,1-10.7-1.6-13.5-6.5-1.6-2.9-3.6-5.6-5.8-8v31.9c8.2-4.2,21.8-9,40.9-9.8h0Z"/>
          </g>
        </g>
      </g>
    </g>
  </g>
</svg>