<?xml version="1.0" encoding="UTF-8"?>
<svg xmlns="http://www.w3.org/2000/svg" version="1.1" viewBox="0 0 128 128">
  <defs>
    <style>
      .cls-1 {
        fill: #00ab28;
      }

      .cls-2 {
        font-family: MingLiU, MingLiU;
        font-size: 12px;
      }

      .cls-2, .cls-3 {
        isolation: isolate;
      }

      .cls-4 {
        fill: none;
        stroke: #344154;
        stroke-linecap: round;
        stroke-linejoin: round;
        stroke-width: 3px;
      }
    </style>
  </defs>
  <!-- Generator: Adobe Illustrator 28.7.3, SVG Export Plug-In . SVG Version: 1.2.0 Build 164)  -->
  <g>
    <g id="_圖層_1" data-name="圖層_1">
      <g id="_圖層_2">
        <g id="Icon_Set">
          <g>
            <g>
              <g>
                <path class="cls-4" d="M10.4,47.1l3.9-.8c2.2-.4,4.3.9,4.7,3.2.9,5.2,3,17.4,3.9,22.1l2.9,3.8"/>
                <path class="cls-4" d="M18.9,48.4l2.1-.4c2.2-.4,4.3.9,4.7,3.2,1.1,6.4,2,12.4,3,17.7l2.9,4.1"/>
                <path class="cls-4" d="M26.8,53.1l1.7-.3c2.2-.4,4.3.9,4.7,3.2,1.1,6.4,2.9,15.6,2.9,15.6"/>
                <path class="cls-4" d="M43.7,90.8c-5.5-5-14.1-6.4-20.9-3.3-.6.3-1.3.5-1.9.7-4.7.9-5.6-3-7-5.9-1.2-2.7-3.8-4.7-6.7-6.2-2.3-1.1-4.7,1-3.9,3.4,1.5,4.4,3.3,8.7,5.3,12.8,1.2,2.3,2.4,4.6,4.4,6.3,3.7,3.3,9,4,13.9,5.1,4.9,1,10.2,3,12.3,7.6v14.8"/>
                <path class="cls-4" d="M34.9,75.8c6.2,1.5,13.7,2.4,18.7,10.2,2.4,3.8,4.1,8.6,4.6,13.2v27.3"/>
                <path class="cls-4" d="M7.5,75.8l-3.3-25.6c-.3-2,1.1-3.8,3.1-4.1h0c2-.3,3.8.9,4.1,2.8l4,25.1,3.6,4.2"/>
              </g>
              <g>
                <path class="cls-4" d="M117.7,47.1l-3.9-.8c-2.2-.4-4.3.9-4.7,3.2-.9,5.2-3,17.4-3.9,22.1l-2.9,3.8"/>
                <path class="cls-4" d="M109.2,48.4l-2.1-.4c-2.2-.4-4.3.9-4.7,3.2-1.1,6.4-2,12.4-3,17.7l-2.9,4.1"/>
                <path class="cls-4" d="M101.3,53.1l-1.6-.3c-2.2-.4-4.3.9-4.7,3.2-1.1,6.4-2.9,15.6-2.9,15.6"/>
                <path class="cls-4" d="M84.4,90.8c5.5-5,14.1-6.4,20.9-3.3.6.3,1.3.5,1.9.7,4.7.9,5.6-3,7-5.9,1.2-2.7,3.8-4.7,6.7-6.2,2.2-1.1,4.7,1,3.9,3.4-1.5,4.4-3.3,8.7-5.3,12.8-1.2,2.3-2.4,4.6-4.4,6.3-3.7,3.3-9,4-13.9,5.1-4.9,1-10.2,3-12.3,7.6v14.8"/>
                <path class="cls-4" d="M93.2,75.8c-6.2,1.5-13.7,2.4-18.7,10.2-2.4,3.8-4.1,8.6-4.6,13.2v27.3"/>
                <path class="cls-4" d="M120.7,75.8l3.3-25.6c.3-2-1.1-3.8-3.1-4.1h0c-2-.3-3.8.9-4.1,2.8l-4,25.1-3.6,4.2"/>
              </g>
            </g>
            <line class="cls-4" x1="64.4" y1="82.2" x2="64.4" y2="41.9"/>
            <path class="cls-4" d="M76,21.7c0,11.2-11.6,20.2-11.6,20.2,0,0-11.6-9-11.6-20.2S64.4,1.5,64.4,1.5c0,0,11.6,9,11.6,20.2Z"/>
            <path class="cls-4" d="M64.4,8.5c1.6,1.8,3.4,4,4.6,6.5"/>
            <path class="cls-4" d="M79.6,29.7c6.8-1.9,13.5-1.1,13.5-1.1,0,0,1.8,14.6-6.1,22.5-7.9,7.9-22.5,6.1-22.5,6.1"/>
            <path class="cls-4" d="M49.1,29.7c-6.8-1.9-13.5-1.1-13.5-1.1,0,0-1.8,14.6,6.1,22.5s22.5,6.1,22.5,6.1"/>
            <path class="cls-1" d="M88.1,33.6c-1.7,0-3.9.3-6,.8-1,6.1-3.4,11.9-6.9,17.1,3-.7,6.1-1.9,8.2-4,3.5-3.5,4.6-9.4,4.7-13.8h0Z"/>
            <path class="cls-1" d="M40,33.6c1.7,0,3.9.3,6,.8,1,6.1,3.4,11.9,6.9,17.1-3-.7-6.1-1.9-8.2-4-3.5-3.5-4.6-9.4-4.7-13.8h0Z"/>
          </g>
        </g>
      </g>
      <g class="cls-3">
        <text class="cls-2" transform="translate(40 157.6)"><tspan x="0" y="0">農業科學</tspan></text>
      </g>
    </g>
  </g>
</svg>