<?xml version="1.0" encoding="UTF-8"?>
<svg xmlns="http://www.w3.org/2000/svg" version="1.1" viewBox="0 0 128 128">
  <defs>
    <style>
      .cls-1 {
        fill: #00ab28;
      }

      .cls-2 {
        fill: none;
        stroke: #344154;
        stroke-linecap: round;
        stroke-linejoin: round;
        stroke-width: 3px;
      }
    </style>
  </defs>
  <!-- Generator: Adobe Illustrator 28.7.3, SVG Export Plug-In . SVG Version: 1.2.0 Build 164)  -->
  <g>
    <g id="_圖層_1" data-name="圖層_1">
      <g id="_圖層_1-2" data-name="_圖層_1">
        <g id="_圖層_2">
          <g id="Icon_Set">
            <g>
              <path class="cls-2" d="M36.6,95.6c-2.4-9.2-3.8-20.1-3.8-31.6C32.8,29.5,45.4,1.5,60.9,1.5s28.1,28,28.1,62.5-12.6,62.5-28.1,62.5-6.1-1.1-8.9-3.2"/>
              <path class="cls-2" d="M38.7,25.6c4,.7,8.3,1.9,12.7,3.4"/>
              <path class="cls-2" d="M115,32.8c-4.5-7.8-16.7-10.1-32-7.2"/>
              <path class="cls-2" d="M60.9,95.4c3.1-1.3,6.2-2.8,9.3-4.5,1.6-.8,3.2-1.7,4.8-2.6,4.7-2.7,9-5.6,13.2-8.6"/>
              <path class="cls-2" d="M23.7,103.6c-8-.6-14.1-3.3-17-8.3-6.5-11.4,5.2-30.8,27-46.9"/>
              <circle class="cls-2" cx="114" cy="49.1" r="9.1"/>
              <path class="cls-1" d="M114,52.6c-2,0-3.5-1.6-3.5-3.5s1.6-3.5,3.5-3.5,3.5,1.6,3.5,3.5-1.6,3.5-3.5,3.5Z"/>
              <circle class="cls-2" cx="20.9" cy="24.9" r="9"/>
              <path class="cls-1" d="M20.9,28.4c-2,0-3.5-1.6-3.5-3.5s1.6-3.5,3.5-3.5,3.5,1.6,3.5,3.5-1.6,3.5-3.5,3.5Z"/>
              <circle class="cls-2" cx="41.9" cy="110.9" r="9.1"/>
              <path class="cls-1" d="M41.9,114.5c-2,0-3.5-1.6-3.5-3.5s1.6-3.5,3.5-3.5,3.5,1.6,3.5,3.5-1.6,3.5-3.5,3.5Z"/>
              <path class="cls-2" d="M42.8,43.2c7-4.4,19.5-10,19.5-10,4.2,1.9,8.5,4,12.7,6.4,29.9,17.3,47.9,42.2,40.1,55.6-4.5,7.8-16.7,10.1-32,7.2-11-2.1-23.7-6.8-36.2-14.1C17,71.1-1.1,46.2,6.8,32.8"/>
            </g>
          </g>
        </g>
      </g>
    </g>
  </g>
</svg>