<?xml version="1.0" encoding="UTF-8"?>
<svg xmlns="http://www.w3.org/2000/svg" version="1.1" viewBox="0 0 128 128">
  <defs>
    <style>
      .cls-1 {
        fill: #c1d135;
      }

      .cls-2 {
        fill: #00ab28;
      }

      .cls-3 {
        fill: none;
        stroke: #344154;
        stroke-linecap: round;
        stroke-linejoin: round;
        stroke-width: 3px;
      }
    </style>
  </defs>
  <!-- Generator: Adobe Illustrator 28.7.3, SVG Export Plug-In . SVG Version: 1.2.0 Build 164)  -->
  <g>
    <g id="_圖層_1" data-name="圖層_1">
      <g id="_圖層_2">
        <g id="Icon_Set">
          <g>
            <path class="cls-3" d="M37.9,40.6l7.9,7.7V15.1c0-4.6-3.7-8.2-8.2-8.2H9.7c-4.6,0-8.2,3.7-8.2,8.2v17.4c0,4.6,3.7,8.2,8.2,8.2h28.2Z"/>
            <g>
              <path class="cls-3" d="M18.9,23.5h-1c-3,0-5.3-2.4-5.3-5.3h0c0-3,2.4-5.3,5.3-5.3h3.9"/>
              <path class="cls-3" d="M18.9,23.5h-1c-3,0-5.3,2.4-5.3,5.3h0c0,3,2.4,5.3,5.3,5.3h3.9"/>
              <path class="cls-3" d="M25.9,34v-10.6h3.6c2.2,0,4.1,1.8,4.1,4.1v6.6"/>
            </g>
            <g>
              <path class="cls-3" d="M90.1,87.3l-7.9-7.7v33.3c0,4.6,3.7,8.2,8.2,8.2h27.9c4.6,0,8.2-3.7,8.2-8.2v-17.4c0-4.6-3.7-8.2-8.2-8.2h-28.2Z"/>
              <g>
                <path class="cls-3" d="M91.3,94h4.7c5,0,9,4,9,9h0c0,5-4,9-9,9h-4.7v-17.9h0Z"/>
                <path class="cls-3" d="M115.5,111.5c-5.4,1.1-8.8-3.6-5.9-7.1,2.1-2.6,7.5-1.8,7.8.8,0,.6-.2,1.3-.8,1.5-.6.2-1.4.2-3.5.2"/>
              </g>
            </g>
            <path class="cls-3" d="M50.5,22.3c4-1,8.2-1.6,12.6-1.6,27.3,0,49.3,22.1,49.3,49.3,0,0,0,10.3-2.9,16.9"/>
            <path class="cls-3" d="M50.5,22.3"/>
            <path class="cls-3" d="M18.8,44.7"/>
            <path class="cls-3" d="M78,117.1c-4.7,1.5-9.8,2.3-15.1,2.3-27.3,0-49.3-22.1-49.3-49.3,0,0-2-12.7,5.2-25.4"/>
            <path class="cls-1" d="M68.3,25.8c-.5,10.2,3.3,20.5,10.4,27.8,7.4,7.5,18,11.5,28.5,11-2.5-20.2-18.6-36.4-38.9-38.8h0Z"/>
            <path class="cls-2" d="M63.1,114.6c1.6,0,3.1,0,4.6-.2-3-13.4-13-25-26-29.7-7-2.5-14.4-3-21.8-3,5.1,19,22.5,33,43,33h.2Z"/>
          </g>
        </g>
      </g>
    </g>
  </g>
</svg>