<?xml version="1.0" encoding="UTF-8"?>
<svg xmlns="http://www.w3.org/2000/svg" version="1.1" viewBox="0 0 128 128">
  <defs>
    <style>
      .cls-1 {
        fill: #c1d135;
      }

      .cls-2 {
        fill: #00ab28;
      }

      .cls-3 {
        font-family: AdobeMingStd-Light-B5pc-H, 'Adobe Ming Std';
        font-size: 12px;
        font-weight: 300;
      }

      .cls-4 {
        fill: none;
        stroke: #344154;
        stroke-linecap: round;
        stroke-linejoin: round;
        stroke-width: 3px;
      }
    </style>
  </defs>
  <!-- Generator: Adobe Illustrator 28.7.3, SVG Export Plug-In . SVG Version: 1.2.0 Build 164)  -->
  <g>
    <g id="_圖層_1" data-name="圖層_1">
      <g id="_圖層_1-2" data-name="_圖層_1">
        <g id="_圖層_1-2">
          <g id="_圖層_1-2-2" data-name="_圖層_1-2">
            <g>
              <polyline class="cls-4" points="74.3 58.3 86 65.1 64 77.8 42 65.1 53.7 58.3"/>
              <polyline class="cls-4" points="86 65.1 86 90.5 64 103.3 42 90.5 42 65.1"/>
              <line class="cls-4" x1="64" y1="77.8" x2="64" y2="103.3"/>
              <polygon class="cls-1" points="47.3 74.3 47.3 87.4 58.6 94.1 58.6 80.9 47.3 74.3"/>
              <polygon class="cls-2" points="69.4 94.1 80.7 87.4 80.7 74.3 69.4 80.9 69.4 94.1"/>
              <line class="cls-4" x1="68.3" y1="52.5" x2="91.8" y2="52.5"/>
              <line class="cls-4" x1="36.2" y1="52.5" x2="59.6" y2="52.5"/>
              <path class="cls-4" d="M100.5,52.5c0,2.4-2,4.4-4.4,4.4s-4.4-2-4.4-4.4,2-4.4,4.4-4.4,4.4,2,4.4,4.4Z"/>
              <path class="cls-4" d="M68.3,52.5c0,2.4-2,4.4-4.4,4.4s-4.4-2-4.4-4.4,2-4.4,4.4-4.4,4.4,2,4.4,4.4Z"/>
              <path class="cls-4" d="M36.2,52.5c0,2.4-2,4.4-4.4,4.4s-4.4-2-4.4-4.4,2-4.4,4.4-4.4,4.4,2,4.4,4.4Z"/>
              <g>
                <path class="cls-4" d="M72.7,11h-17.4v-6.8c0-1.5,1.2-2.7,2.7-2.7h12.1c1.5,0,2.7,1.2,2.7,2.7v6.8h0Z"/>
                <polyline class="cls-4" points="55.3 11 51.9 24.5 64 42.3 76.1 24.5 72.6 11"/>
                <line class="cls-4" x1="64" y1="11" x2="64" y2="21"/>
                <path class="cls-4" d="M67.6,24.6c0-2-1.6-3.6-3.6-3.6s-3.6,1.6-3.6,3.6,1.6,3.6,3.6,3.6,3.6-1.6,3.6-3.6Z"/>
              </g>
              <path class="cls-4" d="M74.9,40.6h31.7c4.2,0,7.4,3.4,7.4,7.4v59.4c0,4.2-3.4,7.4-7.4,7.4H21.3c-4.2,0-7.4-3.4-7.4-7.4v-59.4c0-4.2,3.4-7.4,7.4-7.4h31.2"/>
              <polyline class="cls-4" points="38.4 115 33.9 126.5 64 126.5 94.1 126.5 89.6 115"/>
            </g>
          </g>
        </g>
      </g>
      <text class="cls-3" transform="translate(40 157.6)"><tspan x="0" y="0">視覺藝術</tspan></text>
    </g>
  </g>
</svg>