<?xml version="1.0" encoding="UTF-8"?>
<svg xmlns="http://www.w3.org/2000/svg" version="1.1" viewBox="0 0 128 128">
  <defs>
    <style>
      .cls-1 {
        fill: #00ab28;
      }

      .cls-2 {
        font-family: AdobeMingStd-Light-B5pc-H, 'Adobe Ming Std';
        font-size: 12px;
        font-weight: 300;
      }

      .cls-3 {
        fill: none;
        stroke: #344154;
        stroke-linecap: round;
        stroke-linejoin: round;
        stroke-width: 3px;
      }
    </style>
  </defs>
  <!-- Generator: Adobe Illustrator 28.7.3, SVG Export Plug-In . SVG Version: 1.2.0 Build 164)  -->
  <g>
    <g id="_圖層_1" data-name="圖層_1">
      <g id="_圖層_1-2" data-name="_圖層_1">
        <g id="_圖層_1-2">
          <g>
            <polyline class="cls-3" points="38.5 8.5 98.6 23.9 98.6 32.8 98.6 41.9 38.5 57.3"/>
            <path class="cls-3" d="M38.5,32.8V7.3c0-1.7-1.4-3.1-3.1-3.1h0c-1.7,0-3.1,1.4-3.1,3.1v51.3c0,1.7,1.4,3.1,3.1,3.1h0c1.7,0,3.1-1.4,3.1-3.1v-10.1"/>
            <line class="cls-3" x1="98.6" y1="23.9" x2="109.6" y2="22.1"/>
            <line class="cls-3" x1="109.6" y1="43.5" x2="98.6" y2="41.7"/>
            <path class="cls-3" d="M109.6,42.6c0,2,1.6,3.6,3.6,3.6h0c2,0,3.6-1.6,3.6-3.6v-19.6c0-2-1.6-3.6-3.6-3.6h0c-2,0-3.6,1.6-3.6,3.6v4.7"/>
            <path class="cls-3" d="M85.8,45.3v11.3c0,2-1.6,3.7-3.7,3.7h-13.9c-2,0-3.7-1.6-3.7-3.7v-5.6"/>
            <line class="cls-3" x1="18.6" y1="34" x2="1.5" y2="34"/>
            <line class="cls-3" x1="21" y1="22.2" x2="9" y2="10.2"/>
            <line class="cls-3" x1="21" y1="45.2" x2="9" y2="57.3"/>
            <g>
              <path class="cls-3" d="M69.8,93h-10c-3,0-5.4-2.4-5.4-5.4h0c0-3,2.4-5.4,5.4-5.4h22"/>
              <path class="cls-3" d="M71.4,103.8h-8.3c-3,0-5.4-2.4-5.4-5.4h0"/>
              <path class="cls-3" d="M71.4,114.6h-4.8c-3,0-5.4-2.4-5.4-5.4h0"/>
              <path class="cls-3" d="M116.9,116.7c-9.9-.2-11.9.6-11.9.6,0,0-2.5.5-5.7,1.5-9.7,3.2-16.7,4.9-26.9,5.1h-2.5c-3,0-5.4-2.4-5.4-5.4h0"/>
              <path class="cls-3" d="M81.8,69.8c.5,0,1.1,0,1.6-.2,4.8-.6,9.6.5,13.6,3.3,2.5,1.8,5.4,3.9,8,6,0,0,5.3,5.4,11.8,5.4"/>
              <line class="cls-3" x1="64.6" y1="118.5" x2="64.6" y2="114.6"/>
              <line class="cls-3" x1="61.3" y1="109.2" x2="61.3" y2="103.5"/>
            </g>
            <path class="cls-3" d="M126.5,78.1h-6.6c-1.7,0-3.1,1.4-3.1,3.1v38.6c0,1.7,1.4,3.1,3.1,3.1h6.6"/>
            <line class="cls-3" x1="57.7" y1="98.4" x2="57.7" y2="92.6"/>
            <line class="cls-3" x1="69.2" y1="82.2" x2="69.2" y2="60.2"/>
            <line class="cls-3" x1="81.3" y1="60.2" x2="81.3" y2="82.2"/>
            <polygon class="cls-1" points="92.9 32.8 92.9 28.4 62.9 20.7 62.9 45.1 92.9 37.4 92.9 32.8"/>
          </g>
        </g>
      </g>
      <text class="cls-2" transform="translate(52 157.6)"><tspan x="0" y="0">傳播</tspan></text>
    </g>
  </g>
</svg>