<?xml version="1.0" encoding="UTF-8"?>
<svg xmlns="http://www.w3.org/2000/svg" version="1.1" viewBox="0 0 128 128">
  <defs>
    <style>
      .cls-1 {
        fill: #c1d135;
      }

      .cls-2 {
        fill: #00ab28;
      }

      .cls-3 {
        font-family: AdobeMingStd-Light-B5pc-H, 'Adobe Ming Std';
        font-size: 12px;
        font-weight: 300;
      }

      .cls-4 {
        fill: none;
        stroke: #344154;
        stroke-linecap: round;
        stroke-linejoin: round;
        stroke-width: 3px;
      }
    </style>
  </defs>
  <!-- Generator: Adobe Illustrator 28.7.3, SVG Export Plug-In . SVG Version: 1.2.0 Build 164)  -->
  <g>
    <g id="_圖層_1" data-name="圖層_1">
      <g id="_圖層_1-2" data-name="_圖層_1">
        <g id="_圖層_2">
          <g id="Icon_Set">
            <g>
              <polyline class="cls-4" points="61.3 27.5 61.3 52.3 16.5 52.3 16.5 27.5"/>
              <path class="cls-4" d="M16.5,52.3v9.3s5.8,2.7,9.8,8.7c3.1,4.7,3.9,10.4,2.7,15.7-1.7,7.7-4,26.1,10,40.5,13.9-14.4,11.7-32.8,10-40.5-1.3-5.4-.4-11.2,2.7-15.7,4-6,9.8-8.7,9.8-8.7v-9.3"/>
              <line class="cls-4" x1="16.5" y1="27.5" x2="61.3" y2="27.5"/>
              <path class="cls-4" d="M61.3,27.5s.5-10,9.2-20.1c0,0-16.4-5.9-31.6-5.9s-6.1.2-9.1.6v10.3L21.4,3.5c-8.2,1.7-14.2,3.9-14.2,3.9,8.6,10,9.2,20.1,9.2,20.1"/>
              <g>
                <path class="cls-4" d="M112.8,43.5h-16.8c-5.6,11.5-4.9,24.6-4.2,30.4.2,1.7,1.6,3,3.4,3h18.2c1.7,0,3.2-1.3,3.4-3,.7-5.8,1.4-18.9-4.2-30.4,0,0,.2,0,.2,0Z"/>
                <path class="cls-4" d="M97,76.9v42.1c0,1.9.8,3.9,2.1,5.2h0c2.9,2.9,7.6,2.9,10.5,0h0c1.4-1.4,2.1-3.3,2.1-5.2v-42.1"/>
                <path class="cls-4" d="M96,43.5c-3.5-2.4-6.4-6.7-7.6-10.8-1.2-4.1,0-8.5,1.7-12.4,1.4-3.2,3.6-5.9,5.8-8.6,2.8-3.4,5.5-6.8,8.3-10.2,2.8,3.4,5.5,6.8,8.3,10.2,2.2,2.7,4.5,5.4,5.8,8.6,1.6,3.9,2.9,8.3,1.7,12.4-1.2,4.1-4.1,8.3-7.6,10.8"/>
                <path class="cls-4" d="M112.7,30.5c.3-1,.3-3.1-1.5-7.1-1-2.2-2.7-4.4-4.7-6.8"/>
                <path class="cls-2" d="M104.4,60.5c2.5,0,4.9.7,7.1,1.9-.2-4.1-1-8.6-2.5-13.1h-9.1c-1.6,4.4-2.3,9-2.5,13.1,2.2-1.2,4.6-1.9,7.1-1.9h0Z"/>
              </g>
              <rect class="cls-1" x="22.3" y="37.5" width="33.2" height="8.9"/>
            </g>
          </g>
        </g>
      </g>
      <text class="cls-3" transform="translate(52 158.4)"><tspan x="0" y="0">設計</tspan></text>
    </g>
  </g>
</svg>