<?xml version="1.0" encoding="UTF-8"?>
<svg xmlns="http://www.w3.org/2000/svg" version="1.1" viewBox="0 0 128 128">
  <defs>
    <style>
      .cls-1 {
        fill: #c1d135;
      }

      .cls-2 {
        fill: #00ab28;
      }

      .cls-3 {
        font-family: AdobeMingStd-Light-B5pc-H, 'Adobe Ming Std';
        font-size: 12px;
        font-weight: 300;
      }

      .cls-4 {
        stroke-width: 3px;
      }

      .cls-4, .cls-5 {
        fill: none;
        stroke: #344154;
        stroke-linecap: round;
        stroke-linejoin: round;
      }

      .cls-5 {
        stroke-width: 3px;
      }
    </style>
  </defs>
  <!-- Generator: Adobe Illustrator 28.7.3, SVG Export Plug-In . SVG Version: 1.2.0 Build 164)  -->
  <g>
    <g id="_圖層_1" data-name="圖層_1">
      <g id="_圖層_1-2" data-name="_圖層_1">
        <g>
          <g>
            <path class="cls-5" d="M78.1,10.1l7.9-7.9c1.1-1.1,2.8-1.1,3.8,0l4.6,4.6c1.1,1.1,1.1,2.8,0,3.8l-7.9,7.9"/>
            <line class="cls-5" x1="36.2" y1="52" x2="52.2" y2="36"/>
            <path class="cls-5" d="M18.8,86.3l-7.9,7.9c-1.1,1.1-2.8,1.1-3.8,0l-4.6-4.6c-1.1-1.1-1.1-2.8,0-3.8l7.9-7.9"/>
            <line class="cls-5" x1="60.7" y1="44.5" x2="44.7" y2="60.5"/>
            <path class="cls-5" d="M46.4,86.7c-1.2-.3-2.3-.9-3.2-1.8l-31.4-31.4c-2.7-2.7-2.7-7,0-9.7h0c2.7-2.7,7-2.7,9.7,0l28.9,28.9"/>
            <path class="cls-5" d="M37.1,78.9c2.7,2.7,2.7,7,0,9.7h0c-2.7,2.7-7,2.7-9.7,0l-19.3-19.3c-2.7-2.7-2.7-7,0-9.7h0c2.7-2.7,7-2.7,9.7,0"/>
            <path class="cls-5" d="M87,47.3c0-1.6-.8-3.1-2-4.3l-31.4-31.4c-2.7-2.7-7-2.7-9.7,0h0c-2.7,2.7-2.7,7,0,9.7l28.9,28.9"/>
            <path class="cls-1" d="M82.6,47.9c0,.6-.3,1.3-.7,1.7-.9.9-2.5.9-3.4,0l-31.4-31.4c-.5-.5-.7-1.1-.7-1.7s.3-1.3.7-1.7c.9-.9,2.5-.9,3.4,0l31.4,31.4c.5.5.7,1.1.7,1.7Z"/>
            <path class="cls-1" d="M50.5,80c0,.6-.3,1.3-.7,1.7-.9.9-2.5.9-3.4,0l-31.4-31.4c-.5-.5-.7-1.1-.7-1.7s.3-1.3.7-1.7c.9-.9,2.5-.9,3.4,0l31.4,31.4c.5.5.7,1.1.7,1.7Z"/>
            <path class="cls-5" d="M79.1,36.9c2.7,2.7,7,2.7,9.7,0h0c2.7-2.7,2.7-7,0-9.7l-19.3-19.3c-2.7-2.7-7-2.7-9.7,0h0c-2.7,2.7-2.7,7,0,9.7"/>
          </g>
          <g>
            <circle class="cls-4" cx="89.3" cy="89.4" r="37"/>
            <path class="cls-5" d="M75.4,66.3c-.5.3-.9.5-1,.6-10.1,5.8-16.5,15.6-18.4,26.3-1.1,6.2-.2,12.2-.2,12.2"/>
            <path class="cls-5" d="M68.6,120.2s-2.6-2.7-3.3-7.3c-2.1-14.4,4.5-29.2,17.9-36.9.3-.2,1.1-.6,1.7-1"/>
            <path class="cls-5" d="M76.1,113c.5.3.9.5,1,.6,10.1,5.8,21.8,6.5,32,2.8,5.9-2.2,10.6-6,10.6-6"/>
            <path class="cls-5" d="M126.2,92.1s-1,3.6-4.7,6.5c-11.4,9-27.6,10.7-40.9,3-.3-.2-1.1-.6-1.7-1"/>
            <path class="cls-5" d="M92.2,52.6s5.6,2.2,10.5,6.2c8.3,7,13.6,17.4,13.6,29.1v1.2"/>
            <path class="cls-5" d="M73,56.2s3.6-.9,8,.8c13.5,5.4,23,18.5,23,34v1.9"/>
            <path class="cls-5" d="M63.5,62.9c0,0,24,.7,25.8,26.6"/>
            <path class="cls-5" d="M79.2,125.1c0,0-11.4-21.1,10.1-35.6"/>
            <path class="cls-5" d="M125.2,80.4c0,0-12.6,20.4-35.9,9"/>
            <path class="cls-2" d="M89.7,93.7c-2.3,1.7-4.2,3.6-5.7,5.6,4.7,2.4,9.8,3.6,14.9,3.6s2.9,0,4.4-.3c.6-.5,1.1-1,1.7-1.6,1.7-1.6,3.2-3.3,4.6-5.2-2,.5-4.2.8-6.6.8-4,0-8.4-.8-13.3-2.9Z"/>
            <path class="cls-2" d="M93,87c2.6,1.1,5.2,1.8,7.7,2.1-.3-5.3-1.8-10.3-4.4-14.6-.7-1.3-1.6-2.5-2.5-3.6-.7-.2-1.5-.5-2.2-.7-2.2-.7-4.5-1.1-6.8-1.3,1.4,1.5,2.8,3.2,4,5.3,2,3.4,3.5,7.7,4.2,12.9h0Z"/>
            <path class="cls-2" d="M85.5,87.5c-.3-2.8-1-5.4-2-7.7-4.4,2.9-8,6.7-10.6,11-.7,1.3-1.4,2.6-2,3.9.2.7.3,1.5.5,2.3.5,2.3,1.2,4.4,2.2,6.6.6-2,1.4-4,2.6-6,2-3.4,4.9-6.8,9.2-10h.1Z"/>
          </g>
        </g>
      </g>
      <text class="cls-3" transform="translate(52 157.6)"><tspan x="0" y="0">體育</tspan></text>
    </g>
  </g>
</svg>