<?xml version="1.0" encoding="UTF-8"?>
<svg xmlns="http://www.w3.org/2000/svg" version="1.1" viewBox="0 0 128 128">
  <defs>
    <style>
      .cls-1 {
        fill: #c1d135;
      }

      .cls-2 {
        font-family: AdobeMingStd-Light-B5pc-H, 'Adobe Ming Std';
        font-size: 12px;
        font-weight: 300;
      }

      .cls-3 {
        fill: none;
        stroke: #344154;
        stroke-linecap: round;
        stroke-linejoin: round;
        stroke-width: 3px;
      }
    </style>
  </defs>
  <!-- Generator: Adobe Illustrator 28.7.3, SVG Export Plug-In . SVG Version: 1.2.0 Build 164)  -->
  <g>
    <g id="_圖層_1" data-name="圖層_1">
      <g id="_圖層_1-2" data-name="_圖層_1">
        <g id="_圖層_1-2">
          <g id="_圖層_2">
            <g id="Icon_Set">
              <g>
                <path class="cls-3" d="M108.6,54.7c.4-10.1,2.7-25,11.5-37.9,0,0-11.5-13.9-35.3-15.3,0,0-8.3,9.1-20.8,9.1S43.1,1.6,43.1,1.6C19.4,2.9,7.9,16.9,7.9,16.9c8.8,12.9,11.1,27.7,11.5,37.9.2,6.1-.6,12.1-2.1,17.9-3.1,11.6-.9,17.6-.9,17.6,10.1,29.1,47.5,36.1,47.5,36.1,0,0,37.4-7.1,47.5-36.1,0,0,2.4-5.9-.9-17.5-1.6-5.9-2.4-11.9-2.1-17.9h0v-.2h.2Z"/>
                <path class="cls-3" d="M64,115.5c-7.1-1.8-30.7-9.3-37.4-28.5-.1-.5-.9-4.3,1.1-11.3,1.9-7.3,2.8-14.3,2.6-21-.3-9.4-2.2-22.4-8.4-35.1,3.8-2.6,9.8-5.4,17.8-6.5,4.8,3.7,13.2,8.7,24.6,8.7s19.7-5,24.5-8.7c8.1,1.2,14,4,17.9,6.5-6.3,12.7-8.1,25.6-8.4,35.1-.2,6.7.6,13.9,2.6,21,1.7,6.4,1.3,10.1,1.1,11.1l-.2.4.2-.2h0c-6.8,19.3-30.3,26.8-37.4,28.6h-.6,0Z"/>
                <line class="cls-3" x1="64" y1="56" x2="64" y2="95.6"/>
                <line class="cls-3" x1="73.9" y1="66.7" x2="54.1" y2="66.7"/>
                <path class="cls-1" d="M95.2,30.5c.9-2.8,1.7-5.6,2.9-8.4-2.2-1-4.9-1.9-8.1-2.6-6,4.2-14.9,8.3-26.1,8.3s-20.2-4.2-26.2-8.3c-3.1.6-5.8,1.6-8,2.6,1.2,2.9,2.1,5.7,2.9,8.4,8.2,5.3,19.2,8.7,31.2,8.7s23-3.3,31.2-8.7h.2Z"/>
              </g>
            </g>
          </g>
        </g>
      </g>
      <text class="cls-2" transform="translate(52 157.6)"><tspan x="0" y="0">安全</tspan></text>
    </g>
  </g>
</svg>