<?xml version="1.0" encoding="UTF-8"?>
<svg xmlns="http://www.w3.org/2000/svg" version="1.1" viewBox="0 0 128 128">
  <defs>
    <style>
      .cls-1 {
        fill: #00ab28;
      }

      .cls-2 {
        font-family: AdobeMingStd-Light-B5pc-H, 'Adobe Ming Std';
        font-size: 12px;
        font-weight: 300;
      }

      .cls-3 {
        fill: none;
        stroke: #344154;
        stroke-linecap: round;
        stroke-linejoin: round;
        stroke-width: 3px;
      }
    </style>
  </defs>
  <!-- Generator: Adobe Illustrator 28.7.3, SVG Export Plug-In . SVG Version: 1.2.0 Build 164)  -->
  <g>
    <g id="_圖層_1" data-name="圖層_1">
      <g id="_圖層_1-2" data-name="_圖層_1">
        <g id="_圖層_1-2">
          <g id="_圖層_1-2-2" data-name="_圖層_1-2">
            <g>
              <path class="cls-3" d="M64,1.5h0c-6.3,0-11,5.7-9.8,11.8l2.2,14.9h15.3l2.2-14.9c1.2-6.2-3.6-11.8-9.8-11.8h0Z"/>
              <polyline class="cls-3" points="49.8 46.9 52.7 62.5 64 62.5 75.3 62.5 78.1 47.4"/>
              <path class="cls-3" d="M84.8,78v-34.6c0-3.6-2.9-6.5-6.5-6.5h-28.8c-3.6,0-6.5,2.9-6.5,6.5v34.6"/>
              <path class="cls-3" d="M64,97.5h8.3c2,0,3.6-1.8,3.2-3.8l-2.8-15.6h-17.4l-2.8,15.6c-.4,2,1.2,3.8,3.2,3.8h8.3Z"/>
              <path class="cls-3" d="M52.6,70.5h22.8"/>
              <path class="cls-3" d="M52.8,110.6h22.5c5.3,0,9.5,4.3,9.5,9.5v6.4h-41.7v-6.4c0-5.3,4.3-9.5,9.5-9.5h.2Z"/>
              <line class="cls-3" x1="64" y1="97.5" x2="64" y2="110.6"/>
              <line class="cls-3" x1="64" y1="28.3" x2="64" y2="37"/>
              <line class="cls-3" x1="64" y1="78" x2="64" y2="70.5"/>
              <path class="cls-1" d="M64,56.7h6.6l1.4-7.5h-15.9l1.4,7.5h6.6,0Z"/>
            </g>
          </g>
        </g>
      </g>
      <text class="cls-2" transform="translate(40 158.5)"><tspan x="0" y="0">服飾美容</tspan></text>
    </g>
  </g>
</svg>