<?xml version="1.0" encoding="UTF-8"?>
<svg xmlns="http://www.w3.org/2000/svg" version="1.1" viewBox="0 0 128 128">
  <defs>
    <style>
      .cls-1 {
        fill: #c1d135;
      }

      .cls-2 {
        stroke: #00ab28;
      }

      .cls-2, .cls-3 {
        fill: none;
        stroke-linecap: round;
        stroke-linejoin: round;
        stroke-width: 3px;
      }

      .cls-4 {
        fill: #00ab28;
      }

      .cls-3 {
        stroke: #344154;
      }
    </style>
  </defs>
  <!-- Generator: Adobe Illustrator 28.7.3, SVG Export Plug-In . SVG Version: 1.2.0 Build 164)  -->
  <g>
    <g id="_圖層_1" data-name="圖層_1">
      <g>
        <line class="cls-3" x1="72.4" y1="82.7" x2="48.8" y2="82.7"/>
        <polyline class="cls-3" points="22 82.7 7.2 82.7 7.2 2 120.8 2 120.8 82.7"/>
        <polyline class="cls-3" points="18.6 37.1 18.6 13.4 109.4 13.4 109.4 71.2 85.3 71.2"/>
        <polyline class="cls-3" points="59 71.2 18.6 71.2 18.6 54.6"/>
      </g>
      <g>
        <path class="cls-3" d="M35.8,41.5c2.7,3.2,4.7,7,5.3,11.1.3,2.2.3,4.6,1.5,6.5,1.5,2.3,4.5,3.1,7.2,3.3,2.7.2,5.6,0,8.1,1.1,2.9,1.2,5,3.7,6.9,6.2,1.9,2.4,4,5,6.9,6.1,2.9,1.1,6.8.3,8-2.6.7-1.9.1-4-.6-5.9-3.1-8.3-8.4-15.8-15.1-21.6-4.4-3.7-9.3-6.7-13.7-10.3-6.9-5.7-12.5-13-16.2-21.1"/>
        <path class="cls-3" d="M20.7,29.6c3.8,2.4,7.6,4.8,10.9,7.7"/>
        <path class="cls-3" d="M40.3,49.4s6.9-2.9,13.4,1.6c4.8,3.3,12.8,5.5,16.9,1.4"/>
        <path class="cls-3" d="M49.9,49s3.4-3.5,4.2-10.9"/>
        <path class="cls-3" d="M31.1,44c-.7,1.7-1.4,3.3-2,5-.4,1-.8,2-1.5,2.8s-1.7,1.5-2.7,1.5c-1.7,0-2.9-1.4-4-2.6-.7-.9-1.5-1.8-2.3-2.7-.7-.8-1.5-1.8-1.3-2.9,0-.7.6-1.4,1.2-1.7.6-.4,1.3-.6,2-.8,3-.9,6.2-1.6,9.4-2.2,4-.7,7.7-2.7,10.5-5.7,1.3-1.4,2.7-3.1,3.8-5.2"/>
        <path class="cls-3" d="M28.1,51.2c1,.5,2.1,1,3.3,1.2,1.2.2,2.4,0,3.3-.7.7-.6,1.1-1.5,1.3-2.4s.2-1.8.1-2.7"/>
      </g>
      <g>
        <g>
          <path class="cls-3" d="M109.2,77.1s0,0,0,0c5.2,1.4,7.8,7.3,5,11.9-.1.2-1.3,1.7-2.6,3.3l-4.4,5.2c-1.7,1.7-1.8,4.4-.1,6.1h0c1.5,1.5,3.8,1.7,5.5.5,1.3-1,2.9-2.2,4.5-3.8,3.9-3.8,10.2,0,8.6,5.2-1.9,6.2-7.2,13-19.1,18.6-14.7,6.9-31.4.4-36.3-12.2-4.9-12.6,3.5-27.6,18.6-33.5,0,0,9.5-4,20.2-1.3Z"/>
          <path class="cls-4" d="M81.6,89.3c1.3,1.1,2.1,2.7,2.1,4.5,0,3.3-2.6,5.9-5.9,5.9s-1.8-.2-2.6-.6c1.2-3.7,3.2-6.8,6.4-9.8Z"/>
          <path class="cls-1" d="M74.4,106.2c.6-.2,1.3-.3,1.9-.3,3.3,0,5.9,2.6,5.9,5.9s-.9,3.6-2.3,4.7c-2.1-1.8-4.1-3.8-5.1-6.2-.5-1.3-.6-2.4-.4-4Z"/>
        </g>
        <path class="cls-4" d="M86.5,120.3c.4-2.9,2.9-5.1,5.8-5.1s5.9,2.6,5.9,5.9,0,0,0,.1c-1.4.2-5.8,1.5-11.7-1Z"/>
      </g>
      <g>
        <path class="cls-3" d="M32.9,96.5l-3.2-2.7-3.2-2.7c-5.7,2.6-9.6,7.7-11.2,10.1-.5.7-.3,1.7.3,2.2l3.4,2.9,3.4,2.9c.7.6,1.6.5,2.3,0,2.1-2,6.5-6.7,8-12.8Z"/>
        <path class="cls-3" d="M16.3,104.1l-13.3,15.9c-.6.7-.9,1.7-.8,2.7h0c.2,2,2,3.5,4,3.3h0c1,0,1.9-.6,2.5-1.3l13.3-15.9"/>
        <path class="cls-3" d="M26.5,91.2c-.5-2-.3-4.5.6-6.5.8-1.9,2.7-3.2,4.6-4.1,1.5-.8,3.2-1.1,4.9-1.4,2.1-.4,4.2-.8,6.4-1.2,0,2.2,0,4.3,0,6.5,0,1.7,0,3.5-.5,5.1-.6,2-1.5,4.1-3.3,5.2-1.7,1.2-4.2,1.9-6.3,1.7"/>
        <path class="cls-2" d="M36.9,91.6c.4-.3,1.1-1.1,1.7-3.1.3-1.1.4-2.5.4-4"/>
      </g>
      <path class="cls-1" d="M105.3,34.8v-17.6h-17.6c2.2,8.6,9,15.4,17.6,17.6Z"/>
    </g>
  </g>
</svg>