<?xml version="1.0" encoding="UTF-8"?>
<svg xmlns="http://www.w3.org/2000/svg" version="1.1" viewBox="0 0 128 128">
  <defs>
    <style>
      .cls-1 {
        fill: #c1d135;
      }

      .cls-2 {
        stroke-linecap: round;
      }

      .cls-2, .cls-3 {
        fill: none;
        stroke: #344154;
        stroke-miterlimit: 10;
        stroke-width: 3px;
      }

      .cls-4 {
        fill: #00ab28;
      }
    </style>
  </defs>
  <!-- Generator: Adobe Illustrator 28.7.3, SVG Export Plug-In . SVG Version: 1.2.0 Build 164)  -->
  <g>
    <g id="_圖層_1" data-name="圖層_1">
      <g>
        <g>
          <polyline class="cls-2" points="70.2 41.3 90.3 21.2 99.1 30 119.2 9.9"/>
          <polyline class="cls-3" points="110.4 9.9 119.2 9.9 119.2 18.7"/>
        </g>
        <g>
          <path class="cls-1" d="M91.9,109.2v-1.8h-.2c-.8,0-1.6-.2-2.3-.7v-1.8c.3.2.7.3,1.2.5.7.2,1.3.3,1.8.3.8,0,1.5-.2,2-.7s.7-1.1.7-1.9-.1-.9-.3-1.3c-.2-.4-.4-.7-.8-1s-.9-.6-1.8-1.1l-1.1-.5c-1.2-.6-2.1-1.2-2.6-2.1-.6-.8-.8-1.8-.8-3.1s.4-2,1.1-2.7c.8-.8,1.6-1.2,2.8-1.4h.1v-2h2v1.8h.2c.5,0,1,.2,1.4.2.4.1.7.2,1.1.3v1.8c-.6-.2-.8-.3-1.4-.4-.7-.2-1.3-.2-1.9-.2-.9,0-1.7.3-2.3.8-.6.6-.9,1.2-.9,2.1s.1.9.3,1.3.4.7.7,1c.3.2.9.6,2,1.1l1.4.7c1.2.6,2,1.2,2.4,1.9s.7,1.6.7,2.6-.3,2-1,2.7c-.7.8-1.3,1.1-2.3,1.4h-.1v2h-1.9v.2Z"/>
          <rect class="cls-3" x="58.6" y="79.2" width="67.9" height="38.9"/>
          <path class="cls-3" d="M116.4,99.6c0-.4-.3-.7-.7-.7s-.7.3-.7.7.3.7.7.7.7-.3.7-.7Z"/>
          <path class="cls-3" d="M70.2,99.6c0-.4-.3-.7-.7-.7s-.7.3-.7.7.3.7.7.7.7-.3.7-.7Z"/>
          <polyline class="cls-3" points="64.7 79.2 64.7 73.7 120.4 73.7 120.4 79.2"/>
          <polyline class="cls-3" points="69.3 73.7 69.3 69.2 115.8 69.2 115.8 73.7"/>
          <circle class="cls-3" cx="92.5" cy="98.6" r="15.4"/>
        </g>
        <path class="cls-4" d="M37.5,98.9v-2.8s-.4,0-.4,0c-.8,0-1.5-.2-2.1-.4-.5-.1-1-.3-1.5-.5v-2.6c.7.3,1.2.4,2.1.6,1.1.3,2,.4,2.9.4,1.5,0,2.7-.4,3.6-1.2.9-.8,1.4-1.9,1.4-3.2s-.1-1.5-.4-2.1c-.3-.6-.6-1.1-1.1-1.5-.5-.4-1.4-.9-3-1.6l-2.1-1c-1.7-.8-2.9-1.8-3.6-2.9-.7-1.1-1-2.4-1-4s.5-3,1.5-4.1c1-1.2,2-1.7,3.4-2.1h.3c0,0,0-3,0-3h2.7v2.8s.4,0,.4,0c1.2,0,2.4.3,3.5,1v2.5c-.5-.2-1-.5-1.7-.7-1-.3-2-.5-2.9-.5-1.3,0-2.4.4-3.2,1.2-.8.8-1.2,1.8-1.2,3s.1,1.4.4,2c.3.6.7,1.1,1.2,1.5.5.4,1.4.9,2.8,1.6l1.7.8c1.8.8,3.1,1.9,4,3.1.8,1.2,1.2,2.8,1.2,4.7s-.5,2.9-1.6,4c-1.2,1.2-2.3,1.8-4.2,2.2h-.3c0,0,0,3.1,0,3.1h-2.7Z"/>
        <path class="cls-3" d="M65.1,62l-10.7-14.3h-30.2l-15.2,20.4c-4.8,6.5-7.6,14.4-7.6,22.5,0,12.5,6.6,27.6,37.9,27.6s17.7-.2,17.7-.2"/>
        <path class="cls-3" d="M23.5,41.6h31.7c1.3,0,2.4,1.1,2.4,2.4v1.2c0,1.3-1.1,2.4-2.4,2.4h-31.7c-1.3,0-2.4-1.1-2.4-2.4v-1.2c0-1.3,1.1-2.4,2.4-2.4Z"/>
        <path class="cls-3" d="M49.9,28.1l-2.9,2.9-1.3-1.3c-3.4-3.4-8.8-3.4-12.2,0l-1.3,1.3-2.9-2.9c-2.7-2.7-7.2-2.7-9.9,0l-3.6,3.6,10.1,9.8h27.4l10.1-9.8-3.6-3.6c-2.7-2.7-7.2-2.7-9.9,0Z"/>
      </g>
    </g>
  </g>
</svg>