<?xml version="1.0" encoding="UTF-8"?>
<svg xmlns="http://www.w3.org/2000/svg" version="1.1" viewBox="0 0 128 128">
  <defs>
    <style>
      .cls-1 {
        fill: #c1d135;
      }

      .cls-2, .cls-3, .cls-4, .cls-5 {
        fill: none;
      }

      .cls-2, .cls-4 {
        stroke-linecap: round;
      }

      .cls-2, .cls-4, .cls-5 {
        stroke: #344154;
        stroke-width: 3px;
      }

      .cls-2, .cls-5 {
        stroke-miterlimit: 10;
      }

      .cls-6 {
        fill: #fff;
      }

      .cls-7 {
        fill: #00ab28;
      }

      .cls-4 {
        stroke-linejoin: round;
      }
    </style>
  </defs>
  <!-- Generator: Adobe Illustrator 28.7.3, SVG Export Plug-In . SVG Version: 1.2.0 Build 164)  -->
  <g>
    <g id="_圖層_1" data-name="圖層_1">
      <g>
        <path class="cls-4" d="M28.1,24.9v-5c0-3.8-2.9-6.9-6.6-6.9h0c-3.6,0-6.6,3.1-6.6,6.9v5"/>
        <line class="cls-4" x1="21.5" y1="13" x2="21.5" y2="1.5"/>
        <path class="cls-4" d="M41.1,87.3v-26.1c0-11.4-8.7-20.6-19.5-20.6S2,49.8,2,61.1v65.4"/>
        <line class="cls-4" x1="41.1" y1="126.5" x2="41.1" y2="107.1"/>
        <path class="cls-4" d="M36.2,47.5v-7.6c0-8.5-6.5-15.4-14.6-15.4s-14.6,6.9-14.6,15.4v7.6"/>
        <g>
          <line class="cls-5" x1="29.3" y1="83.7" x2="29.3" y2="86.5"/>
          <line class="cls-5" x1="29.3" y1="92.9" x2="29.3" y2="95.7"/>
          <line class="cls-5" x1="29.3" y1="102.1" x2="29.3" y2="104.9"/>
          <line class="cls-5" x1="21.5" y1="83.7" x2="21.5" y2="86.5"/>
          <line class="cls-5" x1="21.5" y1="92.9" x2="21.5" y2="95.7"/>
          <line class="cls-5" x1="21.5" y1="102.1" x2="21.5" y2="104.9"/>
          <line class="cls-5" x1="13.8" y1="83.7" x2="13.8" y2="86.5"/>
          <line class="cls-5" x1="13.8" y1="92.9" x2="13.8" y2="95.7"/>
          <line class="cls-5" x1="13.8" y1="102.1" x2="13.8" y2="104.9"/>
          <g>
            <line class="cls-5" x1="29.3" y1="74.5" x2="29.3" y2="77.3"/>
            <line class="cls-5" x1="21.5" y1="74.5" x2="21.5" y2="77.3"/>
            <line class="cls-5" x1="13.8" y1="74.5" x2="13.8" y2="77.3"/>
          </g>
        </g>
      </g>
      <g>
        <line class="cls-2" x1="126.4" y1="126.5" x2="126.4" y2="63.2"/>
        <g>
          <line class="cls-2" x1="87.4" y1="107.1" x2="87.4" y2="126.5"/>
          <line class="cls-2" x1="87.4" y1="63.2" x2="87.4" y2="87.3"/>
          <polyline class="cls-2" points="121.2 59 121.2 48 92.6 48 92.6 59"/>
          <path class="cls-2" d="M100.7,36.3h12.4c1.9,0,3.4,1.5,3.4,3.4v8.3h-19.1v-8.3c0-1.9,1.5-3.4,3.4-3.4Z"/>
          <line class="cls-2" x1="102.7" y1="36.3" x2="106.9" y2="26.6"/>
          <line class="cls-2" x1="111.1" y1="36.3" x2="106.9" y2="26.6"/>
          <line class="cls-2" x1="106.9" y1="26.6" x2="106.9" y2="17.4"/>
          <path class="cls-2" d="M87.4,80v-17.6c0-1.9,1.5-3.4,3.4-3.4h7.8v19"/>
          <path class="cls-2" d="M115.2,78v-19h7.8c1.9,0,3.4,1.5,3.4,3.4v17.6"/>
          <line class="cls-5" x1="97.2" y1="85.8" x2="103.8" y2="85.8"/>
          <line class="cls-5" x1="97.2" y1="92.7" x2="103.8" y2="92.7"/>
          <line class="cls-5" x1="97.2" y1="99.5" x2="103.8" y2="99.5"/>
          <line class="cls-5" x1="97.2" y1="106.4" x2="103.8" y2="106.4"/>
          <line class="cls-5" x1="116.6" y1="85.8" x2="110" y2="85.8"/>
          <line class="cls-5" x1="116.6" y1="92.7" x2="110" y2="92.7"/>
          <line class="cls-5" x1="116.6" y1="99.5" x2="110" y2="99.5"/>
          <line class="cls-5" x1="116.6" y1="106.4" x2="110" y2="106.4"/>
        </g>
      </g>
      <g>
        <polyline class="cls-2" points="77.6 64.1 77.6 73 87.4 73"/>
        <g>
          <line class="cls-3" x1="58.4" y1="64.8" x2="69.6" y2="64.8"/>
          <line class="cls-3" x1="58.4" y1="73" x2="69.6" y2="73"/>
          <line class="cls-3" x1="58.4" y1="81.2" x2="69.6" y2="81.2"/>
          <line class="cls-3" x1="58.4" y1="89.4" x2="69.6" y2="89.4"/>
        </g>
        <path class="cls-4" d="M77.6,64.1c0-7.5-6.1-13.6-13.6-13.6s-13.6,6.1-13.6,13.6"/>
        <polyline class="cls-2" points="50.4 64.1 50.4 73 41.1 73"/>
      </g>
      <g>
        <path class="cls-4" d="M44.9,97.3v1.5c0,1.2.9,2.1,2.1,2.2h3c.6,2.4,1.8,4.6,3.6,6.5l-1.6,2.6c-.6,1-.3,2.3.7,2.9l2.9,1.7c1,.6,2.3.3,2.9-.7l1.6-2.6c2.4.7,5,.7,7.4,0l1.5,2.7c.6,1,1.9,1.4,2.9.8l2.9-1.6c1-.6,1.4-1.9.8-2.9l-1.5-2.6c1.9-1.8,3.1-4,3.8-6.4h3c1.2,0,2.1-.9,2.2-2.1v-1.5"/>
        <path class="cls-4" d="M44.9,97.3v-1.5c0-1.2,1-2.1,2.2-2.1h3c.7-2.3,1.9-4.5,3.8-6.3l-1.5-2.6c-.6-1-.2-2.3.8-2.9l2.9-1.6c1-.6,2.3-.2,2.9.8l1.5,2.7c2.4-.6,5-.6,7.4,0l1.6-2.6c.6-1,1.9-1.3,2.9-.7l2.9,1.7c1,.6,1.3,1.9.7,2.9l-1.6,2.6c1.8,1.9,3,4.1,3.6,6.4h3c1.2,0,2.1,1,2.1,2.2v1.5"/>
        <circle class="cls-4" cx="64" cy="97.6" r="9.1" transform="translate(-47.3 132.7) rotate(-74.3)"/>
        <path class="cls-7" d="M68.2,93.5c-1.1-1.1-2.6-1.7-4.1-1.8-.2,0-.4,0-.5,0-.9,0-1.7.4-2.5.8.8.3,1.4.8,2,1.3,1.1,1.1,1.7,2.6,1.7,4.2,0,2.1-1.2,4-2.9,5,.7.3,1.4.4,2.1.4.2,0,.4,0,.5,0,3-.2,5.4-2.8,5.4-5.8,0-1.6-.6-3-1.7-4.2Z"/>
      </g>
      <rect class="cls-6" x="122.4" y="-82.7" width="55.7" height="49.3"/>
      <g>
        <rect class="cls-4" x="47.8" y="7.9" width="32.4" height="31.6"/>
        <polygon class="cls-4" points="75.3 12.7 52.7 12.7 52.7 34.8 68.2 34.8 75.3 27.7 75.3 12.7"/>
        <line class="cls-4" x1="54" y1="42.9" x2="54" y2="46.4"/>
        <line class="cls-4" x1="60.7" y1="42.9" x2="60.7" y2="46.4"/>
        <line class="cls-4" x1="67.3" y1="42.9" x2="67.3" y2="46.4"/>
        <line class="cls-4" x1="74" y1="42.9" x2="74" y2="46.4"/>
        <line class="cls-4" x1="54" y1="2" x2="54" y2="5.4"/>
        <line class="cls-4" x1="60.7" y1="2" x2="60.7" y2="5.4"/>
        <line class="cls-4" x1="67.3" y1="2" x2="67.3" y2="5.4"/>
        <line class="cls-4" x1="74" y1="2" x2="74" y2="5.4"/>
        <line class="cls-4" x1="86.1" y1="13.7" x2="82.7" y2="13.7"/>
        <line class="cls-4" x1="86.1" y1="20.4" x2="82.7" y2="20.4"/>
        <line class="cls-4" x1="86.1" y1="27.1" x2="82.7" y2="27.1"/>
        <line class="cls-4" x1="86.1" y1="33.8" x2="82.7" y2="33.8"/>
        <line class="cls-4" x1="45.3" y1="13.7" x2="41.9" y2="13.7"/>
        <line class="cls-4" x1="45.3" y1="20.4" x2="41.9" y2="20.4"/>
        <line class="cls-4" x1="45.3" y1="27.1" x2="41.9" y2="27.1"/>
        <line class="cls-4" x1="45.3" y1="33.8" x2="41.9" y2="33.8"/>
        <path class="cls-1" d="M68.4,15.1h-13.3v12.8s0,0,0-.1c2.6-5.1,6.8-9.3,11.9-12l1.4-.7Z"/>
      </g>
    </g>
  </g>
</svg>