<?xml version="1.0" encoding="UTF-8"?>
<svg xmlns="http://www.w3.org/2000/svg" version="1.1" viewBox="0 0 128 128">
  <defs>
    <style>
      .cls-1 {
        fill: #c1d135;
      }

      .cls-2, .cls-3 {
        stroke-linecap: round;
      }

      .cls-2, .cls-3, .cls-4 {
        fill: none;
        stroke: #344154;
        stroke-width: 3px;
      }

      .cls-2, .cls-4 {
        stroke-miterlimit: 10;
      }

      .cls-5 {
        fill: #00ab28;
      }

      .cls-3 {
        stroke-linejoin: round;
      }
    </style>
  </defs>
  <!-- Generator: Adobe Illustrator 28.7.3, SVG Export Plug-In . SVG Version: 1.2.0 Build 164)  -->
  <g>
    <g id="_圖層_1" data-name="圖層_1">
      <g id="_圖層_1-2" data-name="_圖層_1">
        <g id="Icon_Set">
          <g>
            <path class="cls-3" d="M80.6,71.5c-3.3-1.8-7-2.8-11-2.8h-11.2c-3.2,0-6.3.7-9.1,1.8"/>
            <line class="cls-3" x1="64" y1="68.7" x2="64" y2="15"/>
            <path class="cls-3" d="M70.9,8.1c0-3.8-3.1-6.9-6.9-6.9s-6.9,3.1-6.9,6.9,3.1,6.9,6.9,6.9,6.9-3.1,6.9-6.9Z"/>
            <polyline class="cls-3" points="22.3 22.4 22.3 12.1 57.1 8.1"/>
            <polyline class="cls-3" points="105.7 22.4 105.7 12.1 70.9 8.1"/>
            <path class="cls-3" d="M43.1,31h0c0,10.8-8.8,19.6-19.6,19.6h-2.3c-10.8,0-19.6-8.8-19.6-19.6h41.6,0Z"/>
            <path class="cls-3" d="M126.5,31h0c0,10.8-8.8,19.6-19.6,19.6h-2.3c-10.8,0-19.6-8.8-19.6-19.6h41.6,0Z"/>
          </g>
        </g>
        <g>
          <path class="cls-4" d="M94.9,96c-14.7,9.8-25.7-6.4-25.7-6.4-5.2-7.1-8.9.2-8.9.2-2.8,6.7-6.7,6-9,4.9-1.2-.6-1.8-2-1.4-3.2l1.8-6c.8-2.7,2.7-4.8,5.2-5.9l6.7-2.9c2.4-1.1,4.5-.8,7.5-.2l17.3,4.1,6.6,15.4h0Z"/>
          <path class="cls-4" d="M98.5,104.6l-11.4,3.6-7.2-9.9s8.4,3.4,14.8-2.3l3.6,8.6h.2Z"/>
          <polygon class="cls-5" points="0 57.3 0 109 10.1 113 28.3 68.7 0 57.3"/>
          <polyline class="cls-4" points="26.8 72.3 39.7 77.7 28.3 104.6 15.6 99.7"/>
          <polygon class="cls-1" points="128 60 128 111.9 117.9 115.8 99.7 71.5 128 60"/>
          <polyline class="cls-4" points="101.2 75.1 88.3 80.6 99.7 107.3 112.4 102.4"/>
          <path class="cls-2" d="M79.1,98.2l9.8,12.3c.8,1,1,2.2.6,3.3h0c-1,2.9-4.6,3.6-6.7,1.4l-13.5-14.4"/>
          <path class="cls-2" d="M63.4,107.6l11.3,11.9c3,3.2,8.5,2.1,9.8-2.2v-.2"/>
          <path class="cls-2" d="M57.9,113.2l9.4,10.4c1.1,1.2,2.5,2,4,2.1,1.8,0,4-.6,5.9-3.6"/>
          <path class="cls-4" d="M58.5,78.8c-8.5-2-18.8-1.1-18.8-1.1"/>
          <path class="cls-4" d="M30.3,99.9s13,8.9,27.1,22.8l4.4,4.2c2.2,2.2,6,1,6.5-2.1h0"/>
          <path class="cls-4" d="M37.8,105.5l-1.2,1.3c-1.1,1.3-1,3.2.3,4.3h0c1.4,1.1,3.4,1,4.5-.4l1.1-1.3"/>
          <path class="cls-4" d="M48.7,114.5l-2.6,2.8c-1.4,1.5-3.6,1.6-5.1.3h0c-1.6-1.4-1.7-3.6-.4-5.2l2.4-2.8"/>
          <path class="cls-4" d="M48.7,114.5l-1.7,1.8c-1.4,1.5-1.3,3.8.2,5.2h0c1.5,1.4,3.8,1.3,5.2-.2l1.7-1.9"/>
          <path class="cls-4" d="M59.1,124.2l-.9.9c-1.4,1.4-3.5,1.4-4.9,0h0c-1.4-1.3-1.5-3.5,0-4.9l.7-.7"/>
        </g>
      </g>
    </g>
  </g>
</svg>