<?xml version="1.0" encoding="UTF-8"?>
<svg xmlns="http://www.w3.org/2000/svg" version="1.1" viewBox="0 0 128 128">
  <defs>
    <style>
      .cls-1 {
        fill: #c1d135;
      }

      .cls-2 {
        fill: #fff;
      }

      .cls-3 {
        fill: #00ab28;
      }

      .cls-4 {
        stroke-linecap: round;
      }

      .cls-4, .cls-5 {
        fill: none;
        stroke: #344154;
        stroke-linejoin: round;
        stroke-width: 3px;
      }
    </style>
  </defs>
  <!-- Generator: Adobe Illustrator 28.7.3, SVG Export Plug-In . SVG Version: 1.2.0 Build 164)  -->
  <g>
    <g id="_圖層_1" data-name="圖層_1">
      <g>
        <g>
          <path class="cls-4" d="M96.5,42.2v-21c-4.8-3.9-11.2-5.2-17.4-4.8-6.1.4-12,2.4-17.9,4.4-5.8,2-11.7,4-17.8,4.5-6.1.5-12.6-.6-17.5-4.3"/>
          <path class="cls-4" d="M25.9,66c4.9,3.8,11.4,4.9,17.5,4.3,6.1-.5,12-2.6,17.8-4.5,5.8-2,11.7-4,17.9-4.4"/>
          <path class="cls-4" d="M25.9,88.4V17.9c2.3-1.6,3.8-4.2,3.8-7.2,0-4.8-3.9-8.7-8.7-8.7s-8.7,3.9-8.7,8.7,1.5,5.6,3.8,7.2v70.5"/>
        </g>
        <g>
          <path class="cls-5" d="M109.7,113v11c0,1.1-.9,2-2,2h-4.8c-1.1,0-2-.9-2-2v-11"/>
          <line class="cls-5" x1="109.7" y1="69.9" x2="109.7" y2="92.3"/>
          <path class="cls-5" d="M101,49.2v-11c0-1.1.9-2,2-2h4.8c1.1,0,2,.9,2,2v11"/>
          <line class="cls-5" x1="101" y1="92.3" x2="101" y2="69.9"/>
          <path class="cls-4" d="M84.2,64.6h0c0-2.8,2.2-5,5-5h32.3c2.8,0,5,2.2,5,5h0c0,2.8-2.2,5-5,5h-32.3c-2.8,0-5-2.2-5-5Z"/>
          <path class="cls-4" d="M95.4,59.5c-2.8,0-5-2.2-5-5h0c0-2.8,2.2-5,5-5h19.8c2.8,0,5,2.2,5,5h0c0,2.8-2.2,5-5,5"/>
          <path class="cls-4" d="M84.2,97.6"/>
          <path class="cls-4" d="M98.4,102.6h23.1c2.8,0,5-2.2,5-5h0c0-2.8-2.2-5-5-5h-32.3c-2.1,0-3.9,1.3-4.6,3.1"/>
          <path class="cls-1" d="M88,98.9c-.3-.3-.5-.8-.5-1.2,0-1,.8-1.8,1.8-1.8h32.3c.5,0,.9.2,1.2.5s.5.8.5,1.2c0,1-.8,1.8-1.8,1.8h-32.3c-.5,0-.9-.2-1.2-.5Z"/>
          <path class="cls-1" d="M88,65.8c-.3-.3-.5-.8-.5-1.2,0-1,.8-1.8,1.8-1.8h32.3c.5,0,.9.2,1.2.5s.5.8.5,1.2c0,1-.8,1.8-1.8,1.8h-32.3c-.5,0-.9-.2-1.2-.5Z"/>
          <path class="cls-4" d="M98.4,112.7h16.9c2.8,0,5-2.2,5-5h0c0-2.8-2.2-5-5-5"/>
          <path class="cls-4" d="M95.4,102.7"/>
        </g>
        <g>
          <path class="cls-4" d="M61,96.9c7.7,2.3,16.5,4.2,25.9,4.5,3.8.1,5.4,2.6,6.1,4.6.7,2.2.4,4.6-.7,6.7-5,9.3-23,11.5-23,11.5l-3.1-2.6c-16,3.3-35.5.4-35.5.4l-4,3.5c-6.5.8-11.3.2-14.9-1.1-6.8-2.4-11-9.1-10.1-16.2.7-6,3-12.4,4.7-16.4.7-1.7,3.1-1.9,4.1-.4,0,0,0,0,0,0,5.1,8.3,16.3,6.9,21.6-1.4.5-.8,1-1.7,1.4-2.6.5-1.2,2-1.7,3.1-1.1,1.2.7,2.6,1.2,4.6,2.2"/>
          <path class="cls-4" d="M48.8,92.7l-7.8,15-5.7.2-1.8-5.1,7.7-14.1c.6-1,1.7-1.3,2.7-.8,1.2.6,2.7,1.3,3.9,1.9,1.1.5,1.5,1.8.9,2.9Z"/>
          <path class="cls-4" d="M60.8,97.4l-6.6,15.3-5.7.8-2.3-4.9,6.6-14.4c.5-1,1.6-1.5,2.6-1.1,1.2.4,2.8,1,4.1,1.5,1.1.4,1.7,1.7,1.2,2.8Z"/>
          <path class="cls-4" d="M1.6,112.2c2.7-1.4,5.8-2.2,9-2.3,8.9-.3,16.7,4.8,20.3,12.3"/>
        </g>
        <g>
          <path class="cls-2" d="M73.4,40.8c.1-2.8.8-6.9,3.2-10.5,0,0-3.2-3.9-9.8-4.2,0,0-2.3,2.5-5.8,2.5s-5.8-2.5-5.8-2.5c-6.6.4-9.8,4.2-9.8,4.2,2.4,3.6,3.1,7.7,3.2,10.5,0,1.7-.2,3.3-.6,5-.9,3.2-.2,4.9-.2,4.9,2.8,8,13.2,10,13.2,10,0,0,10.4-2,13.2-10,0,0,.6-1.6-.2-4.9-.4-1.6-.7-3.3-.6-5Z"/>
          <path class="cls-4" d="M61,57.6c-2-.5-8.5-2.6-10.4-7.9,0-.1-.2-1.2.3-3.1.5-2,.8-4,.7-5.8,0-2.6-.6-6.2-2.4-9.7,1.1-.7,2.7-1.5,4.9-1.8,1.3,1,3.7,2.4,6.8,2.4s5.4-1.4,6.8-2.4c2.2.3,3.9,1.1,5,1.8-1.7,3.5-2.3,7.1-2.4,9.7,0,1.9.2,3.8.7,5.8.5,1.8.3,2.8.3,3.1h0c0,.1,0,0,0,0,0,0,0,0,0,0-1.9,5.3-8.4,7.4-10.4,7.9Z"/>
          <line class="cls-4" x1="61" y1="41.2" x2="61" y2="52.1"/>
          <line class="cls-4" x1="63.8" y1="44.1" x2="58.3" y2="44.1"/>
          <path class="cls-3" d="M69.7,34.1c.2-.8.5-1.6.8-2.3-.6-.3-1.4-.5-2.2-.7-1.7,1.1-4.1,2.3-7.2,2.3s-5.6-1.2-7.2-2.3c-.9.2-1.6.4-2.2.7.3.8.6,1.6.8,2.3,2.3,1.5,5.3,2.4,8.7,2.4s6.4-.9,8.7-2.4Z"/>
        </g>
      </g>
    </g>
  </g>
</svg>