<?xml version="1.0" encoding="UTF-8"?>
<svg xmlns="http://www.w3.org/2000/svg" version="1.1" viewBox="0 0 128 128">
  <defs>
    <style>
      .cls-1 {
        fill: #c1d135;
      }

      .cls-2 {
        stroke-miterlimit: 10;
      }

      .cls-2, .cls-3 {
        fill: none;
        stroke: #344154;
        stroke-linecap: round;
        stroke-width: 3px;
      }

      .cls-4 {
        fill: #00ab28;
      }

      .cls-5 {
        font-family: AdobeMingStd-Light-B5pc-H, 'Adobe Ming Std';
        font-size: 12px;
        font-weight: 300;
      }

      .cls-3 {
        stroke-linejoin: round;
      }
    </style>
  </defs>
  <!-- Generator: Adobe Illustrator 28.7.3, SVG Export Plug-In . SVG Version: 1.2.0 Build 164)  -->
  <g>
    <g id="_圖層_1" data-name="圖層_1">
      <g>
        <g>
          <g>
            <path class="cls-2" d="M58.9,106.4l-2.1-7.7c-2-6.9-6.8-12.6-13.3-15.6l-5.3-2.5c-3.2-1.5-5.5-4.3-6.5-7.6l-2.6-9.2.2-1.5c.4-3.1-1-6.1-3.7-7.7h0"/>
            <path class="cls-2" d="M32.5,91.1c-.4,0-.7,0-1.2,0-6.1.5-12.2-2.3-16-7.1-7.8-10.1-13.8-3.7-13.8-3.7,0,0,6.5,7.7,10.9,15.4,3.1,5.4,8.3,9.6,14.3,11.1.4,0,.8.2,1.2.3,4,.8,7.3,3.5,9.2,6.9"/>
            <path class="cls-2" d="M7.5,78.5l-2.7-12.2,7.8-24s4.5,1.2,3.4,8l-3.6,15.7,2.4,9.9"/>
            <path class="cls-2" d="M15.5,44.8l2.1-6.5s5.8,2.1,3.8,9.9l-3.3,17,2.6,9.2"/>
            <path class="cls-2" d="M21.8,44.8l.3.2c2.8,2,4.1,5.4,3.5,8.7l-1.9,10.1,2.7,9.3"/>
          </g>
          <polyline class="cls-3" points="56.3 122.4 37.9 128 32.9 115.7 58.9 106.4 58.9 112.6"/>
          <line class="cls-2" x1="35.1" y1="121" x2="58.9" y2="112.6"/>
        </g>
        <g>
          <g>
            <path class="cls-2" d="M69.2,106.4l2.1-7.7c2-6.9,6.8-12.6,13.3-15.6l5.3-2.5c3.2-1.5,5.5-4.3,6.5-7.6l2.6-9.2-.2-1.5c-.4-3.1,1.1-6.1,3.7-7.7h.2"/>
            <path class="cls-2" d="M95.5,91.1c.4,0,.7,0,1.2,0,6.1.5,12.2-2.3,16-7.1,7.8-10.1,13.8-3.7,13.8-3.7,0,0-6.5,7.7-10.9,15.4-3.1,5.4-8.3,9.6-14.3,11.1-.4,0-.8.2-1.2.3-4,.8-7.3,3.5-9.2,6.9"/>
            <path class="cls-2" d="M120.6,78.5l2.7-12.2-7.8-24s-4.5,1.2-3.4,8l3.6,15.7-2.4,9.9"/>
            <path class="cls-2" d="M112.6,44.8l-2.1-6.5s-5.8,2.1-3.8,9.9l3.3,17-2.6,9.2"/>
            <path class="cls-2" d="M106.2,44.8l-.3.2c-2.8,2-4.1,5.4-3.5,8.7l1.9,10.1-2.7,9.3"/>
          </g>
          <polyline class="cls-3" points="71.8 122.4 90.2 128 95.1 115.7 69.2 106.4 69.2 112.6"/>
          <line class="cls-2" x1="92.9" y1="121" x2="69.2" y2="112.6"/>
        </g>
      </g>
      <g>
        <g>
          <path class="cls-3" d="M70.5,23.9l3.6,2.9c1.1.9,1.7,2.2,1.7,2.6v8.9"/>
          <path class="cls-3" d="M57.5,23.9l-3.6,2.9c-1.1.9-1.7,2.2-1.7,3.6v12.9"/>
          <polyline class="cls-3" points="71.3 31.6 71.4 34.1 71.4 40.4"/>
          <polyline class="cls-3" points="56.7 31.6 56.6 34.1 56.6 45.4"/>
          <circle class="cls-3" cx="64" cy="15.2" r="7.4"/>
        </g>
        <g>
          <g>
            <path class="cls-3" d="M39.3,18l-3.6,2.9c-1.1.9-1.7,2.2-1.7,3.6v13.9"/>
            <polyline class="cls-3" points="38.4 25.8 38.4 28.3 38.4 39.6"/>
            <circle class="cls-3" cx="45.8" cy="9.4" r="7.4"/>
          </g>
          <g>
            <path class="cls-3" d="M88.7,18l3.6,2.9c1.1.9,1.7,2.2,1.7,3.6v8.9"/>
            <polyline class="cls-3" points="89.6 25.8 89.6 28.3 89.6 34.6"/>
            <circle class="cls-3" cx="82.2" cy="9.4" r="7.4"/>
          </g>
        </g>
      </g>
      <text class="cls-5" transform="translate(490 30)"><tspan x="0" y="0">c1d135</tspan></text>
      <g>
        <path class="cls-3" d="M62.1,81.4s18-26.9-20.8-33.3c0,0-10.8,31.3,20.9,33.3h0Z"/>
        <path class="cls-3" d="M67.6,80.9c29.6-4.3,19-37.5,19-37.5-11.9,1.6-18.8,6-22.6,9.6"/>
        <path class="cls-3" d="M62.1,81.4s-2.8-9.1-11.4-20.3"/>
        <path class="cls-3" d="M78.2,56.9s-9.1,4.1-12.3,14.8"/>
      </g>
      <path class="cls-4" d="M42.9,55.2s10.7,14.1,12.7,20.9c0,0-13.4,1.2-12.7-20.9Z"/>
      <path class="cls-1" d="M72,73.8s13.2.5,12.5-16.3c0,0-14,2.8-12.5,16.3Z"/>
    </g>
  </g>
</svg>