<?xml version="1.0" encoding="UTF-8"?>
<svg xmlns="http://www.w3.org/2000/svg" version="1.1" viewBox="0 0 128 128">
  <defs>
    <style>
      .cls-1 {
        fill: #c1d135;
      }

      .cls-2 {
        fill: #00ab28;
      }

      .cls-3 {
        fill: none;
        stroke: #344154;
        stroke-linecap: round;
        stroke-linejoin: round;
        stroke-width: 3px;
      }
    </style>
  </defs>
  <!-- Generator: Adobe Illustrator 28.7.3, SVG Export Plug-In . SVG Version: 1.2.0 Build 164)  -->
  <g>
    <g id="_圖層_1" data-name="圖層_1">
      <g>
        <path class="cls-2" d="M7.3,42.4c0,14.8,9.2,27.5,22.2,32.6,0,0,10.8-14.9,2-21,0,0-.1,0-.2-.1-3.9-2.8-4.3-8.6-.7-11.8,0,0,0,0,.1,0,2.6-2.3,3-6.2.9-9-.8-1.1-2.6-2.4-4.7-3.4-2.2-1-3.1-3.6-2-5.8,0,0,0-.1,0-.2,2.7-5-4-9.7-7.9-5.6-6.1,6.3-9.8,14.9-9.8,24.3Z"/>
        <path class="cls-2" d="M35.4,17.4c1.8-.4,3.7.4,4.3,2,.7,1.9-.5,4-2.8,4.5-2.3.5-4.3-.9-4.5-2.8-.2-1.7,1.2-3.3,3-3.7Z"/>
        <path class="cls-2" d="M41.2,10.3c.8-.2,1.6.2,1.9.9.3.8-.2,1.8-1.3,2-1,.2-1.9-.4-2-1.3,0-.8.5-1.5,1.3-1.7Z"/>
        <path class="cls-2" d="M28.8,11.9c1.2-.3,2.4.3,2.8,1.3.4,1.2-.3,2.6-1.8,2.9-1.5.3-2.8-.6-2.9-1.8-.1-1.1.8-2.1,1.9-2.4Z"/>
        <path class="cls-3" d="M36.8,82.4c-8.4-1.2-16.5-5-23-11.4-15.8-15.8-15.8-41.4,0-57.1s41.4-15.8,57.1,0c1.1,1.1,2.1,2.2,3.1,3.4"/>
      </g>
      <g>
        <path class="cls-3" d="M65.8,119.3c0-4-3.2-7.2-7.2-7.2s-7.2,3.2-7.2,7.2,3.2,7.2,7.2,7.2,7.2-3.2,7.2-7.2Z"/>
        <path class="cls-3" d="M59.3,119.3c0-.4-.3-.7-.7-.7s-.7.3-.7.7.3.7.7.7.7-.3.7-.7Z"/>
        <path class="cls-3" d="M103.9,119.3c0-.4-.3-.7-.7-.7s-.7.3-.7.7.3.7.7.7.7-.3.7-.7Z"/>
        <path class="cls-3" d="M110.3,119.3c0-4-3.2-7.2-7.2-7.2s-7.2,3.2-7.2,7.2,3.2,7.2,7.2,7.2,7.2-3.2,7.2-7.2Z"/>
        <line class="cls-3" x1="65.6" y1="120.8" x2="96" y2="120.8"/>
        <path class="cls-3" d="M51.6,120.8h-7.6c-4,0-7.2-3.2-7.2-7.2v-7.6c0-2.7,2.2-4.9,4.9-4.9h17.5c.8,0,1.4-.6,1.4-1.4v-9.5c0-.8-.6-1.4-1.4-1.4h-17.5"/>
        <polyline class="cls-3" points="41.6 88.8 41.6 101.1 41.6 101.1"/>
        <rect class="cls-3" x="67.8" y="88.8" width="18.9" height="12.3" rx="2.8" ry="2.8"/>
        <rect class="cls-3" x="94" y="88.8" width="18.9" height="12.3" rx="2.8" ry="2.8"/>
        <rect class="cls-1" x="97.8" y="92.6" width="11.2" height="4.6"/>
        <rect class="cls-1" x="71.6" y="92.6" width="11.2" height="4.6"/>
        <path class="cls-3" d="M113.4,68.3c5.5,0,9.9,4.4,9.9,9.9v36.9h0c1.3,0,2.4,1.1,2.4,2.4v.9c0,1.3-1.1,2.4-2.4,2.4h-13.1"/>
        <line class="cls-3" x1="88.9" y1="68.3" x2="98.2" y2="68.3"/>
        <line class="cls-3" x1="66.8" y1="68.3" x2="74.5" y2="68.3"/>
        <path class="cls-3" d="M41.6,88.8v-10.6c0-5.5,4.4-9.9,9.9-9.9"/>
        <line class="cls-3" x1="123.3" y1="115.1" x2="118" y2="115.1"/>
      </g>
      <g>
        <path class="cls-3" d="M66.8,18.3v12.6c0,1.5-1,2.7-2.5,3h0c-1.5.3-2.5,1.6-2.5,3.1v32c0,1.2-1,2.3-2.3,2.3h0c-1.2,0-2.3-1-2.3-2.3v-32c0-1.5-1-2.8-2.5-3.1h0c-1.4-.3-2.5-1.6-2.5-3v-12.6"/>
        <line class="cls-3" x1="57.1" y1="18.3" x2="57.1" y2="29.1"/>
        <line class="cls-3" x1="61.9" y1="18.3" x2="61.9" y2="29.1"/>
        <path class="cls-3" d="M84.1,51.1v18c0,1.2-1,2.3-2.3,2.3h0c-1.2,0-2.3-1-2.3-2.3V18.3s8.4,1.9,8.4,14.6v14.2h-1.9c-1.1,0-2,.9-2,1.9v2h.1Z"/>
        <g>
          <path class="cls-3" d="M103.2,42.3c0-1.8-.8-3.4-2-4.6-2-1.9-3.3-4.9-3.3-8.4,0-5.6,3.4-11,7.6-11s7.6,5.4,7.6,11-1.3,6.5-3.3,8.4c-1.3,1.2-2,2.8-2,4.5v26.8c0,1.2-1,2.3-2.3,2.3h0c-1.2,0-2.3-1-2.3-2.3v-26.8h0Z"/>
          <path class="cls-1" d="M105.5,27.6c1.8,0,3.4,1.3,4.6,3.4,0-.6.2-1.1.2-1.7,0-4.4-2.6-8.2-4.8-8.2s-4.8,3.8-4.8,8.2,0,1.1.2,1.7c1.2-2.1,2.8-3.4,4.6-3.4h0Z"/>
        </g>
      </g>
    </g>
  </g>
</svg>