<?xml version="1.0" encoding="UTF-8"?>
<svg xmlns="http://www.w3.org/2000/svg" version="1.1" viewBox="0 0 128 128">
  <defs>
    <style>
      .cls-1 {
        fill: #c1d135;
      }

      .cls-2 {
        fill: #00ab28;
      }

      .cls-3 {
        fill: none;
        stroke: #344154;
        stroke-linecap: round;
        stroke-linejoin: round;
        stroke-width: 3px;
      }
    </style>
  </defs>
  <!-- Generator: Adobe Illustrator 28.7.3, SVG Export Plug-In . SVG Version: 1.2.0 Build 164)  -->
  <g>
    <g id="_圖層_1" data-name="圖層_1">
      <path class="cls-3" d="M47.4,126.5c1.4-4.2,1.3-9.4.3-14-.6-2.7-2.6-4.9-5.4-5.6-2.5-.6-5.1-.9-7.7-.8-2.7,0-5.3.5-8,.2-6.1-.6-9.8-4.6-7.2-11,1.4-3.1,0-5-1-6.8-2.9-5.2,1.4-6.3,1.4-9.9s-1.3-2.9-2.9-3.1c-2.3-.3-4.4-1.2-5.6-2.5-1.1-1.1-1.2-2.8-.5-4.1,10.7-17.3,8.4-12.8,12.1-37.1C25.6,15.7,43.3-3.3,78.8,2.6c7.4,1.2,14.9,3.4,21.1,7.7,14.5,9.9,22.3,30.7,14.7,54.9-4.3,13.6-13.7,28.2-10.8,43.4l4.1,17"/>
      <g>
        <path class="cls-3" d="M41.1,26.4v3h0c0,.6.5,1.2,1.2,1.2h5c-.1,1-.2,2.1-.3,3.1v.2c-.7,5.2-3.5,10.1-7.9,13-6,3.9-9.8,10.9-9.1,18.7.8,9.9,8.9,18,18.9,18.6h2.9c9.9-.7,18.1-8.7,18.9-18.6.6-7.8-3.2-14.8-9.1-18.7-4.4-2.9-7.2-7.8-7.8-13v-.2c-.6-4.2-.8-8.5-.8-12.8v-6.2c0-.7-.6-1.3-1.3-1.3h-2.5c-.7,0-1.3.6-1.3,1.3v6.2c0,1.5,0,3-.1,4.4h-5.3c-.6,0-1.2.5-1.2,1.2h0"/>
        <path class="cls-2" d="M39.2,72.4c-1.3,0-2.6-.1-3.9-.2,2.7,4.8,7.8,8.2,13.5,8.6h2.7c8.3-.6,14.9-7.3,15.6-15.6.2-2.4-.1-4.7-.9-6.9-6,8.5-15.8,14.1-27,14.1Z"/>
        <g>
          <path class="cls-1" d="M96.8,80.8v-11.5c-.9,1.3-2.3,2.1-4,2.1s-3.5-1.1-4.3-2.6c-.8,1.6-2.4,2.6-4.3,2.6s-3.4-1-4.2-2.5v11.9h16.7,0Z"/>
          <path class="cls-3" d="M93.3,45.2s-.5,4,4.9,9.3c1.3,1.3,2,3,2,4.7v24.9h-23.4v-24.9c0-1.8.7-3.5,2-4.7,5.4-5.3,4.9-9.3,4.9-9.3"/>
          <path class="cls-3" d="M95.9,45.2h-14.9c-.6-1.7-.6-3.6,0-5.2h14.9c.6,1.7.6,3.6,0,5.2h0Z"/>
          <path class="cls-3" d="M84.1,39.9v-5.5c0-1,.8-1.8,1.8-1.8h5.1c1,0,1.8.8,1.8,1.8v5.5"/>
        </g>
      </g>
    </g>
  </g>
</svg>