<?xml version="1.0" encoding="UTF-8"?>
<svg xmlns="http://www.w3.org/2000/svg" version="1.1" viewBox="0 0 128 128">
  <defs>
    <style>
      .cls-1 {
        stroke: #344154;
      }

      .cls-1, .cls-2 {
        fill: none;
        stroke-linecap: round;
        stroke-miterlimit: 10;
        stroke-width: 3px;
      }

      .cls-3 {
        font-family: AdobeMingStd-Light-B5pc-H, 'Adobe Ming Std';
        font-size: 12px;
        font-weight: 300;
      }

      .cls-2 {
        stroke: #e89716;
      }
    </style>
  </defs>
  <!-- Generator: Adobe Illustrator 28.7.3, SVG Export Plug-In . SVG Version: 1.2.0 Build 164)  -->
  <g>
    <g id="_圖層_1" data-name="圖層_1">
      <g id="_圖層_1-2" data-name="_圖層_1">
        <g id="_圖層_2">
          <g id="Icon_Set">
            <g>
              <path class="cls-1" d="M86,25.5c-8.9-8.9-21.3-14.5-35-14.5C23.7,11,1.5,33.2,1.5,60.5s22.2,49.6,49.6,49.6,49.6-22.2,49.6-49.6-.4-7.3-1.1-10.7"/>
              <path class="cls-2" d="M51.1,21.2c-21.7,0-39.3,17.6-39.3,39.3"/>
              <path class="cls-1" d="M70.8,40.2c-5.1-4.9-12-7.9-19.8-7.9-15.7,0-28.3,12.7-28.3,28.3s12.7,28.3,28.3,28.3,28.3-12.7,28.3-28.3-.2-4-.7-5.9"/>
              <line class="cls-1" x1="24.5" y1="102.8" x2="15.7" y2="117"/>
              <line class="cls-1" x1="77.6" y1="102.8" x2="86.5" y2="117"/>
              <line class="cls-1" x1="51.1" y1="60.5" x2="94.4" y2="36.7"/>
              <polyline class="cls-1" points="106.8 40 94.4 36.7 97.7 24.3"/>
              <polyline class="cls-1" points="116.6 34.4 104.2 31.1 107.6 18.7"/>
              <polyline class="cls-1" points="126.5 28.8 114.1 25.5 117.4 13.2"/>
              <polyline class="cls-1" points="52.9 50.7 50.6 60.7 60.9 63.7"/>
            </g>
          </g>
        </g>
      </g>
      <text class="cls-3" transform="translate(40 157.6)"><tspan x="0" y="0">自我實現</tspan></text>
    </g>
  </g>
</svg>