<?xml version="1.0" encoding="UTF-8"?>
<svg xmlns="http://www.w3.org/2000/svg" version="1.1" viewBox="0 0 128 128">
  <defs>
    <style>
      .cls-1 {
        stroke-linecap: round;
      }

      .cls-1, .cls-2, .cls-3 {
        fill: none;
        stroke: #344154;
        stroke-width: 3px;
      }

      .cls-1, .cls-3 {
        stroke-miterlimit: 10;
      }

      .cls-4 {
        fill: #e89716;
      }

      .cls-5 {
        fill: #773d09;
      }

      .cls-6 {
        font-family: AdobeMingStd-Light-B5pc-H, 'Adobe Ming Std';
        font-size: 12px;
        font-weight: 300;
      }

      .cls-2 {
        stroke-linejoin: round;
      }
    </style>
  </defs>
  <!-- Generator: Adobe Illustrator 28.7.3, SVG Export Plug-In . SVG Version: 1.2.0 Build 164)  -->
  <g>
    <g id="_圖層_1" data-name="圖層_1">
      <g id="_圖層_1-2" data-name="_圖層_1">
        <g id="_圖層_1-2">
          <g id="_圖層_1-2-2" data-name="_圖層_1-2">
            <g id="_圖層_1-2-2">
              <g id="_圖層_2">
                <g id="Icon_Set">
                  <g>
                    <path class="cls-1" d="M43.8,23.5s-3.6-6.6,4.1-7.7c0,0,1.6,4.2,7.9,4.9,3.7.4,5.8,4.6,3.9,7.7h0"/>
                    <path class="cls-1" d="M47.9,15.9h0c-.5-2.6,1.9-4.8,4.4-4.1,2,.6,5.1,1.1,9,.3,2-.4,4,0,5.6,1.1,2.6,1.7,6.4,4.8,9.8,9"/>
                    <path class="cls-1" d="M60.5,25.2l16.6-2.6c1.7-.3,3.5-.2,5.2.2l3,.7c3.6.8,5.3,5,3.2,7.9h0s4.5,2,3,8c0,0,3.9,2.5,1.6,7.3,0,0,4.1,2.3,2.8,6.9h0c-7.1,5.5-14.8,10.2-22.8,14.1l-3.5,1.7-13.7,1.3c-3.7.4-7.3,1.3-10.7,2.9l-21.9,14.3"/>
                    <path class="cls-1" d="M39.3,39.1s-3.3,1-3,4c.2,1.7,1.5,3,3.1,3.5l5,1.4c2.2.6,4.7-.7,5.2-2.9.2-.9,0-2-.7-3.1"/>
                    <line class="cls-1" x1="38.9" y1="46.4" x2="22.7" y2="58.3"/>
                    <path class="cls-1" d="M69,69.5s23.5,13.2,36.2,18.7"/>
                    <line class="cls-1" x1="95.4" y1="53.8" x2="103.9" y2="58.1"/>
                    <line class="cls-1" x1="88" y1="31.5" x2="77.4" y2="32.5"/>
                    <line class="cls-1" x1="91" y1="39.5" x2="79.4" y2="42.4"/>
                    <line class="cls-1" x1="92.5" y1="46.8" x2="82.7" y2="52.1"/>
                    <polyline class="cls-2" points="11.6 60.4 22.7 54.5 22.7 92.6 10.8 99"/>
                    <path class="cls-4" d="M13.4,59.6v46.6c0,1.2-.6,2.3-1.6,2.9l-11.8,7.1v-54.5l8.3-5c2.2-1.3,5.1.3,5.1,2.9h0Z"/>
                    <polyline class="cls-2" points="116.4 60.4 105.3 54.5 105.3 92.6 117.2 99"/>
                    <path class="cls-5" d="M114.6,59.6v46.6c0,1.2.6,2.3,1.6,2.9l11.8,7.2v-54.5l-8.3-5c-2.2-1.3-5.1.3-5.1,2.9h0Z"/>
                    <path class="cls-3" d="M51.6,35.1l4.4,1.2c2.3.7,4.7-.7,5.4-3h0c.7-2.3-.6-4.7-2.8-5.4l-12.5-4.2c-1.6-.5-3.4-.3-4.7.7-.8.7-1.5,1.7-1.7,3.2-.3,2.1,1,4,3,4.6l13,4.1-.9,2.7c-.8,2.5-3.5,3.8-5.9,2.9l-.7-.3-9.1-2.7c-2-.8-2.9-3.7-2-5.6.5-1.1,1.6-2.1,3.9-2.3"/>
                  </g>
                </g>
              </g>
            </g>
          </g>
        </g>
      </g>
      <text class="cls-6" transform="translate(40 157.6)"><tspan x="0" y="0">利他取向</tspan></text>
    </g>
  </g>
</svg>