<?xml version="1.0" encoding="UTF-8"?>
<svg xmlns="http://www.w3.org/2000/svg" version="1.1" viewBox="0 0 128 128">
  <defs>
    <style>
      .cls-1 {
        fill: #e89716;
      }

      .cls-2 {
        font-family: AdobeMingStd-Light-B5pc-H, 'Adobe Ming Std';
        font-size: 12px;
        font-weight: 300;
      }

      .cls-3 {
        fill: none;
        stroke: #344154;
        stroke-linejoin: round;
        stroke-width: 3px;
      }
    </style>
  </defs>
  <!-- Generator: Adobe Illustrator 28.7.3, SVG Export Plug-In . SVG Version: 1.2.0 Build 164)  -->
  <g>
    <g id="_圖層_1" data-name="圖層_1">
      <g id="_圖層_1-2" data-name="_圖層_1">
        <g id="_圖層_2">
          <g id="Icon_Set">
            <g>
              <path class="cls-3" d="M97.3,1.5H30.7s-5.4,38.1,23,67.3h20.6C102.7,39.6,97.3,1.5,97.3,1.5Z"/>
              <path class="cls-3" d="M98.8,126.5h0c0-8.4-6.8-15.2-15.2-15.2h-39.1c-8.4,0-15.2,6.8-15.2,15.2h69.6-.1Z"/>
              <path class="cls-3" d="M82.6,102c-1-1.6-2.2-2.6-3.3-3.3-3.3-2.1-9-5.5-9-11.7s4.1-11.4,4.1-11.4l-.3-7h-20.1l-.3,7s4.1,3.5,4.1,11.4-5.8,9.6-9,11.7c-1.1.7-2.2,1.7-3.3,3.3-2.9,4.4-2.5,9.3-2.5,9.3h42s.4-4.8-2.5-9.3h.1Z"/>
              <g>
                <path class="cls-3" d="M97.7,14.1h21.1c1.7,0,2.9,1.5,2.7,3.2-1.5,8.3-7.8,29.8-32,29.8"/>
                <path class="cls-3" d="M30.3,14.1H9.2c-1.7,0-3,1.5-2.7,3.2,1.5,8.3,7.8,29.8,32,29.8"/>
              </g>
              <path class="cls-1" d="M91.5,7.8h-23c-.7,10.1-4.4,29.8-22.3,40.3,2.7,4.9,6,9.8,10.3,14.4h15.2c18.1-19.9,20-44.2,19.8-54.8h0Z"/>
            </g>
          </g>
        </g>
      </g>
      <text class="cls-2" transform="translate(40 157.6)"><tspan x="0" y="0">社會尊嚴</tspan></text>
    </g>
  </g>
</svg>