<?xml version="1.0" encoding="UTF-8"?>
<svg xmlns="http://www.w3.org/2000/svg" version="1.1" viewBox="0 0 128 128">
  <defs>
    <style>
      .cls-1 {
        fill: #773d09;
      }

      .cls-2 {
        font-family: AdobeMingStd-Light-B5pc-H, 'Adobe Ming Std';
        font-size: 12px;
        font-weight: 300;
      }

      .cls-3 {
        stroke-linecap: round;
        stroke-linejoin: round;
      }

      .cls-3, .cls-4 {
        fill: none;
        stroke: #344154;
        stroke-width: 3px;
      }

      .cls-4 {
        stroke-miterlimit: 10;
      }
    </style>
  </defs>
  <!-- Generator: Adobe Illustrator 28.7.3, SVG Export Plug-In . SVG Version: 1.2.0 Build 164)  -->
  <g>
    <g id="_圖層_1" data-name="圖層_1">
      <g id="_圖層_1-2" data-name="_圖層_1">
        <g id="_圖層_1-2">
          <g id="_圖層_1-2-2" data-name="_圖層_1-2">
            <g id="_圖層_2">
              <g id="Icon_Set">
                <g>
                  <path class="cls-3" d="M78.8,101.7c.5-4.1-2-8-5.9-9.4h0l6.4-15.7,6.3,6.9c3.4,3.8,4.4,9.3,2.5,14.1l-6,12.1c-3,6.1,1.3,13.4,8.1,13.5h25.2c5.7,0,10.6-4.2,11-9.9.4-5.4-3.1-10-8-11.3v-.9c0-3.7-2.9-6.6-6.6-6.6s-1.2,0-1.7.2h0c0-3.7-2.9-6.6-6.6-6.6s-3.7.9-4.9,2.2"/>
                  <path class="cls-4" d="M76.6,21.9s-4.6,2-12.7,2-12.7-2-12.7-2"/>
                  <path class="cls-4" d="M72.1,47c0-4.5-3.6-8.1-8.1-8.1s-8.1,3.6-8.1,8.1,3.6,8.1,8.1,8.1,8.1-3.6,8.1-8.1Z"/>
                  <path class="cls-3" d="M58.5,97.7c0,6.3,1.5,14.6,5.5,25.5,4-10.9,5.6-19.4,5.5-25.5"/>
                  <path class="cls-1" d="M64.4,43c.5.6.9,1.3.9,2.2,0,1.8-1.4,3.1-3.1,3.1s-1.6-.3-2.2-.9c.2,2.1,2,3.7,4,3.7s4.1-1.9,4.1-4.1-1.7-3.8-3.7-4h0Z"/>
                  <path class="cls-3" d="M49.2,101.7c-.5-4.1,2-8,5.9-9.4h0l-6.4-15.7-6.3,6.9c-3.4,3.8-4.4,9.3-2.5,14.1l5.9,12.1c2.9,6.1-1.3,13.4-8.1,13.5H12.5c-5.7,0-10.7-4.2-11-9.9-.4-5.4,3.1-10,8-11.3v-.9c0-3.7,2.9-6.6,6.6-6.6s1.2,0,1.7.2h0c0-3.7,2.9-6.6,6.5-6.6s3.7.9,4.9,2.2"/>
                  <path class="cls-4" d="M48.7,76.6C31.4,34.3,64,4.7,64,4.7c0,0,32.6,29.5,15.3,72"/>
                  <path class="cls-4" d="M55.8,47c0-4.5,3.6-8.1,8.1-8.1s8.1,3.6,8.1,8.1-3.6,8.1-8.1,8.1-8.1-3.6-8.1-8.1Z"/>
                  <path class="cls-3" d="M69.5,97.7c0,6.3-1.5,14.6-5.5,25.5-4-10.9-5.6-19.4-5.5-25.5"/>
                </g>
              </g>
            </g>
          </g>
        </g>
      </g>
      <text class="cls-2" transform="translate(40 157.6)"><tspan x="0" y="0">專業成長</tspan></text>
    </g>
  </g>
</svg>