<?xml version="1.0" encoding="UTF-8"?>
<svg xmlns="http://www.w3.org/2000/svg" version="1.1" viewBox="0 0 128 128">
  <defs>
    <style>
      .cls-1 {
        fill: #e89716;
      }

      .cls-2 {
        fill: #773d09;
      }

      .cls-3 {
        font-family: AdobeMingStd-Light-B5pc-H, 'Adobe Ming Std';
        font-size: 12px;
        font-weight: 300;
      }

      .cls-4 {
        fill: none;
        stroke: #344154;
        stroke-linecap: round;
        stroke-linejoin: round;
        stroke-width: 3px;
      }
    </style>
  </defs>
  <!-- Generator: Adobe Illustrator 28.7.3, SVG Export Plug-In . SVG Version: 1.2.0 Build 164)  -->
  <g>
    <g id="_圖層_1" data-name="圖層_1">
      <g id="_圖層_1-2" data-name="_圖層_1">
        <g id="_圖層_1-2">
          <g>
            <line class="cls-4" x1="64.1" y1="78.6" x2="50.1" y2="92.6"/>
            <polyline class="cls-4" points="64.1 63.2 64.1 78.6 77.9 92.4"/>
          </g>
          <path class="cls-4" d="M55.6,27.4l-12.2,8s-1.7,18.2-1.7,19.3"/>
          <path class="cls-4" d="M55.6,27.4h0l.2,9.1c0,2.6,1.3,5,3.3,6.7l4.9,4.1,4.9-4.1c2-1.7,3.2-4.1,3.3-6.7l.2-9.1h0c-5,3.6-11.8,3.6-16.8,0h0Z"/>
          <path class="cls-2" d="M58.6,32.3h0v2.3c0,.7,1,1.3,2.3,1.7l3.2,1,3.2-1c1.3-.4,2.1-1,2.1-1.7v-2.3h0c-3.2.9-7.6.9-10.9,0h.1Z"/>
          <path class="cls-1" d="M18.3,103.6h0v2.3c.1.7,1,1.3,2.3,1.7l3.2,1,3.2-1c1.3-.4,2.1-1,2.1-1.7v-2.3h.1c-3.2.9-7.6.9-10.9,0h0Z"/>
          <path class="cls-1" d="M98.6,103.6h0v2.3c0,.7,1,1.3,2.3,1.7l3.2,1,3.2-1c1.3-.4,2.1-1,2.1-1.7v-2.3h0c-3.2.9-7.6.9-10.9,0h.1Z"/>
          <path class="cls-4" d="M86.4,54.7c0-1.2-1.7-19.3-1.7-19.3l-12.2-8"/>
          <path class="cls-4" d="M73,12.9c0-6-4-10.9-8.9-10.9s-8.9,4.9-8.9,10.9,3.9,10.9,8.9,10.9,8.9-4.9,8.9-10.9Z"/>
          <line class="cls-4" x1="64" y1="47.3" x2="64" y2="54.7"/>
          <g>
            <path class="cls-4" d="M15.4,98.7l-12.2,8s-1.7,18.2-1.7,19.3"/>
            <path class="cls-4" d="M15.4,98.7h0l.2,9.1c0,2.6,1.3,5,3.3,6.7l4.9,4.1,4.9-4.1c2-1.7,3.2-4.1,3.3-6.7l.2-9.1h0c-5,3.6-11.8,3.6-16.8,0h0Z"/>
            <path class="cls-4" d="M46.3,126.1c0-1.2-1.7-19.3-1.7-19.3l-12.2-8"/>
            <path class="cls-4" d="M32.7,84.2c0-6-3.9-10.9-8.9-10.9s-9,4.9-9,10.9,4,10.9,9,10.9,8.9-4.9,8.9-10.9Z"/>
            <line class="cls-4" x1="23.9" y1="118.6" x2="23.9" y2="126.1"/>
          </g>
          <g>
            <path class="cls-4" d="M95.7,98.7l-12.2,8s-1.7,18.2-1.7,19.3"/>
            <path class="cls-4" d="M95.7,98.7h0l.2,9.1c0,2.6,1.3,5,3.3,6.7l4.9,4.1,4.9-4.1c2-1.7,3.2-4.1,3.3-6.7l.2-9.1h0c-5,3.6-11.8,3.6-16.9,0h0Z"/>
            <path class="cls-4" d="M126.5,126.1c0-1.2-1.7-19.3-1.7-19.3l-12.2-8"/>
            <path class="cls-4" d="M113.1,84.2c0-6-4-10.9-8.9-10.9s-9,4.9-9,10.9,4,10.9,9,10.9,8.9-4.9,8.9-10.9Z"/>
            <line class="cls-4" x1="104.2" y1="118.6" x2="104.2" y2="126.1"/>
          </g>
        </g>
      </g>
      <text class="cls-3" transform="translate(40 157.5)"><tspan x="0" y="0">人際互動</tspan></text>
    </g>
  </g>
</svg>