<?xml version="1.0" encoding="UTF-8"?>
<svg xmlns="http://www.w3.org/2000/svg" version="1.1" viewBox="0 0 128 128">
  <defs>
    <style>
      .cls-1 {
        fill: #773d09;
      }

      .cls-2 {
        font-family: AdobeMingStd-Light-B5pc-H, 'Adobe Ming Std';
        font-size: 12px;
        font-weight: 300;
      }

      .cls-3 {
        fill: none;
        stroke: #344154;
        stroke-linecap: round;
        stroke-linejoin: round;
        stroke-width: 3px;
      }
    </style>
  </defs>
  <!-- Generator: Adobe Illustrator 28.7.3, SVG Export Plug-In . SVG Version: 1.2.0 Build 164)  -->
  <g>
    <g id="_圖層_1" data-name="圖層_1">
      <g id="_圖層_1-2" data-name="_圖層_1">
        <g id="_圖層_1-2">
          <g id="_圖層_1-2-2" data-name="_圖層_1-2">
            <g id="_圖層_1-2-2">
              <g id="_圖層_1-2-2-2" data-name="_圖層_1-2-2">
                <g id="_圖層_2">
                  <g id="Icon_Set">
                    <g>
                      <g>
                        <line class="cls-3" x1="80.2" y1="116" x2="75.9" y2="116"/>
                        <line class="cls-3" x1="83" y1="104.8" x2="76.7" y2="104.8"/>
                        <line class="cls-3" x1="85.1" y1="93.5" x2="77.5" y2="93.5"/>
                        <path class="cls-3" d="M20.5,126.3h17.1c1.4,0,2.3-1.1,2.3-2.3v-41.7c0-1.3-1.1-2.3-2.3-2.3h-17.1v46.5h0s0-.2,0-.2Z"/>
                        <path class="cls-3" d="M40,122.9s18.6,3.3,39.9,3.3,5.8-1.7,5.8-5.1-2.3-5.2-5.6-5.2h2.4c3,0,5.6-2.2,5.8-5.2.2-3.3-2.3-6-5.6-6h2.4c3,0,5.6-2.2,5.8-5.2.2-3.3-2.3-6-5.6-6h2.4c3,0,5.6-2.2,5.8-5.2.2-3.3-2.3-6-5.6-6h-20.5c-1.7,0-3-1.6-2.6-3.2,1.6-7.1.2-13.1-2.1-18-2-4.4-8.6-2.9-8.7,1.8-.3,16.2-14.1,20.5-14.1,20.5"/>
                      </g>
                      <g>
                        <line class="cls-3" x1="76" y1="82.4" x2="76" y2="45.1"/>
                        <line class="cls-3" x1="65.1" y1="45.1" x2="65.1" y2="68.6"/>
                      </g>
                      <rect class="cls-3" x="33.7" y="1.5" width="73.7" height="43.6"/>
                      <path class="cls-1" d="M70.6,7.3s18.2,10.2,18.2,32h12.9V7.3h-31.1Z"/>
                    </g>
                  </g>
                </g>
              </g>
            </g>
          </g>
        </g>
      </g>
      <text class="cls-2" transform="translate(40 157.6)"><tspan x="0" y="0">自主彈性</tspan></text>
    </g>
  </g>
</svg>