<?xml version="1.0" encoding="UTF-8"?>
<svg xmlns="http://www.w3.org/2000/svg" version="1.1" viewBox="0 0 128 128">
  <defs>
    <style>
      .cls-1 {
        fill: #e89716;
      }

      .cls-2 {
        font-family: AdobeMingStd-Light-B5pc-H, 'Adobe Ming Std';
        font-size: 12px;
        font-weight: 300;
      }

      .cls-3 {
        fill: none;
        stroke: #344154;
        stroke-linecap: round;
        stroke-linejoin: round;
        stroke-width: 3px;
      }
    </style>
  </defs>
  <!-- Generator: Adobe Illustrator 28.7.3, SVG Export Plug-In . SVG Version: 1.2.0 Build 164)  -->
  <g>
    <g id="_圖層_1" data-name="圖層_1">
      <g id="_圖層_1-2" data-name="_圖層_1">
        <g id="_圖層_1-2">
          <g id="_圖層_1-2-2" data-name="_圖層_1-2">
            <g id="_圖層_1-2-2">
              <g id="_圖層_2">
                <g id="Icon_Set">
                  <g>
                    <g>
                      <path class="cls-3" d="M61.1,59.7S88.8,18.5,29,8.6c0,0-16.6,48.2,32.1,51.2h0Z"/>
                      <path class="cls-3" d="M69.6,59.1C115,52.5,98.7,1.5,98.7,1.5c-18.3,2.4-29,9.2-34.8,14.8"/>
                      <path class="cls-3" d="M61.1,59.7s-4.3-13.9-17.5-31.2"/>
                      <path class="cls-3" d="M85.9,22.2s-13.9,6.4-18.9,22.8"/>
                    </g>
                    <path class="cls-3" d="M28.4,74.5l10.7,48.4c.5,2.1,2.3,3.6,4.5,3.6h40.5c2.2,0,4-1.5,4.5-3.6l10.7-48.4"/>
                    <path class="cls-3" d="M47.2,74.5h-18.7c-2.2,0-4-1.8-4-4h0c0-2.2,1.8-4,4-4h71c2.2,0,4,1.8,4,4h0c0,2.2-1.8,4-4,4"/>
                    <path class="cls-1" d="M41.9,107.8h0l2.8,12.7h38.3l7.3-33.2s-11.2,27.4-48.4,20.4h0Z"/>
                  </g>
                </g>
              </g>
            </g>
          </g>
        </g>
      </g>
      <text class="cls-2" transform="translate(40 157.6)"><tspan x="0" y="0">安定舒適</tspan></text>
    </g>
  </g>
</svg>