<?xml version="1.0" encoding="UTF-8"?>
<svg id="_圖層_1" xmlns="http://www.w3.org/2000/svg" version="1.1" xmlns:xlink="http://www.w3.org/1999/xlink" viewBox="0 0 956 163">
  <!-- Generator: Adobe Illustrator 29.3.0, SVG Export Plug-In . SVG Version: 2.1.0 Build 146)  -->
  <defs>
    <style>
      .st0 {
        fill: url(#_未命名漸層);
      }

      .st1 {
        fill: url(#_未命名漸層_2);
      }

      .st2 {
        fill: #f7f097;
      }
    </style>
    <linearGradient id="_未命名漸層_2" data-name="未命名漸層 2" x1="197.4" y1="42.5" x2="760.6" y2="42.5" gradientUnits="userSpaceOnUse">
      <stop offset="0" stop-color="#0068b7"/>
      <stop offset=".3" stop-color="#454acd"/>
      <stop offset=".7" stop-color="#d63384"/>
      <stop offset="1" stop-color="#ff6f00"/>
    </linearGradient>
    <linearGradient id="_未命名漸層" data-name="未命名漸層" x1="2.2" y1="120.3" x2="953.8" y2="120.3" gradientUnits="userSpaceOnUse">
      <stop offset="0" stop-color="#0068b7"/>
      <stop offset=".2" stop-color="#1785c8"/>
      <stop offset=".5" stop-color="#1f97d5"/>
      <stop offset=".8" stop-color="#1785c8"/>
      <stop offset="1" stop-color="#0068b7"/>
    </linearGradient>
  </defs>
  <path class="st1" d="M225.6,75.3c-3.2,0-6-.2-8.6-.7-1.2-.2-2.1-1.1-2.3-2.3l-1.2-6.2c-.2-.9.1-1.8.7-2.5.4-.4.9-.7,1.4-.8h-15.5c-1.6,0-2.8-1.3-2.8-2.8v-5.1c0-1.5,1.1-2.7,2.6-2.8-.8-.5-1.3-1.4-1.3-2.4v-12.5c0-1.6,1.3-2.8,2.8-2.8h.7v-18.4c0-1.4,1-2.6,2.4-2.8,4.2-.6,8.5-1.9,13-3.9.4-.2.8-.2,1.1-.2,1,0,2,.6,2.5,1.6l.6,1.2,1-1.1c.6-.6,1.3-.9,2.1-.9s.9.1,1.4.3c1.3.7,2.6,1.5,4.1,2.5.9-.8,1.7-1.6,2.4-2.4.5-.6,1.2-.9,2-.9,0,0,0,0,.1,0,.7,0,1.4.3,1.9.7l2.4,2.2c.1,0,.3,0,.4,0h16.2c1.6,0,2.8,1.3,2.8,2.8v19.3h.2c1.6,0,2.8,1.3,2.8,2.8v12.5c0,1-.5,1.9-1.3,2.4,1.3.2,2.4,1.4,2.4,2.8v5.1c0,1.6-1.3,2.8-2.8,2.8h-21.8v3.1c0,4.1-1.9,6.2-3.4,7.3-2.1,1.4-5,2-9.1,2ZM217.1,62.9c2.2.3,4.2.5,5.9.5s1.1,0,1.4-.1c0,0,0-.2,0-.3h0c0,0-7.3,0-7.3,0ZM249.7,52.2s0,0-.1,0c0,0,0,0-.1,0h.2ZM275.5,75.5c1.6,0,2.8-1.3,2.8-2.8v-29.9h14.4c1,0,1.9-.5,2.4-1.3.5.8,1.4,1.3,2.4,1.3h14.1v20.2s0,0,0,.1c-.1,0-.2,0-.4,0-1.4,0-3.1-.2-5.5-.5-.1,0-.3,0-.4,0-.8,0-1.5.3-2.1.9-.6.7-.9,1.6-.7,2.5l1.2,6.3c.2,1.1,1.1,2,2.3,2.2,2.3.4,4.8.6,7.4.6,3.8,0,6.5-.7,8.5-2.1,2.1-1.6,3.1-4,3.1-7.2V15.6c0-1.6-1.3-2.8-2.8-2.8h-24.8c-1,0-1.9.5-2.4,1.3-.5-.8-1.4-1.3-2.4-1.3h-25c-1.6,0-2.8,1.3-2.8,2.8v57.1c0,1.6,1.3,2.8,2.8,2.8h7.8ZM374.7,61.9l4-4c.5-.5.8-1.3.8-2,0-.8-.3-1.5-.9-2l-10.3-10.1,10.3-10.1c.5-.5.9-1.3.9-2s-.3-1.5-.8-2l-4-4c-.6-.5-1.3-.8-2-.8s-1.4.3-2,.8l-10.5,10.2-10.4-10.2c-.6-.5-1.3-.8-2-.8s-1.4.3-1.9.8l-4.2,3.9c-.6.5-.9,1.3-.9,2,0,.8.3,1.5.9,2.1l10.3,10.1-10.3,10.1c-.5.5-.9,1.3-.9,2,0,.8.3,1.5.8,2l4,4c.6.6,1.3.8,2,.8s1.4-.3,2-.8l10.5-10.2,10.5,10.2c.6.5,1.3.8,2,.8s1.5-.3,2-.8ZM420.6,75.3c-3.2,0-6-.2-8.6-.7-1.2-.2-2.1-1.1-2.3-2.3l-1.2-6.2c-.2-.9.1-1.8.7-2.5.4-.4.9-.7,1.4-.8h-15.5c-1.6,0-2.8-1.3-2.8-2.8v-5.1c0-1.5,1.1-2.7,2.6-2.8-.8-.5-1.3-1.4-1.3-2.4v-12.5c0-1.6,1.3-2.8,2.8-2.8h.7v-18.4c0-1.4,1-2.6,2.4-2.8,4.2-.6,8.5-1.9,13-3.9.4-.2.8-.2,1.1-.2,1,0,2,.6,2.5,1.6l.6,1.2,1-1.1c.6-.6,1.3-.9,2.1-.9s.9.1,1.4.3c1.3.7,2.6,1.5,4.1,2.5.9-.8,1.7-1.6,2.4-2.4.5-.6,1.2-.9,2-.9,0,0,0,0,.1,0,.7,0,1.4.3,1.9.7l2.4,2.2c.1,0,.3,0,.4,0h16.2c1.6,0,2.8,1.3,2.8,2.8v19.3h.2c1.6,0,2.8,1.3,2.8,2.8v12.5c0,1-.5,1.9-1.3,2.4,1.3.2,2.4,1.4,2.4,2.8v5.1c0,1.6-1.3,2.8-2.8,2.8h-21.8v3.1c0,4.1-1.9,6.2-3.4,7.3-2.1,1.4-5,2-9.1,2ZM412.1,62.9c2.2.3,4.2.5,5.9.5s1.1,0,1.4-.1c0,0,0-.2,0-.3h0c0,0-7.3,0-7.3,0ZM444.7,52.2s0,0-.1,0c0,0,0,0-.1,0h.2ZM517.7,75.9c-.7,0-1.3-.2-1.9-.7-3.2-2.8-7-5.5-11.7-8.2-3.9,2.8-8.3,5.6-13.2,8.4-.4.2-.9.4-1.4.4-.7,0-1.5-.3-2-.8l-3.4-3.4c-.5,0-1-.3-1.4-.7-1.8-1.6-4-3.3-6.5-5-3,3.7-7.3,6.7-12.7,9-.4.1-.7.2-1.1.2-.8,0-1.6-.4-2.2-1l-3.4-4.2c-.5-.7-.8-1.5-.6-2.4.2-.8.7-1.6,1.5-1.9,4-2,6.9-4.5,8.6-7.6h-5.8c-1.6,0-2.8-1.3-2.8-2.8v-5.5c0-1.6,1.3-2.8,2.8-2.8h7.8v-2.8c0-.3,0-.5.1-.8,0-.2,0-.3,0-.5v-.5c-1.7,1.3-3.4,2.5-5.2,3.7-.5.3-1,.4-1.5.4-.9,0-1.8-.4-2.3-1.2l-2.9-4c-.9-1.2-.6-3,.6-3.9,2.1-1.6,3.9-3.2,5.6-5h-2.4c-1.6,0-2.8-1.3-2.8-2.8v-5.5c0-1.6,1.3-2.8,2.8-2.8h.2c-.6-.8-1.3-1.5-2-2.3-.6-.7-.9-1.6-.7-2.5s.8-1.6,1.6-2l6.1-2.7c.4-.2.8-.2,1.2-.2.7,0,1.3.2,1.8.7.2-1.3,1.4-2.4,2.8-2.4h7.5c1.3,0,2.5.9,2.8,2.2.1,0,.3-.2.5-.3.4-.2.7-.2,1.1-.2s.8,0,1.2.2l3.4,1.5c.5-.4,1.1-.6,1.7-.6h31c1.6,0,2.8,1.3,2.8,2.8v5.5c0,1.6-1.3,2.8-2.8,2.8h-.9c.9.5,1.5,1.4,1.5,2.5v33.7c0,1.2-.8,2.3-1.9,2.7,1.6,1.6,3.2,3.2,4.7,4.8,1,1.1,1,2.9-.2,4l-4,3.8c-.5.5-1.2.8-1.9.8ZM485.2,57.9c1,.9,2,1.8,2.9,2.8,0-.3-.1-.6-.1-.9v-1.9h-2.7ZM569.7,61.9l4-4c.5-.5.8-1.3.8-2,0-.8-.3-1.5-.9-2l-10.3-10.1,10.3-10.1c.5-.5.9-1.3.9-2,0-.8-.3-1.5-.8-2l-4-4c-.6-.5-1.3-.8-2-.8s-1.4.3-2,.8l-10.5,10.2-10.4-10.2c-.6-.5-1.3-.8-2-.8s-1.4.3-1.9.8l-4.2,3.9c-.6.5-.9,1.3-.9,2,0,.8.3,1.5.9,2.1l10.3,10.1-10.3,10.1c-.5.5-.9,1.3-.9,2,0,.8.3,1.5.8,2l4,4c.6.6,1.3.8,2,.8s1.4-.3,2-.8l10.5-10.2,10.5,10.2c.6.5,1.3.8,2,.8s1.5-.3,2-.8ZM615.6,75.3c-3.2,0-6-.2-8.6-.7-1.2-.2-2.1-1.1-2.3-2.3l-1.2-6.2c-.2-.9.1-1.8.7-2.5.4-.4.9-.7,1.4-.8h-15.5c-1.6,0-2.8-1.3-2.8-2.8v-5.1c0-1.5,1.1-2.7,2.6-2.8-.8-.5-1.3-1.4-1.3-2.4v-12.5c0-1.6,1.3-2.8,2.8-2.8h.7v-18.4c0-1.4,1-2.6,2.4-2.8,4.2-.6,8.5-1.9,13-3.9.4-.2.8-.2,1.1-.2,1,0,2,.6,2.5,1.6l.6,1.2,1-1.1c.6-.6,1.3-.9,2.1-.9s.9.1,1.4.3c1.3.7,2.6,1.5,4.1,2.5.9-.8,1.7-1.6,2.4-2.4.5-.6,1.2-.9,2-.9,0,0,0,0,.1,0,.7,0,1.4.3,1.9.7l2.4,2.2c.1,0,.3,0,.4,0h16.2c1.6,0,2.8,1.3,2.8,2.8v19.3h.2c1.6,0,2.8,1.3,2.8,2.8v12.5c0,1-.5,1.9-1.3,2.4,1.3.2,2.4,1.4,2.4,2.8v5.1c0,1.6-1.3,2.8-2.8,2.8h-21.8v3.1c0,4.1-1.9,6.2-3.4,7.3-2.1,1.4-5,2-9.1,2ZM607.1,62.9c2.2.3,4.2.5,5.9.5s1.1,0,1.4-.1c0,0,0-.2,0-.3h0c0,0-7.3,0-7.3,0ZM639.7,52.2s0,0-.1,0c0,0,0,0-.1,0h.2ZM679.9,74.6c-3.1,0-6-.2-9-.8-1.2-.2-2.1-1.1-2.3-2.3l-.7-3.7c-2.7,1.6-5.6,2.9-8.6,4.1-.3.1-.7.2-1,.2-.9,0-1.8-.4-2.3-1.2l-3.1-4.4c-.5-.7-.6-1.5-.4-2.3s.7-1.5,1.4-1.8c3.1-1.7,6-3.5,8.6-5.6,0,0-.1,0-.2,0-1.3,0-2.4-.9-2.8-2.2l-1.8-7.3c-.3-1.4.4-2.7,1.7-3.3,1.6-.7,3.2-1.4,4.8-2.1-.8-.3-1.5-1-1.8-1.9l-1.9-6.7c-.4-1.3.3-2.7,1.5-3.3,1.4-.7,2.9-1.5,4.4-2.5-2.1.1-4.2.3-6.4.4,0,0-.1,0-.2,0-1.2,0-2.3-.8-2.7-2l-1.6-4.9c-.3-.8-.1-1.7.3-2.4s1.3-1.2,2.1-1.2c16.6-1.4,32.9-3.9,48.4-7.4.2,0,.4,0,.6,0,1,0,2,.6,2.5,1.5l3.5,6.5c.4.8.5,1.8,0,2.6s-1.2,1.4-2.1,1.6c-2,.4-4,.7-6,1l.9.5c.8.4,1.4,1.3,1.5,2.2s-.3,1.9-1,2.5c-1.3,1.1-2.7,2.2-4,3.2.1.1.2.2.3.3,5.1,6.1,9.4,12.2,13.1,18.4.8,1.3.4,3.1-1,3.9l-4.8,2.9c-.2,0-.3.2-.5.2,2.5,2.4,4.9,4.8,7.1,7.2.5.6.8,1.3.7,2,0,.8-.4,1.5-.9,2l-4.2,3.8c-.5.5-1.2.7-1.9.7s-1.4-.3-1.9-.8c-4.4-4.2-9.7-8.2-15.7-12.1v5.1c0,4.1-1.9,6.2-3.5,7.3-2.1,1.4-5.2,2.1-9.4,2.1ZM675.3,62.7c.6,0,1.3,0,1.8,0,.9,0,1.5,0,1.7-.2,0,0,0-.2,0-.4v-2.8c-1.1,1.1-2.4,2.2-3.6,3.3ZM678.9,55.1v-.2h-.2s.2.2.2.2ZM692.8,53.4l.4-.4h-.4v.4ZM691.1,40c-1.2.8-2.6,1.7-4.2,2.6,2.2-.2,4.5-.4,7.1-.7-.7-.7-1.4-1.3-2.1-2,0,0-.2-.2-.2-.3-.2.1-.4.3-.6.4ZM687.6,25.6c-.7.5-1.3,1.1-1.9,1.6l2.5-.3c.6-.5,1.2-1,1.8-1.6-.8.1-1.6.2-2.4.3ZM747.6,59.9c1.1,0,2-.6,2.5-1.5l10.2-19.6c.5-.9.4-1.9,0-2.8-.5-.8-1.4-1.4-2.4-1.4h-11.1c-1.4,0-2.5,1-2.8,2.3l-3.8,19.6c-.2.8,0,1.7.6,2.3.5.7,1.3,1,2.2,1h4.7Z"/>
  <g>
    <path class="st2" d="M212,45.3h36v4.4c-3.2,1.8-7.4,3.4-12.7,5v.3h24.6v5.1h-24.6v5.9c0,2.3-.7,4-2.2,5-1.5,1-4,1.5-7.5,1.5s-5.6-.2-8.1-.6l-1.2-6.2c2.5.4,4.7.6,6.6.6s2.7-.3,3.3-.7.8-1.3.9-2.5v-3h-27v-5.1h27v-2.2h1.6c2.3-1.1,4.4-2.1,6-3.1h-22.8v-4.4ZM239.7,15.2h16.2v22.1h3v12.5h-7.7v-7.7h-42v7.7h-7.7v-12.5h3.5v-21.2c4.5-.7,9-2,13.7-4.1l2.8,5.6c-2.8.6-5.9,1.1-9.1,1.6v3.3h7.9v4h-7.9v3.6h7.6v4h-7.6v3.2h9.9l-1.6-2.3c2-1.1,4-2.2,5.8-3.4-1.6-.9-3.4-1.8-5.3-2.7l3.6-3.6c1.9,1.1,3.6,2.3,5.4,3.4,1.5-1.3,2.9-2.7,4.2-4.2l3.8,3.2c-1.4,1.3-2.8,2.5-4.3,3.7,1.8,1.4,3.6,2.7,5.2,4.2l-1.8,1.8h11v-3.2h-8.6v-4h8.6v-3.4h-8.4v-4h8.4v-3.2h-8.8v-4.2ZM222.9,25.2l-1.9-3.1c2-1,4-2,5.8-3.1-1.6-.9-3.4-1.8-5.2-2.6l3.5-3.8c2,1.1,3.9,2.3,5.7,3.6,1.6-1.3,3-2.7,4.3-4.1l3.8,3.4c-1.3,1.2-2.7,2.3-4,3.4,1.6,1.1,3.1,2.3,4.5,3.4l-2.5,2.6c-1.6-1.2-3.5-2.5-5.6-3.7-2.5,1.5-5.3,2.7-8.3,3.8ZM235.9,37.3c-1.6-1.2-3.4-2.4-5.4-3.5-2.1,1.3-4.3,2.5-6.6,3.5h12Z"/>
    <path class="st2" d="M292.8,15.6v24.4h-17.2v32.7h-7.8V15.6h25ZM275.5,25.1h9.7v-4.2h-9.7v4.2ZM285.2,30.3h-9.7v4.4h9.7v-4.4ZM297.6,15.6h24.8v50.3c0,2.3-.7,3.9-2,4.9-1.4,1-3.6,1.5-6.8,1.5s-4.7-.2-6.9-.6l-1.2-6.3c2.3.3,4.2.5,5.9.5s2.1-.2,2.5-.7c.5-.5.7-1.2.7-2.2v-23.1h-17V15.6ZM305.1,25.1h9.4v-4.2h-9.4v4.2ZM305.1,34.7h9.4v-4.4h-9.4v4.4Z"/>
    <path class="st2" d="M343.7,31.6l4.2-3.9,12.4,12.1,12.5-12.2,4,4-12.4,12.2,12.4,12.1-4,4-12.5-12.2-12.5,12.2-4-4,12.4-12.1-12.4-12.2Z"/>
    <path class="st2" d="M407,45.3h36v4.4c-3.2,1.8-7.4,3.4-12.7,5v.3h24.6v5.1h-24.6v5.9c0,2.3-.7,4-2.2,5-1.5,1-4,1.5-7.5,1.5s-5.6-.2-8.1-.6l-1.2-6.2c2.5.4,4.7.6,6.6.6s2.7-.3,3.3-.7.8-1.3.9-2.5v-3h-27v-5.1h27v-2.2h1.6c2.3-1.1,4.4-2.1,6-3.1h-22.8v-4.4ZM434.7,15.2h16.2v22.1h3v12.5h-7.7v-7.7h-42v7.7h-7.7v-12.5h3.5v-21.2c4.5-.7,9-2,13.7-4.1l2.8,5.6c-2.8.6-5.9,1.1-9.1,1.6v3.3h7.9v4h-7.9v3.6h7.6v4h-7.6v3.2h9.9l-1.6-2.3c2-1.1,4-2.2,5.8-3.4-1.6-.9-3.4-1.8-5.3-2.7l3.6-3.6c1.9,1.1,3.6,2.3,5.4,3.4,1.5-1.3,2.9-2.7,4.2-4.2l3.8,3.2c-1.4,1.3-2.8,2.5-4.3,3.7,1.8,1.4,3.6,2.7,5.2,4.2l-1.8,1.8h11v-3.2h-8.6v-4h8.6v-3.4h-8.4v-4h8.4v-3.2h-8.8v-4.2ZM417.9,25.2l-1.9-3.1c2-1,4-2,5.8-3.1-1.6-.9-3.4-1.8-5.2-2.6l3.5-3.8c2,1.1,3.9,2.3,5.7,3.6,1.6-1.3,3-2.7,4.3-4.1l3.8,3.4c-1.3,1.2-2.7,2.3-4,3.4,1.6,1.1,3.1,2.3,4.5,3.4l-2.5,2.6c-1.6-1.2-3.5-2.5-5.6-3.7-2.5,1.5-5.3,2.7-8.3,3.8ZM430.9,37.3c-1.6-1.2-3.4-2.4-5.4-3.5-2.1,1.3-4.3,2.5-6.6,3.5h12Z"/>
    <path class="st2" d="M478.8,12.5v11.5h5l-4.1-1.8c1.2-2.3,2.4-5,3.4-8.1l6.1,2.7c-1.5,2.5-3.2,4.8-5.2,7.1h4.9v5.5h-10.2v4.8l3.4-3.9c2.8,2.4,5.3,5,7.5,7.9l-3.4,3.4c-2.4-2.4-4.9-4.5-7.6-6.3v7.3h-7.5v-6.8c-2.9,2.9-6,5.5-9.6,7.6l-2.9-4c3.8-2.9,7.1-6.2,9.9-10.1h-8.5v-5.5h5.7c-1.4-2.3-3.2-4.7-5.5-7.1l6.1-2.7c1.5,2.7,2.7,5.4,3.7,8.1l-4.1,1.8h5v-11.5h7.5ZM462.4,72.2l-3.4-4.2c6.2-3.1,10-7.5,11.5-13h-10v-5.5h10.7v-5.7h7.7v5.7h5.2c-1.4-1.4-3-2.6-4.7-3.8l4.7-3.5c1.7,2,3.2,3.9,4.4,5.8l-2,1.5h3.1v5.5h-11.1c0,.2,0,.3-.1.5,3.7,3.1,7.1,6.2,10.1,9.5l-3.8,3.6c-2.7-2.3-5.7-4.5-9-6.7-2.7,4.3-7.1,7.7-13.1,10.3ZM489.4,15.4h31v5.5h-12.2l-2.4,5.3h12.3v33.7h-6.4c3.7,3.1,7,6.2,9.9,9.4l-4,3.8c-3.4-3.1-7.6-5.9-12.4-8.6l4.6-4.5h-12.9l5.8,4.6c-3.6,2.7-8.1,5.5-13.3,8.5l-3.8-3.8c4.2-3,7.9-6,10.9-9.2h-5.7V26.2h8.8l1.1-5.3h-11.2v-5.5ZM498.5,35.8h12v-4.2h-12v4.2ZM498.5,44.9h12v-4h-12v4ZM510.5,50.1h-12v4.2h12v-4.2Z"/>
    <path class="st2" d="M538.7,31.6l4.2-3.9,12.4,12.1,12.5-12.2,4,4-12.4,12.2,12.4,12.1-4,4-12.5-12.2-12.5,12.2-4-4,12.4-12.1-12.4-12.2Z"/>
    <path class="st2" d="M602,45.3h36v4.4c-3.2,1.8-7.4,3.4-12.7,5v.3h24.6v5.1h-24.6v5.9c0,2.3-.7,4-2.2,5-1.5,1-4,1.5-7.5,1.5s-5.6-.2-8.1-.6l-1.2-6.2c2.5.4,4.7.6,6.6.6s2.7-.3,3.3-.7c.6-.5.8-1.3.9-2.5v-3h-27v-5.1h27v-2.2h1.6c2.3-1.1,4.4-2.1,6-3.1h-22.8v-4.4ZM629.7,15.2h16.2v22.1h3v12.5h-7.7v-7.7h-42v7.7h-7.7v-12.5h3.5v-21.2c4.5-.7,9-2,13.7-4.1l2.8,5.6c-2.8.6-5.8,1.1-9.1,1.6v3.3h7.9v4h-7.9v3.6h7.6v4h-7.6v3.2h9.9l-1.6-2.3c2-1.1,4-2.2,5.8-3.4-1.6-.9-3.4-1.8-5.3-2.7l3.6-3.6c1.9,1.1,3.6,2.3,5.4,3.4,1.5-1.3,2.9-2.7,4.2-4.2l3.8,3.2c-1.4,1.3-2.8,2.5-4.3,3.7,1.8,1.4,3.6,2.7,5.2,4.2l-1.8,1.8h11v-3.2h-8.6v-4h8.6v-3.4h-8.4v-4h8.4v-3.2h-8.8v-4.2ZM612.9,25.2l-2-3.1c2-1,4-2,5.8-3.1-1.6-.9-3.4-1.8-5.2-2.6l3.5-3.8c2,1.1,3.9,2.3,5.7,3.6,1.6-1.3,3-2.7,4.3-4.1l3.8,3.4c-1.3,1.2-2.7,2.3-4,3.4,1.6,1.1,3.1,2.3,4.5,3.4l-2.5,2.6c-1.6-1.2-3.5-2.5-5.6-3.7-2.5,1.5-5.3,2.7-8.3,3.8ZM625.9,37.3c-1.6-1.2-3.4-2.4-5.4-3.5-2.1,1.3-4.3,2.5-6.6,3.5h12Z"/>
    <path class="st2" d="M658.3,20.2c17.1-1.5,33.3-4,48.8-7.5l3.5,6.5c-7.6,1.4-15.7,2.6-24.1,3.6-4,3.2-7.6,6-10.9,8.3l13.8-1.6c2.5-2.1,5.3-4.5,8.1-7.3l7.3,3.8c-5.4,4.4-10.5,8.3-15.2,11.6-3.6,2.4-8.7,5.3-15.3,8.7,3.2-.2,6.4-.5,9.6-.6,5.4-.5,10.8-1,16.3-1.7-2-2.1-4-4.2-6.2-6.2l6.8-4.2c5,6,9.2,12,12.8,18.1l-4.8,2.9c-1.4-2-2.9-4-4.5-5.9l-14.2,2v14.6c0,2.3-.8,4-2.3,5-1.6,1-4.2,1.6-7.8,1.6s-5.8-.3-8.5-.7l-1.2-6c2.7.4,4.9.6,7,.6s3-.3,3.6-.8c.6-.5.9-1.3,1-2.5v-10.5l-9.9,1.2,5.2,4.4c-5.1,5.1-11.4,9.2-18.9,12.1l-3.1-4.4c6.2-3.2,11.2-7.2,15.2-11.8l-8.1.9-1.8-7.3c5.3-2.2,10.1-4.6,14.4-7.2l4.6-2.9c-5.1.9-9.9,1.8-14.4,2.7l-1.9-6.7c2.6-1.2,5.4-3,8.5-5.4,1.2-1,2.3-2.1,3.6-3.2-5,.5-10.1.8-15.4,1.1l-1.6-4.9ZM698.9,51.6c5.9,4.7,11.2,9.7,15.7,14.7l-4.2,3.8c-4.7-4.5-10.5-8.9-17.3-13.1l5.7-5.3Z"/>
    <path class="st2" d="M746.6,37.5h11.1l-10.2,19.6h-4.7l3.8-19.6Z"/>
  </g>
  <path class="st0" d="M63.2,153.7c-.3,0-.6,0-1-.2-5.3-1.9-10.8-3.5-16.3-4.9-.4,0-.7-.2-1-.5-.1,0-.3.2-.5.3-5.7,2.4-11.6,4.2-17.3,5.1-.2,0-.3,0-.5,0-.8,0-1.6-.3-2.1-.9-.1,0-.2,0-.3,0h-6.9c-.9,0-1.7-.4-2.3-1.1-.5.8-1.4,1.4-2.4,1.4h-6.9c-1.6,0-2.8-1.3-2.8-2.8v-22.2c0-1.6,1.3-2.8,2.8-2.8h.4c-1.4-.1-2.6-1.4-2.6-2.8v-5.1c0-1.1.6-2,1.5-2.5-.8-.5-1.4-1.4-1.4-2.4v-5.1c0-.9.5-1.8,1.2-2.3h0c-1.6,0-2.8-1.3-2.8-2.8v-5.5c0-1.6,1.3-2.8,2.8-2.8h2.3c-.2-.4-.4-.7-.7-1.1-.5-.8-.6-1.8-.2-2.6.4-.9,1.1-1.5,2-1.7l7.4-1.6c.2,0,.4,0,.6,0,1.3,0,2.4.8,2.7,2.1.4,1.6.8,3.2,1.2,4.9h3.2c.4-1.1.7-2.2,1-3.4.2-.8.7-1.5,1.5-1.8.4-.2.8-.3,1.3-.3s.7,0,1.1.2l2,.8c.5-.9,1.4-1.4,2.5-1.4h6c1.6,0,2.8,1.3,2.8,2.8v1.3h1.6c0-.4.2-.8.3-1.3.2-.8.7-1.5,1.4-1.9.4-.2.9-.4,1.4-.4s.6,0,.9.2l2.6.9c.4-1,1.4-1.7,2.6-1.7h6c1.6,0,2.8,1.3,2.8,2.8v1.3h2.9c1.6,0,2.8,1.3,2.8,2.8v4.2c.7.5,1.2,1.4,1.2,2.3v3.9c.7.5,1.1,1.4,1.1,2.3,0,3-.3,4.8-.9,6.1-.4.9-1.3,2.3-3.2,2.9v24.6c0,.5-.2,1-.4,1.5,1,.4,2,.9,3.1,1.3.8.4,1.4,1.1,1.6,1.9.2.9,0,1.8-.6,2.5l-3.5,4.2c-.5.7-1.4,1-2.2,1ZM24.3,125.2c.3,0,.5,0,.8.1v-.6c-.4.3-.8.4-1.3.5h.5ZM72.1,150.9c-1.6,0-2.8-1.3-2.8-2.8v-5.6c0-1.6,1.3-2.8,2.8-2.8h22.8v-9.4h-16c-1.6,0-2.8-1.3-2.8-2.8v-3.3c-.3.2-.7.3-1.1.3,0,0-.1,0-.2,0-.7,0-1.4-.3-2-.8l-4.2-4c-1-1-1.1-2.5-.3-3.7,4.9-6.8,8.1-14.5,9.9-23.4.1-.7.6-1.4,1.2-1.8.5-.3,1-.5,1.6-.5s.4,0,.6,0l7.5,1.6c.8.2,1.4.6,1.8,1.3s.5,1.5.3,2.2c-.4,1.5-.8,3.1-1.4,4.7h5v-9.8c0-1.6,1.3-2.8,2.8-2.8h8.2c1.6,0,2.8,1.3,2.8,2.8v9.8h18.4c1.6,0,2.8,1.3,2.8,2.8v5.5c0,1.6-1.3,2.8-2.8,2.8h-18.4v8h16.3c1.6,0,2.8,1.3,2.8,2.8v5.5c0,1.6-1.3,2.8-2.8,2.8h-16.3v9.4h21.8c1.6,0,2.8,1.3,2.8,2.8v5.6c0,1.6-1.3,2.8-2.8,2.8h-58.4ZM94.9,119.1v-8h-9.8c-1.5,2.7-3.1,5.4-5,8h14.8ZM150.8,153.9c-.5,0-1-.1-1.4-.4l-4.8-2.9c-.5-.3-.9-.8-1.2-1.3-.5.9-1,1.9-1.5,2.7-.5.9-1.5,1.4-2.5,1.4s-.8,0-1.1-.2l-5.1-2.2c-.7-.3-1.2-.9-1.5-1.6-.3-.7-.3-1.5,0-2.2,3.5-8,6.3-16.5,8.1-25.3.2-.8.7-1.5,1.4-1.9.4-.2.9-.3,1.3-.3s.4,0,.5,0c-3.1-2.2-6.4-4-9.7-5.5-.8-.4-1.4-1-1.6-1.9-.2-.8,0-1.7.5-2.4l4.4-6c.6-.8,1.4-1.1,2.3-1.1s1.1.2,1.6.5c3,2.1,5.7,4.1,8,6.1v-3.1c-.4.2-.8.3-1.2.3-.6,0-1.2-.2-1.8-.6-3.2-2.6-6.8-4.8-10.5-6.6-.8-.4-1.3-1.1-1.5-1.9s0-1.7.6-2.4l4.7-5.8c.6-.7,1.4-1.1,2.2-1.1s1.2.2,1.7.5c2.2,1.6,4.3,3.2,6,4.8.4-1.2,1.4-2,2.7-2h43c1.6,0,2.8,1.3,2.8,2.8v5.3c0,1.6-1.3,2.8-2.8,2.8h-10.6v1.3h7.8c1.6,0,2.8,1.3,2.8,2.8v5.3c0,1-.5,1.9-1.3,2.4h.8c1.6,0,2.8,1.3,2.8,2.8v5.3c0,1.6-1.3,2.8-2.8,2.8h-10.2v2.3h9.1c1.6,0,2.8,1.3,2.8,2.8v5.3c0,1.6-1.3,2.8-2.8,2.8h-9.1v.8h12.1c1.6,0,2.8,1.3,2.8,2.8v5.5c0,1.6-1.3,2.8-2.8,2.8h-38.6c-1,0-1.8-.5-2.3-1.2-.6,1.1-1.1,2.2-1.8,3.3-.4.7-1,1.1-1.7,1.3-.2,0-.5,0-.7,0ZM170.3,139.3v-.8h-9.2c-.6,0-1.2-.2-1.7-.6-.1.5-.3.9-.4,1.4h11.3ZM170.3,127.5v-2.3h-8.6c0,.8-.2,1.6-.2,2.3h8.9ZM148.6,121.8c0-.5,0-1.1,0-1.7h0c-.4.6-.9.9-1.4,1.1l1.5.6ZM161.9,103.7c.2,0,.3,0,.5,0h7.8v-1.3h-8.3v1.3ZM226.2,153c-1.6,0-2.8-1.3-2.8-2.8v-7.7h-8.2v5.1c0,1.6-1.3,2.8-2.8,2.8h-7.8c-1.6,0-2.8-1.3-2.8-2.8v-12.2c0-1.6,1.3-2.8,2.8-2.8h.5v-14.3c-1,0-1.9.2-2.9.2,0,0-.2,0-.2,0-1.4,0-2.6-1-2.8-2.4l-.7-4.9c-.1-.8.1-1.6.6-2.2.3-.4.7-.6,1.1-.8,0,0,0-.1,0-.2v-3c-.6-.5-1-1.3-1-2.2v-3.4c0-1.1.6-2,1.4-2.5v-2.5c0-1.6,1.3-2.8,2.8-2.8h7v-.5c0-1.6,1.3-2.8,2.8-2.8h7.9c1.6,0,2.8,1.3,2.8,2.8v.5h6.5c.8,0,1.5.3,2,.8h10.9v-1.4c0-1.6,1.3-2.8,2.8-2.8h7.9c1.6,0,2.8,1.3,2.8,2.8v1.4h3.4c1.6,0,2.8,1.3,2.8,2.8v4.7c0,1.6-1.3,2.8-2.8,2.8h-3.4v7.2c0,2.6-.8,4.3-1.8,5.4.3.4.4.9.4,1.4v15.8h.8c1.6,0,2.8,1.3,2.8,2.8v7c0,4.1-1.9,6-3.5,6.9-1.9,1.1-4.9,1.5-9.2,1.5s-4-.2-6.7-.5c-1.2-.2-2.2-1.1-2.4-2.3l-.4-2.2v4.3c0,1.6-1.3,2.8-2.8,2.8h-8.1ZM234.9,107.8s0,0,0,0c0,0,0,0,0,0,0,0,0,0,0,0ZM271.8,153.5c-1.6,0-2.8-1.3-2.8-2.8v-23.2c-.5.7-1.4,1.1-2.2,1.1s-.2,0-.3,0c-1,0-1.9-.7-2.3-1.7l-2.7-6c-.4-.9-.3-1.8.2-2.6,5.3-8.5,9.3-18.4,12.1-29.4.3-1.3,1.5-2.1,2.7-2.1s.4,0,.6,0l8.2,1.8c.8.2,1.5.7,1.9,1.4.3.6.4,1.4.2,2.1.3-.9.5-1.8.8-2.6.3-1.2,1.5-2.1,2.7-2.1s.3,0,.4,0l7.8,1c.9.1,1.6.6,2.1,1.4s.5,1.7.2,2.5c-.3.8-.7,1.7-1,2.6h23.9c1.6,0,2.8,1.3,2.8,2.8v5.6c0,.5-.1,1-.4,1.5l-6.2,10.2c.1.2.2.3.3.5,2.9,7.3,5.4,15.1,7.2,23,.3,1.5-.6,3-2,3.4l-5.5,1.4c-.2,0-.5,0-.7,0-1.2,0-2.3-.8-2.7-2-1.8-5.9-4-11.6-6.6-16.9v19.6c0,3.9-1.7,6.1-3.2,7.2-2,1.4-4.8,2.1-8.7,2.1s-5.4-.2-7.8-.6c-1.2-.2-2.1-1.1-2.3-2.2l-1.2-6.3c0-.5,0-1,0-1.4-.2,0-.5,0-.7,0s-.6,0-.9-.1l-3.1-1v9c0,1.6-1.3,2.8-2.8,2.8h-7.9ZM289.9,140.8c.1,0,.3,0,.4,0,2.4.3,4.3.5,5.8.5s.5,0,.7,0c0,0,0,0,0-.2v-16.2c-2.1,5.5-4.6,10.8-7.5,15.9.2,0,.4,0,.6,0ZM282.5,127.9c1.1-3.1,2.1-6.2,2.9-9.4,0,0-.2,0-.3,0h0c-.9,0-1.8-.5-2.3-1.2l-.3-.4v11ZM296.7,116.4s0,0,.1,0v-8.1c0-.9.4-1.7,1.1-2.2h-3c-1.6,2.7-3.3,5.5-5.2,8.3l7,2ZM310.4,116.2l1.6-.6-.9-.4c-.3-.1-.5-.3-.7-.6v1.6ZM309.3,106.1c.7.5,1.1,1.3,1.1,2.2v1.6l1.4-3.9h-2.5ZM282.5,104.1c1.9-3.6,3.5-7.5,4.8-11.8,0,0,0,0,0,0-1.6,4.2-3.2,8-4.7,11.5v.2ZM332.3,153.5c-1.6,0-2.8-1.3-2.8-2.8v-57.3c0-1.6,1.3-2.8,2.8-2.8h25.7c.9,0,1.6.4,2.1,1,.5-.6,1.3-1,2.1-1h25.9c1.6,0,2.8,1.3,2.8,2.8v51c0,3.9-1.6,5.9-2.9,7-1.8,1.4-4.3,2-8.1,2s-4.4-.2-6.5-.6c-.9-.1-1.6-.7-2-1.4-.1,0-.3,0-.4,0h-7.5c-1.6,0-2.8-1.3-2.8-2.8v-10.8h-1.7c-1.7,5.6-5.1,10.4-10.2,14.3-.5.4-1.1.6-1.7.6s-1.3-.2-1.8-.6l-2.5-2.1v.8c0,1.6-1.3,2.8-2.8,2.8h-7.7ZM342.8,142.2c1.1-1.3,2-2.8,2.6-4.4h-2.6v4.4ZM373.9,141.2c1.5.2,2.7.3,3.7.4,0,0,0,0,0-.1v-3.7h-3.8v3.4ZM377.7,126.9v-1c-.3,0-.5.1-.8.1h-3v.9h3.8ZM360.7,126.9v-.9h-.5v.9h.5ZM347,126.9v-.9h-3.1c-.4,0-.7,0-1.1-.2v1.1h4.2ZM429.6,153.5c-.8,0-1.6-.3-2.1-.9-.3.1-.6.2-.9.2h-7c-1.6,0-2.8-1.3-2.8-2.8v-1.1h-2.5v1.1c0,1.6-1.3,2.8-2.8,2.8h-7c-1.6,0-2.8-1.3-2.8-2.8v-.4c-.2.4-.5.8-.7,1.2-.4.7-1.1,1.2-1.9,1.4-.2,0-.4,0-.5,0-.6,0-1.2-.2-1.7-.6l-4.4-3.4c-1-.8-1.4-2.2-.9-3.3,3.3-7.8,5-20.3,5.1-37.1v-11.2c0-1.4,1-2.6,2.4-2.8,9.2-1.5,17.4-3.3,24.3-5.4.3,0,.6-.1.8-.1,1.1,0,2.2.7,2.6,1.8,0,0,2.7,7.1,2.7,7.1.6-2.4,1.2-4.9,1.6-7.5.1-.7.6-1.4,1.2-1.8.5-.3,1-.5,1.6-.5s.3,0,.5,0l7.8,1.4c.8.1,1.5.6,1.9,1.3.4.7.5,1.5.3,2.3-.6,1.9-1.2,3.8-1.8,5.7h12.9c1.6,0,2.8,1.3,2.8,2.8v5.6c0,1.6-1.3,2.8-2.8,2.8h-1c-.3,8.8-2.3,17-6.2,24.3,2.5,4,5.8,7.7,9.7,11.1.6.5.9,1.2,1,2,0,.8-.2,1.5-.8,2.1l-3.8,4c-.6.6-1.3.9-2.1.9s-1.3-.2-1.8-.6c-3.6-2.9-6.7-6-9.3-9.1-2.9,3.3-6.1,6.3-9.8,9.2-.5.4-1.1.6-1.8.6ZM428,124c.9.5,1.5,1.4,1.5,2.5v12.7c1.8-2,3.4-4,4.8-6.2-1.8-3.8-3.2-7.8-4.2-12-.3.3-.6.4-.9.6h0c0,1.1-.4,1.9-1.1,2.4ZM416.7,137.8v-3.2h-2.5v3.2h2.5ZM416.3,113.5v-.6h-6.7v.6s6.7,0,6.7,0ZM440.7,109.1c.1,1.1.2,2.2.4,3.2,0-1.1.2-2.1.2-3.2h-.6ZM426.3,101.9c.5,0,1,.2,1.5.4.2-.7.5-1.4.7-2.2-.4.3-.8.5-1.2.5-2.3.4-4.8.8-7.2,1.2h6.3ZM497.9,153.3c-3.1,0-5.9-.2-8.6-.6-1.2-.2-2.1-1.1-2.3-2.2l-.9-4.5c0,.1-.2.2-.3.3l-4,3.6c-.5.5-1.2.7-1.9.7s-1.2-.2-1.7-.6c-2.3-1.8-5.6-3.8-9.6-5.8-.8-.4-1.4-1.2-1.5-2.1,0-.2,0-.5,0-.7h-6.7c-1.6,0-2.8-1.3-2.8-2.8v-5.2c0-1.3.9-2.5,2.2-2.8l-.5-5.1c0-.8.2-1.6.7-2.2.5-.6,1.3-.9,2.1-.9s.4,0,.6,0c0-.1,0-.2,0-.4v-19.8c0-.2,0-.3,0-.5h-.8c-1.6,0-2.8-1.3-2.8-2.8v-5.1c0-1.6,1.3-2.8,2.8-2.8h21.8v-1.3c0-1.6,1.3-2.8,2.8-2.8h7.8c1.6,0,2.8,1.3,2.8,2.8v1.3h21.5c1.6,0,2.8,1.3,2.8,2.8v5.1c0,1.6-1.3,2.8-2.8,2.8h-.8c0,.2,0,.3,0,.5v19.8c0,.2,0,.4,0,.5,1.2,1.5,2.4,2.9,3.5,4.5.8,1.1.7,2.6-.2,3.6,1.1.4,1.9,1.4,1.9,2.7v5.2c0,1.6-1.3,2.8-2.8,2.8h-9.2v2.6c0,4.1-1.9,6.2-3.5,7.2-2,1.3-5.1,2-9.3,2ZM485.1,141.5c.3.3.5.5.8.8,0,0,.1.1.2.2.1-.2.2-.4.4-.6.2-.2.3-.3.5-.4h-1.9ZM492.8,141.5c1,0,1.9.1,2.8.1s1.2,0,1.5-.1c0,0-4.3,0-4.3,0ZM529.4,153.6c-.6,0-1.1-.2-1.6-.5l-4.6-3.1c-1.1-.7-1.5-2.2-1-3.4,2.7-6.7,4.1-16.3,4.2-28.6v-24.7c0-1.6,1.3-2.8,2.8-2.8h52.8c1.6,0,2.8,1.3,2.8,2.8v11.2c0,1.4-1,2.6-2.3,2.8v1.8c0,.3,0,.5-.1.8,0,.2.1.5.1.8v2.3c.7.5,1.2,1.4,1.2,2.3v8.2c.4.1.8.4,1.1.7.5.5.8,1.3.8,2,0,8.9-.3,14.6-.6,17.2-.4,3.1-1.3,5.5-2.8,7.2-1.7,1.9-4.4,2.8-8.2,2.8-2.8,0-5.2-.2-7.3-.5-1.3-.1-2.3-1.1-2.5-2.4l-.2-1.2c-8,1.1-16.6,2.1-25.7,2.9,0,0-.2,0-.2,0-1.4,0-2.6-1-2.8-2.4l-.5-3.5c-.9,2.1-1.8,4.1-2.9,6-.4.7-1,1.2-1.8,1.4-.2,0-.4,0-.7,0ZM537.1,139.5c-.1.5-.3,1-.4,1.5.2,0,.4,0,.6,0,.4,0,.8,0,1.2,0,0,0,0-.2,0-.3v-1.1c-.2,0-.4,0-.6,0s-.5,0-.7,0ZM633.5,153.1c-2.9,0-5.8-.2-8.6-.7-1.2-.2-2.1-1.2-2.3-2.4l-1-6.7c-.1-.9.2-1.9.9-2.5.5-.5,1.2-.8,1.9-.8s.4,0,.6,0c2.4.5,4.7.8,6.7.8s1.3,0,1.9,0c.9,0,1.5-.4,1.9-1.7.3-.9.6-2.6,1-5.9l-4.2,2.2c-.4.2-.9.3-1.3.3-1,0-1.9-.5-2.5-1.4-2.6-4.5-5.3-8.6-8.3-12.2v26.2c0,1.6-1.3,2.8-2.8,2.8h-7.5c-1.6,0-2.8-1.3-2.8-2.8v-2h-4.2v3.5c0,1.6-1.3,2.8-2.8,2.8h-7.5c-1.6,0-2.8-1.3-2.8-2.8v-49.5c0-1.6,1.3-2.8,2.8-2.8h5.8c.4-2.1.8-4.5,1.2-7.4,0-.8.5-1.5,1.1-1.9.5-.4,1.1-.5,1.7-.5s.3,0,.5,0l7.9,1.4c.8.1,1.5.6,1.9,1.3.4.7.5,1.5.3,2.3-.5,1.5-1,3.1-1.7,4.8h6.2c1.1,0,2.1.6,2.5,1.6,1.1-3,2-6.2,2.5-9.5.2-1.4,1.4-2.3,2.8-2.3s.3,0,.5,0l7.5,1.3c.8.1,1.5.6,1.9,1.2.4.7.6,1.5.4,2.2-.4,1.6-.9,3.3-1.5,5.1h14.4c1.6,0,2.8,1.3,2.8,2.8,0,11.8-.2,21.4-.7,29.4-.5,8.8-1.5,14.5-3.2,17.6-1.9,3.6-5.4,5.6-10.3,6-1.2,0-2.4.1-3.6.1ZM607,135.2v-7.9h-4.2v7.9h4.2ZM628,112.2c.9,0,1.8.5,2.4,1.3,2.4,3.8,4.7,7.8,6.6,11.9.2-5.5.3-11.2.4-17.2h-8.3c-.9,1.6-1.9,3.1-2.9,4.7l.3-.2c.5-.3,1-.4,1.5-.4ZM607,116.1v-7.5h-4.2v7.5h4.2ZM657.1,150.9c-1.6,0-2.8-1.3-2.8-2.8v-5.6c0-1.6,1.3-2.8,2.8-2.8h22.8v-9.4h-16c-1.6,0-2.8-1.3-2.8-2.8v-3.3c-.3.2-.7.3-1.1.3,0,0-.1,0-.2,0-.7,0-1.4-.3-2-.8l-4.2-4c-1-1-1.1-2.5-.3-3.7,4.9-6.8,8.1-14.5,9.9-23.4.2-.7.6-1.4,1.2-1.8.5-.3,1-.5,1.6-.5s.4,0,.6,0l7.5,1.6c.8.2,1.4.6,1.8,1.3s.5,1.5.3,2.2c-.4,1.5-.8,3.1-1.4,4.7h5v-9.8c0-1.6,1.3-2.8,2.8-2.8h8.2c1.6,0,2.8,1.3,2.8,2.8v9.8h18.4c1.6,0,2.8,1.3,2.8,2.8v5.5c0,1.6-1.3,2.8-2.8,2.8h-18.4v8h16.3c1.6,0,2.8,1.3,2.8,2.8v5.5c0,1.6-1.3,2.8-2.8,2.8h-16.3v9.4h21.8c1.6,0,2.8,1.3,2.8,2.8v5.6c0,1.6-1.3,2.8-2.8,2.8h-58.4ZM679.9,119.1v-8h-9.8c-1.5,2.7-3.1,5.4-5,8h14.8ZM735.8,153.9c-.5,0-1-.1-1.4-.4l-4.8-2.9c-.5-.3-.9-.8-1.2-1.3-.5.9-1,1.9-1.5,2.7-.5.9-1.5,1.4-2.5,1.4s-.8,0-1.1-.2l-5.1-2.2c-.7-.3-1.2-.9-1.5-1.6-.3-.7-.3-1.5,0-2.2,3.5-8,6.3-16.5,8.1-25.3.2-.8.7-1.5,1.4-1.9.4-.2.9-.3,1.3-.3s.4,0,.5,0c-3.1-2.2-6.4-4-9.7-5.5-.8-.3-1.4-1-1.6-1.9s0-1.7.5-2.4l4.4-6c.6-.8,1.4-1.1,2.3-1.1s1.1.2,1.6.5c3,2.1,5.7,4.1,8,6.1v-3.1c-.4.2-.8.3-1.2.3-.6,0-1.2-.2-1.8-.6-3.2-2.6-6.8-4.8-10.5-6.6-.8-.4-1.3-1.1-1.5-1.9s0-1.7.6-2.4l4.7-5.8c.6-.7,1.4-1.1,2.2-1.1s1.2.2,1.7.5c2.2,1.6,4.3,3.2,6,4.8.4-1.2,1.4-2,2.7-2h43c1.6,0,2.8,1.3,2.8,2.8v5.3c0,1.6-1.3,2.8-2.8,2.8h-10.6v1.3h7.8c1.6,0,2.8,1.3,2.8,2.8v5.3c0,1-.5,1.9-1.3,2.4h.8c1.6,0,2.8,1.3,2.8,2.8v5.3c0,1.6-1.3,2.8-2.8,2.8h-10.2v2.3h9.1c1.6,0,2.8,1.3,2.8,2.8v5.3c0,1.6-1.3,2.8-2.8,2.8h-9.1v.8h12.1c1.6,0,2.8,1.3,2.8,2.8v5.5c0,1.6-1.3,2.8-2.8,2.8h-38.6c-1,0-1.8-.5-2.3-1.2-.6,1.1-1.1,2.2-1.8,3.3-.4.7-1,1.1-1.7,1.3-.2,0-.5,0-.7,0ZM755.3,139.3v-.8h-9.2c-.6,0-1.2-.2-1.7-.6-.1.5-.3.9-.4,1.4h11.3ZM755.3,127.5v-2.3h-8.6c0,.8-.2,1.6-.2,2.3h8.9ZM733.6,121.8c0-.5,0-1.1,0-1.7h0c-.4.6-.9.9-1.5,1.1l1.5.6ZM746.9,103.7c.2,0,.3,0,.5,0h7.8v-1.3h-8.3v1.3ZM788,153.7c-.7,0-1.3-.2-1.8-.7l-4.2-3.6c-1-.8-1.3-2.2-.7-3.4,3.7-7.6,5.6-19.6,5.6-35.5v-3.3h-1.7c-1.6,0-2.8-1.3-2.8-2.8v-5.5c0-1.6,1.3-2.8,2.8-2.8h6c-.5-1.2-1.1-2.4-1.7-3.6-.4-.8-.4-1.8,0-2.6.4-.8,1.2-1.4,2.1-1.5l7.9-1.2c.1,0,.3,0,.4,0,1.3,0,2.5.9,2.8,2.2.6,2.5,1,4.7,1.4,6.7h7.1c.4,0,.8,0,1.2.3,1.1-2.2,2.1-4.6,3.1-7.4.4-1.1,1.5-1.9,2.7-1.9s.2,0,.4,0l8.1,1c.9.1,1.6.6,2.1,1.4.4.8.5,1.7.2,2.5-.3.7-.6,1.4-.9,2.1h16.6c1.6,0,2.8,1.3,2.8,2.8v5.5c0,1.6-1.3,2.8-2.8,2.8h-1.3l2.3,4.3c.4.8.4,1.6.1,2.4-.3.8-1,1.4-1.8,1.6-2.9.9-5.6,1.6-8.1,2.2,0,1.1.1,2.1.3,3.2,1-.9,1.9-1.7,2.9-2.7.5-.5,1.2-.8,1.9-.8s0,0,.1,0c.8,0,1.5.4,2,1l4.9,5.7c.5.6.8,1.4.7,2.2s-.5,1.5-1.2,2c-2.5,1.8-5.3,3.5-8.3,5.1,2,4.5,5.1,8.8,9.2,12.8.5.5.8,1.3.8,2,0,.8-.3,1.5-.9,2l-4,3.9c-.5.5-1.3.8-2,.8s-1.3-.2-1.9-.7c-2.8-2.5-5.2-5-7.3-7.6-.3.6-.7,1.1-1.4,1.4-3.6,1.7-9.3,4.1-16.9,6.9-.3.1-.6.2-1,.2s-.9,0-1.3-.3c-.7-.3-1.2-1-1.5-1.7l-1.1-3.7c-.5,1-1,1.8-1.7,2.4-1.6,1.5-4.1,2.4-7.5,2.5-.4,0-.8,0-1.2,0-1.9,0-3.8-.1-5.6-.4-1.1-.2-2-1-2.3-2.1-.5.8-.9,1.6-1.4,2.4-.4.7-1.2,1.1-2,1.2-.1,0-.3,0-.4,0ZM795.8,141c.7.1,1.4.2,2,.2s.4,0,.5,0c.1-.4.3-1.2.5-3,.2-1.8.3-5.2.3-9.1v-5c-.6,6.3-1.8,12-3.4,17ZM824,137.2c1.3-.4,2.6-.8,3.7-1.1-.2-.4-.4-.9-.6-1.3-1.3-3.1-2.4-6.6-3.1-10.5v13ZM806.4,110.2l-.3-.2c-.6-.5-1-1.2-1-2,0-.3,0-.5,0-.7h-5.3v3h6.6ZM821.5,105.4c-.4.6-.9,1.1-1.4,1.7,2.7-.4,5.3-1,8-1.7h-6.7ZM859,153.5c-1.6,0-2.8-1.3-2.8-2.8v-13.7c-1,1.5-2.1,3-3.2,4.5-.5.7-1.4,1.1-2.3,1.1s-.2,0-.3,0c-1-.1-1.9-.8-2.3-1.7l-2.3-5.5c-.4-.9-.3-1.8.2-2.6,3.1-4.9,5.7-10.2,7.7-15.7h-3c-1.6,0-2.8-1.3-2.8-2.8v-5.5c0-1.6,1.3-2.8,2.8-2.8h5.5v-2.5c-1,.2-2,.4-3,.6-.2,0-.4,0-.6,0-1,0-2-.6-2.5-1.5l-2.3-4.6c-.4-.8-.4-1.7,0-2.4.3-.8,1-1.4,1.8-1.6,6.4-1.8,12.8-4,18.9-6.6.4-.2.7-.2,1.1-.2.9,0,1.7.4,2.3,1.1l2.4,3.3c.5-.4,1.1-.6,1.8-.6h31.1c1.6,0,2.8,1.3,2.8,2.8v19.3c0,.8-.4,1.6-.9,2.1l2.2,4.1c.4.8.4,1.7,0,2.5-.4.8-1.1,1.4-2,1.6-3.1.6-6.5,1.2-10.7,1.8v2.3h10c1.6,0,2.8,1.3,2.8,2.8v5.3c0,1.6-1.3,2.8-2.8,2.8h-10v1.9h12.8c1.6,0,2.8,1.3,2.8,2.8v5.5c0,1.6-1.3,2.8-2.8,2.8h-39.7c-.9,0-1.7-.4-2.2-1v.2c0,1.6-1.3,2.8-2.8,2.8h-7.5ZM869.4,141.4c.5-.6,1.3-1,2.2-1h13.3v-1.9h-10.2c-1.6,0-2.8-1.3-2.8-2.8v-2c-.3,0-.6.1-.9.1s-.6,0-.9-.1c-.2,0-.5-.2-.7-.3v8.1ZM884.9,127.5v-.9c-2.5.1-5,.3-7.5.4,0,.2.1.3.2.5h7.4ZM875.8,116c-.1.2-.3.4-.5.5,1.8-.1,3.5-.3,5.3-.5h-4.6c0,0-.1,0-.2,0ZM873.2,106v-6.8c-1.2.3-2.4.7-3.8,1.1v5.7h3.8ZM896.6,105v-3h-10.1v3h10.1ZM951.5,146.3c1.6-1.6,2.4-3.7,2.4-6.2s-.8-4.6-2.5-6.2c-.6-.5-1.2-1-1.8-1.3.5-.5.9-1.1,1-1.9l2.9-33c0-.8-.2-1.6-.7-2.2-.5-.6-1.3-.9-2.1-.9h-10.9c-.8,0-1.6.3-2.1.9-.5.6-.8,1.4-.7,2.2l2.9,33c0,.8.4,1.4,1,1.9-.6.3-1.2.8-1.7,1.3-1.7,1.6-2.5,3.7-2.5,6.2s.8,4.7,2.5,6.2c1.6,1.6,3.7,2.4,6.2,2.4s4.5-.8,6.2-2.4Z"/>
  <g>
    <path class="st2" d="M24.4,102.1H5v-5.5h7.1c-.8-1.8-1.9-3.5-3.1-5.4l7.4-1.6c.7,2.4,1.2,4.7,1.6,7h6.4v2.6c1.1-2.3,2.1-4.9,2.9-8.1l4.9,2-.8,1.8h1.5v-4.2h6v4.2h4.5v4.2h-4.5v2.3h4.9v4.3h-2.8v2.3l3.2-1.2.5,3.5c-1.6,1-4.3,2.4-7.9,4.2l-2.5-4.2c1-.6,1.5-1.6,1.6-3.1v-1.4h-2.3c-.5,4.4-2.8,7.6-6.9,9.8l-3-2.9c2.6-1.6,4.1-3.9,4.6-6.9h-3v-4.3h1.2l-2-1.3v2ZM62.4,115.1v26.1h-9.4c4.2,1.4,8.8,3.2,13.8,5.4l-3.5,4.2c-5.7-2-11.2-3.6-16.6-4.9l4.7-4.7h-12.4l4.4,4.6c-5.7,2.4-11.2,4-16.7,4.9l-2.4-3.5v2.6h-6.9v-4h-4.7v4.2h-6.9v-22.2h18.5v18.5c4.3-1.2,8.8-2.9,13.5-5.3h-9.8v-26.1h34.5ZM6.6,117.3h17v5.1H6.6v-5.1ZM6.7,107.3h16.7v5.1H6.7v-5.1ZM12.7,133.2v7.7h4.7v-7.7h-4.7ZM27.6,101.4h5.3v-2.3h-3.7l-1.6,2.3ZM35.6,122.5h19.1v-2.8h-19.1v2.8ZM54.7,126.8h-19.1v3h19.1v-3ZM54.7,134.1h-19.1v2.7h19.1v-2.7ZM53.5,105.7c-.5,4.2-2.8,7.2-7,9.2l-2.7-3.1c2.5-1.5,4-3.5,4.4-6.1h-2.9v-4.3h1l-2.5-1.6c1.1-2.3,1.9-5.1,2.7-8.5l5,1.8-.7,1.8h1.8v-4.2h6v4.2h5.7v4.2h-5.7v2.3h6.9v4.3h-5.1v3.4c0,.5.3.8.7.8s.8-.2.9-.6c0-.3.1-1.5.1-3.4l4.4,1.6c0,2.4-.3,4.2-.6,5.1-.5,1-1.5,1.6-3.2,1.6h-3.4c-2.7,0-4-1.2-4-3.5v-5h-1.7ZM47.1,101.4h5.4v-2.3h-3.9l-1.5,2.3Z"/>
    <path class="st2" d="M70.6,117.5c5.1-7.1,8.5-15.2,10.4-24.5l7.5,1.6c-.7,2.8-1.6,5.5-2.7,8.2h11.9v-12.6h8.2v12.6h21.2v5.5h-21.2v13.7h19.2v5.5h-19.2v15.1h24.6v5.6h-58.4v-5.6h25.6v-15.1h-18.9v-5.5h18.9v-13.7h-14.3c-2.3,4.6-5.3,9-8.7,13.3l-4.2-4Z"/>
    <path class="st2" d="M134.3,148.4c3.6-8.1,6.4-16.8,8.3-25.9l7.2,2.9c-3.3,10.5-6.8,18.9-10.4,25.2l-5.1-2.2ZM146.3,118.5c-3.6-2.7-7.5-5-11.7-6.9l4.4-6c4.6,3.1,8.1,6,10.7,8.7l-3.4,4.2ZM147.4,103.7c-3.4-2.7-7.1-5-11.1-7l4.7-5.8c4.3,3.1,7.6,6,9.9,8.7l-3.6,4.1ZM194.4,99.5h-35.3v19c0,12.1-2.8,22.9-8.3,32.4l-4.8-2.9c3.6-8.1,5.5-17.9,5.5-29.6v-24.4h43v5.3ZM161.1,130.3h12v-5.9h7.9v5.9h11.9v5.3h-11.9v6.4h15v5.5h-38.6v-5.5h15.7v-6.4h-12v-5.3ZM162.4,106.5h10.7v-5.2h7.9v5.2h10.6v5.3h-10.6v5.2h13v5.3h-33.5v-5.3h12.5v-5.2h-10.7v-5.3Z"/>
    <path class="st2" d="M204.5,135.4h21.7v-2.4h-18.3v-16.2h14l.3-3.1c-6.4.8-13.2,1.4-20.3,2l-.7-4.9c4.1-.2,8.1-.4,12-.6v-2.2h-10.3v-3.1h10.3v-2.1h-11.3v-3.4h11.3v-1.8h-9.9v-3.1h9.9v-3.4h7.9v3.4h9.4v3.1h-9.4v1.8h10.5v3.4h-10.5v2.1h9.5v3.1h-9.5v1.7c3.8-.3,7.5-.7,11.1-1l.4,3.6-6,.8,3.6.7c-.6,1-1.2,2.1-1.9,3.1h24.6v16.2h-18.6v2.4h22.2v7c0,2.2-.7,3.7-2.1,4.5-1.4.8-4,1.2-7.8,1.2s-3.9-.2-6.3-.5l-1-5c1.9.3,3.4.5,4.8.5,2,0,3.2-.1,3.8-.5.5-.3.8-.8.8-1.7v-1.2h-14.4v10.5h-8.1v-10.5h-13.9v7.9h-7.8v-12.2ZM215.8,123.1h29.1v-2.5h-29.1v2.5ZM244.9,126.6h-29.1v2.4h29.1v-2.4ZM232.2,95.2h14v-4.2h7.9v4.2h6.2v4.7h-6.2v10c0,2-.6,3.3-1.8,4.2-1.2.8-3.6,1.3-7.2,1.3s-5.1-.1-7.3-.5l-1-5.1c2.3.3,4.4.5,6.1.5s2-.2,2.5-.5c.5-.3.7-1.1.7-2.2v-7.7h-7c1.8,2.3,3.3,4.7,4.6,7l-3.6,2.3c-1.8-2.1-4-4.2-6.6-6.3l4.8-3.1h-6.2v-4.7Z"/>
    <path class="st2" d="M264,119.8c5.5-9,9.6-19,12.4-30.2l8.2,1.8c-1.6,4-3.2,8-4.9,11.9v47.5h-7.9v-32.6c-1.6,2.6-3.3,5.1-5.1,7.7l-2.7-6ZM281.3,138.3c3.2-6.8,5.7-13.9,7.4-21.3l7.2,2.1c-2.4,7.3-5.5,14.3-9.4,20.9l-5.2-1.7ZM324.2,97.7v5.6l-7.2,11.8-4.5-2.3,3.4-9.4h-22.6c-2.4,4.4-5.1,8.5-8.1,12.5l-3.4-4.8c4-5.9,7-12.9,9.1-20.7l7.8,1c-.8,2.1-1.8,4.3-2.7,6.4h28.3ZM299.6,108.3h7.9v35.8c0,2.3-.7,3.9-2.1,4.9-1.4,1-3.7,1.5-7,1.5s-5.1-.2-7.3-.6l-1.2-6.3c2.3.3,4.4.5,6.2.5s2.3-.2,2.8-.6c.5-.5.7-1.2.8-2.3v-32.9ZM319.7,140.6c-2.4-7.7-5.3-14.8-8.8-21.5l7.1-2.5c2.8,7,5.2,14.5,7.1,22.6l-5.5,1.4Z"/>
    <path class="st2" d="M357.9,114.9h-18v35.8h-7.7v-57.3h25.7v21.6ZM339.9,101.8h10.6v-3.5h-10.6v3.5ZM350.5,106.6h-10.6v3.4h10.6v-3.4ZM343.8,118.3h33v4.9h-5.8v6.6h7v5.2h-7v13.6h-7.5v-13.6h-6.8c-1.2,5.9-4.4,10.9-9.7,14.8l-4.3-3.5c3.3-3.1,5.5-6.8,6.4-11.3h-7v-5.2h7.6v-6.6h-6v-4.9ZM357.4,129.8h6.2v-6.6h-6.2v6.6ZM380.5,114.9h-18.3v-21.6h25.9v51c0,2.1-.6,3.8-1.8,4.7-1.2,1-3.4,1.4-6.4,1.4s-4.2-.2-6-.5l-1.2-6c2,.3,3.8.5,5.3.5s1.6-.2,1.9-.7c.3-.5.5-1.2.5-2.2v-26.7ZM369.6,101.7h10.9v-3.4h-10.9v3.4ZM369.6,110h10.9v-3.5h-10.9v3.5Z"/>
    <path class="st2" d="M394,145.9c3.5-8.3,5.3-21,5.3-38.2v-11.2c9.2-1.5,17.4-3.3,24.6-5.5l2.7,7c-5.8,1-12.4,2-19.8,2.9v4h19.4v7.7c3.4-5.8,5.9-13.3,7.5-22.5l7.8,1.4c-1,3.3-2,6.4-3.1,9.3h16.9v5.6h-3.8v.8c0,9.8-2.2,18.5-6.6,26.3,2.8,4.7,6.5,9.2,11.1,13.2l-3.8,4c-4.5-3.6-8.2-7.5-11.1-11.4-3.2,4.1-7,7.9-11.6,11.5l-3.1-3.7v2.9h-7v-4h-8.1v4h-7v-16.5c-1.4,6.2-3.4,11.6-6,15.9l-4.4-3.4ZM426.3,121.7h-20l-.6,4.7h20.9v19.4c4.4-3.8,8.1-8.1,10.9-12.7l-.6-1.2c-2.5-5.4-4.3-11.2-5.3-17.6-1.1,1.6-2.3,3.2-3.5,4.5l-1.8-2.3v5.1ZM419.1,116.4v-6.3h-12.3c0,2.1-.1,4.2-.2,6.3h12.5ZM411.4,131.8v8.8h8.1v-8.8h-8.1ZM437.6,106.2c.6,7.5,1.8,13.8,3.6,19,2-5.5,3-11.6,3-18.2v-.8h-6.6Z"/>
    <path class="st2" d="M460.3,133.5h39.7v-3.9c-11.8.8-24.2,1.3-37.5,1.6l-.5-5.7c8.3,0,16.4,0,24.4,0v-3.1h-21v-19.8h21v-3.3h-24.6v-5.1h24.6v-4.2h7.8v4.2h24.4v5.1h-24.4v3.3h20.7v19.8h-1.5c2,2.1,3.8,4.4,5.5,6.6l-3.9,3c-1-1.1-2.1-2.2-3.2-3.2l-3.8.3v4.5h12v5.2h-12v5.5c0,2.3-.7,3.9-2.2,4.9-1.5,1-4.1,1.5-7.8,1.5s-5.6-.2-8.1-.6l-1.2-6c2.7.4,5.1.6,7.1.6s2.9-.3,3.4-.7.8-1.3.9-2.5v-2.6h-22.3c2.3,1.8,4.4,3.7,6.2,5.6l-4,3.6c-2.4-1.9-5.8-4-10.1-6.1l3.4-3.1h-12.9v-5.2ZM486.3,110.4v-3.4h-13.3v3.4h13.3ZM486.3,117.7v-3.1h-13.3v3.1h13.3ZM494.1,107v3.4h13.1v-3.4h-13.1ZM494.1,114.6v3.1h13.1v-3.1h-13.1ZM507.1,122.2h-13v2.9l12.6-.5c-.5-.4-.9-.7-1.4-1l1.8-1.4Z"/>
    <path class="st2" d="M529.2,93.3h52.8v11.2h-18.4v10.7h17.2v9.2h-29.6l-1.2,1.6h32.7c0,8.8-.3,14.4-.6,16.9-.3,2.5-1,4.4-2.1,5.7-1.1,1.2-3.2,1.8-6.1,1.8-2.3,0-4.7-.2-7-.5l-.6-3.9,3.6.4c-.3-.3-.7-.7-1-.9-9.4,1.5-19.8,2.7-30.9,3.7l-.8-5.6c5.5-.1,10.9-.3,16.1-.5v-2.6h-12.2v-6.2c-1.1.8-2.3,1.6-3.4,2.3l-2.3-2.7c-1.2,6.2-3.2,11.8-6,16.8l-4.6-3.1c2.8-7,4.3-16.9,4.4-29.6v-24.8ZM537,118.1c0,5-.5,9.8-1.2,14.3,3.2-2.3,5.7-4.9,7.7-7.9h-4v-9.2h16.7v-10.7h-19.1v13.5ZM574.3,97.5h-37.2v2.9h37.2v-2.9ZM540.5,106.3h13.1v3h-13.1v-3ZM540.5,110.7h13.1v3h-13.1v-3ZM553.4,130h-6.8l-1.9,1.8h8.8v-1.8ZM551.3,121v-2.2h-4.7v2.2h4.7ZM553.4,135.3h-5.5v1.8h5.5v-1.8ZM562.4,121v-2.2h-4.3v2.2h4.3ZM572.5,140.6h-2.5c1.2,1.4,2.5,3.1,3.8,5l-2,1c1.1,0,1.9-.4,2.3-1.1.4-.7.7-2.2.7-4.5,0-1.9.1-5.5.2-11h-14.6v1.8h12v8.8ZM560.6,137.1h5.3v-1.8h-5.3v1.8ZM566.2,140.6h-5.7v2.3l4.7-.3c-.5-.3-.8-.7-1.2-1l2.1-1ZM566.4,106.2h13.3v3h-13.3v-3ZM566.4,110.7h13.3v3h-13.3v-3ZM569.3,118.8v2.2h4.4v-2.2h-4.4Z"/>
    <path class="st2" d="M592.4,149.8v-49.5h8.1c.7-3.1,1.2-6.3,1.7-9.9l7.9,1.4c-.8,2.9-1.9,5.7-3.2,8.5h10.5v10.3c3.8-6,6.5-12.9,7.9-20.5l7.5,1.3c-.7,2.9-1.7,5.7-2.8,8.6h18.5c0,11.2-.2,21-.6,29.3-.5,8.3-1.4,13.8-2.9,16.4s-4.1,4.2-8.1,4.5c-4,.3-7.8,0-11.4-.6l-1-6.7c3.5.8,6.7,1,9.5.8,2.1-.2,3.6-1.4,4.4-3.6s1.2-6.7,1.6-13.4c.2-5.6.4-12.7.5-21.2h-12.9c-1.9,3.4-4.1,6.8-6.6,10.1l-3.4-3.2v36.1h-7.5v-4.8h-9.9v6.3h-7.5ZM599.9,105.8v13.2h9.9v-13.2h-9.9ZM599.9,124.4v13.6h9.9v-13.6h-9.9ZM630.9,132.9c-2.9-5-6-9.6-9.4-13.7l6.5-4.2c3.1,4.8,5.8,9.9,8,15.1l-5.1,2.7Z"/>
    <path class="st2" d="M655.6,117.5c5.1-7.1,8.5-15.2,10.4-24.5l7.5,1.6c-.7,2.8-1.6,5.5-2.7,8.2h11.9v-12.6h8.2v12.6h21.2v5.5h-21.2v13.7h19.2v5.5h-19.2v15.1h24.6v5.6h-58.4v-5.6h25.6v-15.1h-18.9v-5.5h18.9v-13.7h-14.3c-2.3,4.6-5.3,9-8.7,13.3l-4.2-4Z"/>
    <path class="st2" d="M719.3,148.4c3.6-8.1,6.4-16.8,8.3-25.9l7.2,2.9c-3.3,10.5-6.8,18.9-10.4,25.2l-5.1-2.2ZM731.3,118.5c-3.6-2.7-7.5-5-11.7-6.9l4.4-6c4.6,3.1,8.1,6,10.7,8.7l-3.4,4.2ZM732.4,103.7c-3.4-2.7-7.1-5-11.1-7l4.7-5.8c4.3,3.1,7.6,6,9.9,8.7l-3.6,4.1ZM779.4,99.5h-35.3v19c0,12.1-2.8,22.9-8.3,32.4l-4.8-2.9c3.6-8.1,5.5-17.9,5.5-29.6v-24.4h43v5.3ZM746.1,130.3h12v-5.9h7.9v5.9h11.9v5.3h-11.9v6.4h15v5.5h-38.6v-5.5h15.7v-6.4h-12v-5.3ZM747.4,106.5h10.7v-5.2h7.9v5.2h10.6v5.3h-10.6v5.2h13v5.3h-33.5v-5.3h12.5v-5.2h-10.7v-5.3Z"/>
    <path class="st2" d="M783.9,147.3c3.9-8.1,5.9-20.3,5.9-36.7v-6.2h-4.5v-5.5h10.3c-1-2.5-2.1-5.1-3.5-7.7l7.9-1.2c.7,3.1,1.3,6,1.7,8.9h9.5v4.9c2.7-3.7,4.9-8.4,7-13.9l8.1,1c-.8,2.1-1.8,4.1-2.8,6h21.1v5.5h-24.5c-2.4,3.3-5.1,6.1-8.1,8.5l-4-3.2c1-1,1.9-2.1,2.9-3.4h-13.8v6.2c0,.8,0,1.6,0,2.5h12.4v14.6c0,6.2-.3,10.9-.6,14.1-.4,3.2-1.2,5.3-2.3,6.3-1.1,1-3,1.6-5.7,1.8-2.1,0-4.2,0-6.2-.4l-1-6c1.8.5,3.4.6,4.9.5,1.1,0,1.9-.6,2.3-1.4.4-.8.7-2.2.8-4.1.2-1.9.3-5,.3-9.4v-10.5c0,0-5.2,0-5.2,0-.8,14-3.8,24.8-8.8,32.4l-4.2-3.6ZM813.3,110.6c8.6-.5,17.4-2.5,26.3-6.1l3.5,6.6c-3.3,1-6.7,1.9-10.2,2.7,0,4,.5,7.5,1.2,10.9,2.2-1.8,4.5-3.8,6.8-6l4.9,5.7c-3.2,2.3-6.6,4.3-10.2,6,0,.3.2.7.4,1,2.1,5.3,5.6,10.4,10.4,15.1l-4,3.9c-5.9-5.3-10.1-10.9-12.7-16.8-2.2-5.1-3.6-11.4-4.1-18.7l-4.5.5v25.5c3.1-.8,6-1.8,9-2.7l.5,5.5c-3.4,1.7-9,4-16.6,6.8l-2.2-7.2c1-.6,1.5-1.6,1.6-3.1v-29.7Z"/>
    <path class="st2" d="M866.6,150.7h-7.5v-23.7c-2.5,4.6-5.3,8.8-8.3,12.8l-2.3-5.5c3.8-6,7-12.7,9.2-20.1h-6.9v-5.5h8.3v-8.8c-2.1.5-4.3.8-6.4,1.3l-2.3-4.6c6.8-1.9,13.3-4.2,19.2-6.7l4.4,6c-2.3.7-4.8,1.4-7.3,2.1v10.7h7v5.5h-7v5.9l3.8-2.2c1.9,3.8,3.4,7.4,4.5,10.7l-4,2.3c-1-2.1-2.5-4.7-4.4-7.5v27.2ZM911.2,148.7h-39.7v-5.5h16.1v-7.5h-13.1v-5.3h13.1v-6.8c-3.9.3-7.9.5-12.2.6l-1.6-4.8c11-.8,21.5-2.5,31.4-5l3.2,6.2c-4,.8-8.4,1.5-13,2.1v7.6h12.8v5.3h-12.8v7.5h15.6v5.5ZM907.1,93.8v19.3h-31.1v-19.3h31.1ZM899.4,99.1h-15.7v8.6h15.7v-8.6Z"/>
    <path class="st2" d="M949.4,135.9c1,1,1.6,2.4,1.6,4.2s-.5,3.1-1.6,4.2c-1.1,1-2.5,1.6-4.2,1.6s-3.1-.5-4.2-1.6c-1.1-1-1.6-2.4-1.6-4.2s.5-3.1,1.6-4.2c1-1,2.4-1.6,4.2-1.6s3.1.5,4.2,1.6ZM947.8,130.4h-5.1l-2.9-33h10.9l-2.9,33Z"/>
  </g>
</svg>