<?xml version="1.0" encoding="UTF-8"?>
<svg xmlns="http://www.w3.org/2000/svg" version="1.1" viewBox="0 0 956 163">
  <defs>
    <style>
      .cls-1 {
        fill: #f7f097;
      }

      .cls-2 {
        fill: #0e62a9;
      }
    </style>
  </defs>
  <!-- Generator: Adobe Illustrator 28.7.4, SVG Export Plug-In . SVG Version: 1.2.0 Build 166)  -->
  <g>
    <g id="_圖層_1" data-name="圖層_1">
      <g id="_圖層_1-2" data-name="_圖層_1">
        <g>
          <g>
            <path class="cls-2" d="M139.3,75.4c-1,0-2-.4-2.7-1.1h-.1c-.7.4-1.6.8-2.5.8h-8.6c-2.2,0-4-1.8-4-4v-19c-.4.2-.9.3-1.4.3h-.7c-1.2-.2-2.2-1-2.8-2l-2.9-5.3c-.9-1.6-.6-3.5.7-4.8,2.8-2.8,5.3-5.8,7.7-9-.6.3-1.2.5-1.9.5h-1c-1.1-.3-2.1-1.1-2.6-2.2l-2.5-5.3c-.7-1.6-.4-3.4.9-4.6,5.2-4.9,9.6-10.7,13.1-17.1.7-1.3,2.1-2.1,3.5-2.1s1.2,0,1.7.4l7.8,3.7c1,.5,1.8,1.4,2.1,2.5.3,1.1.1,2.3-.5,3.3-1.7,2.6-3.6,5.1-5.7,7.5l3.6,1.5c2.1-4.9,3.5-10.1,4.3-15.5.2-1.1.7-2,1.6-2.7.7-.5,1.5-.8,2.4-.8s.5,0,.7,0l8.4,1.4c1.1.2,2.1.8,2.7,1.8.6.9.8,2.1.5,3.2-.7,2.8-1.4,5.2-2.1,7.3.8.9,1.6,1.9,2.4,2.9,1.6-4.3,2.6-8.6,3.1-13.1.1-1.1.7-2,1.5-2.7.7-.5,1.6-.8,2.5-.8s.4,0,.5,0l8.4,1.2c1.1.2,2.1.8,2.7,1.7s.9,2,.6,3.1c-.6,2.7-1.3,5.4-2.2,8.4,3.3,4.3,6.4,9.1,9.1,14.2.9,1.7.5,3.8-1,5l-4.6,3.7c-.7.6-1.6.9-2.5.9s-.4,0-.6,0c-1.1-.2-2.1-.8-2.7-1.7-1.5-2.2-3-4.3-4.7-6.4-.4.6-.8,1.2-1.1,1.8.3.6.5,1.3.5,2v5.6h11.1c2.2,0,4,1.8,4,4v6.2c0,2.2-1.8,4-4,4h-11.1v4.6h1c5,0,9.2-.3,13.2-.8h.4c1.1,0,2.2.5,3,1.3.9.9,1.2,2.2,1,3.5l-1.4,7.1c-.4,1.7-1.8,3-3.5,3.2-4,.4-8.1.6-12.2.6s-9.7-.2-12.8-.5c-4.3-.6-8.1-2.5-11.6-5.7-1.5,2.5-3.3,4.9-5.4,7.1-.8.8-1.9,1.3-2.9,1.3l-.4-.3h0ZM153.6,51.5v-1.2c0,.3-.1.6-.2,1,0,0,.1.2.2.3h0ZM137.9,36.9c0-.2.1-.5.2-.7h-.2v.7ZM150.2,33.7c1.4,0,2.7.8,3.4,1.9v-1.4c0-1.2.5-2.3,1.3-3h-.1c-.8-1-1.6-1.8-2.5-2.6-1,1.8-2.1,3.5-3.3,5.2h1.2Z"/>
            <path class="cls-2" d="M133.9,71.1h-8.6v-27.7c-1.7,1.7-3.5,3.3-5.4,4.9l-2.9-5.3c6.4-6.4,11.7-14,16.1-22.5l7.8,3.2c-2.1,3.5-4.4,6.9-6.9,10.3v37.1h-.1ZM117.5,22.4c5.4-5.1,10.1-11.1,13.9-18.1l7.8,3.7c-5,7.6-11.4,14.1-19.2,19.7l-2.5-5.3h0ZM135,67.4c4.5-6.4,6.8-14.8,6.8-25.3v-4.5h8.4v4.5c0,3.5-.3,6.7-.9,9.8,2.4,4.6,5.2,7.6,8.4,9.1v-26.9h9.1v9.6h15.1v6.2h-15.1v12.5h5c4.6,0,9.1-.3,13.7-.8l-1.4,7.1c-3.7.4-7.6.6-11.8.6s-9.3,0-12.4-.5c-4.8-.6-9.1-3.6-12.9-8.9-1.8,4.2-4.3,8.1-7.5,11.4l-4.3-4h-.2ZM161.6,24.3l-3.9,4c-2.1-2.2-4.2-4.3-6.5-6.3-2.2,4.5-4.9,8.8-8,12.7l-4.9-3.2c5.5-8.4,8.9-17.5,10.3-27.2l8.4,1.4c-.8,3.1-1.7,6.2-2.7,9.3,2.7,2.8,5.1,5.9,7.3,9.2h0ZM183.9,30.7l-4.6,3.7c-2.7-4-5.6-7.7-8.8-11.2-1.8,3.7-4,7.2-6.5,10.6l-5.1-3.2c5.1-8.2,8.3-17,9.4-26.4l8.4,1.2c-.7,3.4-1.7,6.7-2.7,10,3.8,4.8,7.1,9.9,10,15.3h0Z"/>
            <path class="cls-2" d="M221.7,75.2c-3.6,0-6.8-.3-9.7-.8-1.6-.3-2.9-1.6-3.2-3.2l-1.3-6.8c-.2-1,0-2.1.6-2.9h-14.5c-2.2,0-4-1.8-4-4v-5.6c0-1.5.9-2.9,2.1-3.5-.4-.6-.7-1.4-.7-2.2v-13.9c0-2.2,1.7-3.9,3.9-4V8.7c0-2,1.5-3.7,3.4-4,4.6-.7,9.2-2.1,14.1-4.2.5-.2,1.1-.3,1.6-.3,1.5,0,2.9.8,3.6,2.2v.2c.1,0,.4-.3.4-.3.8-.8,1.8-1.3,2.9-1.3s1.3.2,1.9.5c1.3.7,2.6,1.5,4,2.4.7-.7,1.5-1.4,2.1-2.2.7-.8,1.7-1.3,2.8-1.3h.2c1,0,2,.4,2.7,1l2.4,2.2h18.1c2.2,0,4,1.8,4,4v20.5c1.9.3,3.3,2,3.3,3.9v13.9c0,.9-.3,1.7-.8,2.3,1.1.7,1.9,2,1.9,3.4v5.6c0,2.2-1.8,4-4,4h-23.3v2.6c0,4.9-2.3,7.5-4.2,8.8h0c-2.4,1.6-5.8,2.3-10.5,2.3,0,0,.2.3.2.3Z"/>
            <path class="cls-2" d="M206.6,41.1h39.9v4.9c-3.5,1.9-8.2,3.8-14,5.5v.3h27.3v5.6h-27.3v6.6c0,2.5-.8,4.4-2.4,5.5-1.7,1.1-4.4,1.7-8.3,1.7s-6.2-.2-8.9-.7l-1.3-6.8c2.8.4,5.3.6,7.3.6s3-.3,3.7-.8c.6-.5.9-1.4,1-2.7v-3.3h-29.9v-5.6h29.9v-2.4h1.7c2.6-1.2,4.8-2.3,6.6-3.4h-25.3v-4.9h0ZM237.4,7.7h17.9v24.5h3.3v13.9h-8.5v-8.6h-46.5v8.6h-8.5v-13.9h3.9V8.7c5-.7,10-2.2,15.2-4.5l3.1,6.2c-3.1.6-6.5,1.2-10.1,1.7v3.7h8.7v4.5h-8.7v4h8.4v4.5h-8.4v3.5h11l-1.8-2.6c2.2-1.2,4.4-2.4,6.4-3.7-1.8-1-3.7-2-5.8-3l4-4c2.1,1.2,4,2.5,6,3.8,1.7-1.4,3.2-3,4.7-4.7l4.2,3.5c-1.5,1.4-3.1,2.8-4.8,4.1,2,1.5,4,3,5.8,4.6l-2,2h12.2v-3.5h-9.6v-4.5h9.6v-3.8h-9.3v-4.5h9.3v-3.6h-9.7v-4.6h0ZM218.7,18.9l-2.2-3.4c2.2-1.1,4.4-2.2,6.4-3.4-1.8-1-3.7-1.9-5.8-2.9l3.9-4.2c2.2,1.2,4.3,2.6,6.3,4,1.7-1.4,3.3-3,4.8-4.5l4.2,3.8c-1.4,1.3-3,2.5-4.5,3.7,1.7,1.2,3.4,2.5,5,3.8l-2.7,2.9c-1.8-1.4-3.9-2.7-6.2-4.1-2.8,1.7-5.9,3-9.1,4.2h0ZM233.2,32.2c-1.8-1.4-3.7-2.7-6-3.9-2.3,1.4-4.8,2.7-7.3,3.9h13.3Z"/>
            <path class="cls-2" d="M272,75.4c-2.2,0-4-1.8-4-4V8.2c0-2.2,1.8-4,4-4h27.7c1,0,2,.4,2.7,1,.7-.6,1.6-1,2.7-1h27.4c2.2,0,4,1.8,4,4v55.7c0,3.8-1.3,6.7-3.8,8.7h0c-2.3,1.6-5.5,2.4-9.8,2.4s-5.7-.2-8.3-.7c-1.6-.3-2.9-1.6-3.2-3.2l-1.4-7c-.2-1.3.1-2.6,1-3.5.8-.8,1.8-1.2,2.9-1.2s.4,0,.6,0c2.3.3,4.1.5,5.5.5v-20.8h-14.8c-1,0-2-.4-2.7-1-.7.6-1.6,1-2.7,1h-15.1v32.2c0,2.2-1.8,4-4,4h-8.7Z"/>
            <path class="cls-2" d="M299.7,8.2v27h-19.1v36.2h-8.6V8.2h27.7ZM280.6,18.7h10.7v-4.6h-10.7v4.6ZM291.3,24.5h-10.7v4.8h10.7v-4.8ZM305,8.2h27.4v55.7c0,2.5-.7,4.3-2.2,5.5-1.5,1.1-4,1.7-7.5,1.7s-5.3-.2-7.6-.6l-1.4-7c2.5.4,4.7.6,6.5.6s2.3-.2,2.8-.7.7-1.3.8-2.4v-25.6h-18.8V8.2h0ZM313.4,18.7h10.4v-4.6h-10.4v4.6ZM313.4,29.3h10.4v-4.8h-10.4v4.8Z"/>
            <path class="cls-2" d="M382.3,56.7h-.3c-1.3,0-2.4-.8-3.1-1.9-2.3-3.7-4.8-7.2-7.5-10.2l-2.4-2.5c-1.9-2.1-3.7-4-5.4-5.8-1.4-1.5-1.5-3.8,0-5.4l2.7-3.1c.8-.9,1.9-1.4,3-1.4s1.2,0,1.8.4c3.9,2,7.3,4,10.6,6.1,3.2,2.2,6.8,4.8,10.7,8,.8.7,1.4,1.7,1.5,2.8,0,1.1-.3,2.2-1,3l-7.6,8.6c-.8.9-1.9,1.4-3,1.4Z"/>
            <path class="cls-2" d="M382.3,52.7c-2.4-4-5.1-7.6-7.9-10.8-2.9-3.1-5.5-5.9-7.8-8.4l2.7-3.1c3.5,1.8,6.9,3.7,10.2,5.9s6.7,4.8,10.4,7.8l-7.6,8.6h0Z"/>
            <path class="cls-2" d="M448.5,75.2c-3.6,0-6.8-.3-9.7-.8-1.6-.3-2.9-1.6-3.2-3.2l-1.3-6.8c-.2-1,0-2.1.6-2.9h-14.5c-2.2,0-4-1.8-4-4v-5.6c0-1.5.9-2.9,2.1-3.5-.4-.6-.7-1.4-.7-2.2v-13.9c0-2.2,1.7-3.9,3.9-4V8.7c0-2,1.5-3.7,3.4-4,4.6-.7,9.2-2.1,14.1-4.2.5-.2,1.1-.3,1.6-.3,1.5,0,2.9.8,3.6,2.2v.2l.4-.3c.8-.8,1.8-1.3,2.9-1.3s1.3.2,1.9.5c1.3.7,2.6,1.5,4,2.4.7-.7,1.5-1.4,2.1-2.2.7-.8,1.7-1.3,2.8-1.3h.2c1,0,2,.4,2.7,1l2.4,2.2h18.1c2.2,0,4,1.8,4,4v20.5c1.9.3,3.3,2,3.3,3.9v13.9c0,.9-.3,1.7-.8,2.3,1.1.7,1.9,2,1.9,3.4v5.6c0,2.2-1.8,4-4,4h-23.3v2.6c0,4.9-2.3,7.5-4.2,8.8h0c-2.4,1.6-5.8,2.3-10.5,2.3,0,0,.2.3.2.3Z"/>
            <path class="cls-2" d="M433.4,41.1h39.9v4.9c-3.5,1.9-8.2,3.8-14,5.5v.3h27.3v5.6h-27.3v6.6c0,2.5-.8,4.4-2.4,5.5-1.7,1.1-4.4,1.7-8.3,1.7s-6.2-.2-8.9-.7l-1.3-6.8c2.8.4,5.3.6,7.3.6s3-.3,3.7-.8c.6-.5.9-1.4,1-2.7v-3.3h-29.9v-5.6h29.9v-2.4h1.7c2.6-1.2,4.8-2.3,6.6-3.4h-25.3v-4.9h0ZM464.2,7.7h17.9v24.5h3.3v13.9h-8.5v-8.6h-46.5v8.6h-8.5v-13.9h3.9V8.7c5-.7,10-2.2,15.2-4.5l3.1,6.2c-3.1.6-6.5,1.2-10.1,1.7v3.7h8.7v4.5h-8.7v4h8.4v4.5h-8.4v3.5h11l-1.8-2.6c2.2-1.2,4.4-2.4,6.4-3.7-1.8-1-3.7-2-5.8-3l4-4c2.1,1.2,4,2.5,6,3.8,1.7-1.4,3.2-3,4.7-4.7l4.2,3.5c-1.5,1.4-3.1,2.8-4.8,4.1,2,1.5,4,3,5.8,4.6l-2,2h12.2v-3.5h-9.6v-4.5h9.6v-3.8h-9.3v-4.5h9.3v-3.6h-9.7v-4.6h0ZM445.5,18.9l-2.2-3.4c2.2-1.1,4.4-2.2,6.4-3.4-1.8-1-3.7-1.9-5.8-2.9l3.9-4.2c2.2,1.2,4.3,2.6,6.3,4,1.7-1.4,3.3-3,4.8-4.5l4.2,3.8c-1.4,1.3-3,2.5-4.5,3.7,1.7,1.2,3.4,2.5,5,3.8l-2.7,2.9c-1.8-1.4-3.9-2.7-6.2-4.1-2.8,1.7-5.9,3-9.1,4.2h-.1ZM460,32.2c-1.8-1.4-3.7-2.7-6-3.9-2.3,1.4-4.8,2.7-7.3,3.9h13.3Z"/>
            <path class="cls-2" d="M559.6,75.8c-.9,0-1.9-.3-2.7-1-3.4-3-7.4-5.8-12.4-8.7-4.2,3-9,6.1-14.3,9-.6.3-1.3.5-2,.5-1,0-2.1-.4-2.9-1.2l-3.5-3.6c-.6-.2-1.2-.4-1.6-.9-1.9-1.6-4-3.3-6.4-5-3.4,4-8.1,7.2-13.9,9.6-.5.2-1,.3-1.5.3-1.2,0-2.3-.5-3.1-1.5l-3.7-4.6c-.8-.9-1.1-2.2-.8-3.4.3-1.2,1-2.2,2.1-2.7,3.7-1.9,6.5-4.1,8.4-6.8h-4.9c-2.2,0-4-1.8-4-4v-6c0-1.7,1.1-3.2,2.7-3.8-.2-.2-.4-.4-.6-.7l-3.2-4.4c-1.3-1.8-.9-4.2.8-5.5s3.2-2.6,4.7-4h-.6c-2.2,0-4-1.8-4-4v-6c0-1.7,1.1-3.2,2.6-3.7-.4-.5-.8-.9-1.2-1.4-.9-.9-1.2-2.3-1-3.5.3-1.3,1.1-2.3,2.3-2.8l6.8-3c.5-.2,1.1-.3,1.6-.3s1.1.1,1.5.3c.7-1.3,2-2.2,3.6-2.2h8.4c1.5,0,2.8.8,3.5,2.1.4-.1.9-.2,1.3-.2s1.1.1,1.6.3l3.3,1.5c.6-.3,1.3-.5,2-.5h34.3c2.2,0,4,1.8,4,4v6c0,1.9-1.3,3.5-3.1,3.9.3.6.5,1.3.5,2v37.3c0,1.3-.6,2.4-1.5,3.2,1.5,1.5,3,3,4.4,4.6,1.5,1.6,1.4,4.1-.2,5.6l-4.5,4.2c-.8.7-1.8,1.1-2.7,1.1h0ZM525.9,55.9h0ZM504.1,41.9v-2.3c-1.1.8-2.2,1.6-3.4,2.3h3.4Z"/>
            <path class="cls-2" d="M516.6,4.8v12.7h5.5l-4.5-1.9c1.4-2.6,2.7-5.5,3.8-8.9l6.8,3c-1.7,2.7-3.6,5.3-5.8,7.8h5.5v6h-11.3v5.3l3.8-4.3c3.1,2.7,5.8,5.5,8.4,8.8l-3.7,3.7c-2.7-2.7-5.5-5-8.4-7v8.1h-8.4v-7.6c-3.2,3.2-6.7,6-10.6,8.4l-3.2-4.4c4.2-3.2,7.9-6.9,10.9-11.2h-9.4v-6h6.3c-1.6-2.6-3.6-5.2-6-7.8l6.8-3c1.7,3,3,6,4.1,8.9l-4.5,1.9h5.5V4.6h8.4v.2h0ZM498.4,70.9l-3.7-4.6c6.8-3.5,11.1-8.3,12.7-14.4h-11.1v-6h11.8v-6.3h8.5v6.3h5.8c-1.5-1.5-3.3-2.9-5.3-4.2l5.2-3.9c1.9,2.2,3.5,4.3,4.9,6.5l-2.2,1.7h3.4v6h-12.3v.5c4.1,3.4,7.8,6.8,11.2,10.5l-4.2,4c-3-2.6-6.3-5-10-7.4-3,4.8-7.8,8.6-14.5,11.4h-.2ZM528.4,7.9h34.3v6h-13.5l-2.7,5.9h13.6v37.3h-7.1c4.1,3.4,7.7,6.8,10.9,10.4l-4.5,4.2c-3.8-3.4-8.4-6.6-13.8-9.6l5-5h-14.3l6.5,5.1c-4,3-8.9,6.1-14.7,9.4l-4.2-4.2c4.7-3.3,8.7-6.7,12-10.2h-6.3V19.9h9.7l1.2-5.9h-12.5v-6h.4,0ZM538.4,30.5h13.3v-4.6h-13.3v4.6ZM538.4,40.7h13.3v-4.4h-13.3v4.4ZM551.7,46.4h-13.3v4.7h13.3v-4.7Z"/>
            <path class="cls-2" d="M625,74.6c-3.6,0-6.7-.3-9.5-.8-1.6-.3-2.9-1.6-3.2-3.2l-.3-1.5c-11.6,2-24.4,3.7-38.9,5.2h-.4c-1.9,0-3.6-1.4-3.9-3.3l-1.4-8.2c-.2-1.1,0-2.3.8-3.2s1.8-1.4,2.9-1.5c4.2-.2,8.4-.4,12.4-.7v-2.4h-10c-2.2,0-4-1.8-4-4v-6c0-1.9,1.4-3.5,3.2-3.9-.8-.6-1.4-1.5-1.6-2.6l-1.2-7.8c-.3-1.7.6-3.5,2.2-4.2,1.9-.9,3.3-2.2,4.4-4,.6-1,1.2-2.1,1.9-3.3h-4.7c-2.2,0-4-1.8-4-4v-6c0-2.2,1.8-4,4-4h36.5c1.5,0,2.8.8,3.5,2.1h8c.4,0,.8,0,1.1.2v-2.8c0-2.2,1.8-4,4-4h8.6c2.2,0,4,1.8,4,4v58.8c0,4.8-2.2,7.4-4,8.8-2.3,1.7-5.7,2.5-10.4,2.5v-.2h0ZM620.2,59.4h2.6v-.2c-.4,0-.7.2-1.1.2h-1.5ZM600.6,56.3c3.1-.3,6.2-.6,9.2-.9v-.3h-9.2v1.2ZM602.2,41l-1.1-2.5h-.5v2.5h1.6ZM583.5,41v-.2l-1.4.2h1.4ZM592.6,24.8h1.6c-.2-.5-.5-.9-.7-1.3-.3.4-.6.9-.9,1.3h0ZM609,19.2c.3.6.5,1.1.8,1.7v-1.7h-.8Z"/>
            <path class="cls-2" d="M573.7,9.1h36.5v6h-16.1c-3,5-6.3,9.7-9.6,14.2l16.3-1.2c-1.4-2.7-2.8-5.1-4.2-7.5l7.3-2.9c2.8,5.3,5.4,12,7.9,20.2l-5.7,1.9-2.5-5.9-7,1v9.9h13.4v6h-13.4v9.6c5-.4,9.9-.9,14.7-1.4l.6,5.8c-11.9,2.1-24.9,3.8-39.2,5.3l-1.4-8.2c5.5-.3,10.9-.6,16.2-.9v-10.2h-14v-6h14v-8.7l-12.5,1.6-1.2-7.8c2.5-1.2,4.5-3,6-5.5,1.7-2.9,3.4-6,5-9.4h-11.2v-6h.1ZM613.8,55.4V11.2h7.9v44.1h-7.9ZM626.8,4.6h8.6v58.8c0,2.5-.8,4.4-2.4,5.5-1.6,1.2-4.2,1.7-8.1,1.7s-6.1-.2-8.8-.7l-1.4-7.1c2.8.4,5.2.6,7.3.6s3-.2,3.7-.7c.6-.5.9-1.3,1-2.4V4.6h.1Z"/>
            <path class="cls-2" d="M675.3,75.2c-3.6,0-6.8-.3-9.7-.8-1.6-.3-2.9-1.6-3.2-3.2l-1.3-6.8c-.2-1,0-2.1.6-2.9h-14.5c-2.2,0-4-1.8-4-4v-5.6c0-1.5.9-2.9,2.1-3.5-.4-.6-.7-1.4-.7-2.2v-13.9c0-2.2,1.7-3.9,3.9-4V8.7c0-2,1.5-3.7,3.4-4,4.6-.7,9.2-2.1,14.1-4.2.5-.2,1.1-.3,1.6-.3,1.5,0,2.9.8,3.6,2.2v.2l.4-.3c.8-.8,1.8-1.3,2.9-1.3s1.3.2,1.9.5c1.3.7,2.6,1.5,4,2.4.7-.7,1.5-1.4,2.1-2.2.7-.8,1.7-1.3,2.8-1.3h.2c1,0,2,.4,2.7,1l2.4,2.2h18.1c2.2,0,4,1.8,4,4v20.5c1.9.3,3.3,2,3.3,3.9v13.9c0,.9-.3,1.7-.8,2.3,1.1.7,1.9,2,1.9,3.4v5.6c0,2.2-1.8,4-4,4h-23.3v2.6c0,4.9-2.3,7.5-4.2,8.8h0c-2.4,1.6-5.8,2.3-10.5,2.3,0,0,.2.3.2.3Z"/>
            <path class="cls-2" d="M660.2,41.1h39.9v4.9c-3.5,1.9-8.2,3.8-14,5.5v.3h27.3v5.6h-27.3v6.6c0,2.5-.8,4.4-2.4,5.5-1.7,1.1-4.4,1.7-8.3,1.7s-6.2-.2-8.9-.7l-1.3-6.8c2.8.4,5.3.6,7.3.6s3-.3,3.7-.8c.6-.5.9-1.4,1-2.7v-3.3h-29.9v-5.6h29.9v-2.4h1.7c2.6-1.2,4.8-2.3,6.6-3.4h-25.3v-4.9h0ZM690.9,7.7h17.9v24.5h3.3v13.9h-8.5v-8.6h-46.5v8.6h-8.5v-13.9h3.9V8.7c5-.7,10-2.2,15.2-4.5l3.1,6.2c-3.1.6-6.5,1.2-10.1,1.7v3.7h8.7v4.5h-8.7v4h8.4v4.5h-8.4v3.5h11l-1.8-2.6c2.2-1.2,4.4-2.4,6.4-3.7-1.8-1-3.7-2-5.8-3l4-4c2.1,1.2,4,2.5,6,3.8,1.7-1.4,3.2-3,4.7-4.7l4.2,3.5c-1.5,1.4-3.1,2.8-4.8,4.1,2,1.5,4,3,5.8,4.6l-2,2h12.2v-3.5h-9.6v-4.5h9.6v-3.8h-9.3v-4.5h9.3v-3.6h-9.7v-4.6h0ZM672.3,18.9l-2.2-3.4c2.2-1.1,4.4-2.2,6.4-3.4-1.8-1-3.7-1.9-5.8-2.9l3.9-4.2c2.2,1.2,4.3,2.6,6.3,4,1.7-1.4,3.3-3,4.8-4.5l4.2,3.8c-1.4,1.3-3,2.5-4.5,3.7,1.7,1.2,3.4,2.5,5,3.8l-2.7,2.9c-1.8-1.4-3.9-2.7-6.2-4.1-2.8,1.7-5.9,3-9.1,4.2h-.1ZM686.8,32.2c-1.8-1.4-3.7-2.7-6-3.9-2.3,1.4-4.8,2.7-7.3,3.9h13.3Z"/>
            <path class="cls-2" d="M750.1,74.4c-3.5,0-6.8-.3-10.1-.8-1.6-.3-2.9-1.5-3.3-3.2l-.6-3c-2.7,1.5-5.6,2.9-8.6,4-.5.2-1,.3-1.5.3-1.3,0-2.5-.6-3.3-1.7l-3.4-4.9c-.7-.9-.9-2.1-.6-3.2.3-1.1,1-2.1,2-2.6,2.9-1.5,5.5-3.2,7.9-5-1-.5-1.8-1.5-2.1-2.6l-1.9-8.1c-.5-1.9.5-3.9,2.3-4.6,1.3-.5,2.6-1.1,3.8-1.7-.5-.5-.8-1.1-1-1.8l-2.1-7.4c-.5-1.9.4-3.9,2.1-4.7.6-.3,1.2-.6,1.7-.9-1.2,0-2.3.1-3.5.2h-.2c-1.7,0-3.3-1.1-3.8-2.8l-1.7-5.5c-.4-1.2-.2-2.4.5-3.4s1.8-1.7,3-1.8c18.3-1.6,36.3-4.4,53.5-8.2h.9c1.4,0,2.8.8,3.5,2.1l3.9,7.2c.6,1.1.6,2.5,0,3.6s-1.6,2-2.9,2.2c-1.5.3-2.9.5-4.4.8.7.6,1.1,1.5,1.2,2.4,0,1.3-.4,2.7-1.4,3.5-1.2,1-2.5,2-3.7,3,5.6,6.7,10.2,13.4,14.3,20.3,1.1,1.9.5,4.3-1.4,5.5l-4.9,2.9c2.5,2.4,4.8,4.8,7,7.2.7.8,1.1,1.8,1,2.9,0,1.1-.5,2.1-1.3,2.8l-4.6,4.2c-.8.7-1.7,1-2.7,1s-2-.4-2.7-1.1c-4.5-4.3-9.9-8.4-15.9-12.4v4.1c0,4.9-2.3,7.5-4.2,8.8-2.5,1.7-6,2.4-10.9,2.4h.1ZM748.2,58.8c-.3.3-.6.5-.9.8h.9v-.8ZM763,36c-.4.3-.9.6-1.4.9.8,0,1.5-.2,2.3-.2-.3-.2-.5-.5-.8-.8h0Z"/>
            <path class="cls-2" d="M726.2,13.3c18.9-1.7,36.9-4.5,54-8.3l3.9,7.2c-8.4,1.5-17.4,2.9-26.7,4-4.4,3.6-8.4,6.7-12.1,9.2l15.3-1.8c2.8-2.3,5.8-5,9-8.1l8.1,4.2c-6,4.9-11.6,9.1-16.8,12.8-4,2.7-9.6,5.8-16.9,9.6,3.6-.2,7.1-.5,10.6-.7,6-.5,12-1.2,18.1-1.9-2.2-2.3-4.5-4.6-6.8-6.9l7.5-4.6c5.5,6.7,10.2,13.3,14.2,20l-5.3,3.2c-1.6-2.2-3.2-4.4-5-6.6l-15.7,2.2v16.1c0,2.5-.9,4.4-2.5,5.5-1.7,1.2-4.6,1.7-8.6,1.7s-6.5-.3-9.4-.8l-1.3-6.7c3,.4,5.5.6,7.7.6s3.3-.3,4-.9c.6-.5,1-1.4,1.1-2.8v-11.7l-10.9,1.3,5.8,4.8c-5.7,5.7-12.7,10.2-20.9,13.4l-3.4-4.9c6.8-3.6,12.5-8,16.8-13.1l-9,1-1.9-8.1c5.8-2.4,11.2-5.1,15.9-7.9l5.1-3.2c-5.7,1-10.9,2-15.9,3l-2.1-7.4c2.9-1.4,6-3.3,9.4-6,1.3-1.2,2.6-2.3,4-3.5-5.5.5-11.2.9-17.1,1.2l-1.7-5.5-.5.4h0ZM771.2,48.1c6.6,5.3,12.4,10.7,17.4,16.3l-4.6,4.2c-5.3-5-11.7-9.9-19.2-14.5l6.3-5.9h0Z"/>
            <path class="cls-2" d="M823.5,58.1c-1.2,0-2.3-.5-3.1-1.5-.8-.9-1.1-2.1-.8-3.3l4.2-21.7c.4-1.9,2-3.2,3.9-3.2h12.3c1.4,0,2.7.7,3.4,1.9s.8,2.7,0,3.9l-11.3,21.7c-.7,1.3-2.1,2.2-3.5,2.2h-5.2,0Z"/>
            <path class="cls-2" d="M827.7,32.4h12.3l-11.3,21.7h-5.2l4.2-21.7Z"/>
            <path class="cls-2" d="M68.9,162c-.4,0-.9,0-1.3-.2-5.9-2.1-11.9-3.9-18-5.4-.3,0-.6-.2-.9-.4h-.2c-6.4,2.7-13,4.7-19.4,5.7h-.7c-1,0-1.9-.4-2.7-1h-7.6c-.9,0-1.8-.3-2.4-.8-.7.7-1.7,1.1-2.8,1.1h-7.6c-2.2,0-4-1.8-4-4v-24.6c0-1.5.8-2.7,2-3.4-.7-.7-1.2-1.7-1.2-2.8v-5.6c0-1.1.4-2.1,1.2-2.8-.6-.7-1-1.6-1-2.7v-5.6c0-.7.2-1.4.5-2-1.4-.6-2.4-2-2.4-3.7v-6c0-2.2,1.8-4,4-4h1c-.6-1.1-.7-2.4-.2-3.5.5-1.2,1.6-2.1,2.9-2.3l8.2-1.7h.8c1.8,0,3.4,1.2,3.9,3,.4,1.6.8,3.1,1.2,4.7h2.3c.3-1,.6-2,.9-3.1.3-1.1,1.1-2,2.1-2.6.6-.3,1.2-.4,1.8-.4s1,0,1.5.3l1.6.6c.7-.8,1.8-1.4,3-1.4h6.6c2.2,0,4,1.8,4,4v.6h.2c0-.2.1-.5.2-.7.2-1.1,1-2.1,2-2.6s1.3-.5,2-.5.9,0,1.3.2l2.2.8c.7-1,1.9-1.7,3.3-1.7h6.6c2.2,0,4,1.8,4,4v.6h2.3c2.2,0,4,1.8,4,4v4.3c.8.7,1.3,1.8,1.3,2.9v3.9c.8.8,1.3,1.8,1.2,3,0,3.4-.4,5.6-1,7.1h0c-.5,1.1-1.4,2.6-3.4,3.5v26.7c0,.4,0,.8-.2,1.2.9.4,1.7.7,2.6,1.1,1.1.5,2,1.5,2.3,2.7s0,2.5-.8,3.5l-3.9,4.7c-.8.9-1.9,1.4-3.1,1.4h-.2Z"/>
            <path class="cls-2" d="M25.9,104H4.4v-6h7.8c-.9-1.9-2.1-3.9-3.4-6l8.2-1.7c.7,2.7,1.3,5.2,1.8,7.7h7.1v2.9c1.2-2.5,2.3-5.5,3.2-9l5.4,2.2-.9,1.9h1.7v-4.6h6.6v4.6h5v4.6h-5v2.6h5.4v4.8h-3.1v2.5l3.6-1.4.6,3.9c-1.8,1.1-4.8,2.7-8.8,4.6l-2.7-4.7c1.1-.6,1.7-1.8,1.7-3.4v-1.6h-2.6c-.5,4.8-3.1,8.4-7.6,10.8l-3.3-3.2c2.9-1.8,4.5-4.3,5-7.6h-3.3v-4.8h1.3l-2.2-1.4v2.2h0ZM67.9,118.4v28.9h-10.4c4.6,1.5,9.7,3.5,15.3,6l-3.9,4.7c-6.3-2.2-12.4-4-18.4-5.5l5.2-5.2h-13.7l4.9,5.1c-6.3,2.7-12.5,4.5-18.5,5.5l-2.7-3.9v2.9h-7.6v-4.4h-5.2v4.7h-7.6v-24.6h20.4v20.5c4.8-1.3,9.7-3.2,14.9-5.8h-10.9v-28.9h38.2ZM6.1,120.8h18.8v5.6H6.1v-5.6ZM6.2,109.7h18.5v5.6H6.2v-5.6ZM12.9,138.5v8.5h5.2v-8.5h-5.2ZM29.3,103.3h5.9v-2.6h-4.1l-1.8,2.6h0ZM38.3,126.6h21.2v-3.1h-21.2v3.1ZM59.4,131.3h-21.2v3.3h21.2v-3.3ZM59.4,139.4h-21.2v3h21.2v-3ZM58.1,108c-.5,4.6-3.1,8-7.8,10.2l-3-3.5c2.8-1.7,4.5-3.9,4.8-6.8h-3.2v-4.8h1.1l-2.8-1.7c1.2-2.5,2.2-5.7,3-9.4l5.5,1.9-.8,1.9h2v-4.6h6.6v4.6h6.3v4.6h-6.3v2.6h7.6v4.8h-5.6v3.8c0,.6.3.9.8.9s.9-.2,1-.6c0-.4.1-1.7.1-3.8l4.9,1.8c0,2.7-.3,4.6-.7,5.7-.5,1.2-1.7,1.7-3.5,1.7h-3.8c-3,0-4.4-1.3-4.4-3.9v-5.5h-1.9,0ZM50.9,103.3h6v-2.6h-4.3l-1.7,2.6Z"/>
            <path class="cls-2" d="M82.3,158.9c-2.2,0-4-1.8-4-4v-6.2c0-2.2,1.8-4,4-4h24.4v-8.7h-16.9c-2.2,0-4-1.8-4-4v-2.5h-.6c-1,0-2-.4-2.8-1.1l-4.6-4.5c-1.4-1.4-1.6-3.6-.5-5.2,5.3-7.4,8.9-15.8,10.9-25.6.2-1,.8-2,1.7-2.5.7-.4,1.4-.7,2.2-.7s.5,0,.8,0l8.4,1.7c1.1.2,2,.9,2.6,1.8s.8,2.1.5,3.1c-.3,1.4-.7,2.7-1.2,4.1h3.5v-10c0-2.2,1.8-4,4-4h9.1c2.2,0,4,1.8,4,4v10h19.5c2.2,0,4,1.8,4,4v6c0,2.2-1.8,4-4,4h-19.5v7.2h17.2c2.2,0,4,1.8,4,4v6c0,2.2-1.8,4-4,4h-17.2v8.7h23.3c2.2,0,4,1.8,4,4v6.2c0,2.2-1.8,4-4,4h-64.7v.2h0ZM106.7,121.9v-7.2h-9.4c-1.3,2.4-2.8,4.8-4.4,7.2h13.9-.1Z"/>
            <path class="cls-2" d="M80.6,121c5.6-7.8,9.4-16.8,11.5-27.1l8.4,1.7c-.8,3.1-1.8,6.1-3,9.1h13.2v-14h9.1v14h23.5v6h-23.5v15.2h21.2v6h-21.2v16.7h27.3v6.2h-64.7v-6.2h28.4v-16.7h-20.9v-6h20.9v-15.2h-15.8c-2.6,5-5.8,9.9-9.6,14.8l-4.6-4.5h-.2Z"/>
            <path class="cls-2" d="M173.1,162.2c-.7,0-1.4-.2-2-.6l-5.3-3.2c-.3-.2-.5-.4-.8-.6-.3.6-.7,1.2-1,1.8-.7,1.3-2.1,2-3.5,2s-1.1-.1-1.6-.3l-5.6-2.4c-1-.4-1.7-1.2-2.1-2.2s-.4-2.1,0-3.1c3.9-8.8,6.9-18.2,9-27.9.2-1.2,1-2.1,2-2.7h.2c-2.9-1.9-5.8-3.5-8.8-4.8-1.1-.5-1.9-1.5-2.2-2.6-.3-1.2,0-2.4.7-3.4l4.9-6.6c.7-.9,1.6-1.4,2.7-1.6-1.4-.8-2.8-1.5-4.2-2.2-1.1-.5-1.9-1.5-2.1-2.7-.3-1.2,0-2.4.8-3.4l5.2-6.5c.8-1,2-1.5,3.1-1.5s1.6.2,2.4.8c2.2,1.6,4.1,3.1,5.9,4.6.7-1,1.9-1.7,3.3-1.7h47.6c2.2,0,4,1.8,4,4v5.9c0,2.2-1.8,4-4,4h-1.6c1.5.6,2.5,2,2.5,3.7v5.9c0,.7-.2,1.3-.5,1.9,1.8.4,3.1,2,3.1,3.9v5.9c0,2.2-1.8,4-4,4h-10.4v.9h9.2c2.2,0,4,1.8,4,4v5.9c0,1.3-.6,2.4-1.5,3.1h.9c2.2,0,4,1.8,4,4v6c0,2.2-1.8,4-4,4h-42.8c-.9,0-1.7-.3-2.4-.8-.5.9-.9,1.7-1.4,2.6-.5.9-1.4,1.6-2.5,1.9-.3,0-.7.1-1,.1h-.2ZM193.8,131.3v-.9h-7.9v.9h8-.1ZM169.8,110.2v-.4h-.5c.2,0,.3.3.5.4Z"/>
            <path class="cls-2" d="M154.8,155.2c4-9,7.1-18.6,9.2-28.7l7.9,3.2c-3.7,11.7-7.5,21-11.5,27.9l-5.6-2.4ZM168.1,122.1c-4-3-8.3-5.5-13-7.6l4.9-6.6c5.1,3.5,9,6.7,11.8,9.6l-3.7,4.6h0ZM169.3,105.8c-3.7-3-7.8-5.5-12.2-7.7l5.2-6.5c4.8,3.5,8.4,6.7,11,9.6l-4,4.5h0ZM221.4,101.2h-39.1v21.1c0,13.4-3.1,25.3-9.2,35.9l-5.3-3.2c4-8.9,6-19.9,6-32.8v-27h47.6v5.9h0ZM184.4,135.3h13.3v-6.5h8.8v6.5h13.2v5.9h-13.2v7.1h16.6v6h-42.8v-6h17.4v-7.1h-13.3v-5.9ZM185.9,108.9h11.8v-5.8h8.8v5.8h11.7v5.9h-11.7v5.8h14.4v5.9h-37.1v-5.9h13.9v-5.8h-11.8v-5.9h0Z"/>
            <path class="cls-2" d="M260.2,161.3c-2.2,0-4-1.8-4-4v-7.7h-7.4v4.8c0,2.2-1.8,4-4,4h-8.6c-2.2,0-4-1.8-4-4v-13.5c0-2.1,1.7-3.9,3.7-4v-14c-.8,0-1.5.1-2.3.2h-.3c-2,0-3.7-1.4-4-3.4l-.8-5.5c-.2-1.1.2-2.2.9-3.1.3-.4.6-.7,1-.9v-2.6c-.7-.7-1.2-1.7-1.2-2.8v-3.7c0-1.3.6-2.5,1.6-3.2v-2.3c0-2.2,1.8-4,4-4h7c.1-2.1,1.9-3.7,4-3.7h8.8c2.1,0,3.9,1.7,4,3.7h6.4c1,0,1.9.4,2.6.9h10.9v-.7c0-2.2,1.8-4,4-4h8.8c2.2,0,4,1.8,4,4v.7h2.9c2.2,0,4,1.8,4,4v5.2c0,2.2-1.8,4-4,4h-2.9v7.1c0,2.8-.8,4.7-1.8,6.1.2.5.3,1,.3,1.5v16.6h0c2.2,0,4,1.8,4,4v7.8c0,5.2-2.7,7.5-4.3,8.4-2.3,1.3-5.7,1.8-10.6,1.8s-4.5-.2-7.5-.6c-.8-.1-1.6-.5-2.2-1,0,2.2-1.8,4-4,4h-9Z"/>
            <path class="cls-2" d="M236.1,140.8h24v-2.7h-20.3v-17.9h15.5l.4-3.5c-7.1.9-14.6,1.6-22.5,2.2l-.8-5.5c4.5-.2,8.9-.4,13.3-.6v-2.4h-11.4v-3.5h11.4v-2.3h-12.5v-3.7h12.5v-2h-10.9v-3.5h10.9v-3.7h8.8v3.7h10.4v3.5h-10.4v2h11.7v3.7h-11.7v2.3h10.5v3.5h-10.5v1.9c4.2-.4,8.3-.7,12.2-1.1l.4,4-6.6.9,4,.7c-.6,1.2-1.4,2.3-2.2,3.4h27.2v17.9h-20.6v2.7h24.6v7.8c0,2.4-.8,4.1-2.3,5-1.6.9-4.5,1.3-8.6,1.3s-4.3-.2-7-.6l-1.1-5.5c2.1.4,3.8.6,5.3.6,2.2,0,3.5-.1,4.2-.5.6-.3.9-.9.9-1.9v-1.4h-16v11.7h-8.9v-11.7h-15.4v8.8h-8.6v-13.5h.1ZM248.7,127.3h32.3v-2.7h-32.3v2.7ZM280.9,131.2h-32.3v2.7h32.3v-2.7ZM266.9,96.4h15.6v-4.7h8.8v4.7h6.9v5.2h-6.9v11.1c0,2.2-.6,3.7-1.9,4.6-1.4.9-4,1.4-8,1.4s-5.6,0-8.1-.5l-1.1-5.7c2.6.4,4.8.6,6.8.6s2.2-.2,2.8-.6c.5-.4.8-1.2.8-2.4v-8.5h-7.8c1.9,2.6,3.7,5.2,5.1,7.8l-4,2.6c-1.9-2.4-4.4-4.7-7.3-7l5.3-3.4h-6.9v-5.2h0Z"/>
            <path class="cls-2" d="M338.7,162.6c-.7,0-1.5-.2-2.2-.6l-5.2-3.3c-1-.6-1.6-1.6-1.8-2.7-.1-.6,0-1.2.1-1.8-7.1,1.6-14.7,3-22.9,4.3h-.6c-.9,0-1.7-.3-2.4-.8-.9-.7-1.4-1.6-1.5-2.7l-.9-8.4c-.1-1.1.2-2.2.9-3,.7-.8,1.7-1.4,2.8-1.4h.7v-46c0-2.2,1.8-4,4-4h26.6c2.2,0,4,1.8,4,4v2.6h1.4v-7.5c0-2.2,1.8-4,4-4h8.9c2.2,0,4,1.8,4,4v7.5h12.8c2.2,0,4,1.8,4,4v21.8c0,9.1-.3,16.3-.8,21.3-.6,5.7-2.1,9.6-4.5,11.9-2.4,2.2-5.9,3.4-10.6,3.7h-1.8c-2.9,0-5.8-.2-8.7-.5-1.8-.2-3.2-1.6-3.5-3.3h0c-1.3,1.4-2.6,2.8-4,4.1-.8.7-1.7,1-2.7,1v-.2h-.1ZM352.4,146.3c1.2.1,2.3.2,3.3.2s.5,0,.8,0h.6c.3-.7.7-2.1,1-4.8.3-2.6.4-7.1.5-14.1v-14.5h-.2c0,13.2-2.1,24.4-6.2,33.4l.2-.2h0ZM322,140.5l1.9-.2v-2.5h-1.9v2.7ZM340.3,129.8c.9-5.1,1.3-10.7,1.4-16.9h-1.4v16.9ZM323.9,123.9v-1.9h-1.9v1.9h1.9ZM323.9,108.1v-1.9h-1.9v1.9h1.9Z"/>
            <path class="cls-2" d="M371.4,102.7v21.7c0,9.3-.3,16.2-.8,20.9s-1.6,7.8-3.2,9.4c-1.7,1.5-4.3,2.4-8.1,2.6-3.2,0-6.6,0-9.9-.4l-1.2-7.1c3.2.5,6,.7,8.4.6,1.9,0,3.3-.8,4-2.2.6-1.4,1.2-3.5,1.4-6.3.3-3,.4-7.8.5-14.5v-18.6h-8.2v3.7c0,21.2-5.3,36.6-15.8,46.1l-5.2-3.3c1.8-2.2,3.5-4.7,5-7.4-9.9,2.6-20.6,4.8-32.3,6.6l-.9-8.4,4.3-.4v-49.6h26.6v46.6l2.9-.4.4,3.7c4.1-8.7,6.1-19.8,6.1-33.4v-3.7h-7.5v-6.2h7.5v-11.5h8.9v11.5h17.1,0ZM318,112.1h9.9v-9.9h-9.9v9.9ZM318,127.9h9.9v-9.9h-9.9v9.9ZM318,133.8v11.2l9.9-1.2v-10h-9.9Z"/>
            <path class="cls-2" d="M389.8,161.8c-2.2,0-4-1.8-4-4v-23.9c-.5.2-1.1.3-1.6.3s-.3,0-.4,0c-1.4-.1-2.7-1-3.3-2.4l-3-6.7c-.5-1.2-.4-2.6.3-3.7,5.8-9.4,10.3-20.3,13.3-32.3.5-1.8,2.1-3,3.9-3s.6,0,.8,0l9.1,1.9c.9.2,1.7.7,2.3,1.4.5-1.7,2.1-2.8,3.8-2.8s.4,0,.5,0l8.6,1.2c1.2.2,2.3.9,2.9,1.9s.7,2.3.3,3.5-.4,1.1-.7,1.7h25.2c2.2,0,4,1.8,4,4v6.2c0,.7-.2,1.5-.6,2.1l-6.7,10.8v.3c3.3,8.1,6,16.8,8,25.6.5,2.1-.8,4.2-2.9,4.8l-6,1.6c-.3,0-.7.1-1,.1-1.7,0-3.3-1.1-3.8-2.8-1.6-5.2-3.5-10.2-5.6-15v17.7c0,4.7-2.1,7.3-3.9,8.7h0c-2.3,1.6-5.6,2.4-10.1,2.4s-6-.2-8.8-.7c-1.6-.3-2.9-1.5-3.2-3.2l-1.4-7v-.8c-.3,0-.7,0-1-.2l-2.3-.8v8.8c0,2.2-1.8,4-4,4h-8.8v.3h.1ZM410.7,146.1c2.5.3,4.4.5,6,.5v-12.8c-1.8,4.2-3.8,8.3-6,12.3ZM402.6,127.3c.4-1.4.9-2.9,1.3-4.3-.4,0-.9-.3-1.3-.5v4.8ZM416.7,118.7v-7.8c0-.6,0-1.1.3-1.6h-1.1c-1.5,2.6-3.1,5.2-4.9,7.8l5.7,1.7h0Z"/>
            <path class="cls-2" d="M381.3,123.6c6.1-9.9,10.7-21.1,13.8-33.4l9.1,1.9c-1.7,4.5-3.5,8.9-5.5,13.2v52.6h-8.8v-36.1c-1.8,2.9-3.7,5.7-5.6,8.5l-3-6.7h0ZM400.4,144.1c3.5-7.6,6.3-15.4,8.2-23.5l7.9,2.3c-2.7,8.1-6.1,15.8-10.4,23.1l-5.8-1.9h0ZM448,99.1v6.2l-8,13-5-2.6,3.7-10.4h-25.1c-2.7,4.8-5.7,9.4-8.9,13.8l-3.7-5.3c4.4-6.6,7.7-14.3,10.1-23l8.6,1.2c-.9,2.4-1.9,4.8-3,7.1h31.3ZM420.7,110.9h8.8v39.6c0,2.5-.8,4.3-2.3,5.5-1.5,1.1-4.1,1.7-7.8,1.7s-5.6-.2-8.1-.6l-1.4-7c2.6.4,4.9.6,6.8.6s2.6-.2,3.1-.7.8-1.3.9-2.5v-36.6ZM442.9,146.6c-2.7-8.5-5.9-16.4-9.7-23.8l7.9-2.8c3.1,7.7,5.8,16.1,7.8,25.1l-6,1.6h0Z"/>
            <path class="cls-2" d="M497.3,161.8c-2.2,0-4-1.8-4-4v-8.3c-3,2.8-6.3,5.5-9.7,8-.7.5-1.5.8-2.4.8s-2.1-.4-2.9-1.2l-1.4-1.5c-.7,1.6-1.7,2.7-2.6,3.4-2.2,1.7-5.1,2.4-9,2.4s-4.9-.2-6.9-.6c-1.6-.3-2.9-1.6-3.2-3.2l-1.4-7.1c-.3-1.3.2-2.7,1.1-3.6.8-.7,1.8-1.1,2.8-1.1s.5,0,.8,0c1,.2,2,.3,3,.4v-9.1c-.5.2-1.1.3-1.6.5-.4.1-.7.2-1.1.2-.7,0-1.4-.2-2-.5-.9-.5-1.6-1.5-1.9-2.5l-1.9-8.1c-.3-1.1,0-2.2.6-3.1.6-.9,1.6-1.6,2.7-1.7,1.7-.3,3.4-.6,5.1-.9h.2v-7.9h-3c-2.2,0-4-1.8-4-4v-6c0-2.2,1.8-4,4-4h3v-8.2c0-2.2,1.8-4,4-4h8.4c2.2,0,4,1.8,4,4v1.6c.7-.9,1.8-1.4,3.1-1.4h41.8c2.2,0,4,1.8,4,4v14.8c0,.7-.2,1.3-.5,1.9.3.5.4,1.1.4,1.7v5.8c0,1.1-.4,2.1-1.1,2.8,1.1.7,1.9,2,1.9,3.4v6c0,2.2-1.8,4-4,4h-6.1c3.7,4.4,7.5,8.2,11.6,11.4.9.7,1.4,1.7,1.5,2.8,0,1.1-.3,2.2-1.1,3l-4.2,4.5c-.8.8-1.8,1.3-2.9,1.3s-1.7-.3-2.4-.8c-3.4-2.5-6.7-5.2-9.8-8.2v8.5c0,2.2-1.8,4-4,4h-8.8v-.2h0ZM477.9,144.1c3.2-2.8,6-5.8,8.6-8.8h-5.5c-1.2,0-2.3-.6-3.1-1.4v10.2ZM477.9,115.6c.3-.4.6-.7,1-.9.7-.5,1.3-.9,1.9-1.4-.5,0-1.1,0-1.5-.4h-1.4v2.7Z"/>
            <path class="cls-2" d="M480.9,94.9h41.8v14.8h-7.9v-8.8h-3.7v10.4c0,1.3.6,1.9,1.9,1.9h9.6v5.8h-13.5c-1.2,0-2.2-.2-3-.6v6.8h17.4v6h-14.3c5.3,7.4,11,13.6,17.2,18.5l-4.2,4.5c-6-4.4-11.3-9.4-16.1-14.9v18.4h-8.8v-18c-4.7,5.2-10,10-16.1,14.5l-4.1-4.3c7.1-5.9,13-12.2,17.5-18.7h-13.7v-5l-7.1,2.7v21.5c0,2.4-.7,4.2-2.1,5.3-1.4,1.1-3.6,1.6-6.6,1.6s-4.2-.1-6.1-.5l-1.4-7.1c1.7.4,3.3.5,4.8.5s1.8-.2,2.3-.6c.5-.4.7-.8.7-1.3v-16.6c-2.2.6-4.5,1.4-6.7,2l-1.9-8.1c3-.5,5.8-1.1,8.6-1.6v-15.2h-7v-6h7v-12.2h8.4v12.2h5.6v6h-5.6v13.5l7-1.7.4,4.5h16.1v-7.4h7.7c-1.2-.9-1.7-2.5-1.7-4.6v-12.3h-14.5v8.4h-7.9v-14.4h0ZM481.1,118c6.4-4.2,10.2-9.4,11.3-15.5l8.1,1.8c-2.6,7.8-7.8,13.8-15.5,18.1l-3.9-4.5h0Z"/>
            <path class="cls-2" d="M562.2,161.9c-3,0-5.8-.2-8.3-.7-1.6-.3-2.9-1.6-3.2-3.2l-.5-2.6c-3.6,1.6-7.6,3.1-11.8,4.6-.4.2-.9.2-1.3.2-1.2,0-2.4-.6-3.2-1.6l-3.6-4.8c-.7-1-1-2.2-.7-3.4s1.1-2.2,2.3-2.7c2.1-.9,4.2-1.9,6.2-2.9-.3-.4-.6-.9-.7-1.5l-1.8-7.5c-.5-2.1.8-4.2,2.9-4.8,1-.3,2-.5,3-.8l-1.1-4.9h-3.9c-2.2,0-4-1.8-4-4v-13.6c0-2,1.5-3.7,3.5-4v-6.9c0-2.2,1.8-4,4-4h18.9v-2.7c0-2.2,1.8-4,4-4h8.8c2.2,0,4,1.8,4,4v2.7h19c2.2,0,4,1.8,4,4v6.9c2.1.2,3.7,1.9,3.7,4v13.6c0,2.2-1.8,4-4,4h-8.1c4.2,4.3,7.9,8.5,11,12.7.7.9.9,2,.7,3.1s-.8,2.1-1.8,2.7l-2.6,1.7c1.7,1.2,3.5,2.4,5.3,3.6,1,.7,1.6,1.8,1.7,3,0,1.2-.4,2.4-1.3,3.2l-4.5,4.1c-.8.7-1.7,1.1-2.7,1.1s-1.4-.2-2-.5c-6.1-3.4-12-6.5-17.8-9.1,0,4.8-2.1,7.3-3.9,8.6-2.3,1.6-5.5,2.4-10,2.4h-.2Z"/>
            <path class="cls-2" d="M536.4,107.8h26.3v-5h-22.9v-5.8h22.9v-6.7h8.8v6.7h23v5.8h-23v5h26.6v13.6h-8.5v-7.8h-22.7l3.7,2.1c-3,1.9-5.9,3.7-8.6,5.1l-4.6,2.2h2.4c3.2-.4,6.4-.6,9.8-.8,3.2-1.9,6.8-4.4,10.6-7.2l6.9,5c-6,3.5-11.6,6.6-16.8,9.1-3.5,1.6-8.1,3.5-14,5.5,2.9-.1,5.8-.3,8.6-.5,5.4-.4,10.9-.9,16.5-1.6-1.5-1.2-3.2-2.5-4.8-3.8l6.8-4.3c5.8,5.5,10.6,10.8,14.5,16.1l-4.9,3.2c-1.7-1.9-3.7-4-5.9-6l-14.8,1.7v11.5c0,2.5-.7,4.3-2.2,5.4-1.5,1.1-4.1,1.7-7.7,1.7s-5.3-.2-7.6-.6l-1.3-6.6c2.4.4,4.6.6,6.4.6s2.2-.3,2.6-.9c.4-.5.6-1.4.7-2.8v-7.3l-9.4,1,5.5,5.2c-6,3.4-13.3,6.6-22,9.7l-3.6-4.8c6.8-3,13.2-6.3,19.2-10l-11.4,1-1.8-7.5c5.7-1.5,10.8-3.3,15.5-5.4l4.2-1.9c-4.7.6-9.3,1.2-13.8,1.7l-1.4-6.4c2.8-.9,5.4-1.9,7.8-3s4.5-2.2,6.3-3.3c1.3-.8,2.8-1.8,4.5-3h-17.6v7.8h-8.5v-13.6h-.3ZM581.8,140.6c5.6,3.2,11.8,7.2,18.6,11.9l-4.5,4.1c-7-4-13.8-7.4-20.6-10.4l6.5-5.6Z"/>
            <path class="cls-2" d="M666.2,161.8c-2.2,0-4-1.8-4-4v-.5h-21.2v.5c0,2.2-1.8,4-4,4h-8.4c-.9,0-1.7-.3-2.4-.8-.7.5-1.5.8-2.4.8h-8.4c-2.2,0-4-1.8-4-4v-24.4h-1.2c-1.4-.1-2.7-1-3.3-2.4l-2.9-6.5c-.5-1.2-.4-2.6.2-3.7,5.9-9.5,10.2-20.3,13.1-32,.4-1.8,2.1-3.1,3.9-3.1s.5,0,.8,0l8.9,1.8c1.1.2,2.1,1,2.7,2,.2.4.4.8.4,1.3h40.4c2.2,0,4,1.8,4,4v62.8c0,2.2-1.8,4-4,4h-8.4l.2.2h0ZM662.2,106.7v-1.6h-2.4v1.6h2.4ZM643.5,106.7v-1.6h-2.6v1.6h2.6Z"/>
            <path class="cls-2" d="M674.5,95v62.8h-8.4v-4.5h-29.2v4.5h-8.4v-61.9c-1.5,3.7-3.2,7.4-4.8,11v50.9h-8.4v-35.5c-1.5,2.4-3.1,4.8-4.8,7.2l-2.9-6.5c6-9.9,10.6-20.9,13.5-33.1l8.9,1.8-1.2,3.3h45.7ZM636.9,101.1v46.2h29.2v-46.2s-29.2,0-29.2,0ZM663.1,123.3v19.4h-22.7v-19.4h7.1v-6.7h-8.9v-5.9h8.9v-7h8.2v7h9v5.9h-9v6.7h7.4ZM647.9,129v7.9h7.7v-7.9h-7.7Z"/>
            <path class="cls-2" d="M747.8,161.8c-.7,0-1.4-.2-2-.5-11-6.4-19.4-14.1-25-22.8-.7-1.1-1.4-2.3-2.1-3.5-5.9,10-15.2,18.7-27.8,26.1-.6.4-1.3.5-2,.5-1.1,0-2.2-.4-3-1.3l-4.5-5c-.8-.9-1.2-2.1-1-3.3s.9-2.2,1.9-2.9c18.3-11.1,27.2-25.4,27.2-43.7v-13.4c0-2.2,1.8-4,4-4h9.1c2.2,0,4,1.8,4,4v15.9c2.1,9.9,5,17.7,8.5,23.1,4,6.1,10.6,12.3,19.7,18.3,1,.7,1.6,1.7,1.8,2.9s-.3,2.4-1.1,3.2l-4.8,5c-.8.8-1.8,1.2-2.9,1.2v.2h0Z"/>
            <path class="cls-2" d="M684.4,152.6c19.4-11.8,29.1-27.5,29.1-47.1v-13.4h9.1v16.3c2.2,10.7,5.3,19,9.1,25,4.2,6.6,11.2,13,20.9,19.4l-4.8,5c-10.5-6.1-18.4-13.3-23.6-21.5-2.1-3.2-3.8-6.8-5.3-10.6-5,12.6-15,23.2-29.9,31.9l-4.5-5h0Z"/>
            <path class="cls-2" d="M811.3,161.3c-2.2,0-4-1.8-4-4v-1.8h-26.7v1.8c0,2.2-1.8,4-4,4h-9.1c-2.2,0-4-1.8-4-4v-61.6c0-2.2,1.8-4,4-4h52.9c2.2,0,4,1.8,4,4v61.6c0,2.2-1.8,4-4,4h-9.1ZM807.3,141.3v-2.9h-26.7v2.9h26.7ZM807.3,124.3v-1.9h-26.7v1.9h26.7ZM807.3,108.3v-2.5h-26.7v2.5h26.7Z"/>
            <path class="cls-2" d="M820.3,95.6v61.6h-9.1v-5.8h-34.7v5.8h-9.1v-61.6h52.9,0ZM811.3,101.8h-34.7v10.5h34.7v-10.5ZM811.3,118.4h-34.7v9.9h34.7v-9.9ZM811.3,134.4h-34.7v10.9h34.7v-10.9Z"/>
            <path class="cls-2" d="M843.9,161.8c-2.2,0-4-1.8-4-4v-13.8c-.7.6-1.6.9-2.5.9s0,0,0,0c-1.4,0-2.8-.8-3.4-2.1l-3-5.5c-.6-1.2-.6-2.6,0-3.7,3.1-6,5.6-12.6,7.5-19.7h-1.9c-2.2,0-4-1.8-4-4v-6c0-2.2,1.8-4,4-4h3.3v-8.9c0-2.2,1.8-4,4-4h8.1c2.2,0,4,1.8,4,4v1c.6-.3,1.3-.5,2-.5h43.7c2.2,0,4,1.8,4,4v5.8c0,1.3-.6,2.4-1.5,3.1v18c0,1.4-.7,2.6-1.7,3.3v5.2c2,.2,3.5,1.9,3.5,4v5.8c0,2.1-1.6,3.8-3.7,4,1.6,1.3,3,2.6,4.4,3.9,1.6,1.5,1.6,4,.2,5.6l-3.9,4.3c-.8.9-1.9,1.3-3,1.3s-1.7-.3-2.4-.8c-3-2.2-6.3-4.3-9.8-6.1-.4,2.8-1.7,5.1-3.8,6.6-2.2,1.6-5.2,2.3-9.3,2.3s-5-.2-7.4-.6c-1.6-.3-2.9-1.5-3.2-3.2l-.3-1.4c-1.6.8-3.2,1.5-4.9,2.2-.5.2-1,.3-1.5.3s-1-.1-1.5-.3c-.3,1.9-2,3.3-3.9,3.3h-8.1v-.3h0ZM855.9,144.5h.2c0-.1-.2-.1-.2-.1v.2h0Z"/>
            <path class="cls-2" d="M851.9,157.8h-8.1v-29.1c-2,4.2-4.2,8.3-6.5,12.2l-3-5.5c4.1-7.8,7.1-16.4,9-25.6h-6.9v-6h7.3v-12.9h8.1v12.9h5.5v6h-5.5v8.8l3.5-2.7c1.7,4.4,3,8.6,3.8,12.7l-3.6,3.1c-.9-3-2.2-6-3.7-9.1v35.3h0ZM871.9,147.2c-4.5,3-9.4,5.5-14.5,7.6l-3.5-4.5c4.2-2.4,8.6-5.5,13.3-9.3l4.6,6.2h0ZM857.2,134.7h44.9v5.8h-18v10.3c0,2.4-.8,4.2-2.3,5.3s-3.9,1.6-7,1.6-4.7-.2-6.8-.6l-1.2-6.3c1.8.3,3.5.4,5,.4s2-.3,2.5-.8.8-1.1.8-1.9v-8h-17.9v-5.8ZM857.9,95.3h43.7v5.8h-13v4.2h11.6v17h-41.1v-17h11.4v-4.2h-12.7v-5.8h0ZM861.3,125.6h37.2v5.5h-37.2v-5.5ZM870.6,117.1v-6.6h-3.8v6.6h3.8ZM877.8,101.1v4.2h3.7v-4.2h-3.7ZM881.5,117.1v-6.6h-3.7v6.6h3.7ZM891.3,141.3c4.8,3.2,9,6.5,12.7,10l-3.9,4.3c-4-3-8.6-5.8-14-8.3l5.2-6h0ZM888.7,110.5v6.6h4v-6.6h-4Z"/>
            <path class="cls-2" d="M945,156.4c-3,0-5.5-1-7.4-2.9-2-1.9-3-4.4-3-7.5s1-5.6,3-7.5c.4-.4.8-.7,1.2-1-.4-.5-.6-1.2-.6-1.9l-3.2-36.5c0-1.1.3-2.2,1-3.1s1.8-1.3,3-1.3h12.1c1.1,0,2.2.5,3,1.3s1.1,1.9,1,3.1l-3.2,36.5c0,.7-.3,1.3-.6,1.8.4.3.9.6,1.3,1h0c1.9,1.9,2.9,4.4,2.9,7.4s-1,5.5-2.9,7.4h0c-2,1.9-4.5,2.8-7.4,2.8l-.2.4h0Z"/>
            <path class="cls-2" d="M949.7,141.5c1.2,1.2,1.7,2.7,1.7,4.6s-.6,3.5-1.7,4.6c-1.2,1.2-2.7,1.7-4.7,1.7s-3.5-.6-4.6-1.7c-1.2-1.2-1.8-2.7-1.8-4.6s.6-3.5,1.8-4.6c1.2-1.2,2.7-1.7,4.6-1.7s3.5.6,4.7,1.7ZM947.8,135.4h-5.6l-3.2-36.5h12.1l-3.2,36.5h-.1Z"/>
          </g>
          <g>
            <path class="cls-1" d="M133.9,71.2h-8.6v-27.7c-1.7,1.7-3.5,3.3-5.4,4.9l-2.9-5.3c6.4-6.4,11.7-14,16.1-22.5l7.8,3.2c-2.1,3.5-4.4,6.9-6.9,10.3v37.1h-.1ZM117.5,22.5c5.4-5.1,10.1-11.1,13.9-18.1l7.8,3.7c-5,7.6-11.4,14.1-19.2,19.7l-2.5-5.3h0ZM135,67.5c4.5-6.4,6.8-14.8,6.8-25.3v-4.5h8.4v4.5c0,3.5-.3,6.7-.9,9.8,2.4,4.6,5.2,7.6,8.4,9.1v-26.9h9.1v9.6h15.1v6.2h-15.1v12.5h5c4.6,0,9.1-.3,13.7-.8l-1.4,7.1c-3.7.4-7.6.6-11.8.6s-9.3,0-12.4-.5c-4.8-.6-9.1-3.6-12.9-8.9-1.8,4.2-4.3,8.1-7.5,11.4l-4.3-4h-.2ZM161.6,24.4l-3.9,4c-2.1-2.2-4.2-4.3-6.5-6.3-2.2,4.5-4.9,8.8-8,12.7l-4.9-3.2c5.5-8.4,8.9-17.5,10.3-27.2l8.4,1.4c-.8,3.1-1.7,6.2-2.7,9.3,2.7,2.8,5.1,5.9,7.3,9.2h0ZM183.9,30.8l-4.6,3.7c-2.7-4-5.6-7.7-8.8-11.2-1.8,3.7-4,7.2-6.5,10.6l-5.1-3.2c5.1-8.2,8.3-17,9.4-26.4l8.4,1.2c-.7,3.4-1.7,6.7-2.7,10,3.8,4.8,7.1,9.9,10,15.3h0Z"/>
            <path class="cls-1" d="M206.6,41.2h39.9v4.9c-3.5,1.9-8.2,3.8-14,5.5v.3h27.3v5.6h-27.3v6.6c0,2.5-.8,4.4-2.4,5.5-1.7,1.1-4.4,1.7-8.3,1.7s-6.2-.2-8.9-.7l-1.3-6.8c2.8.4,5.3.6,7.3.6s3-.3,3.7-.8c.6-.5.9-1.4,1-2.7v-3.3h-29.9v-5.6h29.9v-2.4h1.7c2.6-1.2,4.8-2.3,6.6-3.4h-25.3v-4.9h0ZM237.4,7.8h17.9v24.5h3.3v13.9h-8.5v-8.6h-46.5v8.6h-8.5v-13.9h3.9V8.8c5-.7,10-2.2,15.2-4.5l3.1,6.2c-3.1.6-6.5,1.2-10.1,1.7v3.7h8.7v4.5h-8.7v4h8.4v4.5h-8.4v3.5h11l-1.8-2.6c2.2-1.2,4.4-2.4,6.4-3.7-1.8-1-3.7-2-5.8-3l4-4c2.1,1.2,4,2.5,6,3.8,1.7-1.4,3.2-3,4.7-4.7l4.2,3.5c-1.5,1.4-3.1,2.8-4.8,4.1,2,1.5,4,3,5.8,4.6l-2,2h12.2v-3.5h-9.6v-4.5h9.6v-3.8h-9.3v-4.5h9.3v-3.6h-9.7v-4.6h0ZM218.7,19l-2.2-3.4c2.2-1.1,4.4-2.2,6.4-3.4-1.8-1-3.7-1.9-5.8-2.9l3.9-4.2c2.2,1.2,4.3,2.6,6.3,4,1.7-1.4,3.3-3,4.8-4.5l4.2,3.8c-1.4,1.3-3,2.5-4.5,3.7,1.7,1.2,3.4,2.5,5,3.8l-2.7,2.9c-1.8-1.4-3.9-2.7-6.2-4.1-2.8,1.7-5.9,3-9.1,4.2h0ZM233.2,32.3c-1.8-1.4-3.7-2.7-6-3.9-2.3,1.4-4.8,2.7-7.3,3.9h13.3Z"/>
            <path class="cls-1" d="M299.7,8.3v27h-19.1v36.2h-8.6V8.3h27.7ZM280.6,18.8h10.7v-4.6h-10.7v4.6ZM291.3,24.6h-10.7v4.8h10.7v-4.8ZM305,8.3h27.4v55.7c0,2.5-.7,4.3-2.2,5.5-1.5,1.1-4,1.7-7.5,1.7s-5.3-.2-7.6-.6l-1.4-7c2.5.4,4.7.6,6.5.6s2.3-.2,2.8-.7.7-1.3.8-2.4v-25.6h-18.8V8.3h0ZM313.4,18.8h10.4v-4.6h-10.4v4.6ZM313.4,29.4h10.4v-4.8h-10.4v4.8Z"/>
            <path class="cls-1" d="M382.3,52.8c-2.4-4-5.1-7.6-7.9-10.8-2.9-3.1-5.5-5.9-7.8-8.4l2.7-3.1c3.5,1.8,6.9,3.7,10.2,5.9s6.7,4.8,10.4,7.8l-7.6,8.6h0Z"/>
            <path class="cls-1" d="M433.4,41.2h39.9v4.9c-3.5,1.9-8.2,3.8-14,5.5v.3h27.3v5.6h-27.3v6.6c0,2.5-.8,4.4-2.4,5.5-1.7,1.1-4.4,1.7-8.3,1.7s-6.2-.2-8.9-.7l-1.3-6.8c2.8.4,5.3.6,7.3.6s3-.3,3.7-.8c.6-.5.9-1.4,1-2.7v-3.3h-29.9v-5.6h29.9v-2.4h1.7c2.6-1.2,4.8-2.3,6.6-3.4h-25.3v-4.9h0ZM464.2,7.8h17.9v24.5h3.3v13.9h-8.5v-8.6h-46.5v8.6h-8.5v-13.9h3.9V8.8c5-.7,10-2.2,15.2-4.5l3.1,6.2c-3.1.6-6.5,1.2-10.1,1.7v3.7h8.7v4.5h-8.7v4h8.4v4.5h-8.4v3.5h11l-1.8-2.6c2.2-1.2,4.4-2.4,6.4-3.7-1.8-1-3.7-2-5.8-3l4-4c2.1,1.2,4,2.5,6,3.8,1.7-1.4,3.2-3,4.7-4.7l4.2,3.5c-1.5,1.4-3.1,2.8-4.8,4.1,2,1.5,4,3,5.8,4.6l-2,2h12.2v-3.5h-9.6v-4.5h9.6v-3.8h-9.3v-4.5h9.3v-3.6h-9.7v-4.6h0ZM445.5,19l-2.2-3.4c2.2-1.1,4.4-2.2,6.4-3.4-1.8-1-3.7-1.9-5.8-2.9l3.9-4.2c2.2,1.2,4.3,2.6,6.3,4,1.7-1.4,3.3-3,4.8-4.5l4.2,3.8c-1.4,1.3-3,2.5-4.5,3.7,1.7,1.2,3.4,2.5,5,3.8l-2.7,2.9c-1.8-1.4-3.9-2.7-6.2-4.1-2.8,1.7-5.9,3-9.1,4.2h-.1ZM460,32.3c-1.8-1.4-3.7-2.7-6-3.9-2.3,1.4-4.8,2.7-7.3,3.9h13.3Z"/>
            <path class="cls-1" d="M516.6,4.9v12.7h5.5l-4.5-1.9c1.4-2.6,2.7-5.5,3.8-8.9l6.8,3c-1.7,2.7-3.6,5.3-5.8,7.8h5.5v6h-11.3v5.3l3.8-4.3c3.1,2.7,5.8,5.5,8.4,8.8l-3.7,3.7c-2.7-2.7-5.5-5-8.4-7v8.1h-8.4v-7.6c-3.2,3.2-6.7,6-10.6,8.4l-3.2-4.4c4.2-3.2,7.9-6.9,10.9-11.2h-9.4v-6h6.3c-1.6-2.6-3.6-5.2-6-7.8l6.8-3c1.7,3,3,6,4.1,8.9l-4.5,1.9h5.5V4.9h8.4ZM498.4,71l-3.7-4.6c6.8-3.5,11.1-8.3,12.7-14.4h-11.1v-6h11.8v-6.3h8.5v6.3h5.8c-1.5-1.5-3.3-2.9-5.3-4.2l5.2-3.9c1.9,2.2,3.5,4.3,4.9,6.5l-2.2,1.7h3.4v6h-12.3v.5c4.1,3.4,7.8,6.8,11.2,10.5l-4.2,4c-3-2.6-6.3-5-10-7.4-3,4.8-7.8,8.6-14.5,11.4h-.2ZM528.4,8h34.3v6h-13.5l-2.7,5.9h13.6v37.3h-7.1c4.1,3.4,7.7,6.8,10.9,10.4l-4.5,4.2c-3.8-3.4-8.4-6.6-13.8-9.6l5-5h-14.3l6.5,5.1c-4,3-8.9,6.1-14.7,9.4l-4.2-4.2c4.7-3.3,8.7-6.7,12-10.2h-6.3V20h9.7l1.2-5.9h-12.5v-6h.4,0ZM538.4,30.6h13.3v-4.6h-13.3v4.6ZM538.4,40.8h13.3v-4.4h-13.3v4.4ZM551.7,46.5h-13.3v4.7h13.3v-4.7Z"/>
            <path class="cls-1" d="M573.7,9.2h36.5v6h-16.1c-3,5-6.3,9.7-9.6,14.2l16.3-1.2c-1.4-2.7-2.8-5.1-4.2-7.5l7.3-2.9c2.8,5.3,5.4,12,7.9,20.2l-5.7,1.9-2.5-5.9-7,1v9.9h13.4v6h-13.4v9.6c5-.4,9.9-.9,14.7-1.4l.6,5.8c-11.9,2.1-24.9,3.8-39.2,5.3l-1.4-8.2c5.5-.3,10.9-.6,16.2-.9v-10.2h-14v-6h14v-8.7l-12.5,1.6-1.2-7.8c2.5-1.2,4.5-3,6-5.5,1.7-2.9,3.4-6,5-9.4h-11.2v-6h.1ZM613.8,55.5V11.3h7.9v44.1h-7.9ZM626.8,4.7h8.6v58.8c0,2.5-.8,4.4-2.4,5.5-1.6,1.2-4.2,1.7-8.1,1.7s-6.1-.2-8.8-.7l-1.4-7.1c2.8.4,5.2.6,7.3.6s3-.2,3.7-.7c.6-.5.9-1.3,1-2.4V4.7h.1Z"/>
            <path class="cls-1" d="M660.2,41.2h39.9v4.9c-3.5,1.9-8.2,3.8-14,5.5v.3h27.3v5.6h-27.3v6.6c0,2.5-.8,4.4-2.4,5.5-1.7,1.1-4.4,1.7-8.3,1.7s-6.2-.2-8.9-.7l-1.3-6.8c2.8.4,5.3.6,7.3.6s3-.3,3.7-.8c.6-.5.9-1.4,1-2.7v-3.3h-29.9v-5.6h29.9v-2.4h1.7c2.6-1.2,4.8-2.3,6.6-3.4h-25.3v-4.9h0ZM690.9,7.8h17.9v24.5h3.3v13.9h-8.5v-8.6h-46.5v8.6h-8.5v-13.9h3.9V8.8c5-.7,10-2.2,15.2-4.5l3.1,6.2c-3.1.6-6.5,1.2-10.1,1.7v3.7h8.7v4.5h-8.7v4h8.4v4.5h-8.4v3.5h11l-1.8-2.6c2.2-1.2,4.4-2.4,6.4-3.7-1.8-1-3.7-2-5.8-3l4-4c2.1,1.2,4,2.5,6,3.8,1.7-1.4,3.2-3,4.7-4.7l4.2,3.5c-1.5,1.4-3.1,2.8-4.8,4.1,2,1.5,4,3,5.8,4.6l-2,2h12.2v-3.5h-9.6v-4.5h9.6v-3.8h-9.3v-4.5h9.3v-3.6h-9.7v-4.6h0ZM672.3,19l-2.2-3.4c2.2-1.1,4.4-2.2,6.4-3.4-1.8-1-3.7-1.9-5.8-2.9l3.9-4.2c2.2,1.2,4.3,2.6,6.3,4,1.7-1.4,3.3-3,4.8-4.5l4.2,3.8c-1.4,1.3-3,2.5-4.5,3.7,1.7,1.2,3.4,2.5,5,3.8l-2.7,2.9c-1.8-1.4-3.9-2.7-6.2-4.1-2.8,1.7-5.9,3-9.1,4.2h-.1ZM686.8,32.3c-1.8-1.4-3.7-2.7-6-3.9-2.3,1.4-4.8,2.7-7.3,3.9h13.3Z"/>
            <path class="cls-1" d="M726.2,13.4c18.9-1.7,36.9-4.5,54-8.3l3.9,7.2c-8.4,1.5-17.4,2.9-26.7,4-4.4,3.6-8.4,6.7-12.1,9.2l15.3-1.8c2.8-2.3,5.8-5,9-8.1l8.1,4.2c-6,4.9-11.6,9.1-16.8,12.8-4,2.7-9.6,5.8-16.9,9.6,3.6-.2,7.1-.5,10.6-.7,6-.5,12-1.2,18.1-1.9-2.2-2.3-4.5-4.6-6.8-6.9l7.5-4.6c5.5,6.7,10.2,13.3,14.2,20l-5.3,3.2c-1.6-2.2-3.2-4.4-5-6.6l-15.7,2.2v16.1c0,2.5-.9,4.4-2.5,5.5-1.7,1.2-4.6,1.7-8.6,1.7s-6.5-.3-9.4-.8l-1.3-6.7c3,.4,5.5.6,7.7.6s3.3-.3,4-.9c.6-.5,1-1.4,1.1-2.8v-11.7l-10.9,1.3,5.8,4.8c-5.7,5.7-12.7,10.2-20.9,13.4l-3.4-4.9c6.8-3.6,12.5-8,16.8-13.1l-9,1-1.9-8.1c5.8-2.4,11.2-5.1,15.9-7.9l5.1-3.2c-5.7,1-10.9,2-15.9,3l-2.1-7.4c2.9-1.4,6-3.3,9.4-6,1.3-1.2,2.6-2.3,4-3.5-5.5.5-11.2.9-17.1,1.2l-1.7-5.5-.5.4h0ZM771.2,48.2c6.6,5.3,12.4,10.7,17.4,16.3l-4.6,4.2c-5.3-5-11.7-9.9-19.2-14.5l6.3-5.9h0Z"/>
            <path class="cls-1" d="M827.7,32.5h12.3l-11.3,21.7h-5.2l4.2-21.7Z"/>
            <path class="cls-1" d="M25.9,104.1H4.4v-6h7.8c-.9-1.9-2.1-3.9-3.4-6l8.2-1.7c.7,2.7,1.3,5.2,1.8,7.7h7.1v2.9c1.2-2.5,2.3-5.5,3.2-9l5.4,2.2-.9,1.9h1.7v-4.6h6.6v4.6h5v4.6h-5v2.6h5.4v4.8h-3.1v2.5l3.6-1.4.6,3.9c-1.8,1.1-4.8,2.7-8.8,4.6l-2.7-4.7c1.1-.6,1.7-1.8,1.7-3.4v-1.6h-2.6c-.5,4.8-3.1,8.4-7.6,10.8l-3.3-3.2c2.9-1.8,4.5-4.3,5-7.6h-3.3v-4.8h1.3l-2.2-1.4v2.2h0ZM67.9,118.5v28.9h-10.4c4.6,1.5,9.7,3.5,15.3,6l-3.9,4.7c-6.3-2.2-12.4-4-18.4-5.5l5.2-5.2h-13.7l4.9,5.1c-6.3,2.7-12.5,4.5-18.5,5.5l-2.7-3.9v2.9h-7.6v-4.4h-5.2v4.7h-7.6v-24.6h20.4v20.5c4.8-1.3,9.7-3.2,14.9-5.8h-10.9v-28.9s38.2,0,38.2,0ZM6.1,120.9h18.8v5.6H6.1v-5.6ZM6.2,109.8h18.5v5.6H6.2v-5.6ZM12.9,138.6v8.5h5.2v-8.5h-5.2ZM29.3,103.4h5.9v-2.6h-4.1l-1.8,2.6h0ZM38.3,126.7h21.2v-3.1h-21.2v3.1ZM59.4,131.4h-21.2v3.3h21.2v-3.3ZM59.4,139.5h-21.2v3h21.2v-3ZM58.1,108.1c-.5,4.6-3.1,8-7.8,10.2l-3-3.5c2.8-1.7,4.5-3.9,4.8-6.8h-3.2v-4.8h1.1l-2.8-1.7c1.2-2.5,2.2-5.7,3-9.4l5.5,1.9-.8,1.9h2v-4.6h6.6v4.6h6.3v4.6h-6.3v2.6h7.6v4.8h-5.6v3.8c0,.6.3.9.8.9s.9-.2,1-.6c0-.4.1-1.7.1-3.8l4.9,1.8c0,2.7-.3,4.6-.7,5.7-.5,1.2-1.7,1.7-3.5,1.7h-3.8c-3,0-4.4-1.3-4.4-3.9v-5.5h-1.9,0ZM50.9,103.4h6v-2.6h-4.3l-1.7,2.6Z"/>
            <path class="cls-1" d="M80.6,121.1c5.6-7.8,9.4-16.8,11.5-27.1l8.4,1.7c-.8,3.1-1.8,6.1-3,9.1h13.2v-14h9.1v14h23.5v6h-23.5v15.2h21.2v6h-21.2v16.7h27.3v6.2h-64.7v-6.2h28.4v-16.7h-20.9v-6h20.9v-15.2h-15.8c-2.6,5-5.8,9.9-9.6,14.8l-4.6-4.5s-.2,0-.2,0Z"/>
            <path class="cls-1" d="M154.8,155.3c4-9,7.1-18.6,9.2-28.7l7.9,3.2c-3.7,11.7-7.5,21-11.5,27.9l-5.6-2.4ZM168.1,122.2c-4-3-8.3-5.5-13-7.6l4.9-6.6c5.1,3.5,9,6.7,11.8,9.6l-3.7,4.6h0ZM169.3,105.9c-3.7-3-7.8-5.5-12.2-7.7l5.2-6.5c4.8,3.5,8.4,6.7,11,9.6l-4,4.5h0ZM221.4,101.3h-39.1v21.1c0,13.4-3.1,25.3-9.2,35.9l-5.3-3.2c4-8.9,6-19.9,6-32.8v-27h47.6v5.9h0ZM184.4,135.4h13.3v-6.5h8.8v6.5h13.2v5.9h-13.2v7.1h16.6v6h-42.8v-6h17.4v-7.1h-13.3v-5.9ZM185.9,109h11.8v-5.8h8.8v5.8h11.7v5.9h-11.7v5.8h14.4v5.9h-37.1v-5.9h13.9v-5.8h-11.8v-5.9h0Z"/>
            <path class="cls-1" d="M236.1,140.9h24v-2.7h-20.3v-17.9h15.5l.4-3.5c-7.1.9-14.6,1.6-22.5,2.2l-.8-5.5c4.5-.2,8.9-.4,13.3-.6v-2.4h-11.4v-3.5h11.4v-2.3h-12.5v-3.7h12.5v-2h-10.9v-3.5h10.9v-3.7h8.8v3.7h10.4v3.5h-10.4v2h11.7v3.7h-11.7v2.3h10.5v3.5h-10.5v1.9c4.2-.4,8.3-.7,12.2-1.1l.4,4-6.6.9,4,.7c-.6,1.2-1.4,2.3-2.2,3.4h27.2v17.9h-20.6v2.7h24.6v7.8c0,2.4-.8,4.1-2.3,5-1.6.9-4.5,1.3-8.6,1.3s-4.3-.2-7-.6l-1.1-5.5c2.1.4,3.8.6,5.3.6,2.2,0,3.5-.1,4.2-.5.6-.3.9-.9.9-1.9v-1.4h-16v11.7h-8.9v-11.7h-15.4v8.8h-8.6v-13.5h.1ZM248.7,127.4h32.3v-2.7h-32.3v2.7ZM280.9,131.3h-32.3v2.7h32.3v-2.7ZM266.9,96.5h15.6v-4.7h8.8v4.7h6.9v5.2h-6.9v11.1c0,2.2-.6,3.7-1.9,4.6-1.4.9-4,1.4-8,1.4s-5.6,0-8.1-.5l-1.1-5.7c2.6.4,4.8.6,6.8.6s2.2-.2,2.8-.6c.5-.4.8-1.2.8-2.4v-8.5h-7.8c1.9,2.6,3.7,5.2,5.1,7.8l-4,2.6c-1.9-2.4-4.4-4.7-7.3-7l5.3-3.4h-6.9v-5.2h0Z"/>
            <path class="cls-1" d="M371.4,102.8v21.7c0,9.3-.3,16.2-.8,20.9s-1.6,7.8-3.2,9.4c-1.7,1.5-4.3,2.4-8.1,2.6-3.2,0-6.6,0-9.9-.4l-1.2-7.1c3.2.5,6,.7,8.4.6,1.9,0,3.3-.8,4-2.2.6-1.4,1.2-3.5,1.4-6.3.3-3,.4-7.8.5-14.5v-18.6h-8.2v3.7c0,21.2-5.3,36.6-15.8,46.1l-5.2-3.3c1.8-2.2,3.5-4.7,5-7.4-9.9,2.6-20.6,4.8-32.3,6.6l-.9-8.4,4.3-.4v-49.6h26.6v46.6l2.9-.4.4,3.7c4.1-8.7,6.1-19.8,6.1-33.4v-3.7h-7.5v-6.2h7.5v-11.5h8.9v11.5h17.1,0ZM318,112.2h9.9v-9.9h-9.9v9.9ZM318,128h9.9v-9.9h-9.9v9.9ZM318,133.9v11.2l9.9-1.2v-10h-9.9Z"/>
            <path class="cls-1" d="M381.3,123.7c6.1-9.9,10.7-21.1,13.8-33.4l9.1,1.9c-1.7,4.5-3.5,8.9-5.5,13.2v52.6h-8.8v-36.1c-1.8,2.9-3.7,5.7-5.6,8.5l-3-6.7ZM400.4,144.2c3.5-7.6,6.3-15.4,8.2-23.5l7.9,2.3c-2.7,8.1-6.1,15.8-10.4,23.1l-5.8-1.9h0ZM448,99.2v6.2l-8,13-5-2.6,3.7-10.4h-25.1c-2.7,4.8-5.7,9.4-8.9,13.8l-3.7-5.3c4.4-6.6,7.7-14.3,10.1-23l8.6,1.2c-.9,2.4-1.9,4.8-3,7.1h31.3ZM420.7,111h8.8v39.6c0,2.5-.8,4.3-2.3,5.5-1.5,1.1-4.1,1.7-7.8,1.7s-5.6-.2-8.1-.6l-1.4-7c2.6.4,4.9.6,6.8.6s2.6-.2,3.1-.7.8-1.3.9-2.5v-36.6ZM442.9,146.7c-2.7-8.5-5.9-16.4-9.7-23.8l7.9-2.8c3.1,7.7,5.8,16.1,7.8,25.1l-6,1.6h0Z"/>
            <path class="cls-1" d="M480.9,95h41.8v14.8h-7.9v-8.8h-3.7v10.4c0,1.3.6,1.9,1.9,1.9h9.6v5.8h-13.5c-1.2,0-2.2-.2-3-.6v6.8h17.4v6h-14.3c5.3,7.4,11,13.6,17.2,18.5l-4.2,4.5c-6-4.4-11.3-9.4-16.1-14.9v18.4h-8.8v-18c-4.7,5.2-10,10-16.1,14.5l-4.1-4.3c7.1-5.9,13-12.2,17.5-18.7h-13.7v-5l-7.1,2.7v21.5c0,2.4-.7,4.2-2.1,5.3-1.4,1.1-3.6,1.6-6.6,1.6s-4.2-.1-6.1-.5l-1.4-7.1c1.7.4,3.3.5,4.8.5s1.8-.2,2.3-.6c.5-.4.7-.8.7-1.3v-16.6c-2.2.6-4.5,1.4-6.7,2l-1.9-8.1c3-.5,5.8-1.1,8.6-1.6v-15.2h-7v-6h7v-12.2h8.4v12.2h5.6v6h-5.6v13.5l7-1.7.4,4.5h16.1v-7.4h7.7c-1.2-.9-1.7-2.5-1.7-4.6v-12.3h-14.5v8.4h-7.9v-14.4h0ZM481.1,118.1c6.4-4.2,10.2-9.4,11.3-15.5l8.1,1.8c-2.6,7.8-7.8,13.8-15.5,18.1l-3.9-4.5h0Z"/>
            <path class="cls-1" d="M536.4,107.9h26.3v-5h-22.9v-5.8h22.9v-6.7h8.8v6.7h23v5.8h-23v5h26.6v13.6h-8.5v-7.8h-22.7l3.7,2.1c-3,1.9-5.9,3.7-8.6,5.1l-4.6,2.2h2.4c3.2-.4,6.4-.6,9.8-.8,3.2-1.9,6.8-4.4,10.6-7.2l6.9,5c-6,3.5-11.6,6.6-16.8,9.1-3.5,1.6-8.1,3.5-14,5.5,2.9-.1,5.8-.3,8.6-.5,5.4-.4,10.9-.9,16.5-1.6-1.5-1.2-3.2-2.5-4.8-3.8l6.8-4.3c5.8,5.5,10.6,10.8,14.5,16.1l-4.9,3.2c-1.7-1.9-3.7-4-5.9-6l-14.8,1.7v11.5c0,2.5-.7,4.3-2.2,5.4-1.5,1.1-4.1,1.7-7.7,1.7s-5.3-.2-7.6-.6l-1.3-6.6c2.4.4,4.6.6,6.4.6s2.2-.3,2.6-.9c.4-.5.6-1.4.7-2.8v-7.3l-9.4,1,5.5,5.2c-6,3.4-13.3,6.6-22,9.7l-3.6-4.8c6.8-3,13.2-6.3,19.2-10l-11.4,1-1.8-7.5c5.7-1.5,10.8-3.3,15.5-5.4l4.2-1.9c-4.7.6-9.3,1.2-13.8,1.7l-1.4-6.4c2.8-.9,5.4-1.9,7.8-3s4.5-2.2,6.3-3.3c1.3-.8,2.8-1.8,4.5-3h-17.6v7.8h-8.5v-13.6h-.3ZM581.8,140.6c5.6,3.2,11.8,7.2,18.6,11.9l-4.5,4.1c-7-4-13.8-7.4-20.6-10.4l6.5-5.6Z"/>
            <path class="cls-1" d="M674.5,95.1v62.8h-8.4v-4.5h-29.2v4.5h-8.4v-61.9c-1.5,3.7-3.2,7.4-4.8,11v50.9h-8.4v-35.5c-1.5,2.4-3.1,4.8-4.8,7.2l-2.9-6.5c6-9.9,10.6-20.9,13.5-33.1l8.9,1.8-1.2,3.3h45.7ZM636.9,101.2v46.2h29.2v-46.2h-29.2ZM663.1,123.4v19.4h-22.7v-19.4h7.1v-6.7h-8.9v-5.9h8.9v-7h8.2v7h9v5.9h-9v6.7h7.4ZM647.9,129.1v7.9h7.7v-7.9h-7.7Z"/>
            <path class="cls-1" d="M684.4,152.7c19.4-11.8,29.1-27.5,29.1-47.1v-13.4h9.1v16.3c2.2,10.7,5.3,19,9.1,25,4.2,6.6,11.2,13,20.9,19.4l-4.8,5c-10.5-6.1-18.4-13.3-23.6-21.5-2.1-3.2-3.8-6.8-5.3-10.6-5,12.6-15,23.2-29.9,31.9l-4.5-5h0Z"/>
            <path class="cls-1" d="M820.3,95.7v61.6h-9.1v-5.8h-34.7v5.8h-9.1v-61.6h52.9,0ZM811.3,101.9h-34.7v10.5h34.7v-10.5ZM811.3,118.5h-34.7v9.9h34.7s0-9.9,0-9.9ZM811.3,134.5h-34.7v10.9h34.7v-10.9Z"/>
            <path class="cls-1" d="M851.9,157.9h-8.1v-29.1c-2,4.2-4.2,8.3-6.5,12.2l-3-5.5c4.1-7.8,7.1-16.4,9-25.6h-6.9v-6h7.3v-12.9h8.1v12.9h5.5v6h-5.5v8.8l3.5-2.7c1.7,4.4,3,8.6,3.8,12.7l-3.6,3.1c-.9-3-2.2-6-3.7-9.1v35.3h0ZM871.9,147.3c-4.5,3-9.4,5.5-14.5,7.6l-3.5-4.5c4.2-2.4,8.6-5.5,13.3-9.3l4.6,6.2h0ZM857.2,134.8h44.9v5.8h-18v10.3c0,2.4-.8,4.2-2.3,5.3s-3.9,1.6-7,1.6-4.7-.2-6.8-.6l-1.2-6.3c1.8.3,3.5.4,5,.4s2-.3,2.5-.8.8-1.1.8-1.9v-8h-17.9v-5.8ZM857.9,95.4h43.7v5.8h-13v4.2h11.6v17h-41.1v-17h11.4v-4.2h-12.7v-5.8h0ZM861.3,125.7h37.2v5.5h-37.2v-5.5ZM870.6,117.2v-6.6h-3.8v6.6h3.8ZM877.8,101.2v4.2h3.7v-4.2h-3.7ZM881.5,117.2v-6.6h-3.7v6.6h3.7ZM891.3,141.4c4.8,3.2,9,6.5,12.7,10l-3.9,4.3c-4-3-8.6-5.8-14-8.3l5.2-6h0ZM888.7,110.6v6.6h4v-6.6h-4Z"/>
            <path class="cls-1" d="M949.7,141.6c1.2,1.2,1.7,2.7,1.7,4.6s-.6,3.5-1.7,4.6c-1.2,1.2-2.7,1.7-4.7,1.7s-3.5-.6-4.6-1.7c-1.2-1.2-1.8-2.7-1.8-4.6s.6-3.5,1.8-4.6c1.2-1.2,2.7-1.7,4.6-1.7s3.5.6,4.7,1.7ZM947.8,135.5h-5.6l-3.2-36.5h12.1l-3.2,36.5h-.1Z"/>
          </g>
        </g>
      </g>
    </g>
  </g>
</svg>