<?xml version="1.0" encoding="UTF-8"?>
<svg xmlns="http://www.w3.org/2000/svg" version="1.1" viewBox="0 0 780 75">
  <defs>
    <style>
      .cls-1 {
        fill: #0e62a9;
      }

      .cls-2 {
        fill: #fff799;
      }

      .cls-3 {
        fill: #46a1c6;
      }
    </style>
  </defs>
  <!-- Generator: Adobe Illustrator 28.7.4, SVG Export Plug-In . SVG Version: 1.2.0 Build 166)  -->
  <g>
    <g id="_圖層_1" data-name="圖層_1">
      <g>
        <g>
          <path class="cls-1" d="M496.2,74.7c-.5,0-1,0-1.5-.4l-95-52.9c-1.7,1.8-3.8,2.9-8.1,2.9s-9.6-3.3-11.3-8H-3.4c-1.7,0-3-1.3-3-3v-2c0-1.7,1.3-3,3-3h383.7c1.5-4.4,5.7-7.7,10.5-8h.9c6.6,0,12,5.4,12,12s0,1.4-.2,2.1l94.2,52.3h279.3c1.7,0,3,1.3,3,3v2c0,1.7-1.3,3-3,3h-280.8ZM391.6,8.4c-2.2,0-4,1.8-4,4s1.8,4,4,4,4-1.8,4-4-1.8-4-4-4Z"/>
          <path class="cls-1" d="M391.6,3.4c-4.6,0-8.5,3.5-8.9,8H-3.4v2h386.1c.5,4.5,4.3,8,8.9,8s5.7-1.5,7.3-3.8l.4.2,96.9,53.9h280.8v-2h-280.1l-96.8-53.7h-.2c.5-1.2.8-2.5.8-3.7,0-5-4-9-9-9h0ZM391.6,19.4c-3.9,0-7-3.1-7-7s3.1-7,7-7,7,3.1,7,7-3.1,7-7,7h0Z"/>
        </g>
        <path class="cls-3" d="M391.6,3.3c-4.6,0-8.5,3.5-8.9,8H-3.4v2h386.1c.5,4.5,4.3,8,8.9,8s5.7-1.5,7.3-3.8l.4.2,96.9,53.9h280.8v-2h-280.1l-96.8-53.7h-.2c.5-1.2.8-2.5.8-3.7,0-5-4-9-9-9h0ZM391.6,19.3c-3.9,0-7-3.1-7-7s3.1-7,7-7,7,3.1,7,7-3.1,7-7,7h0Z"/>
        <path class="cls-1" d="M391.6,3.3c-4.6,0-8.5,3.5-8.9,8H-3.4v2h386.1c.5,4.5,4.3,8,8.9,8s5.7-1.5,7.3-3.8l.4.2,96.9,53.9h280.8v-2h-280.1l-96.8-53.7h-.2c.5-1.2.8-2.5.8-3.7,0-5-4-9-9-9h0ZM391.6,19.3c-3.9,0-7-3.1-7-7s3.1-7,7-7,7,3.1,7,7-3.1,7-7,7h0Z"/>
        <path class="cls-2" d="M391.6,3.3c-4.6,0-8.5,3.5-8.9,8H-3.4v2h386.1c.5,4.5,4.3,8,8.9,8s5.7-1.5,7.3-3.8l.4.2,96.9,53.9h280.8v-2h-280.1l-96.8-53.7h-.2c.5-1.2.8-2.5.8-3.7,0-5-4-9-9-9h0ZM391.6,19.3c-3.9,0-7-3.1-7-7s3.1-7,7-7,7,3.1,7,7-3.1,7-7,7h0Z"/>
      </g>
    </g>
  </g>
</svg>