<?xml version="1.0" encoding="UTF-8"?>
<svg xmlns="http://www.w3.org/2000/svg" version="1.1" viewBox="0 0 780 75">
  <defs>
    <style>
      .cls-1 {
        fill: #f7f097;
      }

      .cls-2 {
        fill: #0e62a9;
      }
    </style>
  </defs>
  <!-- Generator: Adobe Illustrator 28.7.4, SVG Export Plug-In . SVG Version: 1.2.0 Build 166)  -->
  <g>
    <g id="_圖層_1" data-name="圖層_1">
      <g id="_圖層_1-2" data-name="_圖層_1">
        <g>
          <path class="cls-2" d="M388.3,74.6c-6.6,0-12-5.4-12-12s0-1.4.2-2.1l-94.2-52.3H3c-1.7,0-3-1.3-3-3v-2C0,1.5,1.3.2,3,.2h280.8c.5,0,1,0,1.5.4l95,52.9c1.7-1.8,3.8-2.9,8.1-2.9s9.6,3.3,11.3,8h383.7c1.2,0,2.3.7,2.8,1.9.3.6.3,1.3,0,1.9v1.3c0,1.7-1.3,3-3,3h-383.7c-1.6,4.8-6,8-11.3,8h0Z"/>
          <path class="cls-2" d="M783.4,61.6h-386.1c-.5-4.5-4.3-8-8.9-8s-5.7,1.5-7.3,3.8l-.4-.2L283.8,3.3H3v2h280.1l96.8,53.7h.2c-.5,1.2-.8,2.5-.8,3.7,0,5,4,9,9,9s8.5-3.5,8.9-8h386.1v-2h0Z"/>
          <path class="cls-1" d="M783.4,61.6h-386.1c-.5-4.5-4.3-8-8.9-8s-5.7,1.5-7.3,3.8l-.4-.2L283.8,3.3H3v2h280.1l96.8,53.7h.2c-.5,1.2-.8,2.5-.8,3.7,0,5,4,9,9,9s8.5-3.5,8.9-8h386.1v-2h0Z"/>
        </g>
      </g>
    </g>
  </g>
</svg>